<?xml version="1.0" encoding="UTF-8" standalone="no"?>
<!-- Created with Inkscape (http://www.inkscape.org/) -->

<svg
   xmlns:dc="http://purl.org/dc/elements/1.1/"
   xmlns:cc="http://creativecommons.org/ns#"
   xmlns:rdf="http://www.w3.org/1999/02/22-rdf-syntax-ns#"
   xmlns:svg="http://www.w3.org/2000/svg"
   xmlns="http://www.w3.org/2000/svg"
   xmlns:xlink="http://www.w3.org/1999/xlink"
   xmlns:sodipodi="http://sodipodi.sourceforge.net/DTD/sodipodi-0.dtd"
   xmlns:inkscape="http://www.inkscape.org/namespaces/inkscape"
   width="16"
   height="16"
   viewBox="0 0 4.2333332 4.2333335"
   version="1.1"
   id="svg384"
   enable-background="new"
   inkscape:version="0.92.3 (2405546, 2018-03-11)"
   sodipodi:docname="text16-base.svg">
  <defs
     id="defs378">
    <radialGradient
       gradientTransform="matrix(5.6949649,0,0,0.99999992,75.334676,75.001496)"
       gradientUnits="userSpaceOnUse"
       xlink:href="#linearGradient3688-464-309-255"
       id="radialGradient4093"
       fy="43.5"
       fx="4.9929786"
       r="2.5"
       cy="43.5"
       cx="4.9929786" />
    <linearGradient
       id="linearGradient3688-464-309-255">
      <stop
         id="stop3094"
         style="stop-color:#181818;stop-opacity:1"
         offset="0" />
      <stop
         id="stop3096"
         style="stop-color:#181818;stop-opacity:0"
         offset="1" />
    </linearGradient>
    <radialGradient
       gradientTransform="matrix(5.6949649,0,0,0.99999992,-52.665305,-162.00149)"
       gradientUnits="userSpaceOnUse"
       xlink:href="#linearGradient3688-464-309-255"
       id="radialGradient4095"
       fy="43.5"
       fx="4.9929786"
       r="2.5"
       cy="43.5"
       cx="4.9929786" />
    <linearGradient
       gradientUnits="userSpaceOnUse"
       xlink:href="#linearGradient3702-501-757-486"
       id="linearGradient4097"
       y2="39.999443"
       x2="25.058096"
       y1="47.027729"
       x1="25.058096"
       gradientTransform="matrix(2.8421052,0,0,0.71428566,-4.2105336,87.430066)" />
    <linearGradient
       id="linearGradient3702-501-757-486">
      <stop
         id="stop3100"
         style="stop-color:#181818;stop-opacity:0"
         offset="0" />
      <stop
         id="stop3102"
         style="stop-color:#181818;stop-opacity:1"
         offset="0.5" />
      <stop
         id="stop3104"
         style="stop-color:#181818;stop-opacity:0"
         offset="1" />
    </linearGradient>
    <linearGradient
       x1="25.132275"
       y1="0.98520643"
       x2="25.132275"
       y2="47.013336"
       id="linearGradient3019-2-2"
       xlink:href="#linearGradient3600"
       gradientUnits="userSpaceOnUse"
       gradientTransform="matrix(0.07559507,0,0,0.08048497,0.30238504,0.06158085)" />
    <linearGradient
       id="linearGradient3600">
      <stop
         id="stop3602"
         style="stop-color:#f4f4f4;stop-opacity:1"
         offset="0" />
      <stop
         id="stop3604"
         style="stop-color:#dbdbdb;stop-opacity:1"
         offset="1" />
    </linearGradient>
    <linearGradient
       inkscape:collect="always"
       xlink:href="#linearGradient3600"
       id="linearGradient1095"
       x1="81"
       y1="16.8125"
       x2="109.375"
       y2="16.8125"
       gradientUnits="userSpaceOnUse"
       gradientTransform="matrix(0.02797354,0,0,0.02797354,0.37997731,0.19115322)" />
    <linearGradient
       gradientTransform="matrix(0.02639506,0,0,0.03011393,0.42605513,0.30987934)"
       inkscape:collect="always"
       xlink:href="#linearGradient3977-3"
       id="linearGradient1059"
       x1="18"
       y1="59.999973"
       x2="110.10006"
       y2="59.999973"
       gradientUnits="userSpaceOnUse" />
    <linearGradient
       id="linearGradient3977-3">
      <stop
         id="stop3979-6"
         style="stop-color:#ffffff;stop-opacity:1"
         offset="0" />
      <stop
         id="stop3981-0"
         style="stop-color:#ffffff;stop-opacity:0.23529412"
         offset="0.00648027" />
      <stop
         id="stop3983-6"
         style="stop-color:#ffffff;stop-opacity:0.15686275"
         offset="0.99423188" />
      <stop
         id="stop3985-2"
         style="stop-color:#ffffff;stop-opacity:0.39215687"
         offset="1" />
    </linearGradient>
    <linearGradient
       inkscape:collect="always"
       xlink:href="#linearGradient3600"
       id="linearGradient1722"
       gradientUnits="userSpaceOnUse"
       gradientTransform="matrix(0.02797354,0,0,0.02797354,0.37997731,0.19115322)"
       x1="81"
       y1="77.06472"
       x2="81"
       y2="190.75049" />
  </defs>
  <sodipodi:namedview
     id="base"
     pagecolor="#ffffff"
     bordercolor="#666666"
     borderopacity="1.0"
     inkscape:pageopacity="0.0"
     inkscape:pageshadow="2"
     inkscape:zoom="24.48"
     inkscape:cx="6.963793"
     inkscape:cy="7.42874"
     inkscape:document-units="px"
     inkscape:current-layer="layer13"
     showgrid="true"
     units="px"
     inkscape:window-width="854"
     inkscape:window-height="653"
     inkscape:window-x="168"
     inkscape:window-y="218"
     inkscape:window-maximized="0" />
  <metadata
     id="metadata381">
    <rdf:RDF>
      <cc:Work
         rdf:about="">
        <dc:format>image/svg+xml</dc:format>
        <dc:type
           rdf:resource="http://purl.org/dc/dcmitype/StillImage" />
        <dc:title></dc:title>
      </cc:Work>
    </rdf:RDF>
  </metadata>
  <g
     inkscape:groupmode="layer"
     id="layer3"
     inkscape:label="Layer 3"
     style="display:inline"
     sodipodi:insensitive="true">
    <path
       style="fill:url(#linearGradient1095);fill-opacity:1;stroke:#000000;stroke-width:0;stroke-linecap:round;stroke-linejoin:round;stroke-miterlimit:4;stroke-dasharray:none;stroke-opacity:1"
       d="M 2.6458338,0.26458377 V 1.0583328 h 0.793749 z"
       id="path1720"
       inkscape:connector-curvature="0" />
    <path
       style="fill:url(#linearGradient1722);fill-opacity:1;stroke:#000000;stroke-width:0;stroke-linecap:round;stroke-linejoin:round;stroke-miterlimit:4;stroke-dasharray:none;stroke-opacity:1"
       d="M 2.645842,1.0583333 H 3.4395835 V 3.96875 H 0.79375003 V 0.26460554 l -3e-8,1.428e-5 1.8520747,-1.46e-5 c 1.73e-5,0.79372808 1.73e-5,0.79372808 1.73e-5,0.79372808 z"
       id="path1087"
       inkscape:connector-curvature="0" />
  </g>
  <g
     inkscape:groupmode="layer"
     id="layer4"
     inkscape:label="Layer 4"
     style="display:inline"
     sodipodi:insensitive="true">
    <path
       style="display:inline;fill:none;stroke:url(#linearGradient1059);stroke-width:0.24123368;stroke-linecap:round;stroke-linejoin:round;stroke-miterlimit:4;stroke-dasharray:none;stroke-opacity:1"
       d="m 3.3189527,1.2886279 -0.00263,2.5595056 H 0.91436685 V 0.38521222 H 2.5244649"
       id="path1048"
       inkscape:connector-curvature="0"
       sodipodi:nodetypes="ccccc" />
  </g>
  <g
     inkscape:groupmode="layer"
     id="layer2"
     inkscape:label="Layer 2"
     style="display:inline"
     sodipodi:insensitive="true">
    <path
       id="path1001"
       style="display:inline;fill:none;stroke:#bebebe;stroke-width:0.25404942;stroke-linecap:round;stroke-linejoin:round;stroke-miterlimit:4;stroke-dasharray:none;stroke-opacity:1;paint-order:normal"
       d="M 2.50825,0.12831369 3.5758548,1.1959167 M 2.50825,0.12831369 0.65619138,0.12808591 v -9.49e-6 3.97823218 H 3.5758548 V 1.1959167 m 0,-3e-7 H 2.50825 V 0.12831369"
       inkscape:connector-curvature="0" />
  </g>
  <g
     inkscape:label="Layer 1"
     inkscape:groupmode="layer"
     id="layer1"
     transform="translate(0,-292.76665)"
     style="display:inline"
     sodipodi:insensitive="true">
    <g
       id="g978"
       style="display:inline;opacity:0.2;fill:#808080;fill-opacity:1;stroke:none;stroke-width:1.03923047"
       transform="matrix(0.03429784,0,0,0.05291667,-0.07839478,290.59699)">
      <rect
         style="fill:#808080;fill-opacity:1;stroke:none;stroke-width:1.48070288"
         id="rect2801"
         y="116.00149"
         x="103.78947"
         height="4.9999995"
         width="14.210526" />
      <rect
         style="fill:#808080;fill-opacity:1;stroke:none;stroke-width:1.48070288"
         id="rect3696"
         transform="scale(-1)"
         y="-121.00149"
         x="-24.210518"
         height="4.9999995"
         width="14.210526" />
      <rect
         style="fill:#808080;fill-opacity:1;stroke:none;stroke-width:1.48070288"
         id="rect3700"
         y="116.00149"
         x="24.210518"
         height="5"
         width="79.578949" />
    </g>
  </g>
  <g
     inkscape:groupmode="layer"
     id="layer13"
     inkscape:label="Layer 5">
    <path
       d="m 3.2902996,2.4842924 -0.0999,-0.061897 c -8.46e-4,-0.00974 -0.0018,-0.019457 -0.00284,-0.029128 l 0.086019,-0.080103 c 0.00874,-0.00815 0.012652,-0.020208 0.010285,-0.031859 -0.0023,-0.01172 -0.010514,-0.021368 -0.021687,-0.025487 L 3.1522591,2.2148571 c -0.00275,-0.00951 -0.00564,-0.018956 -0.0086,-0.028445 l 0.068497,-0.095122 c 0.00699,-0.00967 0.00842,-0.022256 0.00387,-0.033224 -0.00455,-0.010991 -0.014495,-0.018865 -0.026169,-0.020799 L 3.0740272,2.0184251 c -0.00451,-0.00878 -0.00919,-0.017431 -0.013927,-0.025942 l 0.048699,-0.106955 c 0.00498,-0.010878 0.00396,-0.023439 -0.00269,-0.033452 -0.00662,-0.00992 -0.017842,-0.015725 -0.029811,-0.01527 l -0.1176505,0.0041 c -0.00608,-0.0076 -0.012265,-0.015133 -0.018569,-0.022529 l 0.02708,-0.1144646 c 0.00273,-0.011628 -7.02e-4,-0.023894 -0.00917,-0.032314 -0.0084,-0.00842 -0.020595,-0.011902 -0.032314,-0.00917 l -0.1144646,0.02708 c -0.00742,-0.00628 -0.014951,-0.012493 -0.022574,-0.018569 l 0.00412,-0.1176504 c 4.5e-4,-0.011902 -0.00535,-0.023211 -0.015269,-0.029811 -0.00995,-0.00664 -0.022529,-0.00765 -0.033452,-0.00271 l -0.1067272,0.048699 c -0.00862,-0.00473 -0.017272,-0.00942 -0.025942,-0.01395 l -0.018888,-0.11583 c -0.00191,-0.011742 -0.00979,-0.02171 -0.020799,-0.02617 -0.010991,-0.00457 -0.023667,-0.0031 -0.033224,0.00387 l -0.095122,0.068497 c -0.00938,-0.00298 -0.018797,-0.00585 -0.028218,-0.00858 L 2.3741539,1.3673915 c -0.00416,-0.011196 -0.013813,-0.019411 -0.025487,-0.021732 -0.011697,-0.0023 -0.023667,0.00159 -0.031859,0.010286 l -0.080102,0.086019 c -0.00967,-0.00107 -0.019411,-0.00205 -0.029128,-0.00284 L 2.1456809,1.3389968 c -0.00626,-0.010127 -0.01734,-0.016293 -0.029356,-0.016293 -0.012015,0 -0.022984,0.00617 -0.029128,0.016293 l -0.061897,0.1001281 c -0.00974,7.956e-4 -0.01948,0.00177 -0.029128,0.00284 l -0.080102,-0.086019 c -0.00812,-0.00869 -0.020185,-0.012584 -0.031859,-0.010286 -0.011719,0.00234 -0.021368,0.010536 -0.025487,0.021732 l -0.040961,0.1099133 c -0.00951,0.00273 -0.018933,0.00562 -0.028218,0.00858 l -0.095122,-0.068497 c -0.00967,-0.00699 -0.022278,-0.00847 -0.033224,-0.00387 -0.010991,0.00455 -0.018888,0.014519 -0.020799,0.02617 l -0.018888,0.11583 c -0.00874,0.00453 -0.017386,0.00919 -0.025942,0.01395 L 1.4888425,1.5207692 c -0.010855,-0.00496 -0.023439,-0.00394 -0.033452,0.00271 -0.00992,0.0066 -0.015725,0.017909 -0.01527,0.029811 l 0.0041,0.1176505 c -0.0076,0.00608 -0.015133,0.012288 -0.022575,0.018569 L 1.307181,1.6624297 c -0.011629,-0.00271 -0.023894,7.506e-4 -0.032314,0.00917 -0.00847,0.00844 -0.011902,0.020617 -0.00917,0.032314 L 1.29255,1.8183782 c -0.00626,0.00742 -0.012448,0.014928 -0.018524,0.022529 l -0.1176505,-0.0041 c -0.011856,-3.438e-4 -0.023211,0.00535 -0.029811,0.01527 -0.00664,0.00988 -0.00765,0.022529 -0.00271,0.033452 l 0.048699,0.1069549 c -0.00473,0.00858 -0.00942,0.017227 -0.01395,0.025942 l -0.1158297,0.018842 c -0.011765,0.00191 -0.021687,0.00979 -0.02617,0.020799 -0.00455,0.011037 -0.00307,0.023667 0.00387,0.033224 l 0.068497,0.095122 c -0.00298,0.0094 -0.00587,0.018842 -0.0086,0.028445 l -0.10991313,0.040962 c -0.011151,0.00417 -0.019366,0.013813 -0.021687,0.025487 -0.00232,0.011697 0.00157,0.023667 0.010286,0.031859 l 0.086019,0.080103 c -0.00107,0.00967 -0.00202,0.019411 -0.00284,0.029128 l -0.0999,0.061897 c -0.010127,0.00626 -0.016294,0.017318 -0.016294,0.029356 0,0.012038 0.00617,0.022984 0.016294,0.029128 l 0.099901,0.061897 c 8.19e-4,0.00974 0.00177,0.019457 0.00284,0.029128 l -0.086019,0.080103 c -0.00872,0.00812 -0.012607,0.020185 -0.010286,0.031859 0.00232,0.011719 0.010536,0.021345 0.021687,0.025487 l 0.10991323,0.040962 c 0.00273,0.00951 0.00562,0.018956 0.0086,0.028445 l -0.068497,0.095122 c -0.00696,0.00969 -0.00844,0.022278 -0.00387,0.033225 0.00457,0.011037 0.014519,0.018911 0.026397,0.020799 l 0.1158299,0.018842 c 0.00453,0.00878 0.00917,0.017432 0.01395,0.025943 l -0.048699,0.1067273 c -0.00496,0.010856 -0.00394,0.023439 0.00271,0.033452 0.00664,0.00995 0.017955,0.015746 0.029811,0.015269 l 0.1174229,-0.00412 c 0.00612,0.00765 0.012288,0.015133 0.018569,0.022574 l -0.026853,0.1144645 c -0.00273,0.011606 7.056e-4,0.023666 0.00917,0.032086 0.0084,0.00849 0.020617,0.01188 0.032314,0.00915 l 0.1144645,-0.026852 c 0.00744,0.00633 0.014974,0.01247 0.022574,0.018524 l -0.0041,0.1176501 c -4.518e-4,0.011902 0.00535,0.023212 0.01527,0.029811 0.00988,0.00662 0.022529,0.00762 0.033452,0.00267 L 1.5956146,3.457297 c 0.0086,0.00478 0.017249,0.00942 0.025942,0.01395 l 0.018888,0.1158296 c 0.00191,0.011788 0.00979,0.021755 0.020799,0.026397 0.010991,0.00457 0.023667,0.00309 0.033224,-0.00384 l 0.095122,-0.068497 c 0.0094,0.00298 0.018842,0.00589 0.028445,0.00863 l 0.040961,0.1099131 c 0.00416,0.011151 0.013813,0.019411 0.025487,0.021687 0.011697,0.00237 0.023667,-0.00155 0.031859,-0.010285 l 0.080102,-0.086019 c 0.00967,0.00112 0.019411,0.00204 0.029128,0.00291 l 0.061897,0.0999 c 0.00623,0.010082 0.017318,0.016294 0.029128,0.016294 0.011811,0 0.022984,-0.00619 0.029356,-0.016294 l 0.061897,-0.0999 c 0.00974,-8.64e-4 0.019457,-0.0018 0.029128,-0.00291 l 0.080102,0.086019 c 0.00812,0.00874 0.020185,0.012652 0.031859,0.010285 0.01172,-0.0023 0.021368,-0.010535 0.025487,-0.021687 l 0.040962,-0.1099131 c 0.00951,-0.00273 0.018956,-0.00564 0.028445,-0.00863 l 0.095122,0.068497 c 0.00967,0.00694 0.022279,0.00842 0.033224,0.00384 0.011014,-0.00453 0.018888,-0.014519 0.020799,-0.026397 L 2.6118656,3.471247 c 0.00874,-0.00453 0.017386,-0.00924 0.025942,-0.01395 l 0.1067273,0.048699 c 0.010854,0.00496 0.023439,0.00396 0.033452,-0.00267 0.00992,-0.00665 0.015701,-0.017908 0.015269,-0.029811 l -0.0041,-0.1176501 c 0.0076,-0.00608 0.015133,-0.012197 0.022552,-0.018524 l 0.1144647,0.026852 c 0.011628,0.00273 0.023894,-6.66e-4 0.032314,-0.00915 0.00847,-0.00844 0.011902,-0.020571 0.00917,-0.032086 L 2.9408046,3.2084924 c 0.00628,-0.00744 0.01247,-0.014927 0.018524,-0.022574 l 0.1176504,0.00412 c 0.011857,4.5e-4 0.023211,-0.00532 0.029811,-0.015269 0.00665,-0.00992 0.00767,-0.022552 0.00269,-0.033452 L 3.060781,3.0345894 c 0.00476,-0.00862 0.00942,-0.017272 0.013927,-0.025943 l 0.1158302,-0.018842 c 0.011788,-0.00189 0.02171,-0.00976 0.02617,-0.020799 0.00455,-0.010991 0.00312,-0.023667 -0.00387,-0.033224 l -0.068496,-0.095122 c 0.00296,-0.0094 0.00585,-0.018842 0.0086,-0.028445 l 0.1099132,-0.040962 c 0.011174,-0.00419 0.019411,-0.013813 0.021687,-0.025487 0.00237,-0.011697 -0.00155,-0.023667 -0.010285,-0.031859 l -0.08602,-0.080103 c 0.00104,-0.00967 0.002,-0.019411 0.00284,-0.029128 l 0.0999,-0.061897 c 0.010127,-0.00624 0.016294,-0.017317 0.016294,-0.029128 0,-0.011811 -0.00615,-0.022984 -0.01627,-0.029356 z M 2.6212623,3.3149001 c -0.038231,-0.00824 -0.062353,-0.045968 -0.05416,-0.084199 0.00817,-0.038231 0.04574,-0.06258 0.083971,-0.054388 0.038231,0.00817 0.06258,0.045968 0.054388,0.084199 -0.00819,0.038231 -0.04574,0.06258 -0.083971,0.054388 z M 2.5873553,3.0850608 c -0.034817,-0.00746 -0.069179,0.014701 -0.076461,0.049609 l -0.0355,0.1656665 c -0.1094581,0.049609 -0.2321149,0.077372 -0.3595507,0.077372 -0.1310766,0 -0.2548713,-0.028901 -0.3663775,-0.080785 l -0.0355,-0.1656665 c -0.00746,-0.034817 -0.041644,-0.057118 -0.076461,-0.049609 l -0.1463235,0.031404 c -0.02708,-0.02799 -0.052339,-0.057801 -0.075551,-0.089205 H 2.127905 c 0.00806,0 0.013426,-0.00146 0.013426,-0.00878 V 2.7624664 c 0,-0.00733 -0.00537,-0.00878 -0.013426,-0.00878 H 1.9196833 V 2.5941601 h 0.2250606 c 0.020549,0 0.1099132,0.00587 0.1383587,0.1201541 0.00894,0.035044 0.028673,0.1492818 0.042099,0.185919 0.013381,0.040962 0.067814,0.122885 0.1258427,0.122885 h 0.3549993 c 0.00403,0 0.00833,-4.518e-4 0.012857,-0.00127 -0.024577,0.033451 -0.051657,0.065083 -0.080558,0.094666 L 2.5886056,3.0844272 Z M 1.6020044,3.3114866 c -0.038231,0.00824 -0.075779,-0.016112 -0.083971,-0.054388 -0.00817,-0.038231 0.016112,-0.076006 0.054388,-0.084199 0.038231,-0.00817 0.075779,0.01618 0.083971,0.054388 0.00817,0.038231 -0.016134,0.076007 -0.054388,0.084199 z M 1.3312036,2.2169055 c 0.015838,0.035727 -2.718e-4,0.077599 -0.035955,0.093528 -0.035728,0.015861 -0.077372,-2.574e-4 -0.093301,-0.035955 -0.015929,-0.035682 2.718e-4,-0.0776 0.035955,-0.093529 0.035728,-0.015839 0.077372,2.572e-4 0.093301,0.035955 z m -0.083061,0.1966149 0.1524676,-0.067814 c 0.032542,-0.01445 0.047333,-0.052567 0.032769,-0.085109 l -0.031404,-0.071 H 1.5253147 V 2.7448527 H 1.2772703 c -0.021596,-0.076006 -0.033224,-0.1561088 -0.033224,-0.2389418 0,-0.031631 0.00171,-0.062808 0.00498,-0.093529 z M 1.9171799,2.3595874 V 2.1957421 H 2.210737 c 0.015179,0 0.1071826,0.017545 0.1071826,0.086246 0,0.057118 -0.070545,0.077599 -0.1285736,0.077599 H 1.9162696 Z m 1.0672738,0.1474612 c 0,0.021755 -7.92e-4,0.043237 -0.00239,0.064628 h -0.089433 c -0.00894,0 -0.012539,0.00587 -0.012539,0.014633 v 0.040961 c 0,0.096488 -0.054388,0.1176509 -0.102176,0.1228843 -0.045513,0.00512 -0.095805,-0.019024 -0.1019492,-0.046878 C 2.6491145,2.5524022 2.6045115,2.5203152 2.5339667,2.4643345 2.6215787,2.4088095 2.7126043,2.3266589 2.7126043,2.2162904 2.7126043,2.0977297 2.6313643,2.0230888 2.576066,1.986451 2.498239,1.935249 2.4122202,1.925009 2.3890087,1.925009 H 1.4651021 C 1.5904897,1.7852849 1.7609349,1.6860671 1.9520884,1.6496569 l 0.109003,0.114237 c 0.024577,0.025715 0.065311,0.026853 0.091253,0.00209 L 2.2743185,1.6494713 c 0.2548714,0.047561 0.4710569,0.2064003 0.596217,0.4255441 l -0.083516,0.1884229 c -0.014405,0.032541 2.88e-4,0.070772 0.032769,0.085108 l 0.1606601,0.071455 c 0.00278,0.028446 0.00423,0.057346 0.00423,0.086474 z M 2.0605453,1.553557 c 0.028218,-0.02708 0.073048,-0.025942 0.0999,0.0023 0.026853,0.028218 0.025942,0.073048 -0.00234,0.100128 -0.028218,0.02708 -0.073048,0.025942 -0.0999,-0.00232 -0.026852,-0.028218 -0.025942,-0.073048 0.00234,-0.1001281 z m 0.8283319,0.666762 c 0.015815,-0.035728 0.057574,-0.051885 0.093301,-0.035955 0.035727,0.015838 0.051884,0.057801 0.035955,0.093529 C 3.0023162,2.313621 2.9605592,2.329777 2.9248322,2.313848 2.8891042,2.29801 2.8729482,2.256047 2.8888772,2.22032 Z"
       id="path8950"
       inkscape:connector-curvature="0"
       style="stroke-width:0.02275637" />
  </g>
</svg>
