<?xml version="1.0" encoding="UTF-8" standalone="no"?>
<!-- Created with Inkscape (http://www.inkscape.org/) -->

<svg
   xmlns:dc="http://purl.org/dc/elements/1.1/"
   xmlns:cc="http://creativecommons.org/ns#"
   xmlns:rdf="http://www.w3.org/1999/02/22-rdf-syntax-ns#"
   xmlns:svg="http://www.w3.org/2000/svg"
   xmlns="http://www.w3.org/2000/svg"
   xmlns:xlink="http://www.w3.org/1999/xlink"
   xmlns:sodipodi="http://sodipodi.sourceforge.net/DTD/sodipodi-0.dtd"
   xmlns:inkscape="http://www.inkscape.org/namespaces/inkscape"
   width="16"
   height="16"
   viewBox="0 0 4.2333332 4.2333335"
   version="1.1"
   id="svg384"
   enable-background="new"
   inkscape:version="0.92.3 (2405546, 2018-03-11)"
   sodipodi:docname="text16-base.svg">
  <defs
     id="defs378">
    <radialGradient
       gradientTransform="matrix(5.6949649,0,0,0.99999992,75.334676,75.001496)"
       gradientUnits="userSpaceOnUse"
       xlink:href="#linearGradient3688-464-309-255"
       id="radialGradient4093"
       fy="43.5"
       fx="4.9929786"
       r="2.5"
       cy="43.5"
       cx="4.9929786" />
    <linearGradient
       id="linearGradient3688-464-309-255">
      <stop
         id="stop3094"
         style="stop-color:#181818;stop-opacity:1"
         offset="0" />
      <stop
         id="stop3096"
         style="stop-color:#181818;stop-opacity:0"
         offset="1" />
    </linearGradient>
    <radialGradient
       gradientTransform="matrix(5.6949649,0,0,0.99999992,-52.665305,-162.00149)"
       gradientUnits="userSpaceOnUse"
       xlink:href="#linearGradient3688-464-309-255"
       id="radialGradient4095"
       fy="43.5"
       fx="4.9929786"
       r="2.5"
       cy="43.5"
       cx="4.9929786" />
    <linearGradient
       gradientUnits="userSpaceOnUse"
       xlink:href="#linearGradient3702-501-757-486"
       id="linearGradient4097"
       y2="39.999443"
       x2="25.058096"
       y1="47.027729"
       x1="25.058096"
       gradientTransform="matrix(2.8421052,0,0,0.71428566,-4.2105336,87.430066)" />
    <linearGradient
       id="linearGradient3702-501-757-486">
      <stop
         id="stop3100"
         style="stop-color:#181818;stop-opacity:0"
         offset="0" />
      <stop
         id="stop3102"
         style="stop-color:#181818;stop-opacity:1"
         offset="0.5" />
      <stop
         id="stop3104"
         style="stop-color:#181818;stop-opacity:0"
         offset="1" />
    </linearGradient>
    <linearGradient
       x1="25.132275"
       y1="0.98520643"
       x2="25.132275"
       y2="47.013336"
       id="linearGradient3019-2-2"
       xlink:href="#linearGradient3600"
       gradientUnits="userSpaceOnUse"
       gradientTransform="matrix(0.07559507,0,0,0.08048497,0.30238504,0.06158085)" />
    <linearGradient
       id="linearGradient3600">
      <stop
         id="stop3602"
         style="stop-color:#f4f4f4;stop-opacity:1"
         offset="0" />
      <stop
         id="stop3604"
         style="stop-color:#dbdbdb;stop-opacity:1"
         offset="1" />
    </linearGradient>
    <linearGradient
       inkscape:collect="always"
       xlink:href="#linearGradient3600"
       id="linearGradient1095"
       x1="81"
       y1="16.8125"
       x2="109.375"
       y2="16.8125"
       gradientUnits="userSpaceOnUse"
       gradientTransform="matrix(0.02797354,0,0,0.02797354,0.37997731,0.19115322)" />
    <linearGradient
       gradientTransform="matrix(0.02639506,0,0,0.03011393,0.42605513,0.30987934)"
       inkscape:collect="always"
       xlink:href="#linearGradient3977-3"
       id="linearGradient1059"
       x1="18"
       y1="59.999973"
       x2="110.10006"
       y2="59.999973"
       gradientUnits="userSpaceOnUse" />
    <linearGradient
       id="linearGradient3977-3">
      <stop
         id="stop3979-6"
         style="stop-color:#ffffff;stop-opacity:1"
         offset="0" />
      <stop
         id="stop3981-0"
         style="stop-color:#ffffff;stop-opacity:0.23529412"
         offset="0.00648027" />
      <stop
         id="stop3983-6"
         style="stop-color:#ffffff;stop-opacity:0.15686275"
         offset="0.99423188" />
      <stop
         id="stop3985-2"
         style="stop-color:#ffffff;stop-opacity:0.39215687"
         offset="1" />
    </linearGradient>
    <linearGradient
       inkscape:collect="always"
       xlink:href="#linearGradient3600"
       id="linearGradient1722"
       gradientUnits="userSpaceOnUse"
       gradientTransform="matrix(0.02797354,0,0,0.02797354,0.37997731,0.19115322)"
       x1="81"
       y1="77.06472"
       x2="81"
       y2="190.75049" />
  </defs>
  <sodipodi:namedview
     id="base"
     pagecolor="#ffffff"
     bordercolor="#666666"
     borderopacity="1.0"
     inkscape:pageopacity="0.0"
     inkscape:pageshadow="2"
     inkscape:zoom="24.48"
     inkscape:cx="9.2862032"
     inkscape:cy="7.42874"
     inkscape:document-units="px"
     inkscape:current-layer="layer26"
     showgrid="true"
     units="px"
     inkscape:window-width="902"
     inkscape:window-height="650"
     inkscape:window-x="168"
     inkscape:window-y="218"
     inkscape:window-maximized="0" />
  <metadata
     id="metadata381">
    <rdf:RDF>
      <cc:Work
         rdf:about="">
        <dc:format>image/svg+xml</dc:format>
        <dc:type
           rdf:resource="http://purl.org/dc/dcmitype/StillImage" />
        <dc:title></dc:title>
      </cc:Work>
    </rdf:RDF>
  </metadata>
  <g
     inkscape:groupmode="layer"
     id="layer3"
     inkscape:label="Layer 3"
     style="display:inline"
     sodipodi:insensitive="true">
    <path
       style="fill:url(#linearGradient1095);fill-opacity:1;stroke:#000000;stroke-width:0;stroke-linecap:round;stroke-linejoin:round;stroke-miterlimit:4;stroke-dasharray:none;stroke-opacity:1"
       d="M 2.6458338,0.26458377 V 1.0583328 h 0.793749 z"
       id="path1720"
       inkscape:connector-curvature="0" />
    <path
       style="fill:url(#linearGradient1722);fill-opacity:1;stroke:#000000;stroke-width:0;stroke-linecap:round;stroke-linejoin:round;stroke-miterlimit:4;stroke-dasharray:none;stroke-opacity:1"
       d="M 2.645842,1.0583333 H 3.4395835 V 3.96875 H 0.79375003 V 0.26460554 l -3e-8,1.428e-5 1.8520747,-1.46e-5 c 1.73e-5,0.79372808 1.73e-5,0.79372808 1.73e-5,0.79372808 z"
       id="path1087"
       inkscape:connector-curvature="0" />
  </g>
  <g
     inkscape:groupmode="layer"
     id="layer4"
     inkscape:label="Layer 4"
     style="display:inline"
     sodipodi:insensitive="true">
    <path
       style="display:inline;fill:none;stroke:url(#linearGradient1059);stroke-width:0.24123368;stroke-linecap:round;stroke-linejoin:round;stroke-miterlimit:4;stroke-dasharray:none;stroke-opacity:1"
       d="m 3.3189527,1.2886279 -0.00263,2.5595056 H 0.91436685 V 0.38521222 H 2.5244649"
       id="path1048"
       inkscape:connector-curvature="0"
       sodipodi:nodetypes="ccccc" />
  </g>
  <g
     inkscape:groupmode="layer"
     id="layer2"
     inkscape:label="Layer 2"
     style="display:inline"
     sodipodi:insensitive="true">
    <path
       id="path1001"
       style="display:inline;fill:none;stroke:#bebebe;stroke-width:0.25404942;stroke-linecap:round;stroke-linejoin:round;stroke-miterlimit:4;stroke-dasharray:none;stroke-opacity:1;paint-order:normal"
       d="M 2.50825,0.12831369 3.5758548,1.1959167 M 2.50825,0.12831369 0.65619138,0.12808591 v -9.49e-6 3.97823218 H 3.5758548 V 1.1959167 m 0,-3e-7 H 2.50825 V 0.12831369"
       inkscape:connector-curvature="0" />
  </g>
  <g
     inkscape:label="Layer 1"
     inkscape:groupmode="layer"
     id="layer1"
     transform="translate(0,-292.76665)"
     style="display:inline"
     sodipodi:insensitive="true">
    <g
       id="g978"
       style="display:inline;opacity:0.2;fill:#808080;fill-opacity:1;stroke:none;stroke-width:1.03923047"
       transform="matrix(0.03429784,0,0,0.05291667,-0.07839478,290.59699)">
      <rect
         style="fill:#808080;fill-opacity:1;stroke:none;stroke-width:1.48070288"
         id="rect2801"
         y="116.00149"
         x="103.78947"
         height="4.9999995"
         width="14.210526" />
      <rect
         style="fill:#808080;fill-opacity:1;stroke:none;stroke-width:1.48070288"
         id="rect3696"
         transform="scale(-1)"
         y="-121.00149"
         x="-24.210518"
         height="4.9999995"
         width="14.210526" />
      <rect
         style="fill:#808080;fill-opacity:1;stroke:none;stroke-width:1.48070288"
         id="rect3700"
         y="116.00149"
         x="24.210518"
         height="5"
         width="79.578949" />
    </g>
  </g>
  <g
     inkscape:groupmode="layer"
     id="layer26"
     inkscape:label="Layer 5">
    <g
       transform="matrix(0.02700708,0,0,0.02700708,0.38590007,0.52281871)"
       style="display:inline"
       id="g1022">
      <path
         d="m 87.413999,51.466034 c -8.064,0 -15.232,3.36 -21.504,10.08 C 59.712666,68.1167 56.278,76.8527 56.278,85.962033 c 0,13.215999 7.914666,21.653337 20.309332,21.653337 7.84,0 14.784,-2.98667 20.757333,-8.885338 C 104.214,91.860699 108.17133,82.4527 108.17133,72.895367 c 0,-6.496 -1.94133,-11.573333 -5.97333,-15.530666 -3.808002,-3.733334 -9.109335,-5.898667 -14.784001,-5.898667 z m 0.224,3.210667 c 3.882666,0 7.690666,1.792 9.258666,4.479999 1.418667,2.314667 2.538662,6.794667 2.538662,10.304 0,7.690667 -3.434662,18.815999 -8.063995,26.282666 -3.36,5.450664 -8.810666,8.661334 -14.634666,8.661334 -7.168,0 -11.648,-5.152001 -11.648,-13.365334 0,-9.034666 4.330667,-22.623999 9.184,-28.895999 3.957333,-5.077333 8.213333,-7.466666 13.365333,-7.466666 z"
         style="font-style:italic;font-variant:normal;font-weight:normal;font-stretch:normal;font-size:medium;line-height:1.25;font-family:'Century Schoolbook L';-inkscape-font-specification:'Century Schoolbook L, Italic';font-variant-ligatures:normal;font-variant-caps:normal;font-variant-numeric:normal;font-feature-settings:normal;text-align:start;letter-spacing:0px;word-spacing:0px;writing-mode:lr-tb;text-anchor:start;display:inline;fill:#6c5d4f;fill-opacity:1;stroke:none"
         id="path180"
         inkscape:connector-curvature="0" />
      <g
         id="flowRoot72-4"
         style="font-style:italic;font-variant:normal;font-weight:normal;font-stretch:normal;font-size:64px;line-height:1.25;font-family:'Century Schoolbook L';-inkscape-font-specification:'Century Schoolbook L, Italic';font-variant-ligatures:normal;font-variant-caps:normal;font-variant-numeric:normal;font-feature-settings:normal;text-align:start;letter-spacing:0px;word-spacing:0px;writing-mode:lr-tb;text-anchor:start;display:inline;fill:#000000;fill-opacity:1;stroke:none"
         transform="rotate(-180,60.583945,80.009351)"
         aria-label="f" />
      <path
         inkscape:connector-curvature="0"
         d="m 85.824,107 c 12.864,-4.864 22.272,-19.008 22.272,-33.472 0,-8.256 -2.432,-15.36 -7.36,-21.504 l -1.344,0.96 c 2.752,5.504 3.648,9.088 3.648,14.656 0,9.792 -2.752,20.608 -7.232002,28.288 -2.432,4.224 -5.247998,6.72 -10.623998,9.6 z M 78.807,52.024 c -12.927999,4.8 -22.335999,18.944 -22.335999,33.472 0,8.192 2.431998,15.296 7.424,21.504 l 1.344,-0.96 C 62.423,100.536 61.527,96.952 61.527,91.32 c 0,-9.728 2.816001,-20.608 7.232,-28.224 2.495999,-4.224 5.311999,-6.784 10.688001,-9.6 z M 37.372,84.751998 c -0.768,3.04 -3.164,12.496 -4.444,15.504002 -1.536,3.776 -3.264,5.504 -5.632,5.504 -0.832,0 -1.536,-0.448 -1.536,-1.088 0,-0.256 0.064,-0.512 0.448,-1.152 0.448,-0.704 0.576,-1.216 0.576,-1.792 0,-1.6 -1.472,-2.880002 -3.328,-2.880002 -1.984,0 -3.456,1.472002 -3.456,3.392002 0,3.328 3.008,5.76 7.104,5.76 4.032,0 7.552,-2.24 10.048,-6.4 1.856,-3.008002 4.988,-13.904002 5.788,-16.848002 M 47.568,65.952 c 1.536,-6.079998 1.856,-7.231998 3.136,-10.239998 1.536,-3.776 3.264,-5.504 5.632,-5.504 0.832,0 1.536,0.448 1.536,1.088 0,0.256 -0.064,0.512 -0.448,1.152 -0.448,0.704 -0.576,1.216 -0.576,1.792 0,1.6 1.472,2.88 3.328,2.88 1.984,0 3.456,-1.472 3.456,-3.392 0,-3.328 -3.008,-5.76 -7.104,-5.76 -4.032,0 -7.552,2.24 -10.048,6.4 C 44.624,57.376002 43.6,60.064 42,65.952 H 36.432 L 35.6,68.96 h 5.696 L 38.68,79.487999 37.372,84.751998 H 42.94 L 44.248,79.487999 46.864,68.96 h 8.064 l 0.896,-3.008 z"
         style="font-style:italic;font-variant:normal;font-weight:normal;font-stretch:normal;font-size:medium;line-height:1.25;font-family:'Century Schoolbook L';-inkscape-font-specification:'Century Schoolbook L, Italic';font-variant-ligatures:normal;font-variant-caps:normal;font-variant-numeric:normal;font-feature-settings:normal;text-align:start;letter-spacing:0px;word-spacing:0px;writing-mode:lr-tb;text-anchor:start;display:inline;fill:#000000;fill-opacity:1;stroke:none"
         id="path186" />
      <g
         transform="matrix(0.95,0,0,0.95,4.0779686,3.9956381)"
         id="g196">
        <path
           inkscape:connector-curvature="0"
           id="path152"
           style="font-style:normal;font-variant:normal;font-weight:normal;font-stretch:normal;font-size:medium;line-height:1.25;font-family:monospace;-inkscape-font-specification:'monospace, Normal';font-variant-ligatures:normal;font-variant-caps:normal;font-variant-numeric:normal;font-feature-settings:normal;text-align:start;letter-spacing:0px;word-spacing:0px;writing-mode:lr-tb;text-anchor:start;fill:#000000;fill-opacity:1;stroke:none;stroke-width:0.94999999"
           d="m 84.039516,59.592904 q -0.692708,-0.117513 -1.311198,-0.117513 -0.995769,0 -1.608073,0.748372 -0.612304,0.748373 -0.612304,1.904949 v 3.141926 h -1.113282 v -4.335612 q 0,-0.470051 -0.08659,-1.107096 -0.08041,-0.637044 -0.235026,-1.249348 h 1.057617 q 0.247396,0.853515 0.296875,1.546223 h 0.03092 q 0.309245,-0.692708 0.60612,-1.014323 0.296875,-0.3278 0.705079,-0.488607 0.408202,-0.166992 0.995768,-0.166992 0.643229,0 1.274088,0.105143 z" />
        <path
           inkscape:connector-curvature="0"
           id="path154"
           style="font-style:normal;font-variant:normal;font-weight:normal;font-stretch:normal;font-size:medium;line-height:1.25;font-family:monospace;-inkscape-font-specification:'monospace, Normal';font-variant-ligatures:normal;font-variant-caps:normal;font-variant-numeric:normal;font-feature-settings:normal;text-align:start;letter-spacing:0px;word-spacing:0px;writing-mode:lr-tb;text-anchor:start;fill:#000000;fill-opacity:1;stroke:none;stroke-width:0.94999999"
           d="m 78.75143,68.382878 v -0.878255 h 1.051432 l 0.358724,-1.744141 h 0.742187 v 1.744141 h 2.671875 v 0.878255 h -2.671875 v 4.032551 q 0,0.488607 0.259766,0.723633 0.265951,0.235027 0.865885,0.235027 0.828777,0 1.836915,-0.210287 v 0.847331 q -1.045248,0.284505 -2.071941,0.284505 -1.001952,0 -1.502929,-0.420573 -0.500977,-0.426758 -0.500977,-1.342123 v -4.150064 z" />
        <path
           inkscape:connector-curvature="0"
           id="path156"
           style="font-style:normal;font-variant:normal;font-weight:normal;font-stretch:normal;font-size:medium;line-height:1.25;font-family:monospace;-inkscape-font-specification:'monospace, Normal';font-variant-ligatures:normal;font-variant-caps:normal;font-variant-numeric:normal;font-feature-settings:normal;text-align:start;letter-spacing:0px;word-spacing:0px;writing-mode:lr-tb;text-anchor:start;fill:#000000;fill-opacity:1;stroke:none;stroke-width:0.94999999"
           d="m 84.039516,77.642904 q -0.692708,-0.117513 -1.311198,-0.117513 -0.995769,0 -1.608073,0.748373 -0.612304,0.748372 -0.612304,1.904948 v 3.141926 h -1.113282 v -4.335612 q 0,-0.470051 -0.08659,-1.107096 -0.08041,-0.637044 -0.235026,-1.249348 h 1.057617 q 0.247396,0.853515 0.296875,1.546223 h 0.03092 q 0.309245,-0.692708 0.60612,-1.014322 0.296875,-0.3278 0.705079,-0.488607 0.408202,-0.166993 0.995768,-0.166993 0.643229,0 1.274088,0.105144 z" />
        <path
           inkscape:connector-curvature="0"
           id="path158"
           style="font-style:normal;font-variant:normal;font-weight:normal;font-stretch:normal;font-size:medium;line-height:1.25;font-family:monospace;-inkscape-font-specification:'monospace, Normal';font-variant-ligatures:normal;font-variant-caps:normal;font-variant-numeric:normal;font-feature-settings:normal;text-align:start;letter-spacing:0px;word-spacing:0px;writing-mode:lr-tb;text-anchor:start;fill:#000000;fill-opacity:1;stroke:none;stroke-width:0.94999999"
           d="m 84.38587,91.53544 q 0.160807,0 0.364908,-0.04332 v 0.692712 q -0.420572,0.09896 -0.859699,0.09896 -0.61849,0 -0.902995,-0.321622 -0.278321,-0.327798 -0.315431,-1.0205 h -0.03711 q -0.402018,0.748372 -0.952473,1.07617 -0.544272,0.327797 -1.348308,0.327797 -0.977214,0 -1.472005,-0.531905 -0.494791,-0.531895 -0.494791,-1.459627 0,-2.158533 2.807942,-2.189456 l 1.459635,-0.0247 v -0.364914 q 0,-0.810217 -0.327799,-1.162762 -0.327799,-0.35872 -1.045248,-0.35872 -0.729818,0 -1.051432,0.259768 -0.321614,0.259759 -0.383463,0.804033 L 78.664842,87.21219 q 0.284505,-1.805988 2.61621,-1.805988 1.236979,0 1.855469,0.581381 0.624675,0.575196 0.624675,1.669919 v 2.882167 q 0,0.494789 0.129883,0.748372 0.129882,0.247399 0.494791,0.247399 z M 80.619268,91.4983 q 0.59375,0 1.051433,-0.284506 0.457682,-0.284506 0.711263,-0.760741 0.25358,-0.476235 0.25358,-0.983392 v -0.550459 l -1.17513,0.0247 q -0.729817,0.01235 -1.113281,0.160807 -0.383464,0.148437 -0.599935,0.457681 -0.210287,0.30306 -0.210287,0.810227 0,0.507157 0.272136,0.816401 0.27832,0.309244 0.810221,0.309244 z" />
        <path
           inkscape:connector-curvature="0"
           id="path160"
           style="font-style:normal;font-variant:normal;font-weight:normal;font-stretch:normal;font-size:medium;line-height:1.25;font-family:monospace;-inkscape-font-specification:'monospace, Normal';font-variant-ligatures:normal;font-variant-caps:normal;font-variant-numeric:normal;font-feature-settings:normal;text-align:start;letter-spacing:0px;word-spacing:0px;writing-mode:lr-tb;text-anchor:start;fill:#000000;fill-opacity:1;stroke:none;stroke-width:0.94999999"
           d="m 82.944789,101.37064 v -4.298505 q 0,-0.841149 -0.327799,-1.249354 -0.321615,-0.408206 -1.032878,-0.408206 -0.766926,0 -1.261719,0.562828 -0.488607,0.556643 -0.488607,1.515297 v 3.87794 h -1.113281 v -5.263353 q 0,-1.168947 -0.03711,-1.428705 h 1.051433 q 0.0062,0.03097 0.01237,0.166991 0.0062,0.136068 0.01237,0.315428 0.01237,0.173176 0.02474,0.66178 h 0.01855 q 0.649414,-1.267899 2.139974,-1.267899 1.069987,0 1.595703,0.581381 0.525716,0.575187 0.525716,1.775066 v 4.459311 z" />
      </g>
    </g>
  </g>
</svg>
