<?xml version="1.0" encoding="UTF-8" standalone="no"?>
<!-- Created with Inkscape (http://www.inkscape.org/) -->

<svg
   xmlns:dc="http://purl.org/dc/elements/1.1/"
   xmlns:cc="http://creativecommons.org/ns#"
   xmlns:rdf="http://www.w3.org/1999/02/22-rdf-syntax-ns#"
   xmlns:svg="http://www.w3.org/2000/svg"
   xmlns="http://www.w3.org/2000/svg"
   xmlns:xlink="http://www.w3.org/1999/xlink"
   xmlns:sodipodi="http://sodipodi.sourceforge.net/DTD/sodipodi-0.dtd"
   xmlns:inkscape="http://www.inkscape.org/namespaces/inkscape"
   width="16"
   height="16"
   viewBox="0 0 4.2333332 4.2333335"
   version="1.1"
   id="svg384"
   enable-background="new"
   inkscape:version="0.92.3 (2405546, 2018-03-11)"
   sodipodi:docname="text16-base.svg">
  <defs
     id="defs378">
    <radialGradient
       gradientTransform="matrix(5.6949649,0,0,0.99999992,75.334676,75.001496)"
       gradientUnits="userSpaceOnUse"
       xlink:href="#linearGradient3688-464-309-255"
       id="radialGradient4093"
       fy="43.5"
       fx="4.9929786"
       r="2.5"
       cy="43.5"
       cx="4.9929786" />
    <linearGradient
       id="linearGradient3688-464-309-255">
      <stop
         id="stop3094"
         style="stop-color:#181818;stop-opacity:1"
         offset="0" />
      <stop
         id="stop3096"
         style="stop-color:#181818;stop-opacity:0"
         offset="1" />
    </linearGradient>
    <radialGradient
       gradientTransform="matrix(5.6949649,0,0,0.99999992,-52.665305,-162.00149)"
       gradientUnits="userSpaceOnUse"
       xlink:href="#linearGradient3688-464-309-255"
       id="radialGradient4095"
       fy="43.5"
       fx="4.9929786"
       r="2.5"
       cy="43.5"
       cx="4.9929786" />
    <linearGradient
       gradientUnits="userSpaceOnUse"
       xlink:href="#linearGradient3702-501-757-486"
       id="linearGradient4097"
       y2="39.999443"
       x2="25.058096"
       y1="47.027729"
       x1="25.058096"
       gradientTransform="matrix(2.8421052,0,0,0.71428566,-4.2105336,87.430066)" />
    <linearGradient
       id="linearGradient3702-501-757-486">
      <stop
         id="stop3100"
         style="stop-color:#181818;stop-opacity:0"
         offset="0" />
      <stop
         id="stop3102"
         style="stop-color:#181818;stop-opacity:1"
         offset="0.5" />
      <stop
         id="stop3104"
         style="stop-color:#181818;stop-opacity:0"
         offset="1" />
    </linearGradient>
    <linearGradient
       x1="25.132275"
       y1="0.98520643"
       x2="25.132275"
       y2="47.013336"
       id="linearGradient3019-2-2"
       xlink:href="#linearGradient3600"
       gradientUnits="userSpaceOnUse"
       gradientTransform="matrix(0.07559507,0,0,0.08048497,0.30238504,0.06158085)" />
    <linearGradient
       id="linearGradient3600">
      <stop
         id="stop3602"
         style="stop-color:#f4f4f4;stop-opacity:1"
         offset="0" />
      <stop
         id="stop3604"
         style="stop-color:#dbdbdb;stop-opacity:1"
         offset="1" />
    </linearGradient>
    <linearGradient
       inkscape:collect="always"
       xlink:href="#linearGradient3600"
       id="linearGradient1095"
       x1="81"
       y1="16.8125"
       x2="109.375"
       y2="16.8125"
       gradientUnits="userSpaceOnUse"
       gradientTransform="matrix(0.02797354,0,0,0.02797354,0.37997731,0.19115322)" />
    <linearGradient
       gradientTransform="matrix(0.02639506,0,0,0.03011393,0.42605513,0.30987934)"
       inkscape:collect="always"
       xlink:href="#linearGradient3977-3"
       id="linearGradient1059"
       x1="18"
       y1="59.999973"
       x2="110.10006"
       y2="59.999973"
       gradientUnits="userSpaceOnUse" />
    <linearGradient
       id="linearGradient3977-3">
      <stop
         id="stop3979-6"
         style="stop-color:#ffffff;stop-opacity:1"
         offset="0" />
      <stop
         id="stop3981-0"
         style="stop-color:#ffffff;stop-opacity:0.23529412"
         offset="0.00648027" />
      <stop
         id="stop3983-6"
         style="stop-color:#ffffff;stop-opacity:0.15686275"
         offset="0.99423188" />
      <stop
         id="stop3985-2"
         style="stop-color:#ffffff;stop-opacity:0.39215687"
         offset="1" />
    </linearGradient>
    <linearGradient
       inkscape:collect="always"
       xlink:href="#linearGradient3600"
       id="linearGradient1722"
       gradientUnits="userSpaceOnUse"
       gradientTransform="matrix(0.02797354,0,0,0.02797354,0.37997731,0.19115322)"
       x1="81"
       y1="77.06472"
       x2="81"
       y2="190.75049" />
  </defs>
  <sodipodi:namedview
     id="base"
     pagecolor="#ffffff"
     bordercolor="#666666"
     borderopacity="1.0"
     inkscape:pageopacity="0.0"
     inkscape:pageshadow="2"
     inkscape:zoom="24.48"
     inkscape:cx="9.2862032"
     inkscape:cy="7.42874"
     inkscape:document-units="px"
     inkscape:current-layer="layer62"
     showgrid="true"
     units="px"
     inkscape:window-width="902"
     inkscape:window-height="650"
     inkscape:window-x="168"
     inkscape:window-y="218"
     inkscape:window-maximized="0" />
  <metadata
     id="metadata381">
    <rdf:RDF>
      <cc:Work
         rdf:about="">
        <dc:format>image/svg+xml</dc:format>
        <dc:type
           rdf:resource="http://purl.org/dc/dcmitype/StillImage" />
        <dc:title></dc:title>
      </cc:Work>
    </rdf:RDF>
  </metadata>
  <g
     inkscape:groupmode="layer"
     id="layer3"
     inkscape:label="Layer 3"
     style="display:inline"
     sodipodi:insensitive="true">
    <path
       style="fill:url(#linearGradient1095);fill-opacity:1;stroke:#000000;stroke-width:0;stroke-linecap:round;stroke-linejoin:round;stroke-miterlimit:4;stroke-dasharray:none;stroke-opacity:1"
       d="M 2.6458338,0.26458377 V 1.0583328 h 0.793749 z"
       id="path1720"
       inkscape:connector-curvature="0" />
    <path
       style="fill:url(#linearGradient1722);fill-opacity:1;stroke:#000000;stroke-width:0;stroke-linecap:round;stroke-linejoin:round;stroke-miterlimit:4;stroke-dasharray:none;stroke-opacity:1"
       d="M 2.645842,1.0583333 H 3.4395835 V 3.96875 H 0.79375003 V 0.26460554 l -3e-8,1.428e-5 1.8520747,-1.46e-5 c 1.73e-5,0.79372808 1.73e-5,0.79372808 1.73e-5,0.79372808 z"
       id="path1087"
       inkscape:connector-curvature="0" />
  </g>
  <g
     inkscape:groupmode="layer"
     id="layer4"
     inkscape:label="Layer 4"
     style="display:inline"
     sodipodi:insensitive="true">
    <path
       style="display:inline;fill:none;stroke:url(#linearGradient1059);stroke-width:0.24123368;stroke-linecap:round;stroke-linejoin:round;stroke-miterlimit:4;stroke-dasharray:none;stroke-opacity:1"
       d="m 3.3189527,1.2886279 -0.00263,2.5595056 H 0.91436685 V 0.38521222 H 2.5244649"
       id="path1048"
       inkscape:connector-curvature="0"
       sodipodi:nodetypes="ccccc" />
  </g>
  <g
     inkscape:groupmode="layer"
     id="layer2"
     inkscape:label="Layer 2"
     style="display:inline"
     sodipodi:insensitive="true">
    <path
       id="path1001"
       style="display:inline;fill:none;stroke:#bebebe;stroke-width:0.25404942;stroke-linecap:round;stroke-linejoin:round;stroke-miterlimit:4;stroke-dasharray:none;stroke-opacity:1;paint-order:normal"
       d="M 2.50825,0.12831369 3.5758548,1.1959167 M 2.50825,0.12831369 0.65619138,0.12808591 v -9.49e-6 3.97823218 H 3.5758548 V 1.1959167 m 0,-3e-7 H 2.50825 V 0.12831369"
       inkscape:connector-curvature="0" />
  </g>
  <g
     inkscape:label="Layer 1"
     inkscape:groupmode="layer"
     id="layer1"
     transform="translate(0,-292.76665)"
     style="display:inline"
     sodipodi:insensitive="true">
    <g
       id="g978"
       style="display:inline;opacity:0.2;fill:#808080;fill-opacity:1;stroke:none;stroke-width:1.03923047"
       transform="matrix(0.03429784,0,0,0.05291667,-0.07839478,290.59699)">
      <rect
         style="fill:#808080;fill-opacity:1;stroke:none;stroke-width:1.48070288"
         id="rect2801"
         y="116.00149"
         x="103.78947"
         height="4.9999995"
         width="14.210526" />
      <rect
         style="fill:#808080;fill-opacity:1;stroke:none;stroke-width:1.48070288"
         id="rect3696"
         transform="scale(-1)"
         y="-121.00149"
         x="-24.210518"
         height="4.9999995"
         width="14.210526" />
      <rect
         style="fill:#808080;fill-opacity:1;stroke:none;stroke-width:1.48070288"
         id="rect3700"
         y="116.00149"
         x="24.210518"
         height="5"
         width="79.578949" />
    </g>
  </g>
  <g
     inkscape:groupmode="layer"
     id="layer62"
     inkscape:label="Layer 5">
    <g
       transform="matrix(0.01829444,0,0,0.01829444,0.27533131,-0.02789908)"
       style="display:inline"
       id="g138">
      <path
         sodipodi:nodetypes="ccsscccccscsccccsscccccscscc"
         inkscape:connector-curvature="0"
         d="m 81.09192,156.8976 c 0,0 1.811929,16.89358 18.57372,17.36267 16.76183,0.46905 22.47035,-12.67014 22.47035,-31.44051 0,-18.77038 -6.61382,-33.78748 -22.92281,-33.78748 -16.309331,0 -18.12126,18.77037 -18.12126,18.77037 l -31.258896,-1.87679 c 0,0 -1.840508,-16.95281 11.240207,-29.886781 13.081076,-12.933024 29.136875,-15.046021 40.349439,-14.958196 11.21259,0.08934 25.05959,-0.175415 40.09333,15.222023 15.03372,15.397694 16.984,30.355934 16.984,45.049644 0,14.6943 0.0494,34.16005 -17.826,48.92126 C 128.5255,200.30434 115.61,204 103.29284,204 51.872525,204 48.419046,156.57455 48.419046,156.57455 Z m 41.41615,-28.71688 c 0,0 -1.81192,-16.89357 -18.57371,-17.36269 -16.761818,-0.46904 -25.370288,12.67017 -25.370288,31.44052 0,18.77037 9.513767,33.78748 25.822748,33.78748 16.30933,0 18.12125,-18.77035 18.12125,-18.77035 l 31.25891,1.87678 c 0,0 1.8405,16.9528 -11.24022,29.88678 -13.08106,12.93303 -29.13687,15.04603 -40.34943,14.95819 -11.212582,-0.0893 -26.758676,0.17542 -41.792406,-15.22201 C 45.351202,173.37774 42.8,158.41948 42.8,143.72579 c 0,-14.69433 2.850973,-34.16006 20.726342,-48.921286 12.148495,-10.030521 24.463659,-13.726185 36.780818,-13.726185 51.42031,0 54.8738,47.425451 54.8738,47.425451 z"
         style="fill:#999999;stroke-width:0.33270758"
         id="path3-6" />
      <g
         id="flowRoot113"
         style="font-style:normal;font-variant:normal;font-weight:normal;font-stretch:normal;font-size:96px;line-height:1.25;font-family:'DejaVu Sans';-inkscape-font-specification:'DejaVu Sans, Normal';font-variant-ligatures:normal;font-variant-caps:normal;font-variant-numeric:normal;font-feature-settings:normal;text-align:start;letter-spacing:0px;word-spacing:0px;writing-mode:lr-tb;text-anchor:start;fill:#808080;fill-opacity:1;stroke:none"
         transform="matrix(0.26458333,0,0,0.26458333,-31.00061,23.999899)"
         aria-label="BJ">
        <path
           inkscape:connector-curvature="0"
           id="path123"
           d="m 614.72461,447.41016 v 25.64062 h 15.1875 q 7.64062,0 11.29687,-3.14062 3.70313,-3.1875 3.70313,-9.70313 0,-6.5625 -3.70313,-9.65625 -3.65625,-3.14062 -11.29687,-3.14062 z m 0,-28.78125 v 21.09375 h 14.01562 q 6.9375,0 10.3125,-2.57813 3.42188,-2.625 3.42188,-7.96875 0,-5.29687 -3.42188,-7.92187 -3.375,-2.625 -10.3125,-2.625 z m -9.46875,-7.78125 h 24.1875 q 10.82812,0 16.6875,4.5 5.85937,4.5 5.85937,12.79687 0,6.42188 -3,10.21875 -3,3.79688 -8.8125,4.73438 6.98438,1.5 10.82813,6.28125 3.89062,4.73437 3.89062,11.85937 0,9.375 -6.375,14.48438 -6.375,5.10937 -18.14062,5.10937 h -25.125 z" />
        <path
           inkscape:connector-curvature="0"
           id="path125"
           d="m 671.06836,410.84766 h 9.46875 v 65.10937 q 0,12.65625 -4.82813,18.375 -4.78125,5.71875 -15.42187,5.71875 h -3.60938 v -7.96875 h 2.95313 q 6.28125,0 8.85937,-3.51562 2.57813,-3.51563 2.57813,-12.60938 z" />
      </g>
      <path
         style="fill:#a8b9cc;stroke-width:0.29605335"
         inkscape:connector-curvature="0"
         id="path3-3"
         d="m 120.92668,129.53369 c 0,0 -1.61231,-15.03242 -16.52747,-15.44984 -14.915169,-0.41737 -22.575249,11.27429 -22.575249,27.97673 0,16.70245 8.46564,30.06513 22.977879,30.06513 14.51253,0 16.12484,-16.70244 16.12484,-16.70244 l 27.81512,1.67002 c 0,0 1.63774,15.08512 -10.00188,26.59417 -11.63994,11.5082 -25.92688,13.38841 -35.90417,13.31026 -9.977289,-0.0795 -23.810679,0.15609 -37.188149,-13.54502 C 52.270137,169.75137 50,156.44106 50,143.36616 50,130.29071 52.536882,112.9695 68.442931,99.834518 79.253031,90.909055 90.211441,87.620541 101.17163,87.620541 146.92699,87.620541 150,129.82115 150,129.82115 Z" />
    </g>
  </g>
</svg>
