<?xml version="1.0" encoding="UTF-8" standalone="no"?>
<!-- Created with Inkscape (http://www.inkscape.org/) -->

<svg
   xmlns:dc="http://purl.org/dc/elements/1.1/"
   xmlns:cc="http://creativecommons.org/ns#"
   xmlns:rdf="http://www.w3.org/1999/02/22-rdf-syntax-ns#"
   xmlns:svg="http://www.w3.org/2000/svg"
   xmlns="http://www.w3.org/2000/svg"
   xmlns:xlink="http://www.w3.org/1999/xlink"
   xmlns:sodipodi="http://sodipodi.sourceforge.net/DTD/sodipodi-0.dtd"
   xmlns:inkscape="http://www.inkscape.org/namespaces/inkscape"
   width="16"
   height="16"
   viewBox="0 0 4.2333332 4.2333335"
   version="1.1"
   id="svg384"
   enable-background="new"
   inkscape:version="0.92.3 (2405546, 2018-03-11)"
   sodipodi:docname="text16-base.svg">
  <defs
     id="defs378">
    <radialGradient
       gradientTransform="matrix(5.6949649,0,0,0.99999992,75.334676,75.001496)"
       gradientUnits="userSpaceOnUse"
       xlink:href="#linearGradient3688-464-309-255"
       id="radialGradient4093"
       fy="43.5"
       fx="4.9929786"
       r="2.5"
       cy="43.5"
       cx="4.9929786" />
    <linearGradient
       id="linearGradient3688-464-309-255">
      <stop
         id="stop3094"
         style="stop-color:#181818;stop-opacity:1"
         offset="0" />
      <stop
         id="stop3096"
         style="stop-color:#181818;stop-opacity:0"
         offset="1" />
    </linearGradient>
    <radialGradient
       gradientTransform="matrix(5.6949649,0,0,0.99999992,-52.665305,-162.00149)"
       gradientUnits="userSpaceOnUse"
       xlink:href="#linearGradient3688-464-309-255"
       id="radialGradient4095"
       fy="43.5"
       fx="4.9929786"
       r="2.5"
       cy="43.5"
       cx="4.9929786" />
    <linearGradient
       gradientUnits="userSpaceOnUse"
       xlink:href="#linearGradient3702-501-757-486"
       id="linearGradient4097"
       y2="39.999443"
       x2="25.058096"
       y1="47.027729"
       x1="25.058096"
       gradientTransform="matrix(2.8421052,0,0,0.71428566,-4.2105336,87.430066)" />
    <linearGradient
       id="linearGradient3702-501-757-486">
      <stop
         id="stop3100"
         style="stop-color:#181818;stop-opacity:0"
         offset="0" />
      <stop
         id="stop3102"
         style="stop-color:#181818;stop-opacity:1"
         offset="0.5" />
      <stop
         id="stop3104"
         style="stop-color:#181818;stop-opacity:0"
         offset="1" />
    </linearGradient>
    <linearGradient
       x1="25.132275"
       y1="0.98520643"
       x2="25.132275"
       y2="47.013336"
       id="linearGradient3019-2-2"
       xlink:href="#linearGradient3600"
       gradientUnits="userSpaceOnUse"
       gradientTransform="matrix(0.07559507,0,0,0.08048497,0.30238504,0.06158085)" />
    <linearGradient
       id="linearGradient3600">
      <stop
         id="stop3602"
         style="stop-color:#f4f4f4;stop-opacity:1"
         offset="0" />
      <stop
         id="stop3604"
         style="stop-color:#dbdbdb;stop-opacity:1"
         offset="1" />
    </linearGradient>
    <linearGradient
       inkscape:collect="always"
       xlink:href="#linearGradient3600"
       id="linearGradient1095"
       x1="81"
       y1="16.8125"
       x2="109.375"
       y2="16.8125"
       gradientUnits="userSpaceOnUse"
       gradientTransform="matrix(0.02797354,0,0,0.02797354,0.37997731,0.19115322)" />
    <linearGradient
       gradientTransform="matrix(0.02639506,0,0,0.03011393,0.42605513,0.30987934)"
       inkscape:collect="always"
       xlink:href="#linearGradient3977-3"
       id="linearGradient1059"
       x1="18"
       y1="59.999973"
       x2="110.10006"
       y2="59.999973"
       gradientUnits="userSpaceOnUse" />
    <linearGradient
       id="linearGradient3977-3">
      <stop
         id="stop3979-6"
         style="stop-color:#ffffff;stop-opacity:1"
         offset="0" />
      <stop
         id="stop3981-0"
         style="stop-color:#ffffff;stop-opacity:0.23529412"
         offset="0.00648027" />
      <stop
         id="stop3983-6"
         style="stop-color:#ffffff;stop-opacity:0.15686275"
         offset="0.99423188" />
      <stop
         id="stop3985-2"
         style="stop-color:#ffffff;stop-opacity:0.39215687"
         offset="1" />
    </linearGradient>
    <linearGradient
       inkscape:collect="always"
       xlink:href="#linearGradient3600"
       id="linearGradient1722"
       gradientUnits="userSpaceOnUse"
       gradientTransform="matrix(0.02797354,0,0,0.02797354,0.37997731,0.19115322)"
       x1="81"
       y1="77.06472"
       x2="81"
       y2="190.75049" />
  </defs>
  <sodipodi:namedview
     id="base"
     pagecolor="#ffffff"
     bordercolor="#666666"
     borderopacity="1.0"
     inkscape:pageopacity="0.0"
     inkscape:pageshadow="2"
     inkscape:zoom="24.48"
     inkscape:cx="6.963793"
     inkscape:cy="7.42874"
     inkscape:document-units="px"
     inkscape:current-layer="layer29"
     showgrid="true"
     units="px"
     inkscape:window-width="854"
     inkscape:window-height="653"
     inkscape:window-x="168"
     inkscape:window-y="218"
     inkscape:window-maximized="0" />
  <metadata
     id="metadata381">
    <rdf:RDF>
      <cc:Work
         rdf:about="">
        <dc:format>image/svg+xml</dc:format>
        <dc:type
           rdf:resource="http://purl.org/dc/dcmitype/StillImage" />
        <dc:title></dc:title>
      </cc:Work>
    </rdf:RDF>
  </metadata>
  <g
     inkscape:groupmode="layer"
     id="layer3"
     inkscape:label="Layer 3"
     style="display:inline"
     sodipodi:insensitive="true">
    <path
       style="fill:url(#linearGradient1095);fill-opacity:1;stroke:#000000;stroke-width:0;stroke-linecap:round;stroke-linejoin:round;stroke-miterlimit:4;stroke-dasharray:none;stroke-opacity:1"
       d="M 2.6458338,0.26458377 V 1.0583328 h 0.793749 z"
       id="path1720"
       inkscape:connector-curvature="0" />
    <path
       style="fill:url(#linearGradient1722);fill-opacity:1;stroke:#000000;stroke-width:0;stroke-linecap:round;stroke-linejoin:round;stroke-miterlimit:4;stroke-dasharray:none;stroke-opacity:1"
       d="M 2.645842,1.0583333 H 3.4395835 V 3.96875 H 0.79375003 V 0.26460554 l -3e-8,1.428e-5 1.8520747,-1.46e-5 c 1.73e-5,0.79372808 1.73e-5,0.79372808 1.73e-5,0.79372808 z"
       id="path1087"
       inkscape:connector-curvature="0" />
  </g>
  <g
     inkscape:groupmode="layer"
     id="layer4"
     inkscape:label="Layer 4"
     style="display:inline"
     sodipodi:insensitive="true">
    <path
       style="display:inline;fill:none;stroke:url(#linearGradient1059);stroke-width:0.24123368;stroke-linecap:round;stroke-linejoin:round;stroke-miterlimit:4;stroke-dasharray:none;stroke-opacity:1"
       d="m 3.3189527,1.2886279 -0.00263,2.5595056 H 0.91436685 V 0.38521222 H 2.5244649"
       id="path1048"
       inkscape:connector-curvature="0"
       sodipodi:nodetypes="ccccc" />
  </g>
  <g
     inkscape:groupmode="layer"
     id="layer2"
     inkscape:label="Layer 2"
     style="display:inline"
     sodipodi:insensitive="true">
    <path
       id="path1001"
       style="display:inline;fill:none;stroke:#bebebe;stroke-width:0.25404942;stroke-linecap:round;stroke-linejoin:round;stroke-miterlimit:4;stroke-dasharray:none;stroke-opacity:1;paint-order:normal"
       d="M 2.50825,0.12831369 3.5758548,1.1959167 M 2.50825,0.12831369 0.65619138,0.12808591 v -9.49e-6 3.97823218 H 3.5758548 V 1.1959167 m 0,-3e-7 H 2.50825 V 0.12831369"
       inkscape:connector-curvature="0" />
  </g>
  <g
     inkscape:label="Layer 1"
     inkscape:groupmode="layer"
     id="layer1"
     transform="translate(0,-292.76665)"
     style="display:inline"
     sodipodi:insensitive="true">
    <g
       id="g978"
       style="display:inline;opacity:0.2;fill:#808080;fill-opacity:1;stroke:none;stroke-width:1.03923047"
       transform="matrix(0.03429784,0,0,0.05291667,-0.07839478,290.59699)">
      <rect
         style="fill:#808080;fill-opacity:1;stroke:none;stroke-width:1.48070288"
         id="rect2801"
         y="116.00149"
         x="103.78947"
         height="4.9999995"
         width="14.210526" />
      <rect
         style="fill:#808080;fill-opacity:1;stroke:none;stroke-width:1.48070288"
         id="rect3696"
         transform="scale(-1)"
         y="-121.00149"
         x="-24.210518"
         height="4.9999995"
         width="14.210526" />
      <rect
         style="fill:#808080;fill-opacity:1;stroke:none;stroke-width:1.48070288"
         id="rect3700"
         y="116.00149"
         x="24.210518"
         height="5"
         width="79.578949" />
    </g>
  </g>
  <g
     inkscape:groupmode="layer"
     id="layer29"
     inkscape:label="Layer 5">
    <g
       style="display:inline"
       id="g2686"
       transform="matrix(0.03367762,0,0,0.03367762,-0.58528895,-3.1991169)">
      <path
         inkscape:connector-curvature="0"
         d="m 44.999999,154.9666 h 5.233789 l 5.000001,5 H 50 v 0 m -5.000001,-5 5.000001,5 L 64.138672,197 59.138671,192 Z"
         style="display:inline;fill:#338000;fill-opacity:1;stroke:#00d400;stroke-width:0.26458332px;stroke-linecap:butt;stroke-linejoin:miter;stroke-opacity:1"
         id="path1953" />
      <path
         inkscape:connector-curvature="0"
         id="path1959"
         d="m 61.966405,186.14609 c 3.919141,-10.39316 7.838281,-20.78633 11.757422,-31.17949 1.666666,1.66667 3.333332,3.33333 4.999998,5 -3.91914,10.39316 -7.838279,20.78633 -11.757419,31.17949 -1.666667,-1.66667 -3.333334,-3.33333 -5.000001,-5 z m 16.75742,-26.17949 c -1.666666,-1.66667 -3.333332,-3.33333 -4.999998,-5 1.736328,0 3.472656,0 5.208984,0 1.666666,1.66667 3.333332,3.33333 4.999998,5 -1.736328,0 -3.472656,0 -5.208984,0 z"
         style="display:inline;fill:#338000;fill-opacity:1;stroke:#00d400;stroke-width:0.26458332px;stroke-linecap:butt;stroke-linejoin:miter;stroke-opacity:1" />
      <path
         sodipodi:nodetypes="ccccccccc"
         inkscape:connector-curvature="0"
         id="path2659"
         d="m 89.315429,159.9666 c -1.66659,-1.6667 -3.333793,-3.33314 -4.999999,-5 4.913547,0.0373 9.830886,-0.0778 14.741543,0.0772 3.010007,0.12853 5.934927,1.27078 8.183597,3.28413 2.66727,2.2533 5.49084,4.77338 6.54286,8.21974 0,0 -0.005,-0.39656 0,0 0,0 -0.93494,-2.72542 -2.68508,-4.09569 -2.08179,-1.549 -4.54476,-2.46138 -8.98335,-2.48238 l -12.799574,-0.003"
         style="display:inline;fill:#338000;fill-opacity:1;stroke:#00d400;stroke-width:0.25;stroke-linecap:butt;stroke-linejoin:round;stroke-miterlimit:4;stroke-dasharray:none;stroke-opacity:1" />
      <path
         inkscape:connector-curvature="0"
         id="path2657"
         d="m 84.315429,192 v -37.0334 c 1.666666,1.66667 3.333331,3.33333 4.999997,5 V 197 c -1.666666,-1.66667 -3.333331,-3.33333 -4.999997,-5 z"
         style="display:inline;fill:#338000;fill-opacity:1;stroke:#00d400;stroke-width:0.25;stroke-linecap:butt;stroke-linejoin:round;stroke-miterlimit:4;stroke-dasharray:none;stroke-opacity:1" />
      <path
         inkscape:connector-curvature="0"
         id="path2655"
         d="m 89.315429,159.96693 -3e-6,-3.3e-4"
         style="display:inline;fill:#338000;fill-opacity:1;stroke:#00d400;stroke-width:0.25;stroke-linecap:butt;stroke-linejoin:round;stroke-miterlimit:4;stroke-dasharray:none;stroke-opacity:1" />
      <path
         sodipodi:nodetypes="scsssssccs"
         inkscape:connector-curvature="0"
         id="path2045"
         d="m 101.743,175.24566 c 2.21606,-1.9e-4 4.0619,-0.38597 5.457,-1.36366 1.18124,-0.85548 1.88806,-2.68117 1.81,-4.217 -0.0768,-1.51156 -0.33036,-3.17609 -1.782,-4.192 -1.59858,-1.11875 -3.196,-1.248 -3.196,-1.248 0.0563,1.96616 -0.43205,3.62126 -1.832,4.657 -1.73471,1.2834 -4.131575,1.35788 -5.457,1.364 l -2.424337,0.0112 0.0073,4.9891 z"
         style="display:inline;fill:#338000;fill-opacity:1;stroke:#00d400;stroke-width:0.25;stroke-linecap:butt;stroke-linejoin:miter;stroke-miterlimit:4;stroke-dasharray:none;stroke-opacity:1" />
      <path
         sodipodi:nodetypes="scssssssccs"
         inkscape:connector-curvature="0"
         id="path2045-6"
         d="m 101.74301,192.88178 c 2.21606,-1.9e-4 4.82379,-0.19843 6.59799,-1.66078 0.75529,-0.62088 1.96106,-2.23118 1.959,-5.135 -10e-4,-1.51351 -0.28789,-3.59418 -1.959,-5.11 -1.22228,-1.1087 -3.09844,-1.396 -3.09844,-1.396 0.1019,0.68548 0.0682,0.85341 0.0574,1.506 -0.0495,2.99696 -1.2738,4.59749 -1.95881,5.135 -2.29675,1.8022 -5.272562,1.655 -6.597987,1.66112 l -2.424337,0.0112 0.0073,4.9891 z"
         style="display:inline;fill:#338000;fill-opacity:1;stroke:#00d400;stroke-width:0.25;stroke-linecap:butt;stroke-linejoin:miter;stroke-miterlimit:4;stroke-dasharray:none;stroke-opacity:1" />
      <path
         inkscape:connector-curvature="0"
         id="path1963-0"
         d="m 109.15902,176.38757 c 0.60838,0.34415 1.13445,0.8151 1.62682,1.30693 0.27564,0.27949 0.53731,0.57261 0.78677,0.87565 -0.9681,-0.62076 -2.03159,-1.09138 -3.14437,-1.38279 -0.2099,-0.0565 -0.42112,-0.10793 -0.63324,-0.15536 0.47525,-0.0854 0.95978,-0.14507 1.41705,-0.30629 0.13955,-0.0222 0.28455,-0.19957 0.0907,-0.27273 -0.0458,-0.0261 -0.0945,-0.0467 -0.14377,-0.0654 z"
         style="display:inline;fill:#338000;fill-opacity:1;stroke:#00d400;stroke-width:0.25;stroke-linecap:butt;stroke-linejoin:miter;stroke-miterlimit:4;stroke-dasharray:none;stroke-opacity:1" />
      <g
         id="flowRoot1913-4"
         style="font-style:normal;font-variant:normal;font-weight:normal;font-stretch:normal;font-size:192px;line-height:1.25;font-family:'DejaVu Sans';-inkscape-font-specification:'DejaVu Sans, Normal';font-variant-ligatures:normal;font-variant-caps:normal;font-variant-numeric:normal;font-feature-settings:normal;text-align:start;letter-spacing:0px;word-spacing:0px;writing-mode:lr-tb;text-anchor:start;display:inline;fill:#ffbd00;fill-opacity:0.7525773;stroke:none"
         transform="matrix(0.26458333,0,0,0.26458333,-3.2818065,3.9344785)"
         aria-label="VB">
        <path
           style="fill:#ffbd00;fill-opacity:0.7525773"
           inkscape:connector-curvature="0"
           id="path1923-8"
           d="m 235.91992,710.79883 -53.4375,-139.96875 h 19.78125 l 44.34375,117.84375 44.4375,-117.84375 h 19.6875 l -53.34375,139.96875 z" />
        <path
           sodipodi:nodetypes="ccscscscccscscsccssssccssscc"
           style="fill:#ffbd00;fill-opacity:0.7525773"
           inkscape:connector-curvature="0"
           id="path1925-1"
           d="m 350.01367,643.95508 v 51.28125 h 30.375 c 10.1875,0 17.72017,-2.09189 22.59517,-6.27939 4.9375,-4.25 7.40409,-10.72037 7.40409,-19.40787 0,-8.75 -2.46801,-15.18774 -7.40551,-19.31274 -4.875,-4.1875 -12.40625,-6.28125 -22.59375,-6.28125 z m 0,-57.5625 v 42.1875 l 28.03285,-10e-4 c 9.25,-3.6e-4 16.12488,-1.71778 20.62488,-5.15528 4.5625,-3.5 6.84227,-8.81238 6.84227,-15.93738 0,-7.0625 -2.27977,-12.34467 -6.84227,-15.84467 -4.5,-3.5 -11.37488,-5.24999 -20.62488,-5.24976 z m -18.9375,-15.5625 h 48.37633 c 14.4375,0 25.56117,3 33.37367,9 7.8125,6 11.71875,14.53125 11.71875,25.59375 0,8.5625 -2,15.375 -6,20.4375 -4,5.0625 -9.875,8.21875 -17.625,9.46875 9.3125,2 16.53125,6.1875 21.65625,12.5625 5.1875,6.3125 7.78125,14.21875 7.78125,23.71875 0,12.5 -4.25,22.15625 -12.75,28.96875 -8.5,6.8125 -20.59375,10.21875 -36.28125,10.21875 h -50.25 z" />
      </g>
      <g
         id="flowRoot1913"
         style="font-style:normal;font-variant:normal;font-weight:normal;font-stretch:normal;font-size:192px;line-height:1.25;font-family:'DejaVu Sans';-inkscape-font-specification:'DejaVu Sans, Normal';font-variant-ligatures:normal;font-variant-caps:normal;font-variant-numeric:normal;font-feature-settings:normal;text-align:start;letter-spacing:0px;word-spacing:0px;writing-mode:lr-tb;text-anchor:start;fill:#2c5aa0;fill-opacity:1;stroke:none"
         transform="matrix(0.26458333,0,0,0.26458333,1.7181932,8.9344791)"
         aria-label="VB">
        <path
           style="fill:#2c5aa0"
           inkscape:connector-curvature="0"
           id="path1923"
           d="m 235.91992,710.79883 -53.4375,-139.96875 h 19.78125 l 44.34375,117.84375 44.4375,-117.84375 h 19.6875 l -53.34375,139.96875 z" />
        <path
           style="fill:#2c5aa0"
           sodipodi:nodetypes="ccscscscccscscsccssssccssscc"
           inkscape:connector-curvature="0"
           id="path1925"
           d="m 350.01367,643.95508 v 51.28125 h 30.375 c 10.1875,0 17.72017,-2.09189 22.59517,-6.27939 4.9375,-4.25 7.4041,-10.72038 7.4041,-19.40788 0,-8.75 -2.4666,-15.18838 -7.4041,-19.31338 -4.875,-4.1875 -12.40767,-6.2806 -22.59517,-6.2806 z m 0,-57.5625 v 42.1875 l 28.03285,-10e-4 c 9.25,-3.6e-4 16.12488,-1.71787 20.62488,-5.15537 4.5625,-3.5 6.84095,-8.81327 6.84095,-15.93827 0,-7.0625 -2.27845,-12.34378 -6.84095,-15.84378 -4.5,-3.5 -11.37488,-5.24999 -20.62488,-5.24976 z m -18.9375,-15.5625 h 48.375 c 14.4375,0 25.5625,3 33.375,9 7.8125,6 11.71875,14.53125 11.71875,25.59375 0,8.5625 -2,15.375 -6,20.4375 -4,5.0625 -9.8747,8.21789 -17.6247,9.46789 9.3125,2 16.53095,6.18836 21.65595,12.56336 5.1875,6.3125 7.78125,14.21875 7.78125,23.71875 0,12.5 -4.25,22.15625 -12.75,28.96875 -8.5,6.8125 -20.59375,10.21875 -36.28125,10.21875 h -50.25 z" />
      </g>
    </g>
  </g>
</svg>
