<?xml version="1.0" encoding="UTF-8" standalone="no"?>
<!-- Created with Inkscape (http://www.inkscape.org/) -->

<svg
   xmlns:dc="http://purl.org/dc/elements/1.1/"
   xmlns:cc="http://creativecommons.org/ns#"
   xmlns:rdf="http://www.w3.org/1999/02/22-rdf-syntax-ns#"
   xmlns:svg="http://www.w3.org/2000/svg"
   xmlns="http://www.w3.org/2000/svg"
   xmlns:xlink="http://www.w3.org/1999/xlink"
   xmlns:sodipodi="http://sodipodi.sourceforge.net/DTD/sodipodi-0.dtd"
   xmlns:inkscape="http://www.inkscape.org/namespaces/inkscape"
   width="16"
   height="16"
   viewBox="0 0 4.2333332 4.2333335"
   version="1.1"
   id="svg384"
   enable-background="new"
   inkscape:version="0.92.3 (2405546, 2018-03-11)"
   sodipodi:docname="text16-ooc.svg">
  <defs
     id="defs378">
    <radialGradient
       gradientTransform="matrix(5.6949649,0,0,0.99999992,75.334676,75.001496)"
       gradientUnits="userSpaceOnUse"
       xlink:href="#linearGradient3688-464-309-255"
       id="radialGradient4093"
       fy="43.5"
       fx="4.9929786"
       r="2.5"
       cy="43.5"
       cx="4.9929786" />
    <linearGradient
       id="linearGradient3688-464-309-255">
      <stop
         id="stop3094"
         style="stop-color:#181818;stop-opacity:1"
         offset="0" />
      <stop
         id="stop3096"
         style="stop-color:#181818;stop-opacity:0"
         offset="1" />
    </linearGradient>
    <radialGradient
       gradientTransform="matrix(5.6949649,0,0,0.99999992,-52.665305,-162.00149)"
       gradientUnits="userSpaceOnUse"
       xlink:href="#linearGradient3688-464-309-255"
       id="radialGradient4095"
       fy="43.5"
       fx="4.9929786"
       r="2.5"
       cy="43.5"
       cx="4.9929786" />
    <linearGradient
       gradientUnits="userSpaceOnUse"
       xlink:href="#linearGradient3702-501-757-486"
       id="linearGradient4097"
       y2="39.999443"
       x2="25.058096"
       y1="47.027729"
       x1="25.058096"
       gradientTransform="matrix(2.8421052,0,0,0.71428566,-4.2105336,87.430066)" />
    <linearGradient
       id="linearGradient3702-501-757-486">
      <stop
         id="stop3100"
         style="stop-color:#181818;stop-opacity:0"
         offset="0" />
      <stop
         id="stop3102"
         style="stop-color:#181818;stop-opacity:1"
         offset="0.5" />
      <stop
         id="stop3104"
         style="stop-color:#181818;stop-opacity:0"
         offset="1" />
    </linearGradient>
    <linearGradient
       x1="25.132275"
       y1="0.98520643"
       x2="25.132275"
       y2="47.013336"
       id="linearGradient3019-2-2"
       xlink:href="#linearGradient3600"
       gradientUnits="userSpaceOnUse"
       gradientTransform="matrix(0.07559507,0,0,0.08048497,0.30238504,0.06158085)" />
    <linearGradient
       id="linearGradient3600">
      <stop
         id="stop3602"
         style="stop-color:#f4f4f4;stop-opacity:1"
         offset="0" />
      <stop
         id="stop3604"
         style="stop-color:#dbdbdb;stop-opacity:1"
         offset="1" />
    </linearGradient>
    <linearGradient
       inkscape:collect="always"
       xlink:href="#linearGradient3600"
       id="linearGradient1095"
       x1="81"
       y1="16.8125"
       x2="109.375"
       y2="16.8125"
       gradientUnits="userSpaceOnUse"
       gradientTransform="matrix(0.02797354,0,0,0.02797354,0.37997731,0.19115322)" />
    <linearGradient
       gradientTransform="matrix(0.02639506,0,0,0.03011393,0.42605513,0.30987934)"
       inkscape:collect="always"
       xlink:href="#linearGradient3977-3"
       id="linearGradient1059"
       x1="18"
       y1="59.999973"
       x2="110.10006"
       y2="59.999973"
       gradientUnits="userSpaceOnUse" />
    <linearGradient
       id="linearGradient3977-3">
      <stop
         id="stop3979-6"
         style="stop-color:#ffffff;stop-opacity:1"
         offset="0" />
      <stop
         id="stop3981-0"
         style="stop-color:#ffffff;stop-opacity:0.23529412"
         offset="0.00648027" />
      <stop
         id="stop3983-6"
         style="stop-color:#ffffff;stop-opacity:0.15686275"
         offset="0.99423188" />
      <stop
         id="stop3985-2"
         style="stop-color:#ffffff;stop-opacity:0.39215687"
         offset="1" />
    </linearGradient>
    <linearGradient
       inkscape:collect="always"
       xlink:href="#linearGradient3600"
       id="linearGradient1722"
       gradientUnits="userSpaceOnUse"
       gradientTransform="matrix(0.02797354,0,0,0.02797354,0.37997731,0.19115322)"
       x1="81"
       y1="77.06472"
       x2="81"
       y2="190.75049" />
    <filter
       inkscape:collect="always"
       style="color-interpolation-filters:sRGB"
       id="filter54828">
      <feBlend
         inkscape:collect="always"
         mode="multiply"
         in2="BackgroundImage"
         id="feBlend54830" />
    </filter>
  </defs>
  <sodipodi:namedview
     id="base"
     pagecolor="#ffffff"
     bordercolor="#666666"
     borderopacity="1.0"
     inkscape:pageopacity="0.0"
     inkscape:pageshadow="2"
     inkscape:zoom="34.62"
     inkscape:cx="8.2645395"
     inkscape:cy="6.0208676"
     inkscape:document-units="px"
     inkscape:current-layer="layer66"
     showgrid="true"
     units="px"
     inkscape:window-width="1189"
     inkscape:window-height="706"
     inkscape:window-x="197"
     inkscape:window-y="273"
     inkscape:window-maximized="0" />
  <metadata
     id="metadata381">
    <rdf:RDF>
      <cc:Work
         rdf:about="">
        <dc:format>image/svg+xml</dc:format>
        <dc:type
           rdf:resource="http://purl.org/dc/dcmitype/StillImage" />
        <dc:title />
      </cc:Work>
    </rdf:RDF>
  </metadata>
  <g
     inkscape:groupmode="layer"
     id="layer3"
     inkscape:label="Layer 3"
     style="display:inline"
     sodipodi:insensitive="true">
    <path
       style="fill:url(#linearGradient1095);fill-opacity:1;stroke:#000000;stroke-width:0;stroke-linecap:round;stroke-linejoin:round;stroke-miterlimit:4;stroke-dasharray:none;stroke-opacity:1"
       d="M 2.6458338,0.26458377 V 1.0583328 h 0.793749 z"
       id="path1720"
       inkscape:connector-curvature="0" />
    <path
       style="fill:url(#linearGradient1722);fill-opacity:1;stroke:#000000;stroke-width:0;stroke-linecap:round;stroke-linejoin:round;stroke-miterlimit:4;stroke-dasharray:none;stroke-opacity:1"
       d="M 2.645842,1.0583333 H 3.4395835 V 3.96875 H 0.79375003 V 0.26460554 l -3e-8,1.428e-5 1.8520747,-1.46e-5 c 1.73e-5,0.79372808 1.73e-5,0.79372808 1.73e-5,0.79372808 z"
       id="path1087"
       inkscape:connector-curvature="0" />
  </g>
  <g
     inkscape:groupmode="layer"
     id="layer4"
     inkscape:label="Layer 4"
     style="display:inline"
     sodipodi:insensitive="true">
    <path
       style="display:inline;fill:none;stroke:url(#linearGradient1059);stroke-width:0.24123368;stroke-linecap:round;stroke-linejoin:round;stroke-miterlimit:4;stroke-dasharray:none;stroke-opacity:1"
       d="m 3.3189527,1.2886279 -0.00263,2.5595056 H 0.91436685 V 0.38521222 H 2.5244649"
       id="path1048"
       inkscape:connector-curvature="0"
       sodipodi:nodetypes="ccccc" />
  </g>
  <g
     inkscape:groupmode="layer"
     id="layer2"
     inkscape:label="Layer 2"
     style="display:inline"
     sodipodi:insensitive="true">
    <path
       id="path1001"
       style="display:inline;fill:none;stroke:#bebebe;stroke-width:0.25404942;stroke-linecap:round;stroke-linejoin:round;stroke-miterlimit:4;stroke-dasharray:none;stroke-opacity:1;paint-order:normal"
       d="M 2.50825,0.12831369 3.5758548,1.1959167 M 2.50825,0.12831369 0.65619138,0.12808591 v -9.49e-6 3.97823218 H 3.5758548 V 1.1959167 m 0,-3e-7 H 2.50825 V 0.12831369"
       inkscape:connector-curvature="0" />
  </g>
  <g
     inkscape:label="Layer 1"
     inkscape:groupmode="layer"
     id="layer1"
     transform="translate(0,-292.76665)"
     style="display:inline"
     sodipodi:insensitive="true">
    <g
       id="g978"
       style="display:inline;opacity:0.2;fill:#808080;fill-opacity:1;stroke:none;stroke-width:1.03923047"
       transform="matrix(0.03429784,0,0,0.05291667,-0.07839478,290.59699)">
      <rect
         style="fill:#808080;fill-opacity:1;stroke:none;stroke-width:1.48070288"
         id="rect2801"
         y="116.00149"
         x="103.78947"
         height="4.9999995"
         width="14.210526" />
      <rect
         style="fill:#808080;fill-opacity:1;stroke:none;stroke-width:1.48070288"
         id="rect3696"
         transform="scale(-1)"
         y="-121.00149"
         x="-24.210518"
         height="4.9999995"
         width="14.210526" />
      <rect
         style="fill:#808080;fill-opacity:1;stroke:none;stroke-width:1.48070288"
         id="rect3700"
         y="116.00149"
         x="24.210518"
         height="5"
         width="79.578949" />
    </g>
  </g>
  <g
     inkscape:groupmode="layer"
     id="layer66"
     inkscape:label="Layer 5"
     style="filter:url(#filter54828)">
    <path
       style="fill:#cccccc;fill-opacity:1;stroke:#666666;stroke-width:0.03229466;stroke-miterlimit:4;stroke-dasharray:none;stroke-opacity:1"
       d="M 1.2933771,3.8109376 C 1.2833191,3.6934279 1.2774298,3.5757899 1.2474122,3.4625899 1.2312342,3.3702159 1.2939982,3.257604 1.2637172,3.1876777 1.2974362,3.0932927 1.3209402,2.976246 1.2734572,2.8806278 1.2012042,2.7911678 1.1502698,2.676266 1.2002862,2.5637055 c 0.045023,-0.09169 0.1365172,-0.1705948 0.2450683,-0.1524658 0.085321,0.025598 0.1649527,-0.0188 0.2506872,-0.023198 0.154467,-0.014924 0.3101162,0.00814 0.464209,-0.016663 0.094557,-0.010318 0.1895097,-0.020646 0.2842666,-0.02459 0.099015,-0.058312 0.076346,-0.20649 0.099899,-0.3061879 0.010866,-0.115693 0.039065,-0.2266394 0.074099,-0.3367279 0.040847,-0.082821 0.084234,-0.2032607 0.1781748,-0.2272913 -0.00398,0.038919 -0.0095,0.1126659 0.043528,0.051196 0.028196,-0.05535 0.099755,-0.072409 0.062735,0.00785 -0.071818,0.142629 0.2277539,0.1465648 0.1480354,0.2769726 -0.079662,0.033026 -0.1970382,0.079472 -0.1139967,0.1811855 0.024411,0.108405 0.010514,0.2201329 0.020194,0.3293232 -0.016971,0.1266634 -0.045672,0.2483571 -0.076287,0.3721409 -0.024615,0.1209879 -0.037139,0.265616 -0.1518121,0.3387945 -0.030437,0.029706 -0.015468,-0.037505 -0.054803,0.022782 -0.124427,0.053173 -0.058025,0.2228843 -0.082705,0.332045 0.01342,0.1149167 -0.05174,0.2688624 0.073836,0.339634 -0.052803,0.1016368 -0.1910291,0.00957 -0.1573164,-0.092208 -0.00886,-0.055899 -0.031767,-0.2143985 -0.059297,-0.1978532 -0.048078,0.122458 -0.038715,0.257724 0.023226,0.3664575 C 2.3622349,3.8660666 2.2770493,3.7351056 2.3150038,3.6346566 2.3114138,3.4871826 2.2931908,3.340046 2.2703918,3.194793 2.2409088,3.179927 2.2397748,3.220592 2.2478418,3.173742 2.2278728,3.195528 2.1699978,3.238719 2.1946798,3.176152 2.1801558,3.252479 2.0711666,3.219766 2.0457664,3.214074 2.0203604,3.189938 1.9967254,3.258758 1.9512064,3.220364 1.8701724,3.250509 1.8398327,3.108298 1.7787162,3.166286 c -0.03945,0.055749 -0.061318,0.124572 -0.094651,0.1866594 0.026773,-0.06352 0.00164,-0.078901 -0.0347,-0.022337 0.00203,-0.045907 -0.058022,0.1789301 -0.014276,0.057428 0.068088,-0.074351 -0.032753,0.1011472 0.012827,0.1401808 0.012758,0.07114 0.1643343,0.2136111 0.021625,0.2280305 -0.113615,-0.06661 -0.066993,-0.2365803 -0.1644558,-0.3194096 -0.028905,-0.05885 0.058631,-0.2118794 -0.016823,-0.089243 -0.100093,0.050847 -0.1392807,0.1861957 -0.1293462,0.2985751 -0.020651,0.072473 0.1412716,0.1785624 -0.010592,0.1739903 -0.018671,7.657e-4 -0.037621,-0.00203 -0.054941,-0.00921 z m 0.1200918,-0.018534 c -0.00143,-0.024215 -0.018111,0.024916 0,0 z m -0.047405,-0.046953 c -0.050227,-0.081819 -0.011814,-0.2523768 -0.00641,-0.2850408 -0.045771,0.082591 -0.037488,0.2125768 0.00154,0.2889467 z M 1.720492,3.7258796 c -0.039291,-0.027609 -0.039265,0.017071 0,0 z m 0.6973195,-0.00403 c -0.03751,-0.014351 -0.025574,0.028309 0,0 z m -0.745198,-0.011616 c 0.096459,-0.011995 -0.080881,-0.1862929 -0.025193,-0.043577 0.00413,0.00623 0.012683,0.06248 0.025193,0.043577 z m 0.7067503,-0.023561 c -0.00169,-0.091424 -0.020455,0.033012 -0.00124,0.00427 z m 0.027551,-0.030157 c -0.031258,-0.1113997 0.068609,-0.2898732 0.051653,-0.350348 -0.044198,0.081646 -0.086077,0.1631834 -0.088844,0.2692521 -0.011603,0.024881 0.040172,0.1889214 0.03719,0.081096 z m 0.1629137,0.044993 c 0.018702,-0.073463 -0.027449,-0.040331 -0.00705,0.00573 z m 3.116e-4,-0.073442 c -0.029705,-0.037211 -8.03e-4,0.024903 0,0 z m 0.00293,-0.024868 c 0.00849,-0.064709 0.013327,-0.2124475 -0.01335,-0.2246334 -0.022428,0.067974 -0.015602,0.1823116 0.01335,0.2246334 z M 2.5627622,3.486134 c 0.011629,-0.023449 0.00773,0.031829 0,0 z m 0.00146,-0.030574 c 0.022674,-0.037885 -0.00388,0.027013 0,0 z m -0.0157,-0.023429 c 0.027862,-0.060254 -0.00402,0.028242 0,0 z M 1.6196533,3.5669178 c -0.026271,-0.026737 0.024366,0.051875 0,0 z m 0.029383,0.0094 c -0.017759,-0.045889 -0.00911,0.030881 0,0 z m -0.02597,-0.082563 c -0.016529,0.00871 0.020983,0.03742 0,0 z m 0.7143612,-0.012246 c -0.016233,-0.00712 0.015868,0.041067 0,0 z M 1.5872869,3.4510911 c -0.029994,-0.05101 0.012072,0.042581 0,0 z m -0.058298,-0.034308 c -0.012941,-0.043991 -0.00135,0.052373 0,0 z m 1.0486299,-0.0048 c -0.016233,-0.00713 0.015868,0.041067 0,0 z m -0.259145,-0.00632 c -0.016233,-0.00712 0.015868,0.041066 0,0 z m 0.2137434,0.00751 c -0.00143,-0.024215 -0.018111,0.024916 0,0 z m 0.00737,-0.022122 c -0.016575,-0.036231 -0.00405,0.031921 0,0 z M 1.5391319,3.3780794 c -0.00203,-0.026919 -0.01553,0.040801 0,0 z m -0.012767,-0.00599 c 0.00148,-0.047514 -0.015061,0.035839 0,0 z m 0.097673,-0.021482 c 0.011038,-0.069008 -0.034837,0.04329 0,0 z m -0.251654,-0.026669 c 0.065017,-0.01023 0.1404415,-0.1942925 0.054763,-0.1634178 -0.05089,0.025984 -0.079668,0.1861659 -0.054763,0.1634178 z m 0.022871,-0.040667 c -0.052301,-0.082645 0.078744,0.0086 0,0 z m 0.014467,-0.045643 c 0.021167,-0.044549 0.058962,-0.064281 0.016214,-0.00528 -7.07e-5,0.00346 -0.013494,0.014153 -0.016214,0.00528 z m -0.056915,0.059046 c -0.025494,0.00664 -0.01022,0.044325 0,0 z M 1.498796,3.2769523 c -0.026053,-0.00253 -0.012132,0.044738 0,0 z M 1.342839,3.2577173 c -0.035086,-0.00515 0.00185,0.05454 0,0 z m 0.1139988,0.013234 c 0.00148,-0.047519 -0.015062,0.03584 0,0 z m 0.01583,-0.026862 c 0.00471,-0.036697 0.1278885,-0.1623972 0.049616,-0.1364507 -0.016581,0.032688 -0.079523,0.1157542 -0.049616,0.1364507 z m 0.040688,-0.099677 c -0.005,-0.055724 0.076322,-0.064205 0.014518,-0.012287 z m 0.050931,0.066494 c -0.015422,0.00895 -0.00767,0.058644 0,0 z m -0.1919032,0 c -0.0104,-0.022539 -0.011885,0.02496 0,0 z m 0.1810608,-0.048588 c -0.033138,0.054034 -0.012553,0.066728 0,0 z m 0.4490597,0.025006 c -0.013732,0.014907 0.014188,0.034515 0,0 z m 0.1504749,0.017262 c -0.00143,-0.024215 -0.018111,0.024916 0,0 z m -0.1611757,-0.00911 c -0.011761,-0.027674 -0.017137,0.015494 0,0 z m 0.1882769,-0.02336 c -0.020395,0.00431 0.00939,0.027829 0,0 z M 1.3594947,3.161204 c 0.00463,-0.060133 -0.026719,0.073813 0,0 z M 1.4985702,3.116956 c -0.029986,0.036597 -0.00556,0.038837 0,0 z m 0.088713,0.023654 c -0.0292,-0.016419 -7.959e-4,0.04101 0,0 z M 1.4817309,3.1282206 c -0.0083,-0.031886 0.052669,-0.1464394 0.036623,-0.059966 0.031601,-0.041619 0.059795,-0.1357589 -0.00973,-0.058056 -0.00753,0.013302 -0.086059,0.1788868 -0.026899,0.1180225 z m 0.599366,0.00843 c 0.013949,-0.028985 -0.04118,0.050814 0,0 z M 1.5771607,3.1176852 c 0.01354,-0.053525 -0.031173,0.065245 0,0 z M 1.4287269,3.1066241 c -0.026829,0.011652 0.00781,0.038283 0,0 z m 0.028312,0.012113 c -0.013242,-0.026525 -0.011032,0.032319 0,0 z m 0.1790975,-1.037e-4 c -0.025745,-0.020199 -0.00845,0.016469 0,0 z m 0.6464138,-0.00566 c 0.00975,-0.034152 -0.031029,0.038701 0,0 z m 0.027911,-8.937e-4 c -0.00828,-0.022485 -0.019019,0.044176 0,0 z M 1.3956614,3.095988 c -0.016233,-0.00712 0.015868,0.041067 0,0 z m 0.17898,-0.015363 c 0.040461,-0.065463 -0.028206,0.029292 0,0 z m 0.026089,-8.334e-4 c 0.01395,-0.028985 -0.041179,0.050814 0,0 z m 0.6447023,0 c 0.015117,-0.029811 -0.044054,0.051597 0,0 z M 1.4089646,3.064707 c -0.020395,0.00431 0.00939,0.027829 0,0 z m 0.2655862,0.00386 c -0.020317,0.00597 -7.07e-5,0.03477 0,0 z M 1.4608733,3.03 C 1.4896983,2.984741 1.4999793,2.9020795 1.4591433,2.991695 1.4406593,3.022888 1.4298903,3.1107577 1.4608733,3.03 Z m 0.1985909,0.01502 c 0.062888,-0.056353 -0.051441,-0.046888 -0.00927,-0.031053 0.025546,0.0082 -0.023923,0.091197 0.00927,0.031053 z m -0.094719,0.021218 c -0.017195,-0.01687 -0.031586,0.019224 0,0 z M 1.430403,3.0070963 C 1.449898,2.9728893 1.5341849,2.837311 1.461123,2.9325303 1.444596,2.9541423 1.393638,3.1039875 1.430403,3.0070963 Z m 0.1884859,0.033377 c -0.023994,-0.040127 -0.033963,0.02499 0,0 z m 0.0138,-0.00788 c -0.023696,-0.00943 0.018664,0.028436 0,0 z m -0.2572426,-0.00644 c 0.012935,-0.033909 0.038736,-0.1540336 0.00214,-0.056241 -0.00217,0.010571 -0.045527,0.085217 -0.00214,0.056241 z m 0.5721141,0.00465 c -0.011932,-0.035565 -0.00995,0.032274 0,0 z m 0.6418017,0.00274 c 0.00827,-0.033637 -0.033854,0.035365 0,0 z M 1.7191844,3.0029109 c 0.020223,-0.078484 -0.030797,0.07589 0,0 z m 0.1904524,0.01525 c 0.045294,-0.022743 0.097458,-0.1406947 0.01061,-0.064636 -0.010311,0.00663 -0.044154,0.084536 -0.01061,0.064636 z M 1.745301,2.9948309 c -0.026217,-0.041152 -0.00313,0.046953 0,0 z m -0.1173407,0.00819 c -0.013232,-0.030799 -0.020996,0.027321 0,0 z m 0.1785438,-0.014489 c -0.016234,-0.00712 0.015869,0.041067 0,0 z m 0.6675005,-0.00515 c -0.00407,-0.034543 -0.013993,0.04624 0,0 z m 0.2363466,-0.00117 c -0.016233,-0.00712 0.015868,0.041067 0,0 z M 1.5051178,2.9732319 C 1.5299458,2.9088689 1.6310728,2.7886653 1.629757,2.7726659 1.612062,2.8144679 1.544049,2.7659759 1.609706,2.7574049 1.511952,2.7653049 1.662432,2.6420933 1.556928,2.6969019 1.530129,2.7101299 1.558808,2.6699969 1.533297,2.7186899 1.499904,2.7283499 1.4228095,2.8473521 1.49088,2.7675349 1.575899,2.7324939 1.405416,2.8406699 1.432257,2.8480599 1.39189,2.8711109 1.431147,2.9149419 1.441287,2.9076679 1.463418,2.8754319 1.5744144,2.7431981 1.517286,2.8539169 1.496832,2.8945989 1.59214,2.7390832 1.581441,2.8316449 1.561247,2.8755459 1.4755479,2.9245929 1.505126,2.97323 Z m 0.0521,-0.2525592 c 0.042167,-0.026747 -0.00473,0.028415 -0.00101,0.0024 z m 0.036388,0.2493994 c 0.025515,-0.00597 0.067856,-0.081562 0.053511,-0.010991 0.085435,-0.027371 0.00645,-0.1031375 -0.010717,-0.069461 -0.013641,0.00759 -0.056488,0.09903 -0.042794,0.080452 z m 0.04653,0.010157 c -0.014867,-0.033534 -0.019544,0.031404 0,0 z M 1.4216085,2.9635524 c -0.020395,0.00431 0.00939,0.027829 0,0 z m 0.6607394,8.635e-4 c 0.019789,-0.033808 0.059441,-0.13983 -0.012485,-0.070372 0.010225,0.026684 -0.054132,0.112801 0.012485,0.070372 z M 2.545198,2.9484129 C 2.602258,2.8860409 2.6618218,2.719032 2.614785,2.6906293 2.589563,2.7718743 2.550492,2.6415783 2.543962,2.7287883 2.521185,2.7909463 2.474681,2.8861126 2.49362,2.9086164 c -0.015042,0.02592 -0.012215,0.074458 0.016271,0.028372 0.013361,0.015777 0.035394,0.060635 0.035307,0.011424 z M 2.512924,2.9120819 C 2.546598,2.8738669 2.518784,2.7394639 2.579131,2.7540075 2.543033,2.8002165 2.554786,2.8702547 2.512924,2.9120819 Z m 0.047735,-0.092827 c 0.00316,-0.075101 0.068394,-0.046283 0,0 z M 2.605,2.8146749 c -0.00226,-0.044227 0.027416,-0.00717 0,0 z m 0.016495,-0.05124 c -0.01774,-0.047022 0.026709,0.00737 0,0 z m -0.035554,-0.01392 c 0.015431,-0.030038 0.016056,0.029766 0,0 z M 1.697364,2.9666818 c -0.027669,-0.023711 -0.022594,0.033962 0,0 z m 1.0592334,0.00406 c -0.013082,-0.029144 -0.01158,0.027206 0,0 z m -0.723292,-0.023702 c 0.00196,-0.068822 -0.037095,0.066638 0,0 z m 0.1854248,0.00202 c -0.025494,0.00664 -0.01022,0.044324 0,0 z m 0.1017452,0.00905 c 0.011433,-0.044193 -0.02913,0.051695 0,0 z m -0.758473,-0.00632 c 0.032636,-0.085662 0.1564045,-0.082626 0.164588,-0.1410715 -0.019657,0.068762 -0.1658749,0.018741 -0.1280358,0.078314 -0.030328,-0.018764 -0.063537,0.1070887 -0.036552,0.062757 z m -0.1294265,-0.00483 c 0.079433,-0.054934 0.0058,-0.05756 0,0 z m 0.4579582,-0.037836 c 0.00541,-0.085425 0.085426,0.057165 0.079107,-0.050248 0.014282,-0.064175 0.1270284,-0.1034383 0.059844,-0.00582 0.017463,-3.722e-4 0.087901,-0.0047 0.039351,-0.056193 -0.01335,-0.036812 0.045215,-0.069562 -0.025052,-0.041106 -0.050418,0.052566 -0.035001,-0.028922 -0.072587,0.032077 -0.061681,0.022129 -0.1984505,0.1165933 -0.090575,0.144639 l 0.00567,-0.0095 z m -0.016001,0.01051 c -0.011246,-0.045723 0.02461,0.022294 0,0 z m 0.1962791,-0.075296 c 0.017092,-0.025356 0.00369,0.024422 0,0 z m -0.097969,-0.055132 c 0.00778,-0.034269 0.041244,-0.00919 0,0 z M 1.3658707,2.923336 c -0.024826,0.00394 0.00312,0.040698 0,0 z m 0.3302537,0.016807 c 0.020977,-0.032092 -0.041964,0.019675 0,0 z m 0.5507903,-0.00416 c -0.00788,-0.031249 -0.01222,0.031678 0,0 z M 2.8052226,2.915562 c -0.013732,0.014908 0.014188,0.034512 0,0 z M 1.9572085,2.9150788 c -0.021852,-0.00386 -0.010476,0.025506 0,0 z m -0.2182284,-0.04463 c 0.029079,-0.091626 -0.096043,0.089451 -0.00781,0.014487 0.0026,-0.00483 0.00521,-0.00966 0.00781,-0.014487 z m -0.031603,0.013011 c 0.00738,-0.048109 0.042068,-0.010428 0,0 z m 0.5599777,0.029418 c 0.00404,-0.035382 -0.014007,-0.1274954 -0.040831,-0.05121 0.038805,0.00195 -0.014563,0.090336 0.040831,0.05121 z M 2.0242136,2.9027938 c 0.01395,-0.028985 -0.04118,0.050815 0,0 z M 1.3945861,2.8645422 c 0.026426,-0.03321 -0.013796,-0.1435313 -0.011617,-0.048062 2.6e-4,0.00891 -0.01787,0.1138685 0.011617,0.048062 z m 0.9106617,0.025657 c -0.027367,-0.00297 -0.00608,0.036039 0,0 z m -0.2426046,-0.00453 c 0.020673,-0.041895 -0.058593,0.050088 0,0 z m 0.6012465,-0.0099 c 0.088281,-0.070571 0.046389,-0.2041185 0.06101,-0.3003494 -0.024299,-0.032301 -0.00873,0.1666782 -0.016792,0.041661 -0.017926,0.016546 -0.03481,0.1141997 -0.050001,0.09789 0.00131,0.025981 -0.040948,0.2086481 0.00578,0.1607974 z m -0.00614,-0.02354 c 0.01138,-0.075755 0.041219,-0.031449 7.637e-4,0.00942 z m -0.0081,-0.030549 c 0.00765,-0.022535 4.326e-4,0.029697 0,0 z m 0.043742,-0.012488 c 0.018996,-0.021349 0.00163,0.028328 0,0 z m -0.018962,-0.052978 c 0.00912,-0.033478 0.016433,0.020963 0,0 z m 0.1307298,0.1311742 c -0.016233,-0.00712 0.015868,0.041067 0,0 z m -0.6213256,-0.0023 c -0.00203,-0.026918 -0.01553,0.040801 0,0 z m 0.4298015,0 c -0.00203,-0.026918 -0.01553,0.040801 0,0 z m 0.1332112,-0.00239 c 0.00176,-0.036723 -0.025395,0.023365 0,0 z M 2.3264947,2.855037 c 0.012192,-0.1193882 -0.044678,0.042968 0,0 z m 0.1553241,0.00316 c -0.021852,-0.00386 -0.010476,0.025506 0,0 z M 2.6262607,2.841175 c 0.022021,-0.078266 -0.030908,0.073086 0,0 z M 1.8486111,2.836505 c 0.096099,-0.065476 -0.072671,0.026999 -0.011519,0.015642 z m 0.3607124,0.00791 c -0.022124,2.725e-4 0.015387,0.028172 0,0 z m 0.521992,-0.01394 c 0.05845,-0.00306 -0.00772,-0.146226 -0.00698,-0.029441 -0.0079,0.022978 -0.017078,0.092723 0.00698,0.029441 z m -0.9011933,3.992e-4 c -0.027691,-0.00608 0.00244,0.033891 0,0 z m 0.2910605,-0.023587 c -0.041866,0.015095 -0.025476,0.062199 0,0 z m 0.084987,0.00544 c 0.00853,0.062893 0.067858,-0.062463 0.057951,4.327e-4 0.028627,-0.039027 -0.026158,-0.038618 0.0239,-0.075317 0.00175,-0.05513 -0.1180144,0.1166552 -0.081851,0.074884 z m -0.8464263,0.00873 c -0.024666,-0.018194 0.00201,0.035232 0,0 z m 1.0934654,-0.040376 c 0.010687,-0.078551 -0.051799,-0.067808 -0.05257,0.00165 -0.026127,0.059121 0.06695,0.061911 0.05257,-0.00165 z m 0.04405,0.028481 c -0.024826,0.00394 0.00312,0.040698 0,0 z m -0.8431358,0.0024 c 0.058944,-0.015201 0.1117844,-0.055602 0.1715999,-0.065125 -0.024642,0.04645 0.066754,0.017384 -0.00849,0.068826 0.03885,8.635e-4 0.08792,-0.039546 0.06637,-0.058003 0.017352,-0.041276 0.1038125,-0.087475 0.088897,-0.00858 0.047164,-0.039204 0.1336176,-0.026858 0.1529007,-0.00605 0.00392,-0.062772 0.070303,-0.030991 0.064095,-0.056061 -0.044877,-0.034747 -0.012646,-0.078913 0.028014,-0.082988 0.056395,-0.1032365 -0.1081919,0.091944 -0.097042,-0.010107 0.07431,-0.016685 0.1645291,-0.1431111 0.204608,-0.1188822 -0.050739,0.016313 -0.066795,0.1252227 -0.028327,0.1146968 -0.048581,-0.070963 0.1571004,-0.153026 0.063637,-0.1621866 0.044217,0.036081 -0.073756,0.00995 -0.088553,0.044441 0.08179,-0.087084 -0.1624863,0.056132 -0.026418,0.00667 -0.041103,0.100807 -0.2031254,0.1067515 -0.2470747,0.1694314 -0.00456,0.03643 -0.077597,-0.00959 -0.08091,0.044707 -0.051151,0.023744 -0.1226184,0.029234 -0.034507,-0.011656 C 1.9509839,2.6131727 2.0560156,2.6230927 2.1035447,2.539832 2.0888887,2.527683 2.0363557,2.556515 2.0960347,2.521269 2.1835897,2.484793 2.1386117,2.47546 2.0729487,2.504267 1.9849697,2.534298 1.8898411,2.52568 1.807744,2.574544 1.720467,2.604097 1.94223,2.434105 1.822798,2.511448 1.803275,2.533362 1.737679,2.567768 1.797019,2.520598 1.728725,2.522028 1.6784258,2.614397 1.6476271,2.6396093 c 0.036399,-0.018767 -0.091103,0.156632 9.941e-4,0.054891 0.019301,-0.05434 0.046252,-0.1057803 0.090507,-0.075487 0.060382,-0.027156 0.1034685,-0.023928 0.1590402,-0.068324 -0.022118,0.043851 -0.1660636,0.095438 -0.1302139,0.1059125 0.032451,-0.02376 0.090771,-0.026408 0.033432,0.011187 0.00588,0.04218 -0.049301,0.047494 -0.02645,0.065155 -0.068101,0.072771 -0.068643,-0.022373 -0.014194,-0.044916 -0.0442,0.040581 -0.103637,0.082294 -0.1278559,0.1339689 l 0.021237,-0.010027 z m 0.039823,-0.02768 c -0.038471,-0.034839 0.024098,-0.018617 0,0 z m 0.166831,-0.02256 c 0.017283,-0.0563 0.011861,0.032304 0,0 z m -0.115476,4.379e-4 c 0.053191,-0.036358 -0.010233,0.022879 0,0 z m 0.1057648,-0.026066 c 0.039652,-0.028589 -0.012197,0.02173 0,0 z m 0.026968,-0.00269 c 0.010011,-0.031419 0.042195,-8.387e-4 0,0 z m 0.1026705,-7.337e-4 c -0.022759,-0.05082 0.093622,-0.018705 0.097947,-0.047179 -0.029111,0.01686 -0.066381,0.044895 -0.097947,0.04718 z m 0.1232762,-0.031835 c 0.021588,-0.047229 0.059342,0.00214 0,0 z M 1.809692,2.679595 c 0.011743,-0.033787 0.021505,0.011682 0,0 z M 2.1508177,2.667349 c 0.0047,-0.035292 0.0047,0.035288 0,0 z m -0.269624,0 c 0.020046,-0.024608 0.010813,0.022474 0,0 z m 0.14371,-0.01024 c 0.036135,-0.04275 0.090212,-0.012764 0.017161,-0.00223 0.0034,0.00366 -0.034366,0.03285 -0.017161,0.00223 z m -0.1879542,0.00392 c 0.017093,-0.025354 0.00369,0.024421 0,0 z m 0.018962,-0.00632 c 0.02954,-0.026839 0.031001,0.018455 0,0 z m 0.037988,-0.019065 c 0.01747,-0.031579 0.034618,0.013533 0,0 z M 1.8473485,2.609552 c 0.060175,-0.041886 0.013337,0.036597 0,0 z m 0.1191737,-0.0054 c 0.059489,-0.023703 -0.096427,-0.0021 -0.016868,-0.029154 0.063356,-0.053033 -0.1383099,0.0621 -0.04189,-0.013955 0.052305,-0.036921 0.1618796,-0.014429 0.089368,0.031259 0.01141,0.017424 -0.023305,0.02498 -0.03061,0.01185 z m 0.03572,-0.040538 c 0.011064,-0.053821 -0.058504,0.041116 0,0 z M 2.3020134,2.505656 c 0.00765,-0.022534 4.327e-4,0.029697 0,0 z M 1.3342671,2.7906034 c -0.024825,0.00394 0.00312,0.040699 0,0 z m 0.771308,0.00802 c 0.031936,-0.073979 -0.084601,0.031703 0,0 z m 0.2285371,-0.00745 c -0.00342,-0.065904 -0.038416,0.068627 0,0 z m -0.9619214,-0.00689 c -0.024825,0.00394 0.00312,0.040698 0,0 z m 0.398392,0.00948 c -0.0104,-0.02254 -0.011885,0.02496 0,0 z M 2.240821,2.7421514 C 2.27793,2.7117324 2.3760108,2.5549129 2.323542,2.6829204 2.34576,2.7271014 2.4291973,2.546246 2.4737647,2.5747351 2.4745363,2.6266491 2.3575117,2.7428871 2.3920357,2.752933 2.4434737,2.680272 2.4653807,2.621261 2.5422006,2.55267 2.5415459,2.618737 2.4250402,2.6786684 2.4943906,2.7072654 2.4746086,2.6410684 2.5957315,2.6067105 2.5484776,2.5257617 c -0.041907,0.043494 0.0044,-0.063485 -0.041951,0.01627 -0.059131,0.024137 0.1125771,-0.1688915 0.014228,-0.077555 -0.056474,0.017065 -0.078066,0.1166638 -0.1589929,0.1418608 -0.04482,-0.073251 -0.1146851,0.1902995 -0.09889,0.043789 -0.03141,0.024326 -0.1246964,0.2213211 -0.022051,0.092025 z m 0.035411,-0.064545 c 0.015432,-0.049473 0.02554,0.00994 0,0 z m 0.063207,-0.010255 c 0.034766,-0.059139 0.05414,0.015095 0,0 z m 0.037924,-0.043871 c 0.010858,-0.042135 0.00978,0.021186 0,0 z m 0.1113102,-0.021952 c -0.042956,-0.027405 0.024091,-0.00841 0,0 z m 0.030213,0.1511517 c -0.00234,-0.054371 -0.020316,0.076596 0,0 z m -0.8620727,0.00793 c -0.028523,-0.00192 -0.00247,0.0343 0,0 z m 1.1041036,0.00668 c -0.016233,-0.00712 0.015868,0.041067 0,0 z m -0.7943938,-0.0013 c -0.013513,-0.020357 -0.034054,0.016998 0,0 z m 0.2338625,-3.062e-4 c -0.00799,-0.022143 -0.024763,0.017658 0,0 z m 0.1299693,-0.026738 c 0.040129,-0.09214 -0.057776,0.055181 -0.00438,0.00513 l 0.00392,-0.00459 z m -0.00355,-0.020294 c 0.00743,-0.043611 0.020016,0.017387 0,0 z m -1.0916339,0.030855 c -0.00358,-0.044026 -0.012857,0.043647 0,0 z m 0.2361791,-0.010276 c 0.070876,-0.010202 0.1149403,-0.2370347 0.043206,-0.09975 -0.030021,0.011232 -0.1303202,0.1490452 -0.043206,0.09975 z m 0.00849,-0.055316 c 0.015647,-0.038473 0.026434,-0.00261 0,0 z m 0.037924,-0.016575 c 0.013082,-0.029144 0.011579,0.027206 0,0 z m -0.053466,0.088068 c 0.00269,-0.034107 -0.023568,0.030223 0,0 z m 0.8941064,0.0029 c -0.010253,-0.020009 -0.024909,0.01437 0,0 z M 1.4149315,2.7439048 c 0.050729,-0.1127111 -0.081302,0.031792 0,0 z m -0.017263,-0.015736 c 0.015646,-0.038471 0.026435,-0.00261 0,0 z m 0.2808336,0.015507 c 0.00531,-0.038738 -0.033206,0.037392 0,0 z m 1.0949244,-0.00838 c -0.016529,0.00871 0.020983,0.03742 0,0 z M 1.6848892,2.7049613 c 0.054054,-0.014686 0.077693,-0.1116886 0.01515,-0.036031 -0.026052,0.020856 -0.075702,0.0933 -0.01515,0.036031 z M 1.206047,2.7230543 c -0.016234,-0.00712 0.015868,0.041066 0,0 z m 0.1916212,-0.018818 c 0.076153,-0.099747 -0.058164,0.036248 0,0 z m 1.1319005,0.00358 c 0.024655,-0.0952 0.1114223,-0.1774393 0.098258,-0.2793122 -0.041837,0.077224 -0.057499,0.1766048 -0.1077088,0.2540282 -0.022194,0.00658 -0.00744,0.058301 0.00945,0.025284 z m 0.033912,-0.091583 c -0.013649,-0.060605 0.026108,0.024989 0,0 z m 0.2060073,0.086529 c -0.00445,-0.062633 -0.031695,-0.050526 0,0 z m 0.029669,0.00725 c 0.058123,-0.07735 -0.040719,0.010976 0,0 z M 1.22653,2.6550283 c -0.032776,0.035802 -3.205e-4,0.061546 0,0 z m 1.1642214,0.042347 c 0.023821,-0.041678 0.07874,-0.137877 0.00871,-0.050431 -0.00344,0.00799 -0.039429,0.066249 -0.00871,0.050431 z m 0.1951904,-0.00828 c 0.031623,-0.082836 -0.0268,-0.063305 -0.011451,0.00502 l 0.00436,0.00663 z m 0.1516946,0.00353 c -0.018355,-0.041115 -0.00979,0.041285 0,0 z M 1.4774849,2.6565702 c -0.046323,0.018239 -0.026412,0.05575 0,0 z m 0.1454727,0.02342 c -0.01839,-0.048368 -0.015493,0.049888 0,0 z m 1.0254417,0.014221 c 0.041492,-0.082093 -0.041078,-0.082073 -0.00719,0.00152 l 0.00315,0.00157 z M 1.5804942,2.6638967 c 0.011079,-0.032325 0.1400986,-0.088036 0.071936,-0.096538 -0.011105,0.049257 -0.084149,0.030976 -0.081329,0.071444 0.056657,-0.04729 -0.059413,0.070516 0.00939,0.025094 z m 0.09528,0.00346 c 0.052088,-0.017505 0.00288,-0.037415 0,0 z m 0.5398803,-0.00406 c -0.00828,-0.022485 -0.01902,0.044177 0,0 z m 0.250002,-0.011747 c -0.024825,0.00394 0.00312,0.040698 0,0 z m 0.2086771,-0.012114 c -0.011368,-0.029015 -0.00802,0.073848 0,0 z m 0.1341776,-0.00369 c -0.017321,-0.060925 0.001,0.053579 0,0 z M 1.2918361,2.59994 c 0.00974,-0.084242 0.1881787,-0.060501 0.1309971,-0.1239402 -0.015162,0.00533 -0.1115171,0.088455 -0.060815,0.022887 -0.036794,-0.0069 -0.097142,0.031237 -0.047359,0.032894 -0.017299,0.026111 -0.077694,0.1720746 -0.022823,0.068159 z m 0.09951,-0.090609 c 0.019322,-0.028016 0.015562,0.021721 0,0 z m 0.048116,0.1195592 c 0.068881,-0.065934 -0.064459,0.025875 -0.00499,0.00537 l 0.0041,-0.00442 z m 1.0425229,0.00739 c 0.018182,-0.03347 -0.021892,0.016141 0,0 z m 0.2588113,-5.377e-4 c -0.00143,-0.024214 -0.018111,0.024916 0,0 z m 0.048189,-0.014327 c -0.02196,-0.00916 0.024385,0.028728 0,0 z M 1.512614,2.6179255 c -0.010501,-0.05712 -0.015408,0.033002 0.00185,4.931e-4 z m 0.7607084,-0.00589 c 0.034004,-0.056702 -0.050888,0.062096 0,0 z m -1.0045647,-0.0158 c -0.035258,-0.022617 -0.021107,0.055711 0,0 z m 1.4019914,7.371e-4 c 0.048426,-0.046431 -0.029339,-0.1272497 -0.01863,-0.032006 -0.00268,0.00876 0.017937,0.071006 0.01863,0.032006 z m -1.3465182,0.00367 c -0.00203,-0.026918 -0.01553,0.040801 0,0 z m 0.8204525,0.0014 c 0.066288,-0.034265 -0.043558,0.00911 0,0 z m 0.4602195,-0.019135 c -0.02473,0.012082 -0.00988,0.03971 0,0 z m 0.027792,0.022277 c -0.00827,-0.022812 -0.015576,0.020204 0,0 z M 1.3153057,2.5820263 c -0.024826,0.00394 0.00312,0.040699 0,0 z m 1.0007377,0.011604 c 0.041163,-0.033833 0.1049589,-0.108235 0.011261,-0.053964 -0.016315,0.0048 -0.047858,0.059419 -0.011261,0.053964 z m -1.0763913,-0.00213 c -0.0104,-0.02254 -0.011884,0.024961 0,0 z m 0.1868541,-0.00145 c -0.017196,-0.01532 -0.024835,0.027076 0,0 z m 0.1636697,-0.00443 c 0.00364,-0.034052 -0.018936,0.020946 0,0 z m 1.157967,-0.014658 c -0.016529,0.00871 0.020983,0.03742 0,0 z m 0.033641,0.015802 c 5.145e-4,-0.050224 -0.027665,-0.00724 0,0 z m 0.054979,-0.00909 c -0.016233,-0.00712 0.015868,0.041068 0,0 z m -0.7419821,0.00106 c 0.038282,-0.013601 0.1386615,-0.106988 0.040634,-0.044983 -0.00862,0.010809 -0.068106,0.026632 -0.040634,0.044983 z m 0.7020267,-0.00303 c 0.00148,-0.047519 -0.015061,0.03584 0,0 z M 1.4615671,2.5509441 c -0.023911,-0.014416 -0.018588,0.056967 0,0 z m 0.081972,-0.013761 c -0.023063,-0.058164 -0.047662,0.041048 -0.071846,0.024079 0.00505,0.030105 0.059578,-0.014403 0.071846,-0.024079 z m -0.00349,0.030264 c -0.021853,-0.00386 -0.010474,0.025505 0,0 z m 0.7279707,-0.01955 c -0.042054,-0.027936 0.014158,0.064029 0,0 z m 0.3664846,0.017144 c -0.016233,-0.00712 0.015868,0.041067 0,0 z m -1.3948515,-0.00514 c 0.011433,-0.044193 -0.02913,0.051695 0,0 z m 0.3962355,-0.012076 c -0.020532,-0.021746 -0.051169,0.041046 0,0 z m 0.7571362,0.01185 c 0.055791,-0.054353 -0.034154,0.013996 -2.53e-5,1.037e-4 z m 0.3401235,2.065e-4 c -0.020351,-0.041799 0.00283,0.036852 0,0 z M 1.4653736,2.5239444 c -0.042483,-0.00135 -0.030702,0.056628 0,0 z m 0.7602322,0.026529 c 0.062707,-0.047343 -0.051162,0.022415 0,0 z m 0.528806,-0.036515 c -0.00177,-0.1010551 -0.018962,0.074018 0,0 z m -1.1946696,0.030126 c 0.017749,-0.035326 -0.046949,0.04537 0,0 z m 0.026319,-0.00649 c -0.020317,0.00597 -7.07e-5,0.03477 0,0 z M 2.638042,2.5250784 c -0.016577,-0.03529 -0.0058,0.069099 0,0 z m 0.1396953,0.018729 c -0.016717,-0.024805 0.00618,0.031802 0,0 z m -0.605632,-0.00797 c -0.021853,-0.00386 -0.010476,0.025506 0,0 z m -0.9221155,-0.00436 c 0.051673,-0.038162 -0.039469,0.017502 0,0 z M 1.59792,2.5270974 c -0.016233,-0.00712 0.015868,0.041067 0,0 z m 0.2611477,-0.00665 c -0.030905,-5.039e-4 -0.010588,0.034938 0,0 z m 0.9650504,0.00665 c -0.016233,-0.00712 0.015868,0.041067 0,0 z m 0.021621,-6.89e-4 c -0.027764,-0.011797 0.01038,0.026219 0,0 z M 1.7010533,2.4920762 c -0.052441,0.00599 -0.024594,0.058855 0,0 z m 0.00663,0.032881 c 0.065467,-0.062361 -0.01357,-0.029252 -0.020958,0.00658 0.00685,0.00253 0.018066,0.0016 0.020958,-0.00658 z m 0.6443882,-0.00374 c -0.020148,-0.016182 -0.00321,0.038543 0,0 z m 0.3812329,0.00864 c 0.014191,-0.050086 -0.027943,0.00285 0,0 z m -1.1434519,-0.02149 c 0.041685,-0.047264 -0.083325,0.033551 9.844e-4,0.00853 l -6.926e-4,-0.00599 z m 0.3071352,0.00755 c 0.040662,-0.057616 0.1527127,0.00861 0.1320997,-0.058056 0.072775,-0.046949 -0.1096388,0.029043 -0.1355277,0.040023 -0.019323,0.00746 -0.02845,0.037924 0.00343,0.018033 z m 0.8765617,-0.00147 c -0.016233,-0.00712 0.015869,0.041067 0,0 z m -1.4825339,-0.00355 c 0.01395,-0.028985 -0.041179,0.050814 0,0 z m 0.5009606,-0.00907 c -0.039997,-2.52e-5 -0.030678,0.040307 0,0 z m 0.4660708,0.00581 c -0.02196,-0.00916 0.024385,0.028728 0,0 z m 0.1896403,0.00327 c 0.01395,-0.028984 -0.04118,0.050814 0,0 z m -0.7908825,-0.00158 c 0.018506,-0.02488 -0.061169,0.038425 0,0 z m 0.3459216,0.0025 c -0.025745,-0.020203 -0.00845,0.01647 0,0 z m 0.4071644,-0.017726 c 0.025552,-0.027293 0.1512377,-0.1187634 0.041396,-0.08398 -0.01983,0.023805 -0.1369523,0.1363987 -0.041396,0.08398 z m -0.016735,-0.016379 c 0.017093,-0.025355 0.00369,0.024421 0,0 z m 0.022122,-0.00948 c -0.00287,-0.049691 0.088239,-0.059554 0.020218,-0.00986 0.00205,-0.00288 -0.036699,0.037034 -0.020218,0.00986 z M 1.277568,2.4930802 c -0.027742,-0.0056 -0.025545,0.038583 0,0 z m 0.4799534,0.00726 c -0.00536,-0.030509 -0.029159,0.03826 0,0 z m 0.8255993,-0.019455 c 0.033829,-0.083801 -0.052606,0.047617 -0.010977,0.012966 z M 2.4371345,2.497121 c 0.00364,-0.034052 -0.018937,0.020945 0,0 z m 0.3700254,-0.00359 c -0.011932,-0.035566 -0.00995,0.032275 0,0 z M 1.4833865,2.4791554 c -0.026975,-0.00198 -0.018981,0.042692 0,0 z m 0.3346012,0.011197 c -0.029782,-0.039347 -0.014981,0.020573 0,0 z m 0.8227049,-0.014221 c -0.016529,0.00871 0.020983,0.037421 0,0 z m 0.087123,0.00113 c 0.034255,-0.1361019 -0.062987,0.010091 0,0 z m -1.4217971,4.523e-4 c 0.026026,-0.043491 -0.056758,0.05497 0,0 z m 0.090605,-0.00205 c 0.069353,-0.069441 -0.060992,0.024334 0,0 z m 0.061045,0.00845 c -0.012031,-0.016819 -0.018666,0.030743 0,0 z m 1.2204843,-0.024671 c -0.025314,-0.029764 -0.010781,0.072983 0,0 z m -1.0561489,0.018339 c -0.012031,-0.016817 -0.018665,0.030743 0,0 z m 0.2210298,3.062e-4 c -0.020273,-0.02128 -0.022467,0.025786 0,0 z m -0.1358398,-0.00646 c 0.022821,-0.029955 -0.062199,0.030221 0,0 z m 0.2024426,-2.368e-4 c -0.0104,-0.022539 -0.011885,0.02496 0,0 z m 0.2781069,0 c -0.053191,-0.036358 0.010233,0.022878 0,0 z m 0.3294841,-0.0079 c 0.011307,-0.03884 -0.035832,0.057256 0,0 z m 0.1853755,0.00834 c 0.00364,-0.034051 -0.018936,0.020947 0,0 z m 0.1045601,-0.00359 c -0.00478,-0.028158 -0.013322,0.032333 0,0 z m 0.065418,-0.030201 c 0.00378,-0.049149 -0.00839,-0.1361019 -0.010935,-0.037367 -0.00478,0.016556 0.00895,0.1005216 0.010935,0.037367 z m -0.9266385,0.02306 c 0.044143,-0.024744 -0.077693,0.019126 0,0 z m 0.1516012,0.00647 c -0.025748,-0.020214 -0.00845,0.016473 0,0 z m -0.2654655,-0.00632 c -0.025747,-0.02021 -0.00845,0.016472 0,0 z m 0.2963336,-0.010403 c 0.022721,-0.041904 -0.098576,-0.066412 -0.0389,-0.018206 0.038471,0.00799 0.00776,0.042515 0.0389,0.018206 z m 0.4826193,-0.00789 c -0.024825,0.00394 0.00312,0.040697 0,0 z m -1.2601388,-0.00148 c -0.045717,-0.015286 -0.021268,0.031604 0,0 z m 0.1108615,0.00484 c 0.024078,-0.037825 -0.05743,0.043824 0,0 z m 1.1076382,0.00262 c -0.00203,-0.026918 -0.01553,0.040801 0,0 z m 0.27863,-0.01752 c -0.029627,-0.026329 -0.031108,0.00234 -0.00758,-0.00218 -0.00469,0.00598 0.00357,0.046054 0.00758,0.00218 z m -0.8909805,0.00847 c 0.092474,-0.00746 -0.025624,-0.035146 -0.047223,0.00179 l 0.023652,0.00104 z m 0.2243819,-0.00582 c -0.064815,-0.076532 -0.057371,0.030686 0,0 z m -0.132733,-0.013975 c -0.039201,-0.02763 -0.014507,0.050706 0,0 z m 0.212233,-0.00135 c -0.04946,-0.00431 0.056782,-0.051327 -0.028219,-0.020115 -0.1205962,-0.01399 -0.019078,0.047108 0.028219,0.020114 z m -0.5834484,0.01058 c -0.037154,-0.015892 -0.013852,0.014547 0,0 z m 0.845261,-0.011657 c 0.037205,-0.052607 -0.055235,0.057338 0,0 z m 0.098354,-0.012966 c 0.011524,-0.05714 -0.030229,0.074371 0,0 z M 1.433302,2.4189011 c -0.02016,-0.01951 -0.025674,0.025941 0,0 z m 0.3625644,0.00192 c -0.01543,-0.030038 -0.016055,0.029767 0,0 z m 0.075848,5.556e-4 c -0.033695,-0.019918 -0.041561,0.024258 0,0 z m 0.5305186,-0.00322 c 0.00147,-0.030193 -0.031416,0.036686 0,0 z m -0.6862105,-0.0023 c -0.011428,-0.020538 -0.022934,0.019112 0,0 z m 0.1161742,-0.00768 c -0.030046,-0.023288 -0.018345,0.045041 0,0 z m 0.076536,0.00702 c 0.00562,-0.031873 -0.032297,0.024779 0,0 z m 0.8269415,-0.024396 c -0.015081,0.012025 0.016658,0.050608 0,0 z m 0.076111,0.022122 c 0.041941,-0.079301 -0.035375,8.635e-4 -0.00656,0.00401 l 0.00515,-0.00314 z m -0.8705445,-0.0058 c -0.014331,-0.022332 -0.01956,0.024649 0,0 z m 0.3444731,0.00105 c -0.00344,-0.026858 -0.025344,0.035281 0,0 z m -0.4030697,-0.00382 c -0.025745,-0.020199 -0.00845,0.016469 0,0 z m 0.4361208,-0.012641 c -0.025748,-0.020213 -0.00845,0.016473 0,0 z m 0.1281241,-0.00386 c -0.025297,-0.02269 -0.031084,0.022698 0,0 z m -0.096521,-0.00246 c -0.025748,-0.020209 -0.00845,0.016471 0,0 z m 0.1433939,-0.00656 c -0.00828,-0.022485 -0.01902,0.044176 0,0 z m 0.298335,-0.015713 c -0.00954,-0.053899 -0.00979,0.066614 0,0 z m -0.2622338,0.0087 c 0.01395,-0.028984 -0.04118,0.050815 0,0 z m 0.1730103,0.00474 c -0.00143,-0.024213 -0.018111,0.024916 0,0 z m -0.2796868,-0.0105 c -0.033506,-0.01847 -0.00975,0.015742 0,0 z m 0.2114343,-0.027458 c -0.00549,-0.083582 -0.030797,0.071283 0,0 z m 0.1105549,-0.015807 c 0.039967,-0.042317 0.025543,-0.1354472 -0.00806,-0.04974 -0.01044,0.018198 -7.834e-4,0.1212935 0.00806,0.04974 z m -0.00122,-0.043897 c 0.01655,-0.048093 0.026793,0.00924 0.00294,0.012144 z m -0.069123,0.044192 c 0.041904,-0.02145 -0.00202,-0.070305 -0.017364,0.00351 -0.015981,0.041118 0.013162,0.00503 0.017364,-0.00351 z m 0.1015344,0.017141 c 0.01395,-0.028985 -0.04118,0.050814 0,0 z m -0.068724,-0.025271 c -0.034559,-0.00668 0.018819,0.049944 0,0 z m 0.018679,0.011208 c 0.00384,-0.068007 -0.018783,0.042849 0,0 z m 0.092181,-0.010536 c -0.022217,-0.0081 0.016148,0.047662 0,0 z m -0.03301,-0.00963 c -0.011997,-0.036562 -0.00892,0.037713 0,0 z M 2.5601527,2.2817745 c 0.00605,-0.033676 -0.028463,0.063229 0,0 z m 0.1094535,-0.023783 c 0.013414,-0.053445 -0.00172,-0.1003448 -0.00748,-0.019988 -0.00643,0.022037 -0.00236,0.078816 0.00748,0.019988 z m 0.1589472,0.00956 c -0.015908,-0.077648 -0.00995,0.078183 0,0 z m -0.1390695,-0.00191 c -0.00203,-0.026918 -0.01553,0.040802 0,0 z m -0.097318,-0.017426 c -0.029573,-3.667e-4 0.00793,0.034732 0,0 z m 0.012408,-0.00279 c 0.014282,-0.047778 -6.767e-4,-0.086031 -0.0085,-0.014137 -0.00273,0.00268 8.618e-4,0.019399 0.0085,0.014137 z m 0.1164433,-0.012642 c -0.00426,-0.073425 -0.012809,0.062978 0,0 z m 0.1410292,0.00988 c -0.016233,-0.00712 0.015868,0.041067 0,0 z M 2.69139,2.2363435 c -0.016233,-0.00712 0.015868,0.041067 0,0 z m 0.061051,-0.00797 c -0.016221,-0.023996 -0.00947,0.029795 0,0 z M 2.83709,2.1932885 C 2.83241,2.1122835 2.812623,2.1438705 2.83274,2.2077605 Z m -0.089894,-0.00519 c -0.025353,-0.00367 0.00374,0.030942 0,0 z m 0.1333851,-0.020092 c -0.018282,-0.081371 -0.010334,0.06933 0,0 z m -0.2833378,-0.00719 c -0.020395,0.00431 0.00939,0.027829 0,0 z m 0.1276568,0.00244 c -0.012431,-0.044766 -0.00441,0.066673 0,0 z m 0.026884,0.0018 c 0.0074,-0.1124415 -0.037015,-0.032588 0,0 z m -0.1312427,-0.00423 c -0.017642,-0.060172 -0.00376,0.041218 0,0 z m 0.3236732,-0.050894 c -0.016234,-0.00712 0.015868,0.041067 0,0 z m -0.1433712,-0.02447 c -0.021436,-0.030891 -0.00121,0.037542 0,0 z m -0.026863,-0.00911 c -0.011286,-0.047646 -0.00597,0.04484 0,0 z m -0.032157,-0.011061 c -0.016529,0.00871 0.020983,0.03742 0,0 z m 0.087,-0.012033 c 0.016852,-0.084099 -0.036229,0.032987 0,0 z m -0.1986364,0.00413 c -0.00478,-0.028158 -0.013321,0.032334 0,0 z m 0.1206854,-0.0056 c 0.022086,-0.049515 0.043683,-0.1165339 -0.00929,-0.037773 -0.00668,0.00431 0.017822,0.072745 0.00929,0.037773 z m 0.015208,-0.054441 c 0.017093,-0.025355 0.00369,0.024421 0,0 z m 0.015802,0.044761 c 0.035243,-0.071657 -0.03866,0.024656 0,0 z m 0.027389,-0.010469 c -0.023138,-0.015055 0.00226,0.064799 0,0 z m -0.2423872,-0.0027 c 0.012557,-0.039762 0.028341,-0.2097526 0.00662,-0.086154 6.997e-4,0.026052 -0.03024,0.066 -0.00662,0.086154 z m 0.1561207,0.010251 c 0.022784,-0.03537 -0.00723,-0.021722 -0.00604,0.00277 z m 0.00709,-0.045181 c -0.020317,0.00597 -7.07e-5,0.034769 0,0 z m -0.061502,-0.029855 c 0.020081,-0.075157 -0.023604,-0.033007 0,0 z m -0.04041,-0.012246 c -0.016233,-0.00712 0.015867,0.041067 0,0 z m 0.1200914,0 c -0.016233,-0.00712 0.015868,0.041067 0,0 z m 0.090492,0.00434 c -0.011931,-0.035566 -0.00995,0.032274 0,0 z m -0.1074533,-0.0513 c -0.024666,-0.018194 0.00201,0.035231 0,0 z m 0.084454,0.00707 c 0.00148,-0.047518 -0.015061,0.03584 0,0 z M 2.679219,1.9115422 c 0.029692,-0.056933 -0.035963,-0.013433 0,0 z m 0.022699,-0.01869 c -0.014949,-0.026475 0.00244,0.038342 0,0 z m 0.048357,-0.00928 c -0.015431,-0.030037 -0.016056,0.029766 0,0 z m 0.1169312,0 c -0.00143,-0.024213 -0.018111,0.024916 0,0 z m -0.1206485,-0.03153 c -0.028322,0.00834 0.01898,0.033507 0,0 z m -0.1479775,-7.07e-5 c -0.013082,-0.029144 -0.01158,0.027206 0,0 z m 0.1516946,-0.022122 c -0.014692,-0.031053 -0.00954,0.028891 0,0 z m -0.044244,-0.00958 c -0.00347,-0.04401 -0.011121,-0.025291 -0.00148,0.00362 z m 0.09159,-0.012544 c 0.064685,-0.02643 -0.085093,-0.049626 -0.024813,-0.1099601 0.046885,0.065268 0.036306,0.00823 0.00848,-0.025763 -0.099091,0.00903 -0.042373,0.1403403 0.016327,0.1357237 z m -0.049348,-0.0075 c -0.016233,-0.00712 0.015868,0.041067 0,0 z m 0.1663387,0.00319 c 0.060326,0.0033 0.1328145,-0.037329 0.1123988,-0.069888 -0.04341,-0.023373 -0.1292006,-0.1083149 -0.1572953,-0.062538 0.02894,0.00999 0.1122027,0.04175 0.046276,0.069044 0.065511,0.026147 0.069141,0.041603 -0.0032,0.024869 -0.083873,0.017708 -0.028371,0.023736 0.01977,0.015771 -0.012437,0.01185 -0.06871,0.042154 -0.017947,0.022743 z m -0.2671931,-0.00847 c -0.019346,-0.032275 -0.00126,0.036357 0,0 z m 0.087056,-0.012504 c -0.00143,-0.024214 -0.018111,0.024916 0,0 z M 2.6321196,1.7404574 c 0.00469,-0.061608 -0.022781,0.013823 0,0 z m 0.035795,-0.018055 c -0.024825,0.00394 0.00312,0.040698 0,0 z m 0.1691383,0.011983 c -0.025745,-0.020203 -0.00845,0.01647 0,0 z M 2.6459857,1.681319 c -0.00143,-0.024214 -0.01811,0.024917 0,0 z m 0.015389,-0.021625 c 0.00147,-0.030193 -0.031416,0.036687 0,0 z m 0.18055,0.00266 c -0.011783,-0.021431 -0.01607,0.022933 0,0 z m -0.116931,-0.00871 c -0.015646,-0.038472 -0.026434,-0.00261 0,0 z m 0.057366,-0.049376 c -0.021295,-0.025554 -0.016721,0.063019 0,0 z m 0.071093,0.023942 c -0.015185,-0.029541 -0.020003,0.029443 0,0 z M 2.8269307,1.62023 c 0.00572,-0.026269 -0.042095,0.041984 0,0 z M 2.7194225,1.61653 c 0.032833,-0.123553 -0.058365,0.017642 0,0 z M 2.8556438,1.554904 c 0.033101,-0.076959 -0.075053,0.085798 0,0 z M 2.6133302,3.6751831 c 0.0064,-0.033998 0.013556,0.023537 0,0 z M 1.7958656,3.1662891 c 0.013308,-0.015594 0.010637,0.02418 0,0 z M 1.4924764,2.407816 c 0.013308,-0.015594 0.010637,0.02418 0,0 z M 2.5957892,1.7893626 c -0.029802,-0.078669 0.04063,-0.054018 0,0 z"
       id="path307-3"
       inkscape:connector-curvature="0"
       sodipodi:nodetypes="cccccccccccccccccccccccccccccccccccccccccccccccccccccccccccccccccccccccccccccccccccccccccccccccccccccccccccccccccccccccccccccccccccccccccccccccccccccccccccccccccccccccccccccccccccccccccccccccccccccccccccccccccccccccccccccccccccccccccccccccccccccccccccccccccccccccccccccccccccccccccccccccccccccccccccccccccccccccccccccccccccccccccccccccccccccccccccccccccccccccccccccccccccccccccccccccccccccccccccccccccccccccccccccccccccccccccccccccccccccccccccccccccccccccccccccccccccccccccccccccccccccccccccccccccccccccccccccccccccccccccccccccccccccccccccccccccccccccccccccccccccccccccccccccccccccccccccccccccccccccccccccccccccccccccccccccaacccccccccccccccccccccccccccccccccccccssccccccccccccccccccccccccccccccccccccccccccccccccccccccccccccccccccccccccccccccccccccccccccccccccccccccccccccccccccccccccccccccccccccccccccccccccccccccccccccccccccccccccccccccccccccccccccccccccccccccccccccccccccccccccccsscccccccccccccccccccccccccccccccccccccccccccccccccccccccccccccccccccccccccccccccccccccccccccccccccccccccaaccccccaa" />
  </g>
</svg>
