<?xml version="1.0" encoding="UTF-8" standalone="no"?>
<!-- Created with Inkscape (http://www.inkscape.org/) -->

<svg
   xmlns:dc="http://purl.org/dc/elements/1.1/"
   xmlns:cc="http://creativecommons.org/ns#"
   xmlns:rdf="http://www.w3.org/1999/02/22-rdf-syntax-ns#"
   xmlns:svg="http://www.w3.org/2000/svg"
   xmlns="http://www.w3.org/2000/svg"
   xmlns:xlink="http://www.w3.org/1999/xlink"
   xmlns:sodipodi="http://sodipodi.sourceforge.net/DTD/sodipodi-0.dtd"
   xmlns:inkscape="http://www.inkscape.org/namespaces/inkscape"
   width="16"
   height="16"
   viewBox="0 0 4.2333332 4.2333335"
   version="1.1"
   id="svg384"
   enable-background="new"
   inkscape:version="0.92.3 (2405546, 2018-03-11)"
   sodipodi:docname="text16-base.svg">
  <defs
     id="defs378">
    <radialGradient
       gradientTransform="matrix(5.6949649,0,0,0.99999992,75.334676,75.001496)"
       gradientUnits="userSpaceOnUse"
       xlink:href="#linearGradient3688-464-309-255"
       id="radialGradient4093"
       fy="43.5"
       fx="4.9929786"
       r="2.5"
       cy="43.5"
       cx="4.9929786" />
    <linearGradient
       id="linearGradient3688-464-309-255">
      <stop
         id="stop3094"
         style="stop-color:#181818;stop-opacity:1"
         offset="0" />
      <stop
         id="stop3096"
         style="stop-color:#181818;stop-opacity:0"
         offset="1" />
    </linearGradient>
    <radialGradient
       gradientTransform="matrix(5.6949649,0,0,0.99999992,-52.665305,-162.00149)"
       gradientUnits="userSpaceOnUse"
       xlink:href="#linearGradient3688-464-309-255"
       id="radialGradient4095"
       fy="43.5"
       fx="4.9929786"
       r="2.5"
       cy="43.5"
       cx="4.9929786" />
    <linearGradient
       gradientUnits="userSpaceOnUse"
       xlink:href="#linearGradient3702-501-757-486"
       id="linearGradient4097"
       y2="39.999443"
       x2="25.058096"
       y1="47.027729"
       x1="25.058096"
       gradientTransform="matrix(2.8421052,0,0,0.71428566,-4.2105336,87.430066)" />
    <linearGradient
       id="linearGradient3702-501-757-486">
      <stop
         id="stop3100"
         style="stop-color:#181818;stop-opacity:0"
         offset="0" />
      <stop
         id="stop3102"
         style="stop-color:#181818;stop-opacity:1"
         offset="0.5" />
      <stop
         id="stop3104"
         style="stop-color:#181818;stop-opacity:0"
         offset="1" />
    </linearGradient>
    <linearGradient
       x1="25.132275"
       y1="0.98520643"
       x2="25.132275"
       y2="47.013336"
       id="linearGradient3019-2-2"
       xlink:href="#linearGradient3600"
       gradientUnits="userSpaceOnUse"
       gradientTransform="matrix(0.07559507,0,0,0.08048497,0.30238504,0.06158085)" />
    <linearGradient
       id="linearGradient3600">
      <stop
         id="stop3602"
         style="stop-color:#f4f4f4;stop-opacity:1"
         offset="0" />
      <stop
         id="stop3604"
         style="stop-color:#dbdbdb;stop-opacity:1"
         offset="1" />
    </linearGradient>
    <linearGradient
       inkscape:collect="always"
       xlink:href="#linearGradient3600"
       id="linearGradient1095"
       x1="81"
       y1="16.8125"
       x2="109.375"
       y2="16.8125"
       gradientUnits="userSpaceOnUse"
       gradientTransform="matrix(0.02797354,0,0,0.02797354,0.37997731,0.19115322)" />
    <linearGradient
       gradientTransform="matrix(0.02639506,0,0,0.03011393,0.42605513,0.30987934)"
       inkscape:collect="always"
       xlink:href="#linearGradient3977-3"
       id="linearGradient1059"
       x1="18"
       y1="59.999973"
       x2="110.10006"
       y2="59.999973"
       gradientUnits="userSpaceOnUse" />
    <linearGradient
       id="linearGradient3977-3">
      <stop
         id="stop3979-6"
         style="stop-color:#ffffff;stop-opacity:1"
         offset="0" />
      <stop
         id="stop3981-0"
         style="stop-color:#ffffff;stop-opacity:0.23529412"
         offset="0.00648027" />
      <stop
         id="stop3983-6"
         style="stop-color:#ffffff;stop-opacity:0.15686275"
         offset="0.99423188" />
      <stop
         id="stop3985-2"
         style="stop-color:#ffffff;stop-opacity:0.39215687"
         offset="1" />
    </linearGradient>
    <linearGradient
       inkscape:collect="always"
       xlink:href="#linearGradient3600"
       id="linearGradient1722"
       gradientUnits="userSpaceOnUse"
       gradientTransform="matrix(0.02797354,0,0,0.02797354,0.37997731,0.19115322)"
       x1="81"
       y1="77.06472"
       x2="81"
       y2="190.75049" />
  </defs>
  <sodipodi:namedview
     id="base"
     pagecolor="#ffffff"
     bordercolor="#666666"
     borderopacity="1.0"
     inkscape:pageopacity="0.0"
     inkscape:pageshadow="2"
     inkscape:zoom="24.48"
     inkscape:cx="8.8406804"
     inkscape:cy="7.42874"
     inkscape:document-units="px"
     inkscape:current-layer="layer10"
     showgrid="true"
     units="px"
     inkscape:window-width="902"
     inkscape:window-height="650"
     inkscape:window-x="71"
     inkscape:window-y="115"
     inkscape:window-maximized="0" />
  <metadata
     id="metadata381">
    <rdf:RDF>
      <cc:Work
         rdf:about="">
        <dc:format>image/svg+xml</dc:format>
        <dc:type
           rdf:resource="http://purl.org/dc/dcmitype/StillImage" />
        <dc:title></dc:title>
      </cc:Work>
    </rdf:RDF>
  </metadata>
  <g
     inkscape:groupmode="layer"
     id="layer3"
     inkscape:label="Layer 3"
     style="display:inline"
     sodipodi:insensitive="true">
    <path
       style="fill:url(#linearGradient1095);fill-opacity:1;stroke:#000000;stroke-width:0;stroke-linecap:round;stroke-linejoin:round;stroke-miterlimit:4;stroke-dasharray:none;stroke-opacity:1"
       d="M 2.6458338,0.26458377 V 1.0583328 h 0.793749 z"
       id="path1720"
       inkscape:connector-curvature="0" />
    <path
       style="fill:url(#linearGradient1722);fill-opacity:1;stroke:#000000;stroke-width:0;stroke-linecap:round;stroke-linejoin:round;stroke-miterlimit:4;stroke-dasharray:none;stroke-opacity:1"
       d="M 2.645842,1.0583333 H 3.4395835 V 3.96875 H 0.79375003 V 0.26460554 l -3e-8,1.428e-5 1.8520747,-1.46e-5 c 1.73e-5,0.79372808 1.73e-5,0.79372808 1.73e-5,0.79372808 z"
       id="path1087"
       inkscape:connector-curvature="0" />
  </g>
  <g
     inkscape:groupmode="layer"
     id="layer4"
     inkscape:label="Layer 4"
     style="display:inline"
     sodipodi:insensitive="true">
    <path
       style="display:inline;fill:none;stroke:url(#linearGradient1059);stroke-width:0.24123368;stroke-linecap:round;stroke-linejoin:round;stroke-miterlimit:4;stroke-dasharray:none;stroke-opacity:1"
       d="m 3.3189527,1.2886279 -0.00263,2.5595056 H 0.91436685 V 0.38521222 H 2.5244649"
       id="path1048"
       inkscape:connector-curvature="0"
       sodipodi:nodetypes="ccccc" />
  </g>
  <g
     inkscape:groupmode="layer"
     id="layer2"
     inkscape:label="Layer 2"
     style="display:inline"
     sodipodi:insensitive="true">
    <path
       id="path1001"
       style="display:inline;fill:none;stroke:#bebebe;stroke-width:0.25404942;stroke-linecap:round;stroke-linejoin:round;stroke-miterlimit:4;stroke-dasharray:none;stroke-opacity:1;paint-order:normal"
       d="M 2.50825,0.12831369 3.5758548,1.1959167 M 2.50825,0.12831369 0.65619138,0.12808591 v -9.49e-6 3.97823218 H 3.5758548 V 1.1959167 m 0,-3e-7 H 2.50825 V 0.12831369"
       inkscape:connector-curvature="0" />
  </g>
  <g
     inkscape:label="Layer 1"
     inkscape:groupmode="layer"
     id="layer1"
     transform="translate(0,-292.76665)"
     style="display:inline"
     sodipodi:insensitive="true">
    <g
       id="g978"
       style="display:inline;opacity:0.2;fill:#808080;fill-opacity:1;stroke:none;stroke-width:1.03923047"
       transform="matrix(0.03429784,0,0,0.05291667,-0.07839478,290.59699)">
      <rect
         style="fill:#808080;fill-opacity:1;stroke:none;stroke-width:1.48070288"
         id="rect2801"
         y="116.00149"
         x="103.78947"
         height="4.9999995"
         width="14.210526" />
      <rect
         style="fill:#808080;fill-opacity:1;stroke:none;stroke-width:1.48070288"
         id="rect3696"
         transform="scale(-1)"
         y="-121.00149"
         x="-24.210518"
         height="4.9999995"
         width="14.210526" />
      <rect
         style="fill:#808080;fill-opacity:1;stroke:none;stroke-width:1.48070288"
         id="rect3700"
         y="116.00149"
         x="24.210518"
         height="5"
         width="79.578949" />
    </g>
  </g>
  <g
     inkscape:groupmode="layer"
     id="layer10"
     inkscape:label="Layer 5">
    <g
       transform="matrix(0.0625,0,0,0.0625,-1.7239584,-5.7333333)"
       style="display:inline"
       id="g1247">
      <g
         aria-label="O"
         transform="matrix(0.26458333,0,0,0.26458333,6.4487065,-1.2351503)"
         style="font-style:normal;font-variant:normal;font-weight:bold;font-stretch:normal;font-size:192px;line-height:1.25;font-family:'DejaVu Sans';-inkscape-font-specification:'DejaVu Sans, Bold';font-variant-ligatures:normal;font-variant-caps:normal;font-variant-numeric:normal;font-feature-settings:normal;text-align:start;letter-spacing:0px;word-spacing:0px;writing-mode:lr-tb;text-anchor:start;display:inline;fill:#0047ab;fill-opacity:1;stroke:none"
         id="flowRoot32-4">
        <path
           d="m 207.87891,456.31445 q -16.5,0 -25.59375,12.1875 -9.09375,12.1875 -9.09375,34.3125 0,22.03125 9.09375,34.21875 9.09375,12.1875 25.59375,12.1875 16.59375,0 25.6875,-12.1875 9.09375,-12.1875 9.09375,-34.21875 0,-22.125 -9.09375,-34.3125 -9.09375,-12.1875 -25.6875,-12.1875 z m 0,-26.15625 q 33.75,0 52.875,19.3125 19.125,19.3125 19.125,53.34375 0,33.9375 -19.125,53.25 -19.125,19.3125 -52.875,19.3125 -33.65625,0 -52.875,-19.3125 -19.125,-19.3125 -19.125,-53.25 0,-34.03125 19.125,-53.34375 19.21875,-19.3125 52.875,-19.3125 z"
           style="fill:#0047ab;fill-opacity:1"
           id="path888"
           inkscape:connector-curvature="0" />
      </g>
      <g
         id="flowRoot21-6"
         style="font-style:normal;font-variant:normal;font-weight:bold;font-stretch:normal;font-size:160px;line-height:1.25;font-family:'DejaVu Sans';-inkscape-font-specification:'DejaVu Sans, Bold';font-variant-ligatures:normal;font-variant-caps:normal;font-variant-numeric:normal;font-feature-settings:normal;text-align:start;letter-spacing:0px;word-spacing:0px;writing-mode:lr-tb;text-anchor:start;fill:#000000;fill-opacity:1;stroke:none"
         transform="matrix(0.26458333,0,0,0.26458333,12.267611,5.6215555)"
         aria-label="o">
        <path
           inkscape:connector-curvature="0"
           d="m 186.65625,451.05078 q -9.29688,0 -14.21875,6.71875 -4.84375,6.64063 -4.84375,19.21875 0,12.57813 4.84375,19.29688 4.92187,6.64062 14.21875,6.64062 9.14062,0 13.98437,-6.64062 4.84375,-6.71875 4.84375,-19.29688 0,-12.57812 -4.84375,-19.21875 -4.84375,-6.71875 -13.98437,-6.71875 z m 0,-20 q 22.57812,0 35.23437,12.1875 12.73438,12.1875 12.73438,33.75 0,21.5625 -12.73438,33.75 -12.65625,12.1875 -35.23437,12.1875 -22.65625,0 -35.46875,-12.1875 -12.73438,-12.1875 -12.73438,-33.75 0,-21.5625 12.73438,-33.75 12.8125,-12.1875 35.46875,-12.1875 z m 16.41956,86.07974 23.56789,18.94526 17.78612,-17.78612 -18.93883,-23.57432 z m -35.70225,-80.53285 -23.5679,-18.94526 -17.78612,17.78612 18.93883,23.57433 z m -22.41528,58.11755 -18.94526,23.5679 17.78612,17.78612 23.57433,-18.93883 z m 80.53285,-35.70225 18.94526,-23.56789 -17.78612,-17.78612 -23.57432,18.93883 z m -80.66564,2.00115 -30.06134,3.2687 v 25.15337 l 30.06134,3.27779 z m 82.19063,31.70002 30.06134,-3.2687 v -25.15337 l -30.06134,-3.27779 z m -57.64144,25.24527 3.2687,30.06134 h 25.15337 l 3.27779,-30.06134 z m 31.70002,-82.19063 -3.26869,-30.06134 h -25.15338 l -3.27778,30.06134 z"
           id="path1012-2" />
      </g>
    </g>
  </g>
</svg>
