<?xml version="1.0" encoding="UTF-8" standalone="no"?>
<!-- Created with Inkscape (http://www.inkscape.org/) -->

<svg
   xmlns:dc="http://purl.org/dc/elements/1.1/"
   xmlns:cc="http://creativecommons.org/ns#"
   xmlns:rdf="http://www.w3.org/1999/02/22-rdf-syntax-ns#"
   xmlns:svg="http://www.w3.org/2000/svg"
   xmlns="http://www.w3.org/2000/svg"
   xmlns:xlink="http://www.w3.org/1999/xlink"
   xmlns:sodipodi="http://sodipodi.sourceforge.net/DTD/sodipodi-0.dtd"
   xmlns:inkscape="http://www.inkscape.org/namespaces/inkscape"
   width="16"
   height="16"
   viewBox="0 0 4.2333332 4.2333335"
   version="1.1"
   id="svg384"
   enable-background="new"
   inkscape:version="0.92.3 (2405546, 2018-03-11)"
   sodipodi:docname="text16-tcl.svg">
  <defs
     id="defs378">
    <radialGradient
       gradientTransform="matrix(5.6949649,0,0,0.99999992,75.334676,75.001496)"
       gradientUnits="userSpaceOnUse"
       xlink:href="#linearGradient3688-464-309-255"
       id="radialGradient4093"
       fy="43.5"
       fx="4.9929786"
       r="2.5"
       cy="43.5"
       cx="4.9929786" />
    <linearGradient
       id="linearGradient3688-464-309-255">
      <stop
         id="stop3094"
         style="stop-color:#181818;stop-opacity:1"
         offset="0" />
      <stop
         id="stop3096"
         style="stop-color:#181818;stop-opacity:0"
         offset="1" />
    </linearGradient>
    <radialGradient
       gradientTransform="matrix(5.6949649,0,0,0.99999992,-52.665305,-162.00149)"
       gradientUnits="userSpaceOnUse"
       xlink:href="#linearGradient3688-464-309-255"
       id="radialGradient4095"
       fy="43.5"
       fx="4.9929786"
       r="2.5"
       cy="43.5"
       cx="4.9929786" />
    <linearGradient
       gradientUnits="userSpaceOnUse"
       xlink:href="#linearGradient3702-501-757-486"
       id="linearGradient4097"
       y2="39.999443"
       x2="25.058096"
       y1="47.027729"
       x1="25.058096"
       gradientTransform="matrix(2.8421052,0,0,0.71428566,-4.2105336,87.430066)" />
    <linearGradient
       id="linearGradient3702-501-757-486">
      <stop
         id="stop3100"
         style="stop-color:#181818;stop-opacity:0"
         offset="0" />
      <stop
         id="stop3102"
         style="stop-color:#181818;stop-opacity:1"
         offset="0.5" />
      <stop
         id="stop3104"
         style="stop-color:#181818;stop-opacity:0"
         offset="1" />
    </linearGradient>
    <linearGradient
       x1="25.132275"
       y1="0.98520643"
       x2="25.132275"
       y2="47.013336"
       id="linearGradient3019-2-2"
       xlink:href="#linearGradient3600"
       gradientUnits="userSpaceOnUse"
       gradientTransform="matrix(0.07559507,0,0,0.08048497,0.30238504,0.06158085)" />
    <linearGradient
       id="linearGradient3600">
      <stop
         id="stop3602"
         style="stop-color:#f4f4f4;stop-opacity:1"
         offset="0" />
      <stop
         id="stop3604"
         style="stop-color:#dbdbdb;stop-opacity:1"
         offset="1" />
    </linearGradient>
    <linearGradient
       inkscape:collect="always"
       xlink:href="#linearGradient3600"
       id="linearGradient1095"
       x1="81"
       y1="16.8125"
       x2="109.375"
       y2="16.8125"
       gradientUnits="userSpaceOnUse"
       gradientTransform="matrix(0.02797354,0,0,0.02797354,0.37997731,0.19115322)" />
    <linearGradient
       gradientTransform="matrix(0.02639506,0,0,0.03011393,0.42605513,0.30987934)"
       inkscape:collect="always"
       xlink:href="#linearGradient3977-3"
       id="linearGradient1059"
       x1="18"
       y1="59.999973"
       x2="110.10006"
       y2="59.999973"
       gradientUnits="userSpaceOnUse" />
    <linearGradient
       id="linearGradient3977-3">
      <stop
         id="stop3979-6"
         style="stop-color:#ffffff;stop-opacity:1"
         offset="0" />
      <stop
         id="stop3981-0"
         style="stop-color:#ffffff;stop-opacity:0.23529412"
         offset="0.00648027" />
      <stop
         id="stop3983-6"
         style="stop-color:#ffffff;stop-opacity:0.15686275"
         offset="0.99423188" />
      <stop
         id="stop3985-2"
         style="stop-color:#ffffff;stop-opacity:0.39215687"
         offset="1" />
    </linearGradient>
    <linearGradient
       inkscape:collect="always"
       xlink:href="#linearGradient3600"
       id="linearGradient1722"
       gradientUnits="userSpaceOnUse"
       gradientTransform="matrix(0.02797354,0,0,0.02797354,0.37997731,0.19115322)"
       x1="81"
       y1="77.06472"
       x2="81"
       y2="190.75049" />
  </defs>
  <sodipodi:namedview
     id="base"
     pagecolor="#ffffff"
     bordercolor="#666666"
     borderopacity="1.0"
     inkscape:pageopacity="0.0"
     inkscape:pageshadow="2"
     inkscape:zoom="24.48"
     inkscape:cx="7.7646238"
     inkscape:cy="7.42874"
     inkscape:document-units="px"
     inkscape:current-layer="layer23"
     showgrid="true"
     units="px"
     inkscape:window-width="854"
     inkscape:window-height="703"
     inkscape:window-x="583"
     inkscape:window-y="265"
     inkscape:window-maximized="0" />
  <metadata
     id="metadata381">
    <rdf:RDF>
      <cc:Work
         rdf:about="">
        <dc:format>image/svg+xml</dc:format>
        <dc:type
           rdf:resource="http://purl.org/dc/dcmitype/StillImage" />
        <dc:title />
      </cc:Work>
    </rdf:RDF>
  </metadata>
  <g
     inkscape:groupmode="layer"
     id="layer3"
     inkscape:label="Layer 3"
     style="display:inline"
     sodipodi:insensitive="true">
    <path
       style="fill:url(#linearGradient1095);fill-opacity:1;stroke:#000000;stroke-width:0;stroke-linecap:round;stroke-linejoin:round;stroke-miterlimit:4;stroke-dasharray:none;stroke-opacity:1"
       d="M 2.6458338,0.26458377 V 1.0583328 h 0.793749 z"
       id="path1720"
       inkscape:connector-curvature="0" />
    <path
       style="fill:url(#linearGradient1722);fill-opacity:1;stroke:#000000;stroke-width:0;stroke-linecap:round;stroke-linejoin:round;stroke-miterlimit:4;stroke-dasharray:none;stroke-opacity:1"
       d="M 2.645842,1.0583333 H 3.4395835 V 3.96875 H 0.79375003 V 0.26460554 l -3e-8,1.428e-5 1.8520747,-1.46e-5 c 1.73e-5,0.79372808 1.73e-5,0.79372808 1.73e-5,0.79372808 z"
       id="path1087"
       inkscape:connector-curvature="0" />
  </g>
  <g
     inkscape:groupmode="layer"
     id="layer4"
     inkscape:label="Layer 4"
     style="display:inline"
     sodipodi:insensitive="true">
    <path
       style="display:inline;fill:none;stroke:url(#linearGradient1059);stroke-width:0.24123368;stroke-linecap:round;stroke-linejoin:round;stroke-miterlimit:4;stroke-dasharray:none;stroke-opacity:1"
       d="m 3.3189527,1.2886279 -0.00263,2.5595056 H 0.91436685 V 0.38521222 H 2.5244649"
       id="path1048"
       inkscape:connector-curvature="0"
       sodipodi:nodetypes="ccccc" />
  </g>
  <g
     inkscape:groupmode="layer"
     id="layer2"
     inkscape:label="Layer 2"
     style="display:inline"
     sodipodi:insensitive="true">
    <path
       id="path1001"
       style="display:inline;fill:none;stroke:#bebebe;stroke-width:0.25404942;stroke-linecap:round;stroke-linejoin:round;stroke-miterlimit:4;stroke-dasharray:none;stroke-opacity:1;paint-order:normal"
       d="M 2.50825,0.12831369 3.5758548,1.1959167 M 2.50825,0.12831369 0.65619138,0.12808591 v -9.49e-6 3.97823218 H 3.5758548 V 1.1959167 m 0,-3e-7 H 2.50825 V 0.12831369"
       inkscape:connector-curvature="0" />
  </g>
  <g
     inkscape:label="Layer 1"
     inkscape:groupmode="layer"
     id="layer1"
     transform="translate(0,-292.76665)"
     style="display:inline"
     sodipodi:insensitive="true">
    <g
       id="g978"
       style="display:inline;opacity:0.2;fill:#808080;fill-opacity:1;stroke:none;stroke-width:1.03923047"
       transform="matrix(0.03429784,0,0,0.05291667,-0.07839478,290.59699)">
      <rect
         style="fill:#808080;fill-opacity:1;stroke:none;stroke-width:1.48070288"
         id="rect2801"
         y="116.00149"
         x="103.78947"
         height="4.9999995"
         width="14.210526" />
      <rect
         style="fill:#808080;fill-opacity:1;stroke:none;stroke-width:1.48070288"
         id="rect3696"
         transform="scale(-1)"
         y="-121.00149"
         x="-24.210518"
         height="4.9999995"
         width="14.210526" />
      <rect
         style="fill:#808080;fill-opacity:1;stroke:none;stroke-width:1.48070288"
         id="rect3700"
         y="116.00149"
         x="24.210518"
         height="5"
         width="79.578949" />
    </g>
  </g>
  <g
     inkscape:groupmode="layer"
     id="layer23"
     inkscape:label="Layer 5"
     style="display:inline">
    <g
       id="g178"
       transform="matrix(1.3135641,0,0,1.3135641,-0.76356207,-0.85192029)">
      <path
         d="m 2.2055521,2.9194255 -0.082853,0.022598 0.04519,-0.1092136 0.045194,-0.3050402 -0.056488,-0.011294 0.067785,-0.09414 0.084449,-0.317375 -0.1484722,0.031157 c 0,0 0.07829,-0.1433401 0.1613646,-0.2366802 L 2.2130838,1.8160217 c 0,0 -0.3500032,0.1541751 -0.255857,0.6550328 l -0.072349,-0.012672 0.069387,0.5250662 -0.058661,0.015062 c 0,0 0.060096,0.1226226 0.1442491,0.1807673 0.00764,0.00527 -0.105445,-0.4104867 0.015062,-0.8247405 l 0.011298,0.026361 c 0,0 -0.096029,0.4415582 0,0.7983795 0,0 0.00442,0.00847 0.052436,0.00282 0,0 0.086904,-0.1638157 0.086904,-0.2626752"
         style="display:inline;fill:#1e5cb3;fill-opacity:1;fill-rule:nonzero;stroke:none;stroke-width:0.00132135"
         id="path2825"
         inkscape:connector-curvature="0" />
      <g
         id="g155">
        <g
           id="g134"
           style="display:inline">
          <path
             d="m 1.5884103,3.2954223 h 0.017007 v -0.035465 c 0.0075,0 0.014705,0 0.021916,-0.00115 v 0.036616 h 0.025369 v 0.00663 h -0.025369 v 0.088225 c 0,0.00519 0,0.012976 0.010953,0.012976 0.0075,0 0.011535,-0.00519 0.016151,-0.010669 l 0.00461,0.00318 c -0.00548,0.010953 -0.019604,0.017585 -0.03114,0.017585 -0.020754,0 -0.023061,-0.011242 -0.023061,-0.025085 v -0.086207 h -0.016434 v -0.00663"
             style="fill:#000000;fill-opacity:1;fill-rule:nonzero;stroke:none;stroke-width:0.00132135"
             id="path2827"
             inkscape:connector-curvature="0" />
          <path
             d="m 1.8411898,3.3738418 c -0.00663,0.02047 -0.018163,0.038349 -0.048146,0.0395 -0.044693,0 -0.058242,-0.037193 -0.058242,-0.057086 0,-0.051321 0.04123,-0.063719 0.057664,-0.063719 0.018742,0 0.045267,0.00865 0.045267,0.030851 0,0.00778 -0.0049,0.015283 -0.012976,0.015283 -0.00778,0 -0.013549,-0.00519 -0.013549,-0.013553 0,-0.011242 0.00922,-0.012688 0.00922,-0.015856 0,-0.00778 -0.018165,-0.010958 -0.024507,-0.010958 -0.027677,0 -0.034888,0.020181 -0.034888,0.057953 0,0.017302 0.00433,0.030562 0.00605,0.034598 0.00433,0.00952 0.013265,0.015572 0.028255,0.016434 0.016723,8.668e-4 0.032874,-0.012686 0.03979,-0.033446 h 0.00605"
             style="fill:#000000;fill-opacity:1;fill-rule:nonzero;stroke:none;stroke-width:0.00132135"
             id="path2829"
             inkscape:connector-curvature="0" />
          <path
             d="m 1.9209769,3.4095949 v -0.00663 h 0.022205 V 3.2175763 h -0.022205 v -0.00663 h 0.012398 c 0.010669,0 0.021911,-5.774e-4 0.032297,-0.0026 v 0.194615 h 0.022199 v 0.00663 h -0.066893"
             style="fill:#000000;fill-opacity:1;fill-rule:nonzero;stroke:none;stroke-width:0.00132135"
             id="path2831"
             inkscape:connector-curvature="0" />
          <path
             d="m 2.1965154,3.2954223 h 0.017012 v -0.035465 c 0.00749,0 0.014705,0 0.021911,-0.00115 v 0.036616 h 0.025374 v 0.00663 h -0.025374 v 0.088225 c 0,0.00519 0,0.012976 0.010958,0.012976 0.00749,0 0.01153,-0.00519 0.016144,-0.010669 l 0.00462,0.00318 c -0.00548,0.010953 -0.019609,0.017585 -0.03114,0.017585 -0.02076,0 -0.023067,-0.011242 -0.023067,-0.025085 v -0.086207 h -0.016434 v -0.00663"
             style="fill:#000000;fill-opacity:1;fill-rule:nonzero;stroke:none;stroke-width:0.00132135"
             id="path2833"
             inkscape:connector-curvature="0" />
          <path
             d="m 2.4118175,3.3020502 v -0.00663 h 0.047284 v 0.00663 h -0.01759 l -0.039786,0.034597 0.054779,0.066316 h 0.012109 v 0.00663 h -0.054779 v -0.00663 h 0.014417 l -0.048153,-0.058527 0.048725,-0.041519 v -8.668e-4 z m -0.069485,0.1075447 v -0.00663 h 0.014989 V 3.2175763 h -0.014989 v -0.00663 h 0.00519 c 0.010668,0 0.021916,-5.774e-4 0.03229,-0.0026 v 0.194615 h 0.017302 v 0.00663 h -0.054779"
             style="display:inline;fill:#000000;fill-opacity:1;fill-rule:nonzero;stroke:none;stroke-width:0.00132135"
             id="path2835"
             inkscape:connector-curvature="0" />
        </g>
        <g
           id="g127"
           style="display:inline;fill:#000000">
          <path
             d="m 2.0918803,2.3172361 c 0,0 -0.05082,0.226601 -0.036192,0.5939825 0.00438,0.1101993 0.016434,0.211494 0.031155,0.2993373 l 7.66e-5,5.3e-6 c 0.00957,0.077129 0.01598,0.1050526 0.040942,0.1979911 l -0.00146,0.05994 c 0,0 -0.1998542,-0.6381076 -0.034526,-1.1512566"
             style="fill:#000000;fill-opacity:1;fill-rule:nonzero;stroke:none;stroke-width:0.00132135"
             id="path2837"
             inkscape:connector-curvature="0" />
          <path
             d="m 2.214565,2.1207646 c 0,0 0.044946,-0.022384 0.1093774,-0.030536 0,0 0.070435,0.1290959 -0.1029054,0.3495103 0,0 0.1034115,-0.2308266 0.079023,-0.3031441 0,0 -0.027274,-0.016953 -0.085495,-0.01583"
             style="fill:#000000;fill-opacity:1;fill-rule:nonzero;stroke:none;stroke-width:0.00132135"
             id="path2839"
             inkscape:connector-curvature="0" />
          <path
             d="m 2.1932635,2.5082637 c 0,0 0.040363,0.00935 0.059745,-0.00634 0,0 -0.038186,0.1489915 -0.028178,0.2309522 0.010013,0.081954 -0.062201,0.1344209 -0.062201,0.1344209 0,0 0.061516,-0.07783 0.04218,-0.1412245 -0.013409,-0.04394 0.00159,-0.1564043 0.018504,-0.1921111 0,0 -0.015794,-0.00221 -0.03005,-0.025695"
             style="fill:#000000;fill-opacity:1;fill-rule:nonzero;stroke:none;stroke-width:0.00132135"
             id="path2841"
             inkscape:connector-curvature="0" />
          <path
             d="m 2.1533548,2.9008289 c 0,0 0.066702,-0.00799 0.073712,-0.041679 0,0 0.00816,0.2015323 -0.08451,0.2845805 0,0 0.070707,-0.1102957 0.059615,-0.224397 l -0.048817,-0.018504"
             style="fill:#000000;fill-opacity:1;fill-rule:nonzero;stroke:none;stroke-width:0.00132135"
             id="path2843"
             inkscape:connector-curvature="0" />
          <path
             d="m 1.9657231,2.9847134 c 0,0 -0.021509,0.02409 -0.086053,-0.029049 0,0 0.020563,0.1354489 0.1483109,0.1974546 0,0 -0.087916,-0.066238 -0.1116025,-0.1377877 0,0 0.031068,-0.00915 0.049344,-0.030618"
             style="fill:#000000;fill-opacity:1;fill-rule:nonzero;stroke:none;stroke-width:0.00132135"
             id="path2845"
             inkscape:connector-curvature="0" />
          <path
             d="m 1.9451338,2.933342 c 0,0 -0.087276,-0.2215283 -0.068577,-0.520863 0,0 0.020383,0.054215 0.085888,0.073216 0,0 -0.03086,0.00632 -0.048906,0.00358 0,0 -0.045658,0.1263634 0.031595,0.4440661"
             style="fill:#000000;fill-opacity:1;fill-rule:nonzero;stroke:none;stroke-width:0.00132135"
             id="path2847"
             inkscape:connector-curvature="0" />
          <path
             d="m 2.3117516,1.9039839 c 0,0 -0.032709,-0.2403668 -0.2373382,0.00271 C 1.9114803,2.1002585 1.9308976,2.2645815 1.9408962,2.35627 1.9434462,2.379724 1.9105822,2.1114106 2.0890936,1.9348386 2.267604,1.7582666 2.3079316,1.8937316 2.3117516,1.9039856"
             style="fill:#000000;fill-opacity:1;fill-rule:nonzero;stroke:none;stroke-width:0.00132135"
             id="path2849"
             inkscape:connector-curvature="0" />
        </g>
        <g
           id="g118"
           style="display:inline">
          <path
             d="m 2.0103332,1.6989633 c 0,0 -0.1605639,-0.045851 -0.2116631,0.4863228 0,0 -0.039424,-0.164257 0.062553,-0.3965767 0.1019805,-0.2323066 0.1491104,-0.089746 0.1491104,-0.089746"
             style="fill:#fff200;fill-opacity:1;fill-rule:nonzero;stroke:none;stroke-width:0.00132135"
             id="path2851"
             inkscape:connector-curvature="0" />
          <path
             d="m 1.8111397,1.6600627 c 0,0 -0.081892,0.123163 -0.063316,0.2543599 0,0 -0.062109,-0.2469603 0.063316,-0.2543599"
             style="fill:#fff200;fill-opacity:1;fill-rule:nonzero;stroke:none;stroke-width:0.00132135"
             id="path2853"
             inkscape:connector-curvature="0" />
          <path
             d="m 2.4138259,2.0054504 c 0,0 0.09684,-0.035729 -0.041825,0.324735 0,0 0.071777,-0.1053513 0.1169501,-0.2708239 C 2.517948,1.9531514 2.413826,2.0054505 2.413826,2.0054505"
             style="fill:#fff200;fill-opacity:1;fill-rule:nonzero;stroke:none;stroke-width:0.00132135"
             id="path2855"
             inkscape:connector-curvature="0" />
          <path
             d="m 2.5704468,1.9773585 c 0,0 0.068467,0.061971 0.019948,0.1439611 0,0 0.1217756,-0.1279596 -0.019948,-0.1439611"
             style="fill:#fff200;fill-opacity:1;fill-rule:nonzero;stroke:none;stroke-width:0.00132135"
             id="path2857"
             inkscape:connector-curvature="0" />
        </g>
      </g>
    </g>
  </g>
</svg>
