<?xml version="1.0" encoding="UTF-8" standalone="no"?>
<!-- Created with Inkscape (http://www.inkscape.org/) -->

<svg
   xmlns:dc="http://purl.org/dc/elements/1.1/"
   xmlns:cc="http://creativecommons.org/ns#"
   xmlns:rdf="http://www.w3.org/1999/02/22-rdf-syntax-ns#"
   xmlns:svg="http://www.w3.org/2000/svg"
   xmlns="http://www.w3.org/2000/svg"
   xmlns:xlink="http://www.w3.org/1999/xlink"
   xmlns:sodipodi="http://sodipodi.sourceforge.net/DTD/sodipodi-0.dtd"
   xmlns:inkscape="http://www.inkscape.org/namespaces/inkscape"
   width="16"
   height="16"
   viewBox="0 0 4.2333332 4.2333335"
   version="1.1"
   id="svg384"
   enable-background="new"
   inkscape:version="0.92.3 (2405546, 2018-03-11)"
   sodipodi:docname="text16-gettext.svg">
  <defs
     id="defs378">
    <radialGradient
       gradientTransform="matrix(5.6949649,0,0,0.99999992,75.334676,75.001496)"
       gradientUnits="userSpaceOnUse"
       xlink:href="#linearGradient3688-464-309-255"
       id="radialGradient4093"
       fy="43.5"
       fx="4.9929786"
       r="2.5"
       cy="43.5"
       cx="4.9929786" />
    <linearGradient
       id="linearGradient3688-464-309-255">
      <stop
         id="stop3094"
         style="stop-color:#181818;stop-opacity:1"
         offset="0" />
      <stop
         id="stop3096"
         style="stop-color:#181818;stop-opacity:0"
         offset="1" />
    </linearGradient>
    <radialGradient
       gradientTransform="matrix(5.6949649,0,0,0.99999992,-52.665305,-162.00149)"
       gradientUnits="userSpaceOnUse"
       xlink:href="#linearGradient3688-464-309-255"
       id="radialGradient4095"
       fy="43.5"
       fx="4.9929786"
       r="2.5"
       cy="43.5"
       cx="4.9929786" />
    <linearGradient
       gradientUnits="userSpaceOnUse"
       xlink:href="#linearGradient3702-501-757-486"
       id="linearGradient4097"
       y2="39.999443"
       x2="25.058096"
       y1="47.027729"
       x1="25.058096"
       gradientTransform="matrix(2.8421052,0,0,0.71428566,-4.2105336,87.430066)" />
    <linearGradient
       id="linearGradient3702-501-757-486">
      <stop
         id="stop3100"
         style="stop-color:#181818;stop-opacity:0"
         offset="0" />
      <stop
         id="stop3102"
         style="stop-color:#181818;stop-opacity:1"
         offset="0.5" />
      <stop
         id="stop3104"
         style="stop-color:#181818;stop-opacity:0"
         offset="1" />
    </linearGradient>
    <linearGradient
       x1="25.132275"
       y1="0.98520643"
       x2="25.132275"
       y2="47.013336"
       id="linearGradient3019-2-2"
       xlink:href="#linearGradient3600"
       gradientUnits="userSpaceOnUse"
       gradientTransform="matrix(0.07559507,0,0,0.08048497,0.30238504,0.06158085)" />
    <linearGradient
       id="linearGradient3600">
      <stop
         id="stop3602"
         style="stop-color:#f4f4f4;stop-opacity:1"
         offset="0" />
      <stop
         id="stop3604"
         style="stop-color:#dbdbdb;stop-opacity:1"
         offset="1" />
    </linearGradient>
    <linearGradient
       inkscape:collect="always"
       xlink:href="#linearGradient3600"
       id="linearGradient1095"
       x1="81"
       y1="16.8125"
       x2="109.375"
       y2="16.8125"
       gradientUnits="userSpaceOnUse"
       gradientTransform="matrix(0.02797354,0,0,0.02797354,0.37997731,0.19115322)" />
    <linearGradient
       gradientTransform="matrix(0.02639506,0,0,0.03011393,0.42605513,0.30987934)"
       inkscape:collect="always"
       xlink:href="#linearGradient3977-3"
       id="linearGradient1059"
       x1="18"
       y1="59.999973"
       x2="110.10006"
       y2="59.999973"
       gradientUnits="userSpaceOnUse" />
    <linearGradient
       id="linearGradient3977-3">
      <stop
         id="stop3979-6"
         style="stop-color:#ffffff;stop-opacity:1"
         offset="0" />
      <stop
         id="stop3981-0"
         style="stop-color:#ffffff;stop-opacity:0.23529412"
         offset="0.00648027" />
      <stop
         id="stop3983-6"
         style="stop-color:#ffffff;stop-opacity:0.15686275"
         offset="0.99423188" />
      <stop
         id="stop3985-2"
         style="stop-color:#ffffff;stop-opacity:0.39215687"
         offset="1" />
    </linearGradient>
    <linearGradient
       inkscape:collect="always"
       xlink:href="#linearGradient3600"
       id="linearGradient1722"
       gradientUnits="userSpaceOnUse"
       gradientTransform="matrix(0.02797354,0,0,0.02797354,0.37997731,0.19115322)"
       x1="81"
       y1="77.06472"
       x2="81"
       y2="190.75049" />
    <radialGradient
       gradientTransform="matrix(5.6949649,0,0,0.99999992,75.334676,75.001496)"
       gradientUnits="userSpaceOnUse"
       xlink:href="#linearGradient3688-464-309-255"
       id="radialGradient4093-2-6"
       fy="43.5"
       fx="4.9929786"
       r="2.5"
       cy="43.5"
       cx="4.9929786" />
    <radialGradient
       gradientTransform="matrix(5.6949649,0,0,0.99999992,-52.665305,-162.00149)"
       gradientUnits="userSpaceOnUse"
       xlink:href="#linearGradient3688-464-309-255"
       id="radialGradient4095-8-5"
       fy="43.5"
       fx="4.9929786"
       r="2.5"
       cy="43.5"
       cx="4.9929786" />
    <radialGradient
       gradientTransform="matrix(5.6949649,0,0,0.99999992,75.334676,75.001496)"
       gradientUnits="userSpaceOnUse"
       xlink:href="#linearGradient3688-464-309-255"
       id="radialGradient4093-6-0"
       fy="43.5"
       fx="4.9929786"
       r="2.5"
       cy="43.5"
       cx="4.9929786" />
    <radialGradient
       gradientTransform="matrix(5.6949649,0,0,0.99999992,-52.665305,-162.00149)"
       gradientUnits="userSpaceOnUse"
       xlink:href="#linearGradient3688-464-309-255"
       id="radialGradient4095-7-5"
       fy="43.5"
       fx="4.9929786"
       r="2.5"
       cy="43.5"
       cx="4.9929786" />
  </defs>
  <sodipodi:namedview
     id="base"
     pagecolor="#ffffff"
     bordercolor="#666666"
     borderopacity="1.0"
     inkscape:pageopacity="0.0"
     inkscape:pageshadow="2"
     inkscape:zoom="14.06"
     inkscape:cx="7.7459662"
     inkscape:cy="6.2079763"
     inkscape:document-units="px"
     inkscape:current-layer="layer8"
     showgrid="true"
     units="px"
     inkscape:window-width="901"
     inkscape:window-height="794"
     inkscape:window-x="170"
     inkscape:window-y="218"
     inkscape:window-maximized="0" />
  <metadata
     id="metadata381">
    <rdf:RDF>
      <cc:Work
         rdf:about="">
        <dc:format>image/svg+xml</dc:format>
        <dc:type
           rdf:resource="http://purl.org/dc/dcmitype/StillImage" />
        <dc:title />
      </cc:Work>
    </rdf:RDF>
  </metadata>
  <g
     inkscape:groupmode="layer"
     id="layer3"
     inkscape:label="Layer 3"
     style="display:inline"
     sodipodi:insensitive="true">
    <path
       style="fill:url(#linearGradient1095);fill-opacity:1;stroke:#000000;stroke-width:0;stroke-linecap:round;stroke-linejoin:round;stroke-miterlimit:4;stroke-dasharray:none;stroke-opacity:1"
       d="M 2.6458338,0.26458377 V 1.0583328 h 0.793749 z"
       id="path1720"
       inkscape:connector-curvature="0" />
    <path
       style="fill:url(#linearGradient1722);fill-opacity:1;stroke:#000000;stroke-width:0;stroke-linecap:round;stroke-linejoin:round;stroke-miterlimit:4;stroke-dasharray:none;stroke-opacity:1"
       d="M 2.645842,1.0583333 H 3.4395835 V 3.96875 H 0.79375003 V 0.26460554 l -3e-8,1.428e-5 1.8520747,-1.46e-5 c 1.73e-5,0.79372808 1.73e-5,0.79372808 1.73e-5,0.79372808 z"
       id="path1087"
       inkscape:connector-curvature="0" />
  </g>
  <g
     inkscape:groupmode="layer"
     id="layer4"
     inkscape:label="Layer 4"
     style="display:inline"
     sodipodi:insensitive="true">
    <path
       style="display:inline;fill:none;stroke:url(#linearGradient1059);stroke-width:0.24123368;stroke-linecap:round;stroke-linejoin:round;stroke-miterlimit:4;stroke-dasharray:none;stroke-opacity:1"
       d="m 3.3189527,1.2886279 -0.00263,2.5595056 H 0.91436685 V 0.38521222 H 2.5244649"
       id="path1048"
       inkscape:connector-curvature="0"
       sodipodi:nodetypes="ccccc" />
  </g>
  <g
     inkscape:groupmode="layer"
     id="layer2"
     inkscape:label="Layer 2"
     style="display:inline"
     sodipodi:insensitive="true">
    <path
       id="path1001"
       style="display:inline;fill:none;stroke:#bebebe;stroke-width:0.25404942;stroke-linecap:round;stroke-linejoin:round;stroke-miterlimit:4;stroke-dasharray:none;stroke-opacity:1;paint-order:normal"
       d="M 2.50825,0.12831369 3.5758548,1.1959167 M 2.50825,0.12831369 0.65619138,0.12808591 v -9.49e-6 3.97823218 H 3.5758548 V 1.1959167 m 0,-3e-7 H 2.50825 V 0.12831369"
       inkscape:connector-curvature="0" />
  </g>
  <g
     inkscape:label="Layer 1"
     inkscape:groupmode="layer"
     id="layer1"
     transform="translate(0,-292.76665)"
     style="display:inline"
     sodipodi:insensitive="true">
    <g
       id="g978"
       style="display:inline;opacity:0.2;fill:#808080;fill-opacity:1;stroke:none;stroke-width:1.03923047"
       transform="matrix(0.03429784,0,0,0.05291667,-0.07839478,290.59699)">
      <rect
         style="fill:#808080;fill-opacity:1;stroke:none;stroke-width:1.48070288"
         id="rect2801"
         y="116.00149"
         x="103.78947"
         height="4.9999995"
         width="14.210526" />
      <rect
         style="fill:#808080;fill-opacity:1;stroke:none;stroke-width:1.48070288"
         id="rect3696"
         transform="scale(-1)"
         y="-121.00149"
         x="-24.210518"
         height="4.9999995"
         width="14.210526" />
      <rect
         style="fill:#808080;fill-opacity:1;stroke:none;stroke-width:1.48070288"
         id="rect3700"
         y="116.00149"
         x="24.210518"
         height="5"
         width="79.578949" />
    </g>
  </g>
  <g
     inkscape:groupmode="layer"
     id="layer8"
     inkscape:label="Layer 5">
    <g
       aria-label="꧒꧒"
       transform="matrix(0.02153005,0,0,0.02153005,-0.7665903,-7.5616886)"
       style="font-style:normal;font-variant:normal;font-weight:normal;font-stretch:normal;font-size:37.33333206px;line-height:1.25;font-family:'DejaVu Sans';-inkscape-font-specification:'DejaVu Sans, Normal';font-variant-ligatures:normal;font-variant-caps:normal;font-variant-numeric:normal;font-feature-settings:normal;text-align:start;letter-spacing:0px;word-spacing:0px;writing-mode:lr-tb;text-anchor:start;display:inline;fill:#ff5555;fill-opacity:1;stroke:none"
       id="flowRoot5616">
      <path
         style="fill:#ff5555"
         d="m 93.546874,430.13346 q 1.53125,-3.5 5.25,-3.5 5.486976,0 5.486976,7.34636 v 15.40364 h 2.29688 q 0.85677,-0.0365 1.40364,-0.51041 0.56511,-0.45573 0.56511,-1.20313 0.54687,-0.14583 1.0026,-0.14583 0.45573,0 1.07552,0.14583 0,1.65885 -1.20312,2.71615 -1.1849,1.05729 -3.00781,1.05729 h -2.13282 v 8.20312 q 0,3.99219 -2.11458,5.88802 -2.09635,1.89584 -6.963542,1.89584 -4.721354,0 -7.401041,-2.55209 Q 85.125,462.3444 85.125,457.82357 q 0,-4.28386 3.973958,-6.38021 3.973958,-2.07813 12.085932,-2.07813 v -15.23958 q 0,-2.35156 -0.65625,-3.53646 -0.656245,-1.20312 -2.223953,-1.20312 -1.822917,0 -2.789063,1.27604 -0.966145,1.25781 -1.020833,4.66667 v 0.20052 q -0.528646,0.14583 -0.966146,0.14583 -0.382812,0 -0.929687,-0.10938 v -0.0729 q -0.05469,-3.39063 -0.947917,-4.73959 -0.893229,-1.36718 -2.625,-1.36718 -1.713541,0 -2.606771,1.3125 -0.893229,1.3125 -0.966145,4.79427 -0.528646,0.14583 -0.966146,0.14583 -0.382813,0 -0.929688,-0.10937 0,-3.9375 1.385417,-6.41667 1.403646,-2.47917 4.065104,-2.47917 1.476562,0 2.643229,0.89323 1.166667,0.89323 1.895833,2.60677 z m 7.638016,21.3099 q -6.580724,0 -9.752599,1.33073 -3.153646,1.34896 -3.153646,4.68489 0,3.86459 1.895834,5.86979 1.914062,2.02344 5.505208,2.02344 3.244791,0 4.375003,-1.25781 1.1302,-1.25781 1.1302,-4.66667 z m -6.708328,-9.88021 q -0.109375,2.82552 -2.223958,4.32031 -2.114584,1.49479 -5.833334,1.49479 -4.010416,0 -5.906249,-1.84114 -1.895834,-1.85938 -1.895834,-5.50521 v -13.03385 h 3.098959 v 12.88802 q 0,2.36979 1.276041,3.55468 1.294271,1.1849 4.192708,1.1849 2.369792,0 3.736979,-0.7474 1.367188,-0.74739 1.458334,-2.3151 0.492187,-0.18229 1.020833,-0.18229 0.510417,0 1.075521,0.18229 z"
         id="path6271"
         inkscape:connector-curvature="0" />
      <path
         style="fill:#ff5555"
         d="m 125.04687,430.13346 q 1.53125,-3.5 5.25,-3.5 5.48698,0 5.48698,7.34636 v 15.40364 h 2.29688 q 0.85677,-0.0365 1.40364,-0.51041 0.56511,-0.45573 0.56511,-1.20313 0.54687,-0.14583 1.0026,-0.14583 0.45573,0 1.07552,0.14583 0,1.65885 -1.20312,2.71615 -1.1849,1.05729 -3.00782,1.05729 h -2.13281 v 8.20312 q 0,3.99219 -2.11458,5.88802 -2.09636,1.89584 -6.96354,1.89584 -4.72136,0 -7.40104,-2.55209 -2.67969,-2.53385 -2.67969,-7.05468 0,-4.28386 3.97396,-6.38021 3.97395,-2.07813 12.08593,-2.07813 v -15.23958 q 0,-2.35156 -0.65625,-3.53646 -0.65625,-1.20312 -2.22396,-1.20312 -1.82291,0 -2.78906,1.27604 -0.96614,1.25781 -1.02083,4.66667 v 0.20052 q -0.52865,0.14583 -0.96615,0.14583 -0.38281,0 -0.92968,-0.10938 v -0.0729 q -0.0547,-3.39063 -0.94792,-4.73959 -0.89323,-1.36718 -2.625,-1.36718 -1.71354,0 -2.60677,1.3125 -0.89323,1.3125 -0.96615,4.79427 -0.52864,0.14583 -0.96614,0.14583 -0.38282,0 -0.92969,-0.10937 0,-3.9375 1.38542,-6.41667 1.40364,-2.47917 4.0651,-2.47917 1.47656,0 2.64323,0.89323 1.16667,0.89323 1.89583,2.60677 z m 7.63802,21.3099 q -6.58073,0 -9.7526,1.33073 -3.15365,1.34896 -3.15365,4.68489 0,3.86459 1.89584,5.86979 1.91406,2.02344 5.5052,2.02344 3.2448,0 4.375,-1.25781 1.13021,-1.25781 1.13021,-4.66667 z m -6.70833,-9.88021 q -0.10938,2.82552 -2.22396,4.32031 -2.11458,1.49479 -5.83333,1.49479 -4.01042,0 -5.90625,-1.84114 -1.89583,-1.85938 -1.89583,-5.50521 v -13.03385 h 3.09895 v 12.88802 q 0,2.36979 1.27605,3.55468 1.29427,1.1849 4.1927,1.1849 2.3698,0 3.73698,-0.7474 1.36719,-0.74739 1.45834,-2.3151 0.49218,-0.18229 1.02083,-0.18229 0.51042,0 1.07552,0.18229 z"
         id="path6273"
         inkscape:connector-curvature="0" />
    </g>
    <g
       aria-label="22"
       transform="matrix(0.02153005,0,0,0.02153005,0.61530669,-7.1288542)"
       style="font-style:normal;font-variant:normal;font-weight:normal;font-stretch:normal;font-size:37.33333206px;line-height:1.25;font-family:'DejaVu Sans';-inkscape-font-specification:'DejaVu Sans, Normal';font-variant-ligatures:normal;font-variant-caps:normal;font-variant-numeric:normal;font-feature-settings:normal;text-align:start;letter-spacing:0px;word-spacing:0px;writing-mode:lr-tb;text-anchor:start;display:inline;fill:#ff5555;fill-opacity:1;stroke:none"
       id="flowRoot5626">
      <path
         style="fill:#ff5555"
         d="m 83.99414,493.91471 h 12.851562 v 3.09896 H 79.564453 v -3.09896 q 2.096354,-2.16927 5.705729,-5.8151 3.627604,-3.66406 4.557292,-4.72136 1.768229,-1.98697 2.460937,-3.35416 0.710937,-1.38542 0.710937,-2.71615 0,-2.16927 -1.53125,-3.53646 -1.51302,-1.36718 -3.955729,-1.36718 -1.73177,0 -3.664062,0.60156 -1.914062,0.60156 -4.101562,1.82292 v -3.71875 q 2.223958,-0.89323 4.15625,-1.34896 1.932291,-0.45573 3.536458,-0.45573 4.229166,0 6.744791,2.11458 2.515625,2.11458 2.515625,5.65104 0,1.67709 -0.638021,3.19011 -0.619791,1.49479 -2.278645,3.53646 -0.45573,0.52864 -2.898438,3.0625 -2.442708,2.51562 -6.890625,7.05468 z"
         id="path6276"
         inkscape:connector-curvature="0" />
      <path
         style="fill:#ff5555"
         d="m 107.76497,493.91471 h 12.85156 v 3.09896 h -17.28124 v -3.09896 q 2.09635,-2.16927 5.70572,-5.8151 3.62761,-3.66406 4.5573,-4.72136 1.76822,-1.98697 2.46093,-3.35416 0.71094,-1.38542 0.71094,-2.71615 0,-2.16927 -1.53125,-3.53646 -1.51302,-1.36718 -3.95573,-1.36718 -1.73177,0 -3.66406,0.60156 -1.91406,0.60156 -4.10156,1.82292 v -3.71875 q 2.22396,-0.89323 4.15625,-1.34896 1.93229,-0.45573 3.53645,-0.45573 4.22917,0 6.7448,2.11458 2.51562,2.11458 2.51562,5.65104 0,1.67709 -0.63802,3.19011 -0.61979,1.49479 -2.27865,3.53646 -0.45572,0.52864 -2.89843,3.0625 -2.44271,2.51562 -6.89063,7.05468 z"
         id="path6278"
         inkscape:connector-curvature="0" />
    </g>
    <g
       style="display:inline"
       id="g1273">
      <path
         sodipodi:nodetypes="cczcccc"
         inkscape:connector-curvature="0"
         d="M 2.303125,2.8310417 H 1.3229167 V 2.619375 h 0.9785417 m 0,0 H 2.9104167 L 2.3014584,3.175"
         style="opacity:1;fill:#000000;fill-opacity:1;stroke:none;stroke-width:0.02116667;stroke-linecap:round;stroke-linejoin:round;stroke-miterlimit:4;stroke-dasharray:none;stroke-opacity:1;paint-order:normal"
         id="rect1242" />
      <path
         sodipodi:nodetypes="cczcccc"
         inkscape:connector-curvature="0"
         d="M 2.303125,2.1695834 H 1.3229167 V 2.38125 h 0.9785417 m 0,0 H 2.9104167 L 2.3014584,1.825625"
         style="display:inline;opacity:1;fill:#000000;fill-opacity:1;stroke:none;stroke-width:0.02116667;stroke-linecap:round;stroke-linejoin:round;stroke-miterlimit:4;stroke-dasharray:none;stroke-opacity:1;paint-order:normal"
         id="rect1242-5" />
    </g>
  </g>
</svg>
