<?xml version="1.0" encoding="UTF-8" standalone="no"?>
<!-- Created with Inkscape (http://www.inkscape.org/) -->

<svg
   xmlns:dc="http://purl.org/dc/elements/1.1/"
   xmlns:cc="http://creativecommons.org/ns#"
   xmlns:rdf="http://www.w3.org/1999/02/22-rdf-syntax-ns#"
   xmlns:svg="http://www.w3.org/2000/svg"
   xmlns="http://www.w3.org/2000/svg"
   xmlns:xlink="http://www.w3.org/1999/xlink"
   xmlns:sodipodi="http://sodipodi.sourceforge.net/DTD/sodipodi-0.dtd"
   xmlns:inkscape="http://www.inkscape.org/namespaces/inkscape"
   width="16"
   height="16"
   viewBox="0 0 4.2333332 4.2333335"
   version="1.1"
   id="svg384"
   enable-background="new"
   inkscape:version="0.92.3 (2405546, 2018-03-11)"
   sodipodi:docname="text16-texinfo.svg">
  <defs
     id="defs378">
    <radialGradient
       gradientTransform="matrix(5.6949649,0,0,0.99999992,75.334676,75.001496)"
       gradientUnits="userSpaceOnUse"
       xlink:href="#linearGradient3688-464-309-255"
       id="radialGradient4093"
       fy="43.5"
       fx="4.9929786"
       r="2.5"
       cy="43.5"
       cx="4.9929786" />
    <linearGradient
       id="linearGradient3688-464-309-255">
      <stop
         id="stop3094"
         style="stop-color:#181818;stop-opacity:1"
         offset="0" />
      <stop
         id="stop3096"
         style="stop-color:#181818;stop-opacity:0"
         offset="1" />
    </linearGradient>
    <radialGradient
       gradientTransform="matrix(5.6949649,0,0,0.99999992,-52.665305,-162.00149)"
       gradientUnits="userSpaceOnUse"
       xlink:href="#linearGradient3688-464-309-255"
       id="radialGradient4095"
       fy="43.5"
       fx="4.9929786"
       r="2.5"
       cy="43.5"
       cx="4.9929786" />
    <linearGradient
       gradientUnits="userSpaceOnUse"
       xlink:href="#linearGradient3702-501-757-486"
       id="linearGradient4097"
       y2="39.999443"
       x2="25.058096"
       y1="47.027729"
       x1="25.058096"
       gradientTransform="matrix(2.8421052,0,0,0.71428566,-4.2105336,87.430066)" />
    <linearGradient
       id="linearGradient3702-501-757-486">
      <stop
         id="stop3100"
         style="stop-color:#181818;stop-opacity:0"
         offset="0" />
      <stop
         id="stop3102"
         style="stop-color:#181818;stop-opacity:1"
         offset="0.5" />
      <stop
         id="stop3104"
         style="stop-color:#181818;stop-opacity:0"
         offset="1" />
    </linearGradient>
    <linearGradient
       x1="25.132275"
       y1="0.98520643"
       x2="25.132275"
       y2="47.013336"
       id="linearGradient3019-2-2"
       xlink:href="#linearGradient3600"
       gradientUnits="userSpaceOnUse"
       gradientTransform="matrix(0.07559507,0,0,0.08048497,0.30238504,0.06158085)" />
    <linearGradient
       id="linearGradient3600">
      <stop
         id="stop3602"
         style="stop-color:#f4f4f4;stop-opacity:1"
         offset="0" />
      <stop
         id="stop3604"
         style="stop-color:#dbdbdb;stop-opacity:1"
         offset="1" />
    </linearGradient>
    <linearGradient
       inkscape:collect="always"
       xlink:href="#linearGradient3600"
       id="linearGradient1095"
       x1="81"
       y1="16.8125"
       x2="109.375"
       y2="16.8125"
       gradientUnits="userSpaceOnUse"
       gradientTransform="matrix(0.02797354,0,0,0.02797354,0.37997731,0.19115322)" />
    <linearGradient
       gradientTransform="matrix(0.02639506,0,0,0.03011393,0.42605513,0.30987934)"
       inkscape:collect="always"
       xlink:href="#linearGradient3977-3"
       id="linearGradient1059"
       x1="18"
       y1="59.999973"
       x2="110.10006"
       y2="59.999973"
       gradientUnits="userSpaceOnUse" />
    <linearGradient
       id="linearGradient3977-3">
      <stop
         id="stop3979-6"
         style="stop-color:#ffffff;stop-opacity:1"
         offset="0" />
      <stop
         id="stop3981-0"
         style="stop-color:#ffffff;stop-opacity:0.23529412"
         offset="0.00648027" />
      <stop
         id="stop3983-6"
         style="stop-color:#ffffff;stop-opacity:0.15686275"
         offset="0.99423188" />
      <stop
         id="stop3985-2"
         style="stop-color:#ffffff;stop-opacity:0.39215687"
         offset="1" />
    </linearGradient>
    <linearGradient
       inkscape:collect="always"
       xlink:href="#linearGradient3600"
       id="linearGradient1722"
       gradientUnits="userSpaceOnUse"
       gradientTransform="matrix(0.02797354,0,0,0.02797354,0.37997731,0.19115322)"
       x1="81"
       y1="77.06472"
       x2="81"
       y2="190.75049" />
  </defs>
  <sodipodi:namedview
     id="base"
     pagecolor="#ffffff"
     bordercolor="#666666"
     borderopacity="1.0"
     inkscape:pageopacity="0.0"
     inkscape:pageshadow="2"
     inkscape:zoom="24.48"
     inkscape:cx="6.8943058"
     inkscape:cy="7.42874"
     inkscape:document-units="px"
     inkscape:current-layer="layer26"
     showgrid="true"
     units="px"
     inkscape:window-width="902"
     inkscape:window-height="650"
     inkscape:window-x="556"
     inkscape:window-y="238"
     inkscape:window-maximized="0" />
  <metadata
     id="metadata381">
    <rdf:RDF>
      <cc:Work
         rdf:about="">
        <dc:format>image/svg+xml</dc:format>
        <dc:type
           rdf:resource="http://purl.org/dc/dcmitype/StillImage" />
        <dc:title />
      </cc:Work>
    </rdf:RDF>
  </metadata>
  <g
     inkscape:groupmode="layer"
     id="layer3"
     inkscape:label="Layer 3"
     style="display:inline"
     sodipodi:insensitive="true">
    <path
       style="fill:url(#linearGradient1095);fill-opacity:1;stroke:#000000;stroke-width:0;stroke-linecap:round;stroke-linejoin:round;stroke-miterlimit:4;stroke-dasharray:none;stroke-opacity:1"
       d="M 2.6458338,0.26458377 V 1.0583328 h 0.793749 z"
       id="path1720"
       inkscape:connector-curvature="0" />
    <path
       style="fill:url(#linearGradient1722);fill-opacity:1;stroke:#000000;stroke-width:0;stroke-linecap:round;stroke-linejoin:round;stroke-miterlimit:4;stroke-dasharray:none;stroke-opacity:1"
       d="M 2.645842,1.0583333 H 3.4395835 V 3.96875 H 0.79375003 V 0.26460554 l -3e-8,1.428e-5 1.8520747,-1.46e-5 c 1.73e-5,0.79372808 1.73e-5,0.79372808 1.73e-5,0.79372808 z"
       id="path1087"
       inkscape:connector-curvature="0" />
  </g>
  <g
     inkscape:groupmode="layer"
     id="layer4"
     inkscape:label="Layer 4"
     style="display:inline"
     sodipodi:insensitive="true">
    <path
       style="display:inline;fill:none;stroke:url(#linearGradient1059);stroke-width:0.24123368;stroke-linecap:round;stroke-linejoin:round;stroke-miterlimit:4;stroke-dasharray:none;stroke-opacity:1"
       d="m 3.3189527,1.2886279 -0.00263,2.5595056 H 0.91436685 V 0.38521222 H 2.5244649"
       id="path1048"
       inkscape:connector-curvature="0"
       sodipodi:nodetypes="ccccc" />
  </g>
  <g
     inkscape:groupmode="layer"
     id="layer2"
     inkscape:label="Layer 2"
     style="display:inline"
     sodipodi:insensitive="true">
    <path
       id="path1001"
       style="display:inline;fill:none;stroke:#bebebe;stroke-width:0.25404942;stroke-linecap:round;stroke-linejoin:round;stroke-miterlimit:4;stroke-dasharray:none;stroke-opacity:1;paint-order:normal"
       d="M 2.50825,0.12831369 3.5758548,1.1959167 M 2.50825,0.12831369 0.65619138,0.12808591 v -9.49e-6 3.97823218 H 3.5758548 V 1.1959167 m 0,-3e-7 H 2.50825 V 0.12831369"
       inkscape:connector-curvature="0" />
  </g>
  <g
     inkscape:label="Layer 1"
     inkscape:groupmode="layer"
     id="layer1"
     transform="translate(0,-292.76665)"
     style="display:inline"
     sodipodi:insensitive="true">
    <g
       id="g978"
       style="display:inline;opacity:0.2;fill:#808080;fill-opacity:1;stroke:none;stroke-width:1.03923047"
       transform="matrix(0.03429784,0,0,0.05291667,-0.07839478,290.59699)">
      <rect
         style="fill:#808080;fill-opacity:1;stroke:none;stroke-width:1.48070288"
         id="rect2801"
         y="116.00149"
         x="103.78947"
         height="4.9999995"
         width="14.210526" />
      <rect
         style="fill:#808080;fill-opacity:1;stroke:none;stroke-width:1.48070288"
         id="rect3696"
         transform="scale(-1)"
         y="-121.00149"
         x="-24.210518"
         height="4.9999995"
         width="14.210526" />
      <rect
         style="fill:#808080;fill-opacity:1;stroke:none;stroke-width:1.48070288"
         id="rect3700"
         y="116.00149"
         x="24.210518"
         height="5"
         width="79.578949" />
    </g>
  </g>
  <g
     inkscape:groupmode="layer"
     id="layer26"
     inkscape:label="Layer 5">
    <g
       id="g8710"
       transform="matrix(0.91287615,0,0,1,0.92604165,-1.6933328)">
      <path
         d="m 0.58991597,4.7491748 v 0.033224 H 0.188388 v -0.033224 q 0.0880062,0 0.11138276,-0.038471 0.0178762,-0.029727 0.0178762,-0.1381435 V 3.6982346 h -0.0742551 q -0.11413313,0 -0.15538597,0.041967 Q 0.0467531,3.7804209 0.02475168,3.9220619 H 2.4733069e-8 V 3.6247914 H 0.77555383 V 3.9220619 H 0.75080218 Q 0.73017569,3.7804209 0.68892285,3.7402017 0.64767,3.6982346 0.53216194,3.6982346 h -0.0742551 v 0.8935611 q 0,0.092679 0.0233765,0.1259029 0.0247517,0.031476 0.10863263,0.031476 z"
         style="font-style:normal;font-variant:normal;font-weight:normal;font-stretch:normal;font-size:medium;line-height:1.25;font-family:aakar;-inkscape-font-specification:aakar;font-variant-ligatures:normal;font-variant-caps:normal;font-variant-numeric:normal;font-feature-settings:normal;text-align:start;letter-spacing:0px;word-spacing:0px;writing-mode:lr-tb;text-anchor:start;fill:#000000;fill-opacity:1;stroke:none;stroke-width:0.03721597"
         id="path132"
         inkscape:connector-curvature="0" />
      <path
         d="m 2.2402897,3.6247914 v 0.033224 q -0.060504,0 -0.093506,0.024481 -0.042628,0.031476 -0.1113827,0.1398915 L 1.8346368,4.1406436 2.0986551,4.6197743 q 0.041253,0.075191 0.068755,0.1031698 0.028877,0.026231 0.083881,0.026231 v 0.033224 H 1.8428874 v -0.033224 q 0.048128,0 0.063254,-0.00349 0.042628,-0.00874 0.042628,-0.055957 0,-0.020985 -0.026127,-0.07869 -0.017876,-0.03847 -0.044003,-0.087432 L 1.7480058,4.278795 1.5843692,4.5375944 q -0.034377,0.054209 -0.046753,0.076941 -0.024752,0.045465 -0.024752,0.069946 0,0.036722 0.028877,0.050712 0.028877,0.01399 0.07563,0.01399 v 0.033226 H 1.2969744 v -0.033226 q 0.061879,0 0.1086326,-0.061203 0.015126,-0.019236 0.090756,-0.1381435 L 1.712253,4.2123469 1.5623678,3.9325624 Q 1.4784869,3.7769329 1.4152324,3.6999921 1.3808552,3.658025 1.3134754,3.658025 V 3.624799 h 0.4152788 v 0.033226 q -0.055004,0 -0.063254,0.00174 -0.041253,0.00874 -0.041253,0.054208 0,0.026231 0.024752,0.082188 0.026127,0.055957 0.092131,0.1766131 L 1.798884,4.0759498 1.95427,3.8346349 q 0.016501,-0.027979 0.030252,-0.05071 0.024752,-0.043717 0.024752,-0.068198 0,-0.036722 -0.026127,-0.047214 -0.024752,-0.010485 -0.07013,-0.010485 v -0.033226 z"
         style="font-style:normal;font-variant:normal;font-weight:normal;font-stretch:normal;font-size:medium;line-height:1.25;font-family:aakar;-inkscape-font-specification:aakar;font-variant-ligatures:normal;font-variant-caps:normal;font-variant-numeric:normal;font-feature-settings:normal;text-align:start;letter-spacing:0px;word-spacing:0px;writing-mode:lr-tb;text-anchor:start;fill:#000000;fill-opacity:1;stroke:none;stroke-width:0.03721597"
         id="path136"
         inkscape:connector-curvature="0" />
      <path
         d="m 1.2201772,4.9080258 0.022002,0.012245 q -0.023377,0.090931 -0.07563,0.1661221 -0.088006,0.1258982 -0.21588977,0.1258982 -0.11688324,0 -0.18701316,-0.1031699 -0.0701298,-0.1031714 -0.0701298,-0.2885275 0,-0.2185817 0.0990069,-0.3357416 0.0797556,-0.094427 0.18151256,-0.094427 0.10313217,0 0.16363617,0.073443 0.06738,0.080438 0.07838,0.2465588 H 0.78839735 q 0,0.2098387 0.0742551,0.3060151 0.057754,0.075191 0.14438505,0.075191 0.079756,0 0.1402597,-0.066448 0.034378,-0.038471 0.07288,-0.1171592 z M 0.79252264,4.654472 H 1.0757922 q -0.011,-0.090931 -0.028877,-0.1311501 -0.031627,-0.069946 -0.10313216,-0.069946 -0.0618792,0 -0.0990069,0.045465 -0.0357524,0.043717 -0.0522535,0.1556311 z"
         style="font-style:normal;font-variant:normal;font-weight:normal;font-stretch:normal;font-size:medium;line-height:1.25;font-family:aakar;-inkscape-font-specification:aakar;font-variant-ligatures:normal;font-variant-caps:normal;font-variant-numeric:normal;font-feature-settings:normal;text-align:start;letter-spacing:0px;word-spacing:0px;writing-mode:lr-tb;text-anchor:start;fill:#000000;fill-opacity:1;stroke:none;stroke-width:0.03721597"
         id="path134"
         inkscape:connector-curvature="0" />
      <path
         d="m 2.2826151,5.1948053 v -0.026231 q 0.06738,0 0.088006,-0.026229 0.020627,-0.02623 0.020627,-0.1259026 V 4.6107553 q 0,-0.068198 -0.015126,-0.090931 -0.00963,-0.01399 -0.033002,-0.01399 -0.013752,0 -0.022002,0.00174 -0.00688,0 -0.033002,0.00525 v -0.026231 q 0.06463,-0.026229 0.1058831,-0.045465 0.071505,-0.034974 0.1072576,-0.050712 l 0.0055,0.00525 V 5.016438 q 0,0.092677 0.016501,0.1224054 0.017877,0.029727 0.085256,0.029727 v 0.026231 z m 0.085255,-1.1051478 q 0,-0.031476 0.015126,-0.055957 0.020626,-0.033224 0.053629,-0.033224 0.030251,0 0.050879,0.026229 0.020627,0.026229 0.020627,0.062952 0,0.03847 -0.020627,0.0647 -0.019251,0.024479 -0.050879,0.024479 -0.033003,0 -0.050879,-0.029727 -0.017877,-0.029727 -0.017877,-0.059453 z"
         style="font-style:normal;font-variant:normal;font-weight:normal;font-stretch:normal;font-size:medium;line-height:1.25;font-family:aakar;-inkscape-font-specification:aakar;font-variant-ligatures:normal;font-variant-caps:normal;font-variant-numeric:normal;font-feature-settings:normal;text-align:start;letter-spacing:0px;word-spacing:0px;writing-mode:lr-tb;text-anchor:start;fill:#000000;fill-opacity:1;stroke:none;stroke-width:0.03721597"
         id="path138"
         inkscape:connector-curvature="0" />
    </g>
  </g>
</svg>
