<?xml version="1.0" encoding="UTF-8" standalone="no"?>
<!-- Created with Inkscape (http://www.inkscape.org/) -->

<svg
   xmlns:dc="http://purl.org/dc/elements/1.1/"
   xmlns:cc="http://creativecommons.org/ns#"
   xmlns:rdf="http://www.w3.org/1999/02/22-rdf-syntax-ns#"
   xmlns:svg="http://www.w3.org/2000/svg"
   xmlns="http://www.w3.org/2000/svg"
   xmlns:xlink="http://www.w3.org/1999/xlink"
   xmlns:sodipodi="http://sodipodi.sourceforge.net/DTD/sodipodi-0.dtd"
   xmlns:inkscape="http://www.inkscape.org/namespaces/inkscape"
   width="16"
   height="16"
   viewBox="0 0 4.2333332 4.2333335"
   version="1.1"
   id="svg384"
   enable-background="new"
   inkscape:version="0.92.3 (2405546, 2018-03-11)"
   sodipodi:docname="text-x-base.svg">
  <defs
     id="defs378">
    <radialGradient
       gradientTransform="matrix(5.6949649,0,0,0.99999992,75.334676,75.001496)"
       gradientUnits="userSpaceOnUse"
       xlink:href="#linearGradient3688-464-309-255"
       id="radialGradient4093"
       fy="43.5"
       fx="4.9929786"
       r="2.5"
       cy="43.5"
       cx="4.9929786" />
    <linearGradient
       id="linearGradient3688-464-309-255">
      <stop
         id="stop3094"
         style="stop-color:#181818;stop-opacity:1"
         offset="0" />
      <stop
         id="stop3096"
         style="stop-color:#181818;stop-opacity:0"
         offset="1" />
    </linearGradient>
    <radialGradient
       gradientTransform="matrix(5.6949649,0,0,0.99999992,-52.665305,-162.00149)"
       gradientUnits="userSpaceOnUse"
       xlink:href="#linearGradient3688-464-309-255"
       id="radialGradient4095"
       fy="43.5"
       fx="4.9929786"
       r="2.5"
       cy="43.5"
       cx="4.9929786" />
    <linearGradient
       gradientUnits="userSpaceOnUse"
       xlink:href="#linearGradient3702-501-757-486"
       id="linearGradient4097"
       y2="39.999443"
       x2="25.058096"
       y1="47.027729"
       x1="25.058096"
       gradientTransform="matrix(2.8421052,0,0,0.71428566,-4.2105336,87.430066)" />
    <linearGradient
       id="linearGradient3702-501-757-486">
      <stop
         id="stop3100"
         style="stop-color:#181818;stop-opacity:0"
         offset="0" />
      <stop
         id="stop3102"
         style="stop-color:#181818;stop-opacity:1"
         offset="0.5" />
      <stop
         id="stop3104"
         style="stop-color:#181818;stop-opacity:0"
         offset="1" />
    </linearGradient>
    <linearGradient
       x1="25.132275"
       y1="0.98520643"
       x2="25.132275"
       y2="47.013336"
       id="linearGradient3019-2-2"
       xlink:href="#linearGradient3600"
       gradientUnits="userSpaceOnUse"
       gradientTransform="matrix(0.07559507,0,0,0.08048497,0.30238504,0.06158085)" />
    <linearGradient
       id="linearGradient3600">
      <stop
         id="stop3602"
         style="stop-color:#f4f4f4;stop-opacity:1"
         offset="0" />
      <stop
         id="stop3604"
         style="stop-color:#dbdbdb;stop-opacity:1"
         offset="1" />
    </linearGradient>
    <linearGradient
       inkscape:collect="always"
       xlink:href="#linearGradient3600"
       id="linearGradient1095"
       x1="81"
       y1="16.8125"
       x2="109.375"
       y2="16.8125"
       gradientUnits="userSpaceOnUse"
       gradientTransform="matrix(0.02797354,0,0,0.02797354,0.37997731,0.19115322)" />
    <linearGradient
       gradientTransform="matrix(0.02639506,0,0,0.03011393,0.42605513,0.30987934)"
       inkscape:collect="always"
       xlink:href="#linearGradient3977-3"
       id="linearGradient1059"
       x1="18"
       y1="59.999973"
       x2="110.10006"
       y2="59.999973"
       gradientUnits="userSpaceOnUse" />
    <linearGradient
       id="linearGradient3977-3">
      <stop
         id="stop3979-6"
         style="stop-color:#ffffff;stop-opacity:1"
         offset="0" />
      <stop
         id="stop3981-0"
         style="stop-color:#ffffff;stop-opacity:0.23529412"
         offset="0.00648027" />
      <stop
         id="stop3983-6"
         style="stop-color:#ffffff;stop-opacity:0.15686275"
         offset="0.99423188" />
      <stop
         id="stop3985-2"
         style="stop-color:#ffffff;stop-opacity:0.39215687"
         offset="1" />
    </linearGradient>
    <linearGradient
       inkscape:collect="always"
       xlink:href="#linearGradient3600"
       id="linearGradient1722"
       gradientUnits="userSpaceOnUse"
       gradientTransform="matrix(0.02797354,0,0,0.02797354,0.37997731,0.19115322)"
       x1="81"
       y1="77.06472"
       x2="81"
       y2="190.75049" />
  </defs>
  <sodipodi:namedview
     id="base"
     pagecolor="#ffffff"
     bordercolor="#666666"
     borderopacity="1.0"
     inkscape:pageopacity="0.0"
     inkscape:pageshadow="2"
     inkscape:zoom="28.12"
     inkscape:cx="8.2664235"
     inkscape:cy="7.42874"
     inkscape:document-units="px"
     inkscape:current-layer="layer5"
     showgrid="true"
     units="px"
     inkscape:window-width="854"
     inkscape:window-height="653"
     inkscape:window-x="948"
     inkscape:window-y="94"
     inkscape:window-maximized="0" />
  <metadata
     id="metadata381">
    <rdf:RDF>
      <cc:Work
         rdf:about="">
        <dc:format>image/svg+xml</dc:format>
        <dc:type
           rdf:resource="http://purl.org/dc/dcmitype/StillImage" />
        <dc:title></dc:title>
      </cc:Work>
    </rdf:RDF>
  </metadata>
  <g
     inkscape:groupmode="layer"
     id="layer3"
     inkscape:label="Layer 3"
     style="display:inline"
     sodipodi:insensitive="true">
    <path
       style="fill:url(#linearGradient1095);fill-opacity:1;stroke:#000000;stroke-width:0;stroke-linecap:round;stroke-linejoin:round;stroke-miterlimit:4;stroke-dasharray:none;stroke-opacity:1"
       d="M 2.6458338,0.26458377 V 1.0583328 h 0.793749 z"
       id="path1720"
       inkscape:connector-curvature="0" />
    <path
       style="fill:url(#linearGradient1722);fill-opacity:1;stroke:#000000;stroke-width:0;stroke-linecap:round;stroke-linejoin:round;stroke-miterlimit:4;stroke-dasharray:none;stroke-opacity:1"
       d="M 2.645842,1.0583333 H 3.4395835 V 3.96875 H 0.79375003 V 0.26460554 l -3e-8,1.428e-5 1.8520747,-1.46e-5 c 1.73e-5,0.79372808 1.73e-5,0.79372808 1.73e-5,0.79372808 z"
       id="path1087"
       inkscape:connector-curvature="0" />
  </g>
  <g
     inkscape:groupmode="layer"
     id="layer4"
     inkscape:label="Layer 4"
     style="display:inline"
     sodipodi:insensitive="true">
    <path
       style="display:inline;fill:none;stroke:url(#linearGradient1059);stroke-width:0.24123368;stroke-linecap:round;stroke-linejoin:round;stroke-miterlimit:4;stroke-dasharray:none;stroke-opacity:1"
       d="m 3.3189527,1.2886279 -0.00263,2.5595056 H 0.91436685 V 0.38521222 H 2.5244649"
       id="path1048"
       inkscape:connector-curvature="0"
       sodipodi:nodetypes="ccccc" />
  </g>
  <g
     inkscape:groupmode="layer"
     id="layer2"
     inkscape:label="Layer 2"
     style="display:inline"
     sodipodi:insensitive="true">
    <path
       id="path1001"
       style="display:inline;fill:none;stroke:#bebebe;stroke-width:0.25404942;stroke-linecap:round;stroke-linejoin:round;stroke-miterlimit:4;stroke-dasharray:none;stroke-opacity:1;paint-order:normal"
       d="M 2.50825,0.12831369 3.5758548,1.1959167 M 2.50825,0.12831369 0.65619138,0.12808591 v -9.49e-6 3.97823218 H 3.5758548 V 1.1959167 m 0,-3e-7 H 2.50825 V 0.12831369"
       inkscape:connector-curvature="0" />
  </g>
  <g
     inkscape:label="Layer 1"
     inkscape:groupmode="layer"
     id="layer1"
     transform="translate(0,-292.76665)"
     style="display:inline"
     sodipodi:insensitive="true">
    <g
       id="g978"
       style="display:inline;opacity:0.2;fill:#808080;fill-opacity:1;stroke:none;stroke-width:1.03923047"
       transform="matrix(0.03429784,0,0,0.05291667,-0.07839478,290.59699)">
      <rect
         style="fill:#808080;fill-opacity:1;stroke:none;stroke-width:1.48070288"
         id="rect2801"
         y="116.00149"
         x="103.78947"
         height="4.9999995"
         width="14.210526" />
      <rect
         style="fill:#808080;fill-opacity:1;stroke:none;stroke-width:1.48070288"
         id="rect3696"
         transform="scale(-1)"
         y="-121.00149"
         x="-24.210518"
         height="4.9999995"
         width="14.210526" />
      <rect
         style="fill:#808080;fill-opacity:1;stroke:none;stroke-width:1.48070288"
         id="rect3700"
         y="116.00149"
         x="24.210518"
         height="5"
         width="79.578949" />
    </g>
  </g>
  <g
     inkscape:groupmode="layer"
     id="layer5"
     inkscape:label="Layer 5">
    <g
       transform="matrix(0.03993711,0,0,0.03993711,0.14976393,0.58907238)"
       id="g540">
      <path
         inkscape:connector-curvature="0"
         id="path416"
         transform="matrix(0.08948311,0,0,0.08948311,-14.005217,-72.899888)"
         d="m 879.408,1390.265 c 0,96.75 0.138,296 0.138,296 0,0 -86.502,-0.023 -126.786,0.082 -4.489,0.01 -6.872,0.252 -5.338,-6.005 2.298,-9.372 4.265,-19.155 7.469,-27.977 2.122,-5.844 5.241,-10.942 7.444,-16.512 2.302,-5.814 6.336,-12.029 1.66,-18.827 -2.173,-3.167 -4.587,-5.339 -8.635,-5.176 -8.573,0.345 -17.162,1.06 -25.717,0.795 -6.21,-0.186 -12.714,-0.085 -18.247,-4.046 -4.425,-3.164 -6.256,-6.485 -9.051,-12.415 -1.726,-3.66 -2.442,-6.129 -2.842,-9.799 -1.005,-9.217 2.249,-13.657 5.294,-19.848 5.829,-11.851 11.624,-22.12 17.867,-32.878 5.584,-9.623 12.827,-18.289 19.391,-27.336 11.743,-16.177 23.752,-32.205 33.866,-49.446 3.918,-6.676 8.181,-13.621 7.407,-22.375 -0.781,-8.847 -4.462,-13.378 -12.623,-16.859 -7.263,-3.094 -14.767,-5.554 -22.161,-8.013 -7.987,-2.657 -16.111,-5.037 -24.1,-7.866 -7.632,-2.703 -15.252,-5.31 -22.866,-8.156 -1.996,-0.746 -1.644,-0.622 -3.473,-1.209 -0.573,-0.184 -3.692,-0.89 -3.762,-1.259 -0.162,-0.844 0.647,-0.889 1.234,-1.109 5.999,-2.251 11.033,-3.756 16.537,-5.736 5.989,-2.155 12.163,-4.076 18.316,-5.758 4.9,-1.339 9.72,-2.936 14.606,-4.31 5.715,-1.606 11.366,-3.449 17.046,-5.186 4.994,-1.527 10.104,-2.916 14.998,-4.516 8.632,-2.822 17.748,-5.195 21.505,-13.748 0.517,-1.177 0.75,-2.611 0.889,-3.954 1.135,-10.837 -1.698,-20.822 -5.442,-30.95 -2.75,-7.443 -5.601,-14.92 -7.936,-22.56 -2.438,-7.976 -5.795,-15.667 -8.285,-23.628 -1.357,-4.346 -2.603,-8.874 -3.726,-13.123 -1.838,-6.951 -3.178,-13.781 -4.649,-20.449 -2.67,-12.102 -3.295,-24.021 -3.397,-36.139 -0.069,-8.351 1.674,-16.247 7.236,-22.996 3.467,-4.208 7.099,-6.853 12.829,-8.463 10.68,-3 25.52,-3.515 40.042,-2.178 8.177,0.753 17.732,0.923 20.459,-7.923 1.015,-3.291 0.526,-7.372 0.578,-11.03 0.149,-10.551 -0.691,-20.045 -0.214,-32.101 0.178,-4.487 0.545,-9.524 0.576,-14.341 0.046,-6.884 0.004,-6.884 7.11,-6.882 6.197,0 24.888,0.134 24.888,0.134 0,0 0.006,3.228 -0.004,5.815 -0.201,65.246 -0.132,130.493 -0.132,195.741 v 94.515 z"
         style="clip-rule:evenodd;fill:#c42a2b;fill-rule:evenodd" />
      <path
         inkscape:connector-curvature="0"
         id="path418"
         transform="matrix(0.08948311,0,0,0.08948311,-14.005217,-72.899888)"
         d="m 735.789,1094.061 c -14.538,4.643 -27.112,12.524 -38.714,21.756 -9.016,7.173 -16.059,16.18 -22.051,26.303 -5.76,9.721 -9.635,19.965 -11.518,30.739 -0.983,5.627 -0.969,11.637 -1.026,17.47 -0.08,8.429 -0.634,17 0.64,25.259 1.339,8.679 2.627,17.432 4.99,26.021 1.597,5.806 2.757,11.831 4.414,17.671 1.717,6.054 3.96,12.618 5.413,17.83 1.041,3.734 2.21,7.502 3.192,11.153 2.373,8.813 4.79,17.518 7.705,26.272 1.31,3.934 0.966,2.669 3.067,10.72 1.802,6.906 -1.418,10.151 -8.207,12.175 -9.051,2.697 -17.968,5.726 -26.873,8.965 -7.453,2.711 -15.11,5.165 -22.781,7.365 -6.61,1.895 -11.986,8.472 -13.65,15.025 -2.341,9.22 -3.519,17.742 -4.868,27.048 -0.604,4.167 -1.018,8.825 -1.332,13.282 -1.018,14.424 3.936,15.239 14.787,19.709 7.319,3.02 14.729,5.794 22.112,8.703 3.719,1.466 7.673,2.826 11.349,4.254 3.235,1.257 6.064,2.438 8.573,4.125 2.685,1.803 1.633,4.901 -0.179,7.702 -7.473,11.561 -16.215,22.144 -24.817,32.835 -12.469,15.488 -24.241,31.541 -33.894,48.882 -6.146,11.041 -10.32,23.152 -14.826,35.085 -6.512,17.236 -8.302,34.808 -5.441,52.141 0.856,5.189 2.493,9.838 3.927,14.665 2.453,8.252 6.012,16.253 11.395,23.267 8.319,10.838 18.791,18.688 31.551,23.518 0.753,0.287 1.936,0.244 1.821,1.347 -0.125,1.188 -1.354,0.811 -2.086,0.819 -7.916,0.08 -15.835,0.108 -23.754,0.112 -16.871,0.014 -55.885,-0.013 -55.885,-0.013 0,0 0.309,-176.078 0.309,-261.638 0,-108.286 -0.309,-330.435 -0.309,-330.435 0,0 115.598,-0.133 170.343,-0.133 h 6.623 z"
         style="clip-rule:evenodd;fill:#c42a2b;fill-rule:evenodd" />
    </g>
  </g>
</svg>
