<?xml version="1.0" encoding="UTF-8" standalone="no"?>
<!-- Created with Inkscape (http://www.inkscape.org/) -->

<svg
   xmlns:dc="http://purl.org/dc/elements/1.1/"
   xmlns:cc="http://creativecommons.org/ns#"
   xmlns:rdf="http://www.w3.org/1999/02/22-rdf-syntax-ns#"
   xmlns:svg="http://www.w3.org/2000/svg"
   xmlns="http://www.w3.org/2000/svg"
   xmlns:xlink="http://www.w3.org/1999/xlink"
   xmlns:sodipodi="http://sodipodi.sourceforge.net/DTD/sodipodi-0.dtd"
   xmlns:inkscape="http://www.inkscape.org/namespaces/inkscape"
   width="16"
   height="16"
   viewBox="0 0 4.2333332 4.2333335"
   version="1.1"
   id="svg384"
   enable-background="new"
   inkscape:version="0.92.3 (2405546, 2018-03-11)"
   sodipodi:docname="text16-base.svg">
  <defs
     id="defs378">
    <radialGradient
       gradientTransform="matrix(5.6949649,0,0,0.99999992,75.334676,75.001496)"
       gradientUnits="userSpaceOnUse"
       xlink:href="#linearGradient3688-464-309-255"
       id="radialGradient4093"
       fy="43.5"
       fx="4.9929786"
       r="2.5"
       cy="43.5"
       cx="4.9929786" />
    <linearGradient
       id="linearGradient3688-464-309-255">
      <stop
         id="stop3094"
         style="stop-color:#181818;stop-opacity:1"
         offset="0" />
      <stop
         id="stop3096"
         style="stop-color:#181818;stop-opacity:0"
         offset="1" />
    </linearGradient>
    <radialGradient
       gradientTransform="matrix(5.6949649,0,0,0.99999992,-52.665305,-162.00149)"
       gradientUnits="userSpaceOnUse"
       xlink:href="#linearGradient3688-464-309-255"
       id="radialGradient4095"
       fy="43.5"
       fx="4.9929786"
       r="2.5"
       cy="43.5"
       cx="4.9929786" />
    <linearGradient
       gradientUnits="userSpaceOnUse"
       xlink:href="#linearGradient3702-501-757-486"
       id="linearGradient4097"
       y2="39.999443"
       x2="25.058096"
       y1="47.027729"
       x1="25.058096"
       gradientTransform="matrix(2.8421052,0,0,0.71428566,-4.2105336,87.430066)" />
    <linearGradient
       id="linearGradient3702-501-757-486">
      <stop
         id="stop3100"
         style="stop-color:#181818;stop-opacity:0"
         offset="0" />
      <stop
         id="stop3102"
         style="stop-color:#181818;stop-opacity:1"
         offset="0.5" />
      <stop
         id="stop3104"
         style="stop-color:#181818;stop-opacity:0"
         offset="1" />
    </linearGradient>
    <linearGradient
       x1="25.132275"
       y1="0.98520643"
       x2="25.132275"
       y2="47.013336"
       id="linearGradient3019-2-2"
       xlink:href="#linearGradient3600"
       gradientUnits="userSpaceOnUse"
       gradientTransform="matrix(0.07559507,0,0,0.08048497,0.30238504,0.06158085)" />
    <linearGradient
       id="linearGradient3600">
      <stop
         id="stop3602"
         style="stop-color:#f4f4f4;stop-opacity:1"
         offset="0" />
      <stop
         id="stop3604"
         style="stop-color:#dbdbdb;stop-opacity:1"
         offset="1" />
    </linearGradient>
    <linearGradient
       inkscape:collect="always"
       xlink:href="#linearGradient3600"
       id="linearGradient1095"
       x1="81"
       y1="16.8125"
       x2="109.375"
       y2="16.8125"
       gradientUnits="userSpaceOnUse"
       gradientTransform="matrix(0.02797354,0,0,0.02797354,0.37997731,0.19115322)" />
    <linearGradient
       gradientTransform="matrix(0.02639506,0,0,0.03011393,0.42605513,0.30987934)"
       inkscape:collect="always"
       xlink:href="#linearGradient3977-3"
       id="linearGradient1059"
       x1="18"
       y1="59.999973"
       x2="110.10006"
       y2="59.999973"
       gradientUnits="userSpaceOnUse" />
    <linearGradient
       id="linearGradient3977-3">
      <stop
         id="stop3979-6"
         style="stop-color:#ffffff;stop-opacity:1"
         offset="0" />
      <stop
         id="stop3981-0"
         style="stop-color:#ffffff;stop-opacity:0.23529412"
         offset="0.00648027" />
      <stop
         id="stop3983-6"
         style="stop-color:#ffffff;stop-opacity:0.15686275"
         offset="0.99423188" />
      <stop
         id="stop3985-2"
         style="stop-color:#ffffff;stop-opacity:0.39215687"
         offset="1" />
    </linearGradient>
    <linearGradient
       inkscape:collect="always"
       xlink:href="#linearGradient3600"
       id="linearGradient1722"
       gradientUnits="userSpaceOnUse"
       gradientTransform="matrix(0.02797354,0,0,0.02797354,0.37997731,0.19115322)"
       x1="81"
       y1="77.06472"
       x2="81"
       y2="190.75049" />
  </defs>
  <sodipodi:namedview
     id="base"
     pagecolor="#ffffff"
     bordercolor="#666666"
     borderopacity="1.0"
     inkscape:pageopacity="0.0"
     inkscape:pageshadow="2"
     inkscape:zoom="24.48"
     inkscape:cx="9.2862032"
     inkscape:cy="7.42874"
     inkscape:document-units="px"
     inkscape:current-layer="layer38"
     showgrid="true"
     units="px"
     inkscape:window-width="902"
     inkscape:window-height="650"
     inkscape:window-x="168"
     inkscape:window-y="218"
     inkscape:window-maximized="0" />
  <metadata
     id="metadata381">
    <rdf:RDF>
      <cc:Work
         rdf:about="">
        <dc:format>image/svg+xml</dc:format>
        <dc:type
           rdf:resource="http://purl.org/dc/dcmitype/StillImage" />
        <dc:title></dc:title>
      </cc:Work>
    </rdf:RDF>
  </metadata>
  <g
     inkscape:groupmode="layer"
     id="layer3"
     inkscape:label="Layer 3"
     style="display:inline"
     sodipodi:insensitive="true">
    <path
       style="fill:url(#linearGradient1095);fill-opacity:1;stroke:#000000;stroke-width:0;stroke-linecap:round;stroke-linejoin:round;stroke-miterlimit:4;stroke-dasharray:none;stroke-opacity:1"
       d="M 2.6458338,0.26458377 V 1.0583328 h 0.793749 z"
       id="path1720"
       inkscape:connector-curvature="0" />
    <path
       style="fill:url(#linearGradient1722);fill-opacity:1;stroke:#000000;stroke-width:0;stroke-linecap:round;stroke-linejoin:round;stroke-miterlimit:4;stroke-dasharray:none;stroke-opacity:1"
       d="M 2.645842,1.0583333 H 3.4395835 V 3.96875 H 0.79375003 V 0.26460554 l -3e-8,1.428e-5 1.8520747,-1.46e-5 c 1.73e-5,0.79372808 1.73e-5,0.79372808 1.73e-5,0.79372808 z"
       id="path1087"
       inkscape:connector-curvature="0" />
  </g>
  <g
     inkscape:groupmode="layer"
     id="layer4"
     inkscape:label="Layer 4"
     style="display:inline"
     sodipodi:insensitive="true">
    <path
       style="display:inline;fill:none;stroke:url(#linearGradient1059);stroke-width:0.24123368;stroke-linecap:round;stroke-linejoin:round;stroke-miterlimit:4;stroke-dasharray:none;stroke-opacity:1"
       d="m 3.3189527,1.2886279 -0.00263,2.5595056 H 0.91436685 V 0.38521222 H 2.5244649"
       id="path1048"
       inkscape:connector-curvature="0"
       sodipodi:nodetypes="ccccc" />
  </g>
  <g
     inkscape:groupmode="layer"
     id="layer2"
     inkscape:label="Layer 2"
     style="display:inline"
     sodipodi:insensitive="true">
    <path
       id="path1001"
       style="display:inline;fill:none;stroke:#bebebe;stroke-width:0.25404942;stroke-linecap:round;stroke-linejoin:round;stroke-miterlimit:4;stroke-dasharray:none;stroke-opacity:1;paint-order:normal"
       d="M 2.50825,0.12831369 3.5758548,1.1959167 M 2.50825,0.12831369 0.65619138,0.12808591 v -9.49e-6 3.97823218 H 3.5758548 V 1.1959167 m 0,-3e-7 H 2.50825 V 0.12831369"
       inkscape:connector-curvature="0" />
  </g>
  <g
     inkscape:label="Layer 1"
     inkscape:groupmode="layer"
     id="layer1"
     transform="translate(0,-292.76665)"
     style="display:inline"
     sodipodi:insensitive="true">
    <g
       id="g978"
       style="display:inline;opacity:0.2;fill:#808080;fill-opacity:1;stroke:none;stroke-width:1.03923047"
       transform="matrix(0.03429784,0,0,0.05291667,-0.07839478,290.59699)">
      <rect
         style="fill:#808080;fill-opacity:1;stroke:none;stroke-width:1.48070288"
         id="rect2801"
         y="116.00149"
         x="103.78947"
         height="4.9999995"
         width="14.210526" />
      <rect
         style="fill:#808080;fill-opacity:1;stroke:none;stroke-width:1.48070288"
         id="rect3696"
         transform="scale(-1)"
         y="-121.00149"
         x="-24.210518"
         height="4.9999995"
         width="14.210526" />
      <rect
         style="fill:#808080;fill-opacity:1;stroke:none;stroke-width:1.48070288"
         id="rect3700"
         y="116.00149"
         x="24.210518"
         height="5"
         width="79.578949" />
    </g>
  </g>
  <g
     inkscape:groupmode="layer"
     id="layer38"
     inkscape:label="Layer 5">
    <g
       style="display:inline"
       id="g202"
       transform="matrix(0.02796886,0,0,0.02796886,0.24703204,0.9270588)">
      <g
         id="flowRoot70"
         style="font-style:normal;font-variant:normal;font-weight:normal;font-stretch:normal;font-size:13.33333302px;line-height:1.25;font-family:monospace;-inkscape-font-specification:'monospace, Normal';font-variant-ligatures:normal;font-variant-caps:normal;font-variant-numeric:normal;font-feature-settings:normal;text-align:start;letter-spacing:0px;word-spacing:0px;writing-mode:lr-tb;text-anchor:start;fill:#000000;fill-opacity:1;stroke:none"
         transform="matrix(0.9,0,0,0.9,6.7246742,3.6180107)"
         aria-label="\begin{code}">
        <path
           id="path104"
           d="m 25.710286,39.757581 -5.31901,-9.791667 h 1.158854 l 5.345052,9.791667 z"
           inkscape:connector-curvature="0" />
        <path
           id="path106"
           d="m 34.733724,36.072685 q 0,1.848958 -0.664063,2.766927 -0.657552,0.917969 -1.888021,0.917969 -1.588541,0 -2.174479,-1.197917 h -0.01302 q 0,0.3125 -0.02604,0.651042 -0.01953,0.338542 -0.03255,0.416667 h -1.132813 q 0.03906,-0.351563 0.03906,-1.451823 v -8.209636 h 1.171875 v 2.753907 q 0,0.423177 -0.02604,1.022135 h 0.02604 q 0.592448,-1.302083 2.174479,-1.302083 2.545573,0 2.545572,3.632812 z m -1.210938,0.03906 q 0,-1.458334 -0.403646,-2.109375 -0.397135,-0.657552 -1.25,-0.657552 -0.970052,0 -1.41276,0.716145 -0.442708,0.709636 -0.442708,2.154948 0,1.360677 0.429687,2.018229 0.429688,0.657553 1.412761,0.657553 0.878906,0 1.269531,-0.677084 0.397135,-0.683594 0.397135,-2.102864 z"
           inkscape:connector-curvature="0" />
        <path
           id="path108"
           d="m 37.728515,36.352633 q 0,1.184896 0.520834,1.855469 0.527343,0.670573 1.438802,0.670573 0.670573,0 1.171875,-0.286459 0.507812,-0.292968 0.677083,-0.79427 l 1.028646,0.292968 q -0.286459,0.807292 -1.054688,1.236979 -0.761718,0.429688 -1.822916,0.429688 -1.536459,0 -2.363282,-0.957031 -0.826822,-0.957032 -0.826822,-2.740886 0,-1.738281 0.807291,-2.66927 0.813802,-0.9375 2.34375,-0.9375 1.529948,0 2.317708,0.930989 0.787761,0.93099 0.787761,2.8125 v 0.15625 z m 1.933594,-3.033854 q -0.872396,0 -1.380208,0.572917 -0.507813,0.566406 -0.540365,1.5625 h 3.802083 q -0.182291,-2.135417 -1.88151,-2.135417 z"
           inkscape:connector-curvature="0" />
        <path
           id="path110"
           d="m 47.630859,42.387789 q -1.09375,0 -1.757812,-0.449219 -0.664063,-0.449218 -0.846354,-1.289062 l 1.197916,-0.16276 q 0.110677,0.488281 0.475261,0.748697 0.371093,0.266928 0.970052,0.266928 1.614583,0 1.614583,-2.050782 v -1.26302 h -0.01302 q -0.31901,0.670572 -0.885416,1.015625 -0.566407,0.345052 -1.347657,0.345052 -1.289062,0 -1.88802,-0.839844 -0.592448,-0.846354 -0.592448,-2.65625 0,-1.842448 0.638021,-2.708333 0.63802,-0.872396 1.966145,-0.872396 0.735677,0 1.276042,0.345052 0.546875,0.338542 0.839844,0.970052 h 0.01953 q 0,-0.195313 0.02604,-0.657552 0.02604,-0.46875 0.05208,-0.546875 h 1.113281 q -0.03906,0.351562 -0.03906,1.458333 v 5.377604 q 0,1.477865 -0.690105,2.220052 -0.690104,0.748698 -2.128906,0.748698 z m 1.653646,-6.347656 q 0,-1.25651 -0.488281,-1.972656 -0.488281,-0.722656 -1.341146,-0.722656 -0.891927,0 -1.289062,0.625 -0.397136,0.618489 -0.397136,2.070312 0,0.983073 0.162761,1.55599 0.16927,0.566406 0.520833,0.826823 0.351562,0.260416 0.983073,0.260416 0.553385,0 0.970052,-0.305989 0.423177,-0.3125 0.651041,-0.904948 0.227865,-0.598959 0.227865,-1.432292 z"
           inkscape:connector-curvature="0" />
        <path
           id="path112"
           d="m 56.472004,38.702893 h 2.473959 v 0.92448 h -6.393229 v -0.92448 h 2.747395 v -5.195312 h -2.076822 v -0.924479 h 3.248697 z m -1.302083,-7.486979 v -1.25 h 1.302083 v 1.25 z"
           inkscape:connector-curvature="0" />
        <path
           id="path114"
           d="m 65.267577,39.627373 v -4.52474 q 0,-0.885417 -0.345052,-1.315104 -0.338542,-0.429688 -1.08724,-0.429688 -0.807292,0 -1.328125,0.592448 -0.514323,0.585938 -0.514323,1.595052 v 4.082032 h -1.171875 v -5.540365 q 0,-1.230469 -0.03906,-1.503906 h 1.106771 q 0.0065,0.03255 0.01302,0.175781 0.0065,0.143229 0.01302,0.332031 0.01302,0.182292 0.02604,0.696615 h 0.01953 q 0.683594,-1.334635 2.252604,-1.334635 1.126302,0 1.679688,0.611979 0.553385,0.605468 0.553385,1.868489 v 4.694011 z"
           inkscape:connector-curvature="0" />
        <path
           id="path116"
           d="m 72.79362,42.3943 q -0.846354,0 -1.380209,-0.553386 -0.533854,-0.546875 -0.533854,-1.419271 v -2.285156 q 0,-0.696614 -0.47526,-1.087239 -0.475261,-0.390625 -1.315104,-0.423177 v -0.891927 q 0.846354,-0.03255 1.315104,-0.429688 0.47526,-0.397135 0.47526,-1.074219 v -2.291666 q 0,-0.891927 0.527344,-1.432292 0.527344,-0.540365 1.386719,-0.540365 h 1.72526 v 0.904948 h -1.386719 q -0.592448,0 -0.852864,0.286459 -0.260417,0.286458 -0.260417,0.983073 v 2.252604 q 0,0.638021 -0.416667,1.126302 -0.416666,0.481771 -1.087239,0.644531 v 0.01302 q 0.664062,0.15625 1.080729,0.638021 0.423177,0.47526 0.423177,1.145833 v 2.259114 q 0,0.690105 0.260417,0.976563 0.260416,0.292969 0.852864,0.292969 H 74.51888 V 42.3943 Z"
           inkscape:connector-curvature="0" />
        <path
           id="path118"
           d="m 76.452471,36.098727 q 0,-1.757813 0.839844,-2.701823 0.839844,-0.94401 2.428385,-0.94401 1.184896,0 1.953125,0.572916 0.76823,0.566406 0.950521,1.529948 l -1.25,0.09115 q -0.104166,-0.592448 -0.520833,-0.93099 -0.416667,-0.345052 -1.184896,-0.345052 -1.028646,0 -1.510416,0.638021 -0.475261,0.638021 -0.475261,2.063802 0,1.445313 0.475261,2.115886 0.48177,0.664062 1.503906,0.664062 0.703125,0 1.165364,-0.345052 0.46224,-0.345052 0.572917,-1.054688 l 1.236979,0.07813 q -0.08463,0.625 -0.47526,1.139323 -0.384115,0.507813 -1.022136,0.800782 -0.638021,0.286458 -1.425781,0.286458 -1.595052,0 -2.428385,-0.9375 -0.833334,-0.9375 -0.833334,-2.721354 z"
           inkscape:connector-curvature="0" />
        <path
           id="path120"
           d="m 90.742837,36.098727 q 0,1.777344 -0.820312,2.721354 -0.813802,0.9375 -2.356771,0.9375 -1.510417,0 -2.317708,-0.950521 -0.800782,-0.950521 -0.800782,-2.708333 0,-1.816406 0.820313,-2.727865 0.826823,-0.917968 2.337239,-0.917968 1.588542,0 2.363282,0.904947 0.774739,0.904948 0.774739,2.740886 z m -1.230469,0 q 0,-1.39974 -0.449218,-2.089844 -0.442709,-0.690104 -1.438802,-0.690104 -1.009115,0 -1.477865,0.703125 -0.46875,0.703125 -0.46875,2.076823 0,1.367187 0.46875,2.083333 0.46875,0.709636 1.40625,0.709636 1.035156,0 1.497396,-0.696615 0.462239,-0.696615 0.462239,-2.096354 z"
           inkscape:connector-curvature="0" />
        <path
           id="path122"
           d="m 97.207682,38.49456 q -0.31901,0.683594 -0.846354,0.996094 -0.527344,0.305989 -1.315104,0.305989 -1.315104,0 -1.933594,-0.904947 -0.618489,-0.904948 -0.618489,-2.727865 0,-3.684896 2.552083,-3.684896 0.78776,0 1.315104,0.279948 0.533854,0.279948 0.852865,0.917969 h 0.01302 l -0.01302,-0.983073 v -2.727865 h 1.171875 v 8.209636 q 0,1.10026 0.03906,1.451823 h -1.119792 q -0.02604,-0.09766 -0.04557,-0.475261 -0.01953,-0.377604 -0.01953,-0.657552 z m -3.502604,-2.369791 q 0,1.445312 0.384115,2.109374 0.390625,0.657553 1.26302,0.657553 0.950521,0 1.40625,-0.683594 0.45573,-0.690104 0.45573,-2.1875 0,-1.39974 -0.442709,-2.037761 -0.436198,-0.63802 -1.40625,-0.63802 -0.878906,0 -1.269531,0.670573 -0.390625,0.670572 -0.390625,2.109375 z"
           inkscape:connector-curvature="0" />
        <path
           id="path124"
           d="m 101.68685,36.352633 q 0,1.184896 0.52083,1.855469 0.52734,0.670573 1.4388,0.670573 0.67057,0 1.17188,-0.286459 0.50781,-0.292968 0.67708,-0.79427 l 1.02865,0.292968 q -0.28646,0.807292 -1.05469,1.236979 -0.76172,0.429688 -1.82292,0.429688 -1.53646,0 -2.36328,-0.957031 -0.82682,-0.957032 -0.82682,-2.740886 0,-1.738281 0.80729,-2.66927 0.8138,-0.9375 2.34375,-0.9375 1.52995,0 2.31771,0.930989 0.78776,0.93099 0.78776,2.8125 v 0.15625 z m 1.93359,-3.033854 q -0.8724,0 -1.38021,0.572917 -0.50781,0.566406 -0.54036,1.5625 h 3.80208 q -0.18229,-2.135417 -1.88151,-2.135417 z"
           inkscape:connector-curvature="0" />
        <path
           id="path126"
           d="m 108.67252,42.3943 v -0.904948 h 1.38672 q 0.59245,0 0.85286,-0.292969 0.26693,-0.286458 0.26693,-0.976563 v -2.259114 q 0,-0.664063 0.41667,-1.145833 0.41666,-0.481771 1.08073,-0.638021 v -0.01302 q -0.66407,-0.16276 -1.08073,-0.651042 -0.41667,-0.488281 -0.41667,-1.119791 v -2.252604 q 0,-0.683594 -0.26042,-0.976563 -0.26041,-0.292969 -0.85937,-0.292969 h -1.38672 v -0.904948 h 1.72526 q 0.86589,0 1.38672,0.540365 0.52734,0.540365 0.52734,1.432292 v 2.291666 q 0,0.683594 0.47526,1.080729 0.47526,0.390625 1.31511,0.423178 v 0.891927 q -0.84636,0.03255 -1.32162,0.429687 -0.46875,0.390625 -0.46875,1.080729 v 2.285156 q 0,0.878907 -0.53385,1.425782 -0.53385,0.546875 -1.38021,0.546875 z"
           inkscape:connector-curvature="0" />
      </g>
      <g
         id="flowRoot70-2"
         style="font-style:normal;font-variant:normal;font-weight:normal;font-stretch:normal;font-size:13.33333302px;line-height:1.25;font-family:monospace;-inkscape-font-specification:'monospace, Normal';font-variant-ligatures:normal;font-variant-caps:normal;font-variant-numeric:normal;font-feature-settings:normal;text-align:start;letter-spacing:0px;word-spacing:0px;writing-mode:lr-tb;text-anchor:start;fill:#000000;fill-opacity:1;stroke:none"
         transform="matrix(0.9,0,0,0.9,5.9251953,42.21813)"
         aria-label="\end{code}">
        <path
           id="path129"
           d="m 25.710286,39.757581 -5.31901,-9.791667 h 1.158854 l 5.345052,9.791667 z"
           inkscape:connector-curvature="0" />
        <path
           id="path131"
           d="m 29.733724,36.352633 q 0,1.184896 0.520833,1.855469 0.527344,0.670573 1.438802,0.670573 0.670573,0 1.171875,-0.286459 0.507813,-0.292968 0.677083,-0.79427 l 1.028646,0.292968 q -0.286458,0.807292 -1.054687,1.236979 -0.761719,0.429688 -1.822917,0.429688 -1.536458,0 -2.363281,-0.957031 -0.826823,-0.957032 -0.826823,-2.740886 0,-1.738281 0.807292,-2.66927 0.813802,-0.9375 2.34375,-0.9375 1.529948,0 2.317708,0.930989 0.78776,0.93099 0.78776,2.8125 v 0.15625 z m 1.933593,-3.033854 q -0.872395,0 -1.380208,0.572917 -0.507812,0.566406 -0.540364,1.5625 h 3.802083 q -0.182292,-2.135417 -1.881511,-2.135417 z"
           inkscape:connector-curvature="0" />
        <path
           id="path133"
           d="m 41.283203,39.627373 v -4.52474 q 0,-0.885417 -0.345052,-1.315104 -0.338542,-0.429688 -1.08724,-0.429688 -0.807292,0 -1.328125,0.592448 -0.514323,0.585938 -0.514323,1.595052 v 4.082032 h -1.171875 v -5.540365 q 0,-1.230469 -0.03906,-1.503906 h 1.106771 q 0.0065,0.03255 0.01302,0.175781 0.0065,0.143229 0.01302,0.332031 0.01302,0.182292 0.02604,0.696615 h 0.01953 q 0.683594,-1.334635 2.252604,-1.334635 1.126302,0 1.679688,0.611979 0.553385,0.605468 0.553385,1.868489 v 4.694011 z"
           inkscape:connector-curvature="0" />
        <path
           id="path135"
           d="m 49.238932,38.49456 q -0.31901,0.683594 -0.846354,0.996094 -0.527344,0.305989 -1.315104,0.305989 -1.315104,0 -1.933594,-0.904947 -0.618489,-0.904948 -0.618489,-2.727865 0,-3.684896 2.552083,-3.684896 0.78776,0 1.315104,0.279948 0.533854,0.279948 0.852865,0.917969 h 0.01302 l -0.01302,-0.983073 v -2.727865 h 1.171875 v 8.209636 q 0,1.10026 0.03906,1.451823 h -1.119792 q -0.02604,-0.09766 -0.04557,-0.475261 -0.01953,-0.377604 -0.01953,-0.657552 z m -3.502604,-2.369791 q 0,1.445312 0.384115,2.109374 0.390625,0.657553 1.26302,0.657553 0.950521,0 1.40625,-0.683594 0.45573,-0.690104 0.45573,-2.1875 0,-1.39974 -0.442709,-2.037761 -0.436198,-0.63802 -1.40625,-0.63802 -0.878906,0 -1.269531,0.670573 -0.390625,0.670572 -0.390625,2.109375 z"
           inkscape:connector-curvature="0" />
        <path
           id="path137"
           d="m 56.804036,42.3943 q -0.846354,0 -1.380209,-0.553386 -0.533854,-0.546875 -0.533854,-1.419271 v -2.285156 q 0,-0.696614 -0.47526,-1.087239 -0.475261,-0.390625 -1.315104,-0.423177 v -0.891927 q 0.846354,-0.03255 1.315104,-0.429688 0.47526,-0.397135 0.47526,-1.074219 v -2.291666 q 0,-0.891927 0.527344,-1.432292 0.527344,-0.540365 1.386719,-0.540365 h 1.72526 v 0.904948 h -1.386719 q -0.592448,0 -0.852864,0.286459 -0.260417,0.286458 -0.260417,0.983073 v 2.252604 q 0,0.638021 -0.416667,1.126302 -0.416666,0.481771 -1.087239,0.644531 v 0.01302 q 0.664062,0.15625 1.080729,0.638021 0.423177,0.47526 0.423177,1.145833 v 2.259114 q 0,0.690105 0.260417,0.976563 0.260416,0.292969 0.852864,0.292969 h 1.386719 V 42.3943 Z"
           inkscape:connector-curvature="0" />
        <path
           id="path139"
           d="m 60.462889,36.098727 q 0,-1.757813 0.839844,-2.701823 0.839844,-0.94401 2.428385,-0.94401 1.184896,0 1.953125,0.572916 0.76823,0.566406 0.950521,1.529948 l -1.25,0.09115 q -0.104166,-0.592448 -0.520833,-0.93099 -0.416667,-0.345052 -1.184896,-0.345052 -1.028646,0 -1.510417,0.638021 -0.47526,0.638021 -0.47526,2.063802 0,1.445313 0.47526,2.115886 0.481771,0.664062 1.503907,0.664062 0.703125,0 1.165364,-0.345052 0.46224,-0.345052 0.572917,-1.054688 l 1.236979,0.07813 q -0.08464,0.625 -0.47526,1.139323 -0.384115,0.507813 -1.022136,0.800782 -0.638021,0.286458 -1.425781,0.286458 -1.595052,0 -2.428385,-0.9375 -0.833334,-0.9375 -0.833334,-2.721354 z"
           inkscape:connector-curvature="0" />
        <path
           id="path141"
           d="m 74.753255,36.098727 q 0,1.777344 -0.820312,2.721354 -0.813803,0.9375 -2.356771,0.9375 -1.510417,0 -2.317708,-0.950521 -0.800782,-0.950521 -0.800782,-2.708333 0,-1.816406 0.820313,-2.727865 0.826823,-0.917968 2.337239,-0.917968 1.588542,0 2.363281,0.904947 0.77474,0.904948 0.77474,2.740886 z m -1.230469,0 q 0,-1.39974 -0.449218,-2.089844 -0.442709,-0.690104 -1.438802,-0.690104 -1.009115,0 -1.477865,0.703125 -0.46875,0.703125 -0.46875,2.076823 0,1.367187 0.46875,2.083333 0.46875,0.709636 1.40625,0.709636 1.035156,0 1.497396,-0.696615 0.462239,-0.696615 0.462239,-2.096354 z"
           inkscape:connector-curvature="0" />
        <path
           id="path143"
           d="m 81.218096,38.49456 q -0.31901,0.683594 -0.846354,0.996094 -0.527344,0.305989 -1.315104,0.305989 -1.315104,0 -1.933594,-0.904947 -0.618489,-0.904948 -0.618489,-2.727865 0,-3.684896 2.552083,-3.684896 0.78776,0 1.315104,0.279948 0.533854,0.279948 0.852865,0.917969 h 0.01302 l -0.01302,-0.983073 v -2.727865 h 1.171875 v 8.209636 q 0,1.10026 0.03906,1.451823 h -1.119791 q -0.02604,-0.09766 -0.04557,-0.475261 -0.01953,-0.377604 -0.01953,-0.657552 z m -3.502604,-2.369791 q 0,1.445312 0.384115,2.109374 0.390625,0.657553 1.263021,0.657553 0.95052,0 1.40625,-0.683594 0.455729,-0.690104 0.455729,-2.1875 0,-1.39974 -0.442709,-2.037761 -0.436198,-0.63802 -1.40625,-0.63802 -0.878906,0 -1.269531,0.670573 -0.390625,0.670572 -0.390625,2.109375 z"
           inkscape:connector-curvature="0" />
        <path
           id="path145"
           d="m 85.697264,36.352633 q 0,1.184896 0.520834,1.855469 0.527343,0.670573 1.438802,0.670573 0.670573,0 1.171875,-0.286459 0.507812,-0.292968 0.677083,-0.79427 l 1.028646,0.292968 q -0.286459,0.807292 -1.054688,1.236979 -0.761718,0.429688 -1.822916,0.429688 -1.536459,0 -2.363282,-0.957031 -0.826822,-0.957032 -0.826822,-2.740886 0,-1.738281 0.807291,-2.66927 0.813802,-0.9375 2.34375,-0.9375 1.529948,0 2.317708,0.930989 0.787761,0.93099 0.787761,2.8125 v 0.15625 z m 1.933594,-3.033854 q -0.872396,0 -1.380208,0.572917 -0.507813,0.566406 -0.540365,1.5625 h 3.802083 q -0.182291,-2.135417 -1.88151,-2.135417 z"
           inkscape:connector-curvature="0" />
        <path
           id="path147"
           d="m 92.682943,42.3943 v -0.904948 h 1.386718 q 0.592448,0 0.852865,-0.292969 0.266927,-0.286458 0.266927,-0.976563 v -2.259114 q 0,-0.664063 0.416667,-1.145833 0.416666,-0.481771 1.080729,-0.638021 v -0.01302 Q 96.022786,36.001072 95.60612,35.51279 95.189453,35.024509 95.189453,34.392999 v -2.252604 q 0,-0.683594 -0.260417,-0.976563 -0.260416,-0.292969 -0.859375,-0.292969 h -1.386718 v -0.904948 h 1.72526 q 0.865885,0 1.386719,0.540365 0.527344,0.540365 0.527344,1.432292 v 2.291666 q 0,0.683594 0.47526,1.080729 0.47526,0.390625 1.315104,0.423178 v 0.891927 q -0.846354,0.03255 -1.321614,0.429687 -0.46875,0.390625 -0.46875,1.080729 v 2.285156 q 0,0.878907 -0.533855,1.425782 -0.533854,0.546875 -1.380208,0.546875 z"
           inkscape:connector-curvature="0" />
      </g>
      <g
         id="g25"
         transform="matrix(0.324,0,0,0.324,32.007192,42.289792)">
        <path
           d="M 1.842,77.722 26.586,40.63 1.842,3.537 H 20.4 L 45.144,40.63 20.4,77.722 Z m 0,0"
           id="path8"
           inkscape:connector-curvature="0"
           style="fill:#453a62" />
        <path
           d="M 26.586,77.722 51.33,40.63 26.586,3.537 H 45.144 L 94.63,77.722 H 76.074 L 60.61,54.54 45.143,77.722 Z m 0,0"
           id="path10"
           inkscape:connector-curvature="0"
           style="fill:#5e5086" />
        <path
           d="M 86.384,56.085 78.136,43.72 h 28.868 V 56.086 H 86.384 Z M 74.012,37.54 65.764,25.175 h 41.24 V 37.54 Z m 0,0"
           id="path12"
           inkscape:connector-curvature="0"
           style="fill:#8f4e8b" />
      </g>
    </g>
  </g>
</svg>
