<?xml version="1.0" encoding="UTF-8" standalone="no"?>
<!-- Created with Inkscape (http://www.inkscape.org/) -->

<svg
   xmlns:dc="http://purl.org/dc/elements/1.1/"
   xmlns:cc="http://creativecommons.org/ns#"
   xmlns:rdf="http://www.w3.org/1999/02/22-rdf-syntax-ns#"
   xmlns:svg="http://www.w3.org/2000/svg"
   xmlns="http://www.w3.org/2000/svg"
   xmlns:xlink="http://www.w3.org/1999/xlink"
   xmlns:sodipodi="http://sodipodi.sourceforge.net/DTD/sodipodi-0.dtd"
   xmlns:inkscape="http://www.inkscape.org/namespaces/inkscape"
   width="16"
   height="16"
   viewBox="0 0 4.2333332 4.2333335"
   version="1.1"
   id="svg384"
   enable-background="new"
   inkscape:version="0.92.3 (2405546, 2018-03-11)"
   sodipodi:docname="text16-rst.svg">
  <defs
     id="defs378">
    <radialGradient
       gradientTransform="matrix(5.6949649,0,0,0.99999992,75.334676,75.001496)"
       gradientUnits="userSpaceOnUse"
       xlink:href="#linearGradient3688-464-309-255"
       id="radialGradient4093"
       fy="43.5"
       fx="4.9929786"
       r="2.5"
       cy="43.5"
       cx="4.9929786" />
    <linearGradient
       id="linearGradient3688-464-309-255">
      <stop
         id="stop3094"
         style="stop-color:#181818;stop-opacity:1"
         offset="0" />
      <stop
         id="stop3096"
         style="stop-color:#181818;stop-opacity:0"
         offset="1" />
    </linearGradient>
    <radialGradient
       gradientTransform="matrix(5.6949649,0,0,0.99999992,-52.665305,-162.00149)"
       gradientUnits="userSpaceOnUse"
       xlink:href="#linearGradient3688-464-309-255"
       id="radialGradient4095"
       fy="43.5"
       fx="4.9929786"
       r="2.5"
       cy="43.5"
       cx="4.9929786" />
    <linearGradient
       gradientUnits="userSpaceOnUse"
       xlink:href="#linearGradient3702-501-757-486"
       id="linearGradient4097"
       y2="39.999443"
       x2="25.058096"
       y1="47.027729"
       x1="25.058096"
       gradientTransform="matrix(2.8421052,0,0,0.71428566,-4.2105336,87.430066)" />
    <linearGradient
       id="linearGradient3702-501-757-486">
      <stop
         id="stop3100"
         style="stop-color:#181818;stop-opacity:0"
         offset="0" />
      <stop
         id="stop3102"
         style="stop-color:#181818;stop-opacity:1"
         offset="0.5" />
      <stop
         id="stop3104"
         style="stop-color:#181818;stop-opacity:0"
         offset="1" />
    </linearGradient>
    <linearGradient
       x1="25.132275"
       y1="0.98520643"
       x2="25.132275"
       y2="47.013336"
       id="linearGradient3019-2-2"
       xlink:href="#linearGradient3600"
       gradientUnits="userSpaceOnUse"
       gradientTransform="matrix(0.07559507,0,0,0.08048497,0.30238504,0.06158085)" />
    <linearGradient
       id="linearGradient3600">
      <stop
         id="stop3602"
         style="stop-color:#f4f4f4;stop-opacity:1"
         offset="0" />
      <stop
         id="stop3604"
         style="stop-color:#dbdbdb;stop-opacity:1"
         offset="1" />
    </linearGradient>
    <linearGradient
       inkscape:collect="always"
       xlink:href="#linearGradient3600"
       id="linearGradient1095"
       x1="81"
       y1="16.8125"
       x2="109.375"
       y2="16.8125"
       gradientUnits="userSpaceOnUse"
       gradientTransform="matrix(0.02797354,0,0,0.02797354,0.37997731,0.19115322)" />
    <linearGradient
       gradientTransform="matrix(0.02639506,0,0,0.03011393,0.42605513,0.30987934)"
       inkscape:collect="always"
       xlink:href="#linearGradient3977-3"
       id="linearGradient1059"
       x1="18"
       y1="59.999973"
       x2="110.10006"
       y2="59.999973"
       gradientUnits="userSpaceOnUse" />
    <linearGradient
       id="linearGradient3977-3">
      <stop
         id="stop3979-6"
         style="stop-color:#ffffff;stop-opacity:1"
         offset="0" />
      <stop
         id="stop3981-0"
         style="stop-color:#ffffff;stop-opacity:0.23529412"
         offset="0.00648027" />
      <stop
         id="stop3983-6"
         style="stop-color:#ffffff;stop-opacity:0.15686275"
         offset="0.99423188" />
      <stop
         id="stop3985-2"
         style="stop-color:#ffffff;stop-opacity:0.39215687"
         offset="1" />
    </linearGradient>
    <linearGradient
       inkscape:collect="always"
       xlink:href="#linearGradient3600"
       id="linearGradient1722"
       gradientUnits="userSpaceOnUse"
       gradientTransform="matrix(0.02797354,0,0,0.02797354,0.37997731,0.19115322)"
       x1="81"
       y1="77.06472"
       x2="81"
       y2="190.75049" />
  </defs>
  <sodipodi:namedview
     id="base"
     pagecolor="#ffffff"
     bordercolor="#666666"
     borderopacity="1.0"
     inkscape:pageopacity="0.0"
     inkscape:pageshadow="2"
     inkscape:zoom="14.06"
     inkscape:cx="4.9407132"
     inkscape:cy="7.42874"
     inkscape:document-units="px"
     inkscape:current-layer="layer11"
     showgrid="true"
     units="px"
     inkscape:window-width="854"
     inkscape:window-height="653"
     inkscape:window-x="505"
     inkscape:window-y="230"
     inkscape:window-maximized="0" />
  <metadata
     id="metadata381">
    <rdf:RDF>
      <cc:Work
         rdf:about="">
        <dc:format>image/svg+xml</dc:format>
        <dc:type
           rdf:resource="http://purl.org/dc/dcmitype/StillImage" />
        <dc:title></dc:title>
      </cc:Work>
    </rdf:RDF>
  </metadata>
  <g
     inkscape:groupmode="layer"
     id="layer3"
     inkscape:label="Layer 3"
     style="display:inline"
     sodipodi:insensitive="true">
    <path
       style="fill:url(#linearGradient1095);fill-opacity:1;stroke:#000000;stroke-width:0;stroke-linecap:round;stroke-linejoin:round;stroke-miterlimit:4;stroke-dasharray:none;stroke-opacity:1"
       d="M 2.6458338,0.26458377 V 1.0583328 h 0.793749 z"
       id="path1720"
       inkscape:connector-curvature="0" />
    <path
       style="fill:url(#linearGradient1722);fill-opacity:1;stroke:#000000;stroke-width:0;stroke-linecap:round;stroke-linejoin:round;stroke-miterlimit:4;stroke-dasharray:none;stroke-opacity:1"
       d="M 2.645842,1.0583333 H 3.4395835 V 3.96875 H 0.79375003 V 0.26460554 l -3e-8,1.428e-5 1.8520747,-1.46e-5 c 1.73e-5,0.79372808 1.73e-5,0.79372808 1.73e-5,0.79372808 z"
       id="path1087"
       inkscape:connector-curvature="0" />
  </g>
  <g
     inkscape:groupmode="layer"
     id="layer4"
     inkscape:label="Layer 4"
     style="display:inline"
     sodipodi:insensitive="true">
    <path
       style="display:inline;fill:none;stroke:url(#linearGradient1059);stroke-width:0.24123368;stroke-linecap:round;stroke-linejoin:round;stroke-miterlimit:4;stroke-dasharray:none;stroke-opacity:1"
       d="m 3.3189527,1.2886279 -0.00263,2.5595056 H 0.91436685 V 0.38521222 H 2.5244649"
       id="path1048"
       inkscape:connector-curvature="0"
       sodipodi:nodetypes="ccccc" />
  </g>
  <g
     inkscape:groupmode="layer"
     id="layer2"
     inkscape:label="Layer 2"
     style="display:inline"
     sodipodi:insensitive="true">
    <path
       id="path1001"
       style="display:inline;fill:none;stroke:#bebebe;stroke-width:0.25404942;stroke-linecap:round;stroke-linejoin:round;stroke-miterlimit:4;stroke-dasharray:none;stroke-opacity:1;paint-order:normal"
       d="M 2.50825,0.12831369 3.5758548,1.1959167 M 2.50825,0.12831369 0.65619138,0.12808591 v -9.49e-6 3.97823218 H 3.5758548 V 1.1959167 m 0,-3e-7 H 2.50825 V 0.12831369"
       inkscape:connector-curvature="0" />
  </g>
  <g
     inkscape:label="Layer 1"
     inkscape:groupmode="layer"
     id="layer1"
     transform="translate(0,-292.76665)"
     style="display:inline"
     sodipodi:insensitive="true">
    <g
       id="g978"
       style="display:inline;opacity:0.2;fill:#808080;fill-opacity:1;stroke:none;stroke-width:1.03923047"
       transform="matrix(0.03429784,0,0,0.05291667,-0.07839478,290.59699)">
      <rect
         style="fill:#808080;fill-opacity:1;stroke:none;stroke-width:1.48070288"
         id="rect2801"
         y="116.00149"
         x="103.78947"
         height="4.9999995"
         width="14.210526" />
      <rect
         style="fill:#808080;fill-opacity:1;stroke:none;stroke-width:1.48070288"
         id="rect3696"
         transform="scale(-1)"
         y="-121.00149"
         x="-24.210518"
         height="4.9999995"
         width="14.210526" />
      <rect
         style="fill:#808080;fill-opacity:1;stroke:none;stroke-width:1.48070288"
         id="rect3700"
         y="116.00149"
         x="24.210518"
         height="5"
         width="79.578949" />
    </g>
  </g>
  <g
     inkscape:groupmode="layer"
     id="layer11"
     inkscape:label="Layer 5">
    <g
       transform="matrix(0.650258,0,0,0.650258,4.5739633,1.0258318)"
       id="g2864">
      <path
         inkscape:connector-curvature="0"
         id="path2859"
         d="m -5.5437003,3.3051007 c 0.047023,-0.014962 0.094047,-0.023512 0.1432074,-0.032061 l 0.055573,-0.2564908 c 0.038474,-0.1774061 0.087634,-0.2906896 0.181681,-0.4125227 0.072672,-0.094047 0.1303829,-0.1389325 0.1774062,-0.1389325 0.032061,0 0.053436,0.010687 0.076947,0.040611 h 0.029924 c 0.00641,-0.081222 0.017099,-0.1496196 0.034199,-0.237254 -0.023512,-0.010687 -0.032061,-0.012825 -0.042748,-0.012825 -0.06626,0 -0.1325203,0.051298 -0.2094675,0.1603067 -0.072672,0.1047338 -0.1474823,0.2073301 -0.2009179,0.322751 l 0.055573,-0.2693154 c 0.010687,-0.047023 0.025649,-0.096184 0.025649,-0.1453448 0,-0.042749 -0.017099,-0.068398 -0.049161,-0.068398 -0.044886,0 -0.126108,0.044886 -0.2842773,0.1581693 l -0.059848,0.042748 0.014962,0.042748 0.068397,-0.044886 c 0.059848,-0.038474 0.08336,-0.049161 0.1025963,-0.049161 0.021374,0 0.036336,0.019237 0.036336,0.047023 0,0.1239706 -0.091909,0.5642798 -0.1774061,0.83787 z"
         style="fill:#000000;fill-rule:nonzero;stroke:none;stroke-width:0.03079861" />
      <path
         inkscape:connector-curvature="0"
         id="path2853"
         d="m -3.8198479,3.2858591 c 0.058985,0 0.1123533,-0.016151 0.1601035,-0.048452 0.04775,-0.032302 0.071625,-0.073732 0.071625,-0.1242909 v 0 -0.046346 c 0,-0.019662 -0.00246,-0.037568 -0.00737,-0.053719 -0.00492,-0.016151 -0.015097,-0.034057 -0.030546,-0.053719 v 0 l -0.67412,-0.8510764 c -0.00421,-0.00702 -0.00632,-0.014044 -0.00632,-0.021066 0,-0.023875 0.00772,-0.035813 0.023173,-0.035813 v 0 h 0.4824171 c 0.015449,0.037919 0.028088,0.066008 0.037919,0.084265 0.032302,0.054772 0.067412,0.082158 0.1053313,0.082158 0.028088,0 0.047048,-0.00562 0.056879,-0.016853 0.00983,-0.011235 0.014746,-0.027386 0.014746,-0.048452 0,-0.014044 -7.022e-4,-0.037217 -0.00211,-0.069519 0,-0.063199 -0.022822,-0.1134067 -0.068465,-0.1506237 -0.045644,-0.037217 -0.097256,-0.055826 -0.1548369,-0.055826 v 0 H -4.327545 c -0.049155,0 -0.089883,0.024226 -0.1221843,0.072679 -0.032302,0.048452 -0.048452,0.1014691 -0.048452,0.1590502 0,0.014044 0.00281,0.027035 0.00843,0.038972 0.00562,0.011938 0.014746,0.025631 0.027386,0.041079 v 0 l 0.7120392,0.9248083 h -0.4992701 c -0.026684,0 -0.04775,-0.018257 -0.063199,-0.054772 -0.032301,-0.074434 -0.069519,-0.1116511 -0.1116511,-0.1116511 -0.026684,0 -0.045643,0.011938 -0.056879,0.035813 -0.011235,0.023875 -0.016853,0.053368 -0.016853,0.088478 0,0.064603 0.021066,0.1165666 0.063199,0.1558903 0.042132,0.039324 0.092691,0.058985 0.151677,0.058985 v 0 z"
         style="fill:#000000;fill-rule:nonzero;stroke:none;stroke-width:0.03079861" />
      <path
         inkscape:connector-curvature="0"
         id="path2829"
         d="m -2.4844463,3.2922762 0.00641,-0.059848 -0.1261081,-0.00641 c -0.055573,-0.00214 -0.076947,-0.019237 -0.076947,-0.064123 0,-0.021374 0,-0.029924 0.00855,-0.07481 l 0.2009195,-1.1819969 h 0.1560321 c 0.166719,0 0.2436662,0.010687 0.2500784,0.036336 0.00641,0.017099 0.010687,0.05771 0.00855,0.079085 l -0.00855,0.1367951 h 0.059848 l 0.057711,-0.3505375 c -0.2009177,0.00427 -0.4018355,0.00641 -0.6027535,0.00641 -0.2009178,0 -0.4018356,-0.00214 -0.6027534,-0.00641 l -0.038474,0.3505374 h 0.061985 l 0.032061,-0.1282454 c 0.010687,-0.047023 0.025649,-0.081222 0.038474,-0.096184 0.012825,-0.014962 0.094047,-0.027786 0.1731312,-0.027786 h 0.2393915 l -0.1838186,1.113597 c -0.032061,0.1945056 -0.038474,0.2030553 -0.1239705,0.2073301 l -0.1090085,0.00641 -0.00855,0.059848 c 0.1004588,-0.00427 0.2030551,-0.00641 0.3035141,-0.00641 0.096184,0 0.1902307,0.00214 0.2842774,0.00641 z"
         style="fill:#000000;fill-rule:nonzero;stroke:none;stroke-width:0.03079861" />
    </g>
  </g>
</svg>
