<?xml version="1.0" encoding="UTF-8" standalone="no"?>
<!-- Created with Inkscape (http://www.inkscape.org/) -->

<svg
   xmlns:dc="http://purl.org/dc/elements/1.1/"
   xmlns:cc="http://creativecommons.org/ns#"
   xmlns:rdf="http://www.w3.org/1999/02/22-rdf-syntax-ns#"
   xmlns:svg="http://www.w3.org/2000/svg"
   xmlns="http://www.w3.org/2000/svg"
   xmlns:xlink="http://www.w3.org/1999/xlink"
   xmlns:sodipodi="http://sodipodi.sourceforge.net/DTD/sodipodi-0.dtd"
   xmlns:inkscape="http://www.inkscape.org/namespaces/inkscape"
   width="16"
   height="16"
   viewBox="0 0 4.2333332 4.2333335"
   version="1.1"
   id="svg384"
   enable-background="new"
   inkscape:version="0.92.3 (2405546, 2018-03-11)"
   sodipodi:docname="text16-base.svg">
  <defs
     id="defs378">
    <radialGradient
       gradientTransform="matrix(5.6949649,0,0,0.99999992,75.334676,75.001496)"
       gradientUnits="userSpaceOnUse"
       xlink:href="#linearGradient3688-464-309-255"
       id="radialGradient4093"
       fy="43.5"
       fx="4.9929786"
       r="2.5"
       cy="43.5"
       cx="4.9929786" />
    <linearGradient
       id="linearGradient3688-464-309-255">
      <stop
         id="stop3094"
         style="stop-color:#181818;stop-opacity:1"
         offset="0" />
      <stop
         id="stop3096"
         style="stop-color:#181818;stop-opacity:0"
         offset="1" />
    </linearGradient>
    <radialGradient
       gradientTransform="matrix(5.6949649,0,0,0.99999992,-52.665305,-162.00149)"
       gradientUnits="userSpaceOnUse"
       xlink:href="#linearGradient3688-464-309-255"
       id="radialGradient4095"
       fy="43.5"
       fx="4.9929786"
       r="2.5"
       cy="43.5"
       cx="4.9929786" />
    <linearGradient
       gradientUnits="userSpaceOnUse"
       xlink:href="#linearGradient3702-501-757-486"
       id="linearGradient4097"
       y2="39.999443"
       x2="25.058096"
       y1="47.027729"
       x1="25.058096"
       gradientTransform="matrix(2.8421052,0,0,0.71428566,-4.2105336,87.430066)" />
    <linearGradient
       id="linearGradient3702-501-757-486">
      <stop
         id="stop3100"
         style="stop-color:#181818;stop-opacity:0"
         offset="0" />
      <stop
         id="stop3102"
         style="stop-color:#181818;stop-opacity:1"
         offset="0.5" />
      <stop
         id="stop3104"
         style="stop-color:#181818;stop-opacity:0"
         offset="1" />
    </linearGradient>
    <linearGradient
       x1="25.132275"
       y1="0.98520643"
       x2="25.132275"
       y2="47.013336"
       id="linearGradient3019-2-2"
       xlink:href="#linearGradient3600"
       gradientUnits="userSpaceOnUse"
       gradientTransform="matrix(0.07559507,0,0,0.08048497,0.30238504,0.06158085)" />
    <linearGradient
       id="linearGradient3600">
      <stop
         id="stop3602"
         style="stop-color:#f4f4f4;stop-opacity:1"
         offset="0" />
      <stop
         id="stop3604"
         style="stop-color:#dbdbdb;stop-opacity:1"
         offset="1" />
    </linearGradient>
    <linearGradient
       inkscape:collect="always"
       xlink:href="#linearGradient3600"
       id="linearGradient1095"
       x1="81"
       y1="16.8125"
       x2="109.375"
       y2="16.8125"
       gradientUnits="userSpaceOnUse"
       gradientTransform="matrix(0.02797354,0,0,0.02797354,0.37997731,0.19115322)" />
    <linearGradient
       gradientTransform="matrix(0.02639506,0,0,0.03011393,0.42605513,0.30987934)"
       inkscape:collect="always"
       xlink:href="#linearGradient3977-3"
       id="linearGradient1059"
       x1="18"
       y1="59.999973"
       x2="110.10006"
       y2="59.999973"
       gradientUnits="userSpaceOnUse" />
    <linearGradient
       id="linearGradient3977-3">
      <stop
         id="stop3979-6"
         style="stop-color:#ffffff;stop-opacity:1"
         offset="0" />
      <stop
         id="stop3981-0"
         style="stop-color:#ffffff;stop-opacity:0.23529412"
         offset="0.00648027" />
      <stop
         id="stop3983-6"
         style="stop-color:#ffffff;stop-opacity:0.15686275"
         offset="0.99423188" />
      <stop
         id="stop3985-2"
         style="stop-color:#ffffff;stop-opacity:0.39215687"
         offset="1" />
    </linearGradient>
    <linearGradient
       inkscape:collect="always"
       xlink:href="#linearGradient3600"
       id="linearGradient1722"
       gradientUnits="userSpaceOnUse"
       gradientTransform="matrix(0.02797354,0,0,0.02797354,0.37997731,0.19115322)"
       x1="81"
       y1="77.06472"
       x2="81"
       y2="190.75049" />
  </defs>
  <sodipodi:namedview
     id="base"
     pagecolor="#ffffff"
     bordercolor="#666666"
     borderopacity="1.0"
     inkscape:pageopacity="0.0"
     inkscape:pageshadow="2"
     inkscape:zoom="24.48"
     inkscape:cx="6.963793"
     inkscape:cy="7.42874"
     inkscape:document-units="px"
     inkscape:current-layer="layer10"
     showgrid="true"
     units="px"
     inkscape:window-width="854"
     inkscape:window-height="653"
     inkscape:window-x="168"
     inkscape:window-y="218"
     inkscape:window-maximized="0" />
  <metadata
     id="metadata381">
    <rdf:RDF>
      <cc:Work
         rdf:about="">
        <dc:format>image/svg+xml</dc:format>
        <dc:type
           rdf:resource="http://purl.org/dc/dcmitype/StillImage" />
        <dc:title></dc:title>
      </cc:Work>
    </rdf:RDF>
  </metadata>
  <g
     inkscape:groupmode="layer"
     id="layer3"
     inkscape:label="Layer 3"
     style="display:inline"
     sodipodi:insensitive="true">
    <path
       style="fill:url(#linearGradient1095);fill-opacity:1;stroke:#000000;stroke-width:0;stroke-linecap:round;stroke-linejoin:round;stroke-miterlimit:4;stroke-dasharray:none;stroke-opacity:1"
       d="M 2.6458338,0.26458377 V 1.0583328 h 0.793749 z"
       id="path1720"
       inkscape:connector-curvature="0" />
    <path
       style="fill:url(#linearGradient1722);fill-opacity:1;stroke:#000000;stroke-width:0;stroke-linecap:round;stroke-linejoin:round;stroke-miterlimit:4;stroke-dasharray:none;stroke-opacity:1"
       d="M 2.645842,1.0583333 H 3.4395835 V 3.96875 H 0.79375003 V 0.26460554 l -3e-8,1.428e-5 1.8520747,-1.46e-5 c 1.73e-5,0.79372808 1.73e-5,0.79372808 1.73e-5,0.79372808 z"
       id="path1087"
       inkscape:connector-curvature="0" />
  </g>
  <g
     inkscape:groupmode="layer"
     id="layer4"
     inkscape:label="Layer 4"
     style="display:inline"
     sodipodi:insensitive="true">
    <path
       style="display:inline;fill:none;stroke:url(#linearGradient1059);stroke-width:0.24123368;stroke-linecap:round;stroke-linejoin:round;stroke-miterlimit:4;stroke-dasharray:none;stroke-opacity:1"
       d="m 3.3189527,1.2886279 -0.00263,2.5595056 H 0.91436685 V 0.38521222 H 2.5244649"
       id="path1048"
       inkscape:connector-curvature="0"
       sodipodi:nodetypes="ccccc" />
  </g>
  <g
     inkscape:groupmode="layer"
     id="layer2"
     inkscape:label="Layer 2"
     style="display:inline"
     sodipodi:insensitive="true">
    <path
       id="path1001"
       style="display:inline;fill:none;stroke:#bebebe;stroke-width:0.25404942;stroke-linecap:round;stroke-linejoin:round;stroke-miterlimit:4;stroke-dasharray:none;stroke-opacity:1;paint-order:normal"
       d="M 2.50825,0.12831369 3.5758548,1.1959167 M 2.50825,0.12831369 0.65619138,0.12808591 v -9.49e-6 3.97823218 H 3.5758548 V 1.1959167 m 0,-3e-7 H 2.50825 V 0.12831369"
       inkscape:connector-curvature="0" />
  </g>
  <g
     inkscape:label="Layer 1"
     inkscape:groupmode="layer"
     id="layer1"
     transform="translate(0,-292.76665)"
     style="display:inline"
     sodipodi:insensitive="true">
    <g
       id="g978"
       style="display:inline;opacity:0.2;fill:#808080;fill-opacity:1;stroke:none;stroke-width:1.03923047"
       transform="matrix(0.03429784,0,0,0.05291667,-0.07839478,290.59699)">
      <rect
         style="fill:#808080;fill-opacity:1;stroke:none;stroke-width:1.48070288"
         id="rect2801"
         y="116.00149"
         x="103.78947"
         height="4.9999995"
         width="14.210526" />
      <rect
         style="fill:#808080;fill-opacity:1;stroke:none;stroke-width:1.48070288"
         id="rect3696"
         transform="scale(-1)"
         y="-121.00149"
         x="-24.210518"
         height="4.9999995"
         width="14.210526" />
      <rect
         style="fill:#808080;fill-opacity:1;stroke:none;stroke-width:1.48070288"
         id="rect3700"
         y="116.00149"
         x="24.210518"
         height="5"
         width="79.578949" />
    </g>
  </g>
  <g
     inkscape:groupmode="layer"
     id="layer10"
     inkscape:label="Layer 5">
    <g
       id="g5448"
       transform="matrix(0.0034762,0,0,0.0034762,1.0042834,1.7796941)">
      <path
         style="fill:#000000;fill-rule:nonzero;stroke:none"
         d="m 231.24871,13.074828 c 13.9647,-2.145714 28.04932,-3.7143076 42.16715,-4.4576601 2.50807,-0.5975609 5.10233,-0.4754423 7.66462,-0.5670221 20.03161,-0.6389616 40.09083,-0.6100499 60.114,0.2920262 36.13984,2.556064 72.09666,8.559881 106.95954,18.568048 l -0.14762,0.19577 c -5.11111,6.912417 -10.23719,13.813955 -15.24925,20.797413 -1.50177,0.277079 -2.81633,-0.67277 -4.15389,-1.151144 C 402.15299,35.837642 373.99723,29.50189 345.65841,26.073356 299.04548,21.299976 251.32409,25.13525 206.6068,39.478656 173.68347,50.127022 141.88954,66.546594 117.33862,91.307584 99.940046,109.10011 86.581823,132.11715 84.768653,157.33636 c -1.687182,12.0186 1.190443,24.01642 3.735937,35.67942 l -110.416603,19.4647 c -0.26686,-19.48213 4.817187,-38.75716 12.9080663,-56.38203 C 7.0889076,121.78138 34.995235,94.363019 66.089674,73.370091 87.115089,59.253246 109.8426,47.736528 133.44845,38.604474 164.89685,26.309475 197.84692,17.908911 231.24871,13.074828 Z"
         id="path16-3"
         sodipodi:nodetypes="cccccccccccccccccc"
         inkscape:connector-curvature="0" />
      <path
         style="fill:#d72123;fill-rule:nonzero;stroke:none"
         d="m 432.75715,47.903403 c 5.01206,-6.983458 10.13814,-13.884996 15.24925,-20.797413 46.80969,13.7098 92.01318,35.358686 128.93772,67.616911 15.09828,13.519939 28.75394,28.815029 39.24184,46.216939 12.41965,20.47919 20.2898,43.93195 21.13188,67.95911 -36.71332,-6.41672 -73.41642,-12.88818 -110.12475,-19.32675 4.51794,-14.36945 4.55651,-30.01449 1.46274,-44.67823 C 522.92208,119.55122 506.67492,97.792388 487.07711,81.275148 470.73988,67.528438 452.10162,56.511479 432.35456,48.448869 Z"
         id="path20-6"
         inkscape:connector-curvature="0" />
      <path
         style="fill:#000000;fill-rule:nonzero;stroke:none"
         d="m 297.41181,149.12508 c 2.16103,-3.5191 5.96608,-6.32608 10.29398,-5.80508 4.89185,0.12513 8.6615,4.16754 9.6749,8.74236 l 345.12714,61.39291 -1.1523,5.78199 -345.05216,-60.50782 c -2.75262,4.78919 -9.13793,7.26259 -14.15442,4.4345 -3.47786,-1.52032 -4.66434,-5.24185 -6.23396,-8.36425 l -21.24592,-3.40419 0.97392,-5.97658 z"
         id="path24-7"
         sodipodi:nodetypes="ccccccccccc"
         inkscape:connector-curvature="0" />
      <path
         style="fill:#000000;fill-rule:nonzero;stroke:none"
         d="m -22.507827,229.83354 c 20.2826547,-0.13619 40.566919,-0.0251 60.850388,-0.0566 0.02008,0.75155 0.06026,2.25465 0.08034,3.0062 14.737927,-3.20945 29.885118,-4.57437 44.958756,-3.74231 10.975803,1.00482 21.053143,5.70851 30.868813,10.37777 -11.06506,6.84335 -22.324554,13.43394 -33.122612,20.6745 -12.032679,-9.29211 -28.386548,-9.30034 -42.418946,-5.23476 -0.175128,1.50142 -0.339799,3.00801 -0.354747,4.52818 0.0071,34.91756 0.01685,69.83575 -0.0041,104.754 -20.275318,-0.007 -40.5503801,0.0187 -60.825544,-0.0128 -0.04309,-44.76492 0.02139,-89.52962 -0.03233,-134.29415 z"
         id="path28"
         inkscape:connector-curvature="0" />
      <path
         id="path32"
         transform="matrix(0.7611285,0,0,0.7611285,-30.119115,0)"
         d="m 252.55273,301.875 c -11.73278,-0.01 -23.46548,-10e-4 -35.19726,0.0977 l -0.01,225.38672 80.03711,-10.97852 0.0645,-36.37891 c 36.81141,-1.55391 72.97889,-10.81261 105.52148,-28.22461 17.75236,-9.99158 35.19385,-23.35937 43.33789,-42.64062 6.93779,-16.07176 3.8476,-34.9306 -4.99023,-49.61914 C 429.67908,340.60866 410.2624,328.04831 390.18945,319.54883 357.8699,306.17312 322.52509,301.69125 287.75,301.88867 c -11.73273,0.0244 -23.46448,-0.004 -35.19727,-0.0137 z m 44.94922,19.49023 h 0.002 c 20.49693,2.05682 39.02465,13.63904 53.02539,28.29493 12.074,12.69863 20.60876,30.41687 17.66015,48.26367 -3.22299,17.87909 -15.66305,32.40321 -29.65234,43.21484 -12.15018,8.91947 -25.89046,16.62041 -41.03711,18.63867 -0.0523,-46.13742 -0.0601,-92.27531 0.002,-138.41211 z"
         style="fill:#000000;fill-rule:nonzero;stroke:none"
         inkscape:connector-curvature="0" />
      <path
         style="fill:#000000;fill-rule:nonzero;stroke:none"
         d="m 351.87058,229.86425 c 69.69969,-0.21288 139.40376,-0.026 209.10552,-0.0936 20.39169,0.0844 41.12262,0.21346 60.95901,5.48864 5.70893,1.88049 13.32257,4.1167 14.82419,10.75273 0.14886,39.37366 0.0555,78.75643 0.0454,118.13382 -20.28681,-0.004 -40.5726,-0.0125 -60.85782,0.004 -0.004,-39.07055 -0.084,-78.14247 0.0396,-117.21163 -3.68531,-3.19739 -8.93912,-3.06098 -13.51483,-3.61936 -12.5114,-0.3257 -25.03284,-0.0933 -37.54633,-0.12856 0.002,40.31903 0.0451,80.63838 -0.0212,120.95765 -20.31552,-0.019 -40.63014,0.006 -60.94438,-0.0124 -0.0602,-32.2959 -0.009,-64.59163 -0.0256,-96.88713 -0.16254,-7.05713 0.35368,-14.14074 -0.30739,-21.17502 -5.71567,-2.40238 -11.97694,-2.87306 -18.10554,-2.90244 -10.88162,-0.0175 -21.762,0.008 -32.64154,-0.0111 -0.0533,40.33269 0.0656,80.66623 -0.0596,120.99879 -19.1288,-0.0244 -38.25726,-0.0377 -57.38482,0.008 l -3.68452,-0.0146 c 0.31471,-44.50866 0.0753,-89.77519 0.11995,-134.28794 z"
         id="path36"
         sodipodi:nodetypes="ccccccccccccccccccc"
         inkscape:connector-curvature="0" />
    </g>
  </g>
</svg>
