<?xml version="1.0" encoding="UTF-8" standalone="no"?>
<!-- Created with Inkscape (http://www.inkscape.org/) -->

<svg
   xmlns:dc="http://purl.org/dc/elements/1.1/"
   xmlns:cc="http://creativecommons.org/ns#"
   xmlns:rdf="http://www.w3.org/1999/02/22-rdf-syntax-ns#"
   xmlns:svg="http://www.w3.org/2000/svg"
   xmlns="http://www.w3.org/2000/svg"
   xmlns:xlink="http://www.w3.org/1999/xlink"
   xmlns:sodipodi="http://sodipodi.sourceforge.net/DTD/sodipodi-0.dtd"
   xmlns:inkscape="http://www.inkscape.org/namespaces/inkscape"
   width="16"
   height="16"
   viewBox="0 0 4.2333332 4.2333335"
   version="1.1"
   id="svg384"
   enable-background="new"
   inkscape:version="0.92.3 (2405546, 2018-03-11)"
   sodipodi:docname="text16-base.svg">
  <defs
     id="defs378">
    <radialGradient
       gradientTransform="matrix(5.6949649,0,0,0.99999992,75.334676,75.001496)"
       gradientUnits="userSpaceOnUse"
       xlink:href="#linearGradient3688-464-309-255"
       id="radialGradient4093"
       fy="43.5"
       fx="4.9929786"
       r="2.5"
       cy="43.5"
       cx="4.9929786" />
    <linearGradient
       id="linearGradient3688-464-309-255">
      <stop
         id="stop3094"
         style="stop-color:#181818;stop-opacity:1"
         offset="0" />
      <stop
         id="stop3096"
         style="stop-color:#181818;stop-opacity:0"
         offset="1" />
    </linearGradient>
    <radialGradient
       gradientTransform="matrix(5.6949649,0,0,0.99999992,-52.665305,-162.00149)"
       gradientUnits="userSpaceOnUse"
       xlink:href="#linearGradient3688-464-309-255"
       id="radialGradient4095"
       fy="43.5"
       fx="4.9929786"
       r="2.5"
       cy="43.5"
       cx="4.9929786" />
    <linearGradient
       gradientUnits="userSpaceOnUse"
       xlink:href="#linearGradient3702-501-757-486"
       id="linearGradient4097"
       y2="39.999443"
       x2="25.058096"
       y1="47.027729"
       x1="25.058096"
       gradientTransform="matrix(2.8421052,0,0,0.71428566,-4.2105336,87.430066)" />
    <linearGradient
       id="linearGradient3702-501-757-486">
      <stop
         id="stop3100"
         style="stop-color:#181818;stop-opacity:0"
         offset="0" />
      <stop
         id="stop3102"
         style="stop-color:#181818;stop-opacity:1"
         offset="0.5" />
      <stop
         id="stop3104"
         style="stop-color:#181818;stop-opacity:0"
         offset="1" />
    </linearGradient>
    <linearGradient
       x1="25.132275"
       y1="0.98520643"
       x2="25.132275"
       y2="47.013336"
       id="linearGradient3019-2-2"
       xlink:href="#linearGradient3600"
       gradientUnits="userSpaceOnUse"
       gradientTransform="matrix(0.07559507,0,0,0.08048497,0.30238504,0.06158085)" />
    <linearGradient
       id="linearGradient3600">
      <stop
         id="stop3602"
         style="stop-color:#f4f4f4;stop-opacity:1"
         offset="0" />
      <stop
         id="stop3604"
         style="stop-color:#dbdbdb;stop-opacity:1"
         offset="1" />
    </linearGradient>
    <linearGradient
       inkscape:collect="always"
       xlink:href="#linearGradient3600"
       id="linearGradient1095"
       x1="81"
       y1="16.8125"
       x2="109.375"
       y2="16.8125"
       gradientUnits="userSpaceOnUse"
       gradientTransform="matrix(0.02797354,0,0,0.02797354,0.37997731,0.19115322)" />
    <linearGradient
       gradientTransform="matrix(0.02639506,0,0,0.03011393,0.42605513,0.30987934)"
       inkscape:collect="always"
       xlink:href="#linearGradient3977-3"
       id="linearGradient1059"
       x1="18"
       y1="59.999973"
       x2="110.10006"
       y2="59.999973"
       gradientUnits="userSpaceOnUse" />
    <linearGradient
       id="linearGradient3977-3">
      <stop
         id="stop3979-6"
         style="stop-color:#ffffff;stop-opacity:1"
         offset="0" />
      <stop
         id="stop3981-0"
         style="stop-color:#ffffff;stop-opacity:0.23529412"
         offset="0.00648027" />
      <stop
         id="stop3983-6"
         style="stop-color:#ffffff;stop-opacity:0.15686275"
         offset="0.99423188" />
      <stop
         id="stop3985-2"
         style="stop-color:#ffffff;stop-opacity:0.39215687"
         offset="1" />
    </linearGradient>
    <linearGradient
       inkscape:collect="always"
       xlink:href="#linearGradient3600"
       id="linearGradient1722"
       gradientUnits="userSpaceOnUse"
       gradientTransform="matrix(0.02797354,0,0,0.02797354,0.37997731,0.19115322)"
       x1="81"
       y1="77.06472"
       x2="81"
       y2="190.75049" />
  </defs>
  <sodipodi:namedview
     id="base"
     pagecolor="#ffffff"
     bordercolor="#666666"
     borderopacity="1.0"
     inkscape:pageopacity="0.0"
     inkscape:pageshadow="2"
     inkscape:zoom="24.48"
     inkscape:cx="9.2862032"
     inkscape:cy="7.42874"
     inkscape:document-units="px"
     inkscape:current-layer="layer29"
     showgrid="true"
     units="px"
     inkscape:window-width="902"
     inkscape:window-height="650"
     inkscape:window-x="168"
     inkscape:window-y="218"
     inkscape:window-maximized="0" />
  <metadata
     id="metadata381">
    <rdf:RDF>
      <cc:Work
         rdf:about="">
        <dc:format>image/svg+xml</dc:format>
        <dc:type
           rdf:resource="http://purl.org/dc/dcmitype/StillImage" />
        <dc:title></dc:title>
      </cc:Work>
    </rdf:RDF>
  </metadata>
  <g
     inkscape:groupmode="layer"
     id="layer3"
     inkscape:label="Layer 3"
     style="display:inline"
     sodipodi:insensitive="true">
    <path
       style="fill:url(#linearGradient1095);fill-opacity:1;stroke:#000000;stroke-width:0;stroke-linecap:round;stroke-linejoin:round;stroke-miterlimit:4;stroke-dasharray:none;stroke-opacity:1"
       d="M 2.6458338,0.26458377 V 1.0583328 h 0.793749 z"
       id="path1720"
       inkscape:connector-curvature="0" />
    <path
       style="fill:url(#linearGradient1722);fill-opacity:1;stroke:#000000;stroke-width:0;stroke-linecap:round;stroke-linejoin:round;stroke-miterlimit:4;stroke-dasharray:none;stroke-opacity:1"
       d="M 2.645842,1.0583333 H 3.4395835 V 3.96875 H 0.79375003 V 0.26460554 l -3e-8,1.428e-5 1.8520747,-1.46e-5 c 1.73e-5,0.79372808 1.73e-5,0.79372808 1.73e-5,0.79372808 z"
       id="path1087"
       inkscape:connector-curvature="0" />
  </g>
  <g
     inkscape:groupmode="layer"
     id="layer4"
     inkscape:label="Layer 4"
     style="display:inline"
     sodipodi:insensitive="true">
    <path
       style="display:inline;fill:none;stroke:url(#linearGradient1059);stroke-width:0.24123368;stroke-linecap:round;stroke-linejoin:round;stroke-miterlimit:4;stroke-dasharray:none;stroke-opacity:1"
       d="m 3.3189527,1.2886279 -0.00263,2.5595056 H 0.91436685 V 0.38521222 H 2.5244649"
       id="path1048"
       inkscape:connector-curvature="0"
       sodipodi:nodetypes="ccccc" />
  </g>
  <g
     inkscape:groupmode="layer"
     id="layer2"
     inkscape:label="Layer 2"
     style="display:inline"
     sodipodi:insensitive="true">
    <path
       id="path1001"
       style="display:inline;fill:none;stroke:#bebebe;stroke-width:0.25404942;stroke-linecap:round;stroke-linejoin:round;stroke-miterlimit:4;stroke-dasharray:none;stroke-opacity:1;paint-order:normal"
       d="M 2.50825,0.12831369 3.5758548,1.1959167 M 2.50825,0.12831369 0.65619138,0.12808591 v -9.49e-6 3.97823218 H 3.5758548 V 1.1959167 m 0,-3e-7 H 2.50825 V 0.12831369"
       inkscape:connector-curvature="0" />
  </g>
  <g
     inkscape:label="Layer 1"
     inkscape:groupmode="layer"
     id="layer1"
     transform="translate(0,-292.76665)"
     style="display:inline"
     sodipodi:insensitive="true">
    <g
       id="g978"
       style="display:inline;opacity:0.2;fill:#808080;fill-opacity:1;stroke:none;stroke-width:1.03923047"
       transform="matrix(0.03429784,0,0,0.05291667,-0.07839478,290.59699)">
      <rect
         style="fill:#808080;fill-opacity:1;stroke:none;stroke-width:1.48070288"
         id="rect2801"
         y="116.00149"
         x="103.78947"
         height="4.9999995"
         width="14.210526" />
      <rect
         style="fill:#808080;fill-opacity:1;stroke:none;stroke-width:1.48070288"
         id="rect3696"
         transform="scale(-1)"
         y="-121.00149"
         x="-24.210518"
         height="4.9999995"
         width="14.210526" />
      <rect
         style="fill:#808080;fill-opacity:1;stroke:none;stroke-width:1.48070288"
         id="rect3700"
         y="116.00149"
         x="24.210518"
         height="5"
         width="79.578949" />
    </g>
  </g>
  <g
     inkscape:groupmode="layer"
     id="layer29"
     inkscape:label="Layer 5">
    <g
       id="g3963"
       transform="matrix(0.00690787,0,0,0.00690787,6.0154078,0.43524365)">
      <g
         id="g3771"
         style="fill:#000000;fill-opacity:1;fill-rule:nonzero;stroke:none;stroke-miterlimit:4"
         transform="matrix(2.914897,0,0,2.914897,-717.5904,128.5015)">
        <g
           id="g3773"
           style="fill:#000000;fill-opacity:1">
          <path
             inkscape:connector-curvature="0"
             id="path3775"
             style="fill:#000000;fill-opacity:1"
             d="M 86.068,0 C 61.466,0 56.851,35.041 70.691,35.041 84.529,35.041 110.671,0 86.068,0 Z" />
          <path
             inkscape:connector-curvature="0"
             id="path3777"
             style="fill:#000000;fill-opacity:1"
             d="M 45.217,30.699 C 52.586,31.149 60.671,2.577 46.821,4.374 32.976,6.171 37.845,30.249 45.217,30.699 Z" />
          <path
             inkscape:connector-curvature="0"
             id="path3779"
             style="fill:#000000;fill-opacity:1"
             d="M 11.445,48.453 C 16.686,46.146 12.12,23.581 3.208,29.735 -5.7,35.89 6.204,50.759 11.445,48.453 Z" />
          <path
             inkscape:connector-curvature="0"
             id="path3781"
             style="fill:#000000;fill-opacity:1"
             d="M 26.212,36.642 C 32.451,35.37 32.793,9.778 21.667,14.369 10.539,18.961 19.978,37.916 26.212,36.642 Z" />
          <path
             inkscape:connector-curvature="0"
             id="path3783"
             style="fill:#000000;fill-opacity:1"
             d="m 58.791,93.913 c 1.107,8.454 -6.202,12.629 -13.36,7.179 C 22.644,83.743 83.16,75.088 79.171,51.386 75.86,31.712 15.495,37.769 8.621,68.553 3.968,89.374 27.774,118.26 52.614,118.26 c 12.22,0 26.315,-11.034 28.952,-25.012 C 83.58,82.589 57.867,86.86 58.791,93.913 Z" />
        </g>
      </g>
      <g
         id="g3956"
         transform="matrix(1.098291,0,0,1.098291,41.06056,-50.07504)"
         style="display:none">
        <path
           inkscape:connector-curvature="0"
           id="path3787"
           style="font-style:normal;font-variant:normal;font-weight:bold;font-stretch:normal;font-size:148.699646px;line-height:125%;font-family:'Bitstream Vera Sans';text-align:start;writing-mode:lr-tb;text-anchor:start;fill:#000000;fill-opacity:1;stroke:none;stroke-width:1.00000003pt;stroke-linecap:butt;stroke-linejoin:miter;stroke-opacity:1"
           d="m -565.99523,509.46063 c -8.08731,0.21792 -14.47394,3.12448 -19.17071,8.69866 -4.86385,5.80101 -7.31024,13.81651 -7.31024,24.03862 0,10.19394 2.44651,18.18745 7.31024,23.98846 4.88761,5.801 11.59815,8.69866 20.15764,8.69866 8.5831,0 15.3105,-2.89766 20.17436,-8.69866 4.86373,-5.80101 7.29358,-13.79452 7.29353,-23.98846 -5e-5,-10.22211 -2.4298,-18.23761 -7.29353,-24.03862 -4.86386,-5.80075 -11.59131,-8.69866 -20.17436,-8.69866 -0.33434,0 -0.6582,-0.009 -0.98693,0 z m 0.60221,11.77669 c 0.12927,-0.003 0.25357,0 0.38472,0 4.21998,0 7.48996,1.8261 9.8028,5.48697 2.31266,3.66086 3.47944,8.82788 3.47949,15.47362 0,6.61757 -1.16692,11.74604 -3.47949,15.40691 -2.31274,3.66086 -5.58286,5.50352 -9.8028,5.50352 -4.19632,0 -7.43983,-1.84266 -9.75257,-5.50352 -2.31274,-3.66087 -3.47944,-8.78934 -3.47949,-15.40691 0,-6.64574 1.16684,-11.81276 3.47949,-15.47362 2.24035,-3.54647 5.35963,-5.37604 9.36785,-5.48697 z" />
        <path
           inkscape:connector-curvature="0"
           id="path3789"
           style="font-style:normal;font-variant:normal;font-weight:bold;font-stretch:normal;font-size:148.699646px;line-height:125%;font-family:'Bitstream Vera Sans';text-align:start;writing-mode:lr-tb;text-anchor:start;fill:#000000;fill-opacity:1;stroke:none;stroke-width:1.00000003pt;stroke-linecap:butt;stroke-linejoin:miter;stroke-opacity:1"
           d="m -657.35432,568.97161 c -7.12362,5.98235 -17.72219,5.91366 -22.13752,5.91366 -8.8932,0 -15.93855,-2.92879 -21.13613,-8.78612 -5.19765,-5.88525 -7.7964,-13.85456 -7.7964,-23.90791 0,-10.16578 2.64646,-18.16325 7.93945,-23.99241 5.293,-5.82892 12.54098,-8.74363 21.74413,-8.74363 3.55245,0 6.94991,0.39433 10.19254,1.18273 3.26638,0.78841 6.34203,1.95706 9.22697,3.50595 l -3.70487,10.9527 c -1.62185,-0.88773 -3.4788,-1.76286 -5.20022,-2.37807 -2.93262,-0.98557 -5.87712,-1.47823 -8.83351,-1.47823 -5.48379,0 -9.71581,1.81623 -12.69601,5.44892 -2.95649,3.60454 -4.4347,8.7718 -4.4347,15.50204 0,6.67415 1.4305,11.82733 4.29167,15.46003 2.86099,3.6327 7.16068,5.44892 12.19522,5.44892 5.11476,0 8.28269,-1.28922 9.97226,-2.64762 v -10.91144 h -11.08087 v -10.89809 h 21.45799" />
        <path
           inkscape:connector-curvature="0"
           id="path3793"
           style="font-style:normal;font-variant:normal;font-weight:bold;font-stretch:normal;font-size:148.699646px;line-height:125%;font-family:'Bitstream Vera Sans';text-align:start;writing-mode:lr-tb;text-anchor:start;fill:#000000;fill-opacity:1;stroke:none;stroke-width:1.00000003pt;stroke-linecap:butt;stroke-linejoin:miter;stroke-opacity:1"
           d="m -528.50252,510.59568 h 17.5241 l 12.15952,39.37066 12.23105,-39.37066 h 14.81181 l 6.69132,63.06461 h -13.01787 l -4.0148,-39.4349 -12.30257,39.62391 h -8.72628 l -12.30263,-40.9623 -4.01479,40.77329 h -13.05365 l 6.69132,-63.06461" />
        <path
           inkscape:connector-curvature="0"
           id="path3795"
           style="font-style:normal;font-variant:normal;font-weight:bold;font-stretch:normal;font-size:148.699646px;line-height:125%;font-family:'Bitstream Vera Sans';text-align:start;writing-mode:lr-tb;text-anchor:start;fill:#000000;fill-opacity:1;stroke:none;stroke-width:1.00000003pt;stroke-linecap:butt;stroke-linejoin:miter;stroke-opacity:1"
           d="m -455.68828,510.59568 h 37.15811 v 12.29183 h -23.38928 v 13.08097 h 17.97969 v 10.95369 h -17.97969 v 14.44629 h 24.17608 v 12.29183 h -37.94491 v -63.06461" />
        <path
           inkscape:connector-curvature="0"
           id="path3791"
           style="font-style:normal;font-variant:normal;font-weight:bold;font-stretch:normal;font-size:148.699646px;line-height:125%;font-family:'Bitstream Vera Sans';text-align:start;writing-mode:lr-tb;text-anchor:start;fill:#000000;fill-opacity:1;stroke:none;stroke-width:1.00000003pt;stroke-linecap:butt;stroke-linejoin:miter;stroke-opacity:1"
           d="m -647.94283,510.59568 h 8.6869 l 27.44915,37.90083 v -37.90083 h 11.71533 v 63.06461 h -8.6869 l -27.4491,-37.90083 v 37.90083 h -11.71538 v -63.06461" />
      </g>
      <text
         xml:space="preserve"
         id="text3797"
         style="font-style:normal;font-weight:normal;font-size:25.88836098px;font-family:'Bitstream Vera Sans';display:none;fill:#000000;fill-opacity:1;stroke:none;stroke-width:1.00000003pt;stroke-linecap:butt;stroke-linejoin:miter;stroke-opacity:1"
         y="527.92285"
         x="-406.52405"><tspan
           id="tspan3799"
           style="letter-spacing:9.33191109"
           y="527.92285"
           x="-406.52405"><tspan
             id="tspan3801"
             style="letter-spacing:0.21289776">TM</tspan></tspan></text>
    </g>
  </g>
</svg>
