<?xml version="1.0" encoding="UTF-8" standalone="no"?>
<!-- Created with Inkscape (http://www.inkscape.org/) -->

<svg
   xmlns:dc="http://purl.org/dc/elements/1.1/"
   xmlns:cc="http://creativecommons.org/ns#"
   xmlns:rdf="http://www.w3.org/1999/02/22-rdf-syntax-ns#"
   xmlns:svg="http://www.w3.org/2000/svg"
   xmlns="http://www.w3.org/2000/svg"
   xmlns:xlink="http://www.w3.org/1999/xlink"
   xmlns:sodipodi="http://sodipodi.sourceforge.net/DTD/sodipodi-0.dtd"
   xmlns:inkscape="http://www.inkscape.org/namespaces/inkscape"
   width="16"
   height="16"
   viewBox="0 0 4.2333332 4.2333335"
   version="1.1"
   id="svg384"
   enable-background="new"
   inkscape:version="0.92.3 (2405546, 2018-03-11)"
   sodipodi:docname="text16-base.svg">
  <defs
     id="defs378">
    <radialGradient
       gradientTransform="matrix(5.6949649,0,0,0.99999992,75.334676,75.001496)"
       gradientUnits="userSpaceOnUse"
       xlink:href="#linearGradient3688-464-309-255"
       id="radialGradient4093"
       fy="43.5"
       fx="4.9929786"
       r="2.5"
       cy="43.5"
       cx="4.9929786" />
    <linearGradient
       id="linearGradient3688-464-309-255">
      <stop
         id="stop3094"
         style="stop-color:#181818;stop-opacity:1"
         offset="0" />
      <stop
         id="stop3096"
         style="stop-color:#181818;stop-opacity:0"
         offset="1" />
    </linearGradient>
    <radialGradient
       gradientTransform="matrix(5.6949649,0,0,0.99999992,-52.665305,-162.00149)"
       gradientUnits="userSpaceOnUse"
       xlink:href="#linearGradient3688-464-309-255"
       id="radialGradient4095"
       fy="43.5"
       fx="4.9929786"
       r="2.5"
       cy="43.5"
       cx="4.9929786" />
    <linearGradient
       gradientUnits="userSpaceOnUse"
       xlink:href="#linearGradient3702-501-757-486"
       id="linearGradient4097"
       y2="39.999443"
       x2="25.058096"
       y1="47.027729"
       x1="25.058096"
       gradientTransform="matrix(2.8421052,0,0,0.71428566,-4.2105336,87.430066)" />
    <linearGradient
       id="linearGradient3702-501-757-486">
      <stop
         id="stop3100"
         style="stop-color:#181818;stop-opacity:0"
         offset="0" />
      <stop
         id="stop3102"
         style="stop-color:#181818;stop-opacity:1"
         offset="0.5" />
      <stop
         id="stop3104"
         style="stop-color:#181818;stop-opacity:0"
         offset="1" />
    </linearGradient>
    <linearGradient
       x1="25.132275"
       y1="0.98520643"
       x2="25.132275"
       y2="47.013336"
       id="linearGradient3019-2-2"
       xlink:href="#linearGradient3600"
       gradientUnits="userSpaceOnUse"
       gradientTransform="matrix(0.07559507,0,0,0.08048497,0.30238504,0.06158085)" />
    <linearGradient
       id="linearGradient3600">
      <stop
         id="stop3602"
         style="stop-color:#f4f4f4;stop-opacity:1"
         offset="0" />
      <stop
         id="stop3604"
         style="stop-color:#dbdbdb;stop-opacity:1"
         offset="1" />
    </linearGradient>
    <linearGradient
       inkscape:collect="always"
       xlink:href="#linearGradient3600"
       id="linearGradient1095"
       x1="81"
       y1="16.8125"
       x2="109.375"
       y2="16.8125"
       gradientUnits="userSpaceOnUse"
       gradientTransform="matrix(0.02797354,0,0,0.02797354,0.37997731,0.19115322)" />
    <linearGradient
       gradientTransform="matrix(0.02639506,0,0,0.03011393,0.42605513,0.30987934)"
       inkscape:collect="always"
       xlink:href="#linearGradient3977-3"
       id="linearGradient1059"
       x1="18"
       y1="59.999973"
       x2="110.10006"
       y2="59.999973"
       gradientUnits="userSpaceOnUse" />
    <linearGradient
       id="linearGradient3977-3">
      <stop
         id="stop3979-6"
         style="stop-color:#ffffff;stop-opacity:1"
         offset="0" />
      <stop
         id="stop3981-0"
         style="stop-color:#ffffff;stop-opacity:0.23529412"
         offset="0.00648027" />
      <stop
         id="stop3983-6"
         style="stop-color:#ffffff;stop-opacity:0.15686275"
         offset="0.99423188" />
      <stop
         id="stop3985-2"
         style="stop-color:#ffffff;stop-opacity:0.39215687"
         offset="1" />
    </linearGradient>
    <linearGradient
       inkscape:collect="always"
       xlink:href="#linearGradient3600"
       id="linearGradient1722"
       gradientUnits="userSpaceOnUse"
       gradientTransform="matrix(0.02797354,0,0,0.02797354,0.37997731,0.19115322)"
       x1="81"
       y1="77.06472"
       x2="81"
       y2="190.75049" />
    <linearGradient
       inkscape:collect="always"
       xlink:href="#a"
       id="linearGradient920"
       gradientUnits="userSpaceOnUse"
       gradientTransform="matrix(0.43450651,-0.93180223,-0.93180223,-0.43450651,6223.4933,-5052.7322)"
       x1="-6873.6479"
       y1="2774.3"
       x2="-6636.2368"
       y2="2496.689" />
    <linearGradient
       id="a"
       gradientUnits="userSpaceOnUse"
       x1="-6873.6479"
       y1="2774.3"
       x2="-6636.2368"
       y2="2496.689"
       gradientTransform="matrix(0.43450651,-0.93180223,-0.93180223,-0.43450651,6223.4933,-5052.7322)">
      <stop
         offset="0"
         stop-color="#f59723"
         id="stop3362" />
      <stop
         offset=".312"
         stop-color="#f69822"
         id="stop3364" />
      <stop
         offset=".838"
         stop-color="#e87726"
         id="stop3366" />
    </linearGradient>
    <linearGradient
       inkscape:collect="always"
       xlink:href="#b"
       id="linearGradient922"
       gradientUnits="userSpaceOnUse"
       gradientTransform="matrix(0.43450651,-0.93180223,-0.93180223,-0.43450651,6223.4933,-5052.7322)"
       x1="-8630.7197"
       y1="2804.9609"
       x2="-6936.9248"
       y2="2804.9609" />
    <linearGradient
       id="b"
       gradientUnits="userSpaceOnUse"
       x1="-8630.7197"
       y1="2804.9609"
       x2="-6936.9248"
       y2="2804.9609"
       gradientTransform="matrix(0.43450651,-0.93180223,-0.93180223,-0.43450651,6223.4933,-5052.7322)">
      <stop
         offset=".323"
         stop-color="#9c2063"
         id="stop3369" />
      <stop
         offset=".63"
         stop-color="#c82037"
         id="stop3371" />
      <stop
         offset=".751"
         stop-color="#cc2135"
         id="stop3373" />
      <stop
         offset="1"
         stop-color="#e87726"
         id="stop3375" />
    </linearGradient>
    <linearGradient
       inkscape:collect="always"
       xlink:href="#c"
       id="linearGradient924"
       gradientUnits="userSpaceOnUse"
       gradientTransform="matrix(0.43450651,-0.93180223,-0.93180223,-0.43450651,6223.4933,-5052.7322)"
       x1="-8426.2559"
       y1="2635.2839"
       x2="-7416.9189"
       y2="2635.2839" />
    <linearGradient
       id="c"
       gradientUnits="userSpaceOnUse"
       x1="-8426.2559"
       y1="2635.2839"
       x2="-7416.9189"
       y2="2635.2839"
       gradientTransform="matrix(0.43450651,-0.93180223,-0.93180223,-0.43450651,6223.4933,-5052.7322)">
      <stop
         offset="0"
         stop-color="#282661"
         id="stop3378" />
      <stop
         offset=".095"
         stop-color="#662e8c"
         id="stop3380" />
      <stop
         offset=".788"
         stop-color="#9e2064"
         id="stop3382" />
      <stop
         offset=".949"
         stop-color="#cc2032"
         id="stop3384" />
    </linearGradient>
    <linearGradient
       inkscape:collect="always"
       xlink:href="#d"
       id="linearGradient926"
       gradientUnits="userSpaceOnUse"
       gradientTransform="matrix(0.43450651,-0.93180223,-0.93180223,-0.43450651,6223.4933,-5052.7322)"
       x1="-8535.5879"
       y1="2820.8601"
       x2="-6841.793"
       y2="2820.8601" />
    <linearGradient
       id="d"
       gradientUnits="userSpaceOnUse"
       x1="-8535.5879"
       y1="2820.8601"
       x2="-6841.793"
       y2="2820.8601"
       gradientTransform="matrix(0.43450651,-0.93180223,-0.93180223,-0.43450651,6223.4933,-5052.7322)">
      <stop
         offset=".323"
         stop-color="#9c2063"
         id="stop3387" />
      <stop
         offset=".63"
         stop-color="#c82037"
         id="stop3389" />
      <stop
         offset=".751"
         stop-color="#cc2135"
         id="stop3391" />
      <stop
         offset="1"
         stop-color="#e87726"
         id="stop3393" />
    </linearGradient>
    <linearGradient
       inkscape:collect="always"
       xlink:href="#e"
       id="linearGradient928"
       gradientUnits="userSpaceOnUse"
       gradientTransform="matrix(0.43450651,-0.93180223,-0.93180223,-0.43450651,6223.4933,-5052.7322)"
       x1="-8412.0576"
       y1="2797.8789"
       x2="-7521.917"
       y2="2797.8789" />
    <linearGradient
       id="e"
       gradientUnits="userSpaceOnUse"
       x1="-8412.0576"
       y1="2797.8789"
       x2="-7521.917"
       y2="2797.8789"
       gradientTransform="matrix(0.43450651,-0.93180223,-0.93180223,-0.43450651,6223.4933,-5052.7322)">
      <stop
         offset="0"
         stop-color="#282661"
         id="stop3396" />
      <stop
         offset=".095"
         stop-color="#662e8c"
         id="stop3398" />
      <stop
         offset=".788"
         stop-color="#9e2064"
         id="stop3400" />
      <stop
         offset=".949"
         stop-color="#cc2032"
         id="stop3402" />
    </linearGradient>
    <linearGradient
       inkscape:collect="always"
       xlink:href="#f"
       id="linearGradient930"
       gradientUnits="userSpaceOnUse"
       gradientTransform="matrix(0.43450651,-0.93180223,-0.93180223,-0.43450651,6223.4933,-5052.7322)"
       x1="-8535.5879"
       y1="2645.49"
       x2="-6841.793"
       y2="2645.49" />
    <linearGradient
       id="f"
       gradientUnits="userSpaceOnUse"
       x1="-8535.5879"
       y1="2645.49"
       x2="-6841.793"
       y2="2645.49"
       gradientTransform="matrix(0.43450651,-0.93180223,-0.93180223,-0.43450651,6223.4933,-5052.7322)">
      <stop
         offset=".323"
         stop-color="#9c2063"
         id="stop3405" />
      <stop
         offset=".63"
         stop-color="#c82037"
         id="stop3407" />
      <stop
         offset=".751"
         stop-color="#cc2135"
         id="stop3409" />
      <stop
         offset="1"
         stop-color="#e87726"
         id="stop3411" />
    </linearGradient>
    <linearGradient
       inkscape:collect="always"
       xlink:href="#g"
       id="linearGradient932"
       gradientUnits="userSpaceOnUse"
       gradientTransform="matrix(0.43450651,-0.93180223,-0.93180223,-0.43450651,6223.4933,-5052.7322)"
       x1="-8640.6592"
       y1="2654.2649"
       x2="-6946.8652"
       y2="2654.2649" />
    <linearGradient
       id="g"
       gradientUnits="userSpaceOnUse"
       x1="-8640.6592"
       y1="2654.2649"
       x2="-6946.8652"
       y2="2654.2649"
       gradientTransform="matrix(0.43450651,-0.93180223,-0.93180223,-0.43450651,6223.4933,-5052.7322)">
      <stop
         offset=".323"
         stop-color="#9c2063"
         id="stop3414" />
      <stop
         offset=".63"
         stop-color="#c82037"
         id="stop3416" />
      <stop
         offset=".751"
         stop-color="#cc2135"
         id="stop3418" />
      <stop
         offset="1"
         stop-color="#e87726"
         id="stop3420" />
    </linearGradient>
    <linearGradient
       inkscape:collect="always"
       xlink:href="#h"
       id="linearGradient934"
       gradientUnits="userSpaceOnUse"
       gradientTransform="matrix(0.43450651,-0.93180223,-0.93180223,-0.43450651,6223.4933,-5052.7322)"
       x1="-8535.5889"
       y1="2593.446"
       x2="-6841.792"
       y2="2593.446" />
    <linearGradient
       id="h"
       gradientUnits="userSpaceOnUse"
       x1="-8535.5889"
       y1="2593.446"
       x2="-6841.792"
       y2="2593.446"
       gradientTransform="matrix(0.43450651,-0.93180223,-0.93180223,-0.43450651,6223.4933,-5052.7322)">
      <stop
         offset=".323"
         stop-color="#9c2063"
         id="stop3423" />
      <stop
         offset=".63"
         stop-color="#c82037"
         id="stop3425" />
      <stop
         offset=".751"
         stop-color="#cc2135"
         id="stop3427" />
      <stop
         offset="1"
         stop-color="#e87726"
         id="stop3429" />
    </linearGradient>
    <linearGradient
       inkscape:collect="always"
       xlink:href="#i"
       id="linearGradient936"
       gradientUnits="userSpaceOnUse"
       gradientTransform="matrix(0.43450651,-0.93180223,-0.93180223,-0.43450651,6223.4933,-5052.7322)"
       x1="-8535.5889"
       y1="2599.324"
       x2="-6841.792"
       y2="2599.324" />
    <linearGradient
       id="i"
       gradientUnits="userSpaceOnUse"
       x1="-8535.5889"
       y1="2599.324"
       x2="-6841.792"
       y2="2599.324"
       gradientTransform="matrix(0.43450651,-0.93180223,-0.93180223,-0.43450651,6223.4933,-5052.7322)">
      <stop
         offset=".323"
         stop-color="#9c2063"
         id="stop3432" />
      <stop
         offset=".63"
         stop-color="#c82037"
         id="stop3434" />
      <stop
         offset=".751"
         stop-color="#cc2135"
         id="stop3436" />
      <stop
         offset="1"
         stop-color="#e87726"
         id="stop3438" />
    </linearGradient>
    <linearGradient
       inkscape:collect="always"
       xlink:href="#j"
       id="linearGradient938"
       gradientUnits="userSpaceOnUse"
       gradientTransform="matrix(0.43450651,-0.93180223,-0.93180223,-0.43450651,6223.4933,-5052.7322)"
       x1="-7584.0391"
       y1="2600.552"
       x2="-7209.6538"
       y2="2600.552" />
    <linearGradient
       id="j"
       gradientUnits="userSpaceOnUse"
       x1="-7584.0391"
       y1="2600.552"
       x2="-7209.6538"
       y2="2600.552"
       gradientTransform="matrix(0.43450651,-0.93180223,-0.93180223,-0.43450651,6223.4933,-5052.7322)">
      <stop
         offset=".323"
         stop-color="#9c2063"
         id="stop3441" />
      <stop
         offset=".63"
         stop-color="#c82037"
         id="stop3443" />
      <stop
         offset=".751"
         stop-color="#cc2135"
         id="stop3445" />
      <stop
         offset="1"
         stop-color="#e87726"
         id="stop3447" />
    </linearGradient>
    <linearGradient
       inkscape:collect="always"
       xlink:href="#a"
       id="linearGradient9913"
       gradientUnits="userSpaceOnUse"
       gradientTransform="matrix(0.43450651,-0.93180223,-0.93180223,-0.43450651,6223.4933,-5052.7322)"
       x1="-6873.6479"
       y1="2774.3"
       x2="-6636.2368"
       y2="2496.689" />
    <linearGradient
       inkscape:collect="always"
       xlink:href="#b"
       id="linearGradient9915"
       gradientUnits="userSpaceOnUse"
       gradientTransform="matrix(0.43450651,-0.93180223,-0.93180223,-0.43450651,6223.4933,-5052.7322)"
       x1="-8630.7197"
       y1="2804.9609"
       x2="-6936.9248"
       y2="2804.9609" />
    <linearGradient
       inkscape:collect="always"
       xlink:href="#c"
       id="linearGradient9917"
       gradientUnits="userSpaceOnUse"
       gradientTransform="matrix(0.43450651,-0.93180223,-0.93180223,-0.43450651,6223.4933,-5052.7322)"
       x1="-8426.2559"
       y1="2635.2839"
       x2="-7416.9189"
       y2="2635.2839" />
    <linearGradient
       inkscape:collect="always"
       xlink:href="#d"
       id="linearGradient9919"
       gradientUnits="userSpaceOnUse"
       gradientTransform="matrix(0.43450651,-0.93180223,-0.93180223,-0.43450651,6223.4933,-5052.7322)"
       x1="-8535.5879"
       y1="2820.8601"
       x2="-6841.793"
       y2="2820.8601" />
    <linearGradient
       inkscape:collect="always"
       xlink:href="#e"
       id="linearGradient9921"
       gradientUnits="userSpaceOnUse"
       gradientTransform="matrix(0.43450651,-0.93180223,-0.93180223,-0.43450651,6223.4933,-5052.7322)"
       x1="-8412.0576"
       y1="2797.8789"
       x2="-7521.917"
       y2="2797.8789" />
    <linearGradient
       inkscape:collect="always"
       xlink:href="#f"
       id="linearGradient9923"
       gradientUnits="userSpaceOnUse"
       gradientTransform="matrix(0.43450651,-0.93180223,-0.93180223,-0.43450651,6223.4933,-5052.7322)"
       x1="-8535.5879"
       y1="2645.49"
       x2="-6841.793"
       y2="2645.49" />
    <linearGradient
       inkscape:collect="always"
       xlink:href="#g"
       id="linearGradient9925"
       gradientUnits="userSpaceOnUse"
       gradientTransform="matrix(0.43450651,-0.93180223,-0.93180223,-0.43450651,6223.4933,-5052.7322)"
       x1="-8640.6592"
       y1="2654.2649"
       x2="-6946.8652"
       y2="2654.2649" />
    <linearGradient
       inkscape:collect="always"
       xlink:href="#h"
       id="linearGradient9927"
       gradientUnits="userSpaceOnUse"
       gradientTransform="matrix(0.43450651,-0.93180223,-0.93180223,-0.43450651,6223.4933,-5052.7322)"
       x1="-8535.5889"
       y1="2593.446"
       x2="-6841.792"
       y2="2593.446" />
    <linearGradient
       inkscape:collect="always"
       xlink:href="#i"
       id="linearGradient9929"
       gradientUnits="userSpaceOnUse"
       gradientTransform="matrix(0.43450651,-0.93180223,-0.93180223,-0.43450651,6223.4933,-5052.7322)"
       x1="-8535.5889"
       y1="2599.324"
       x2="-6841.792"
       y2="2599.324" />
    <linearGradient
       inkscape:collect="always"
       xlink:href="#j"
       id="linearGradient9931"
       gradientUnits="userSpaceOnUse"
       gradientTransform="matrix(0.43450651,-0.93180223,-0.93180223,-0.43450651,6223.4933,-5052.7322)"
       x1="-7584.0391"
       y1="2600.552"
       x2="-7209.6538"
       y2="2600.552" />
  </defs>
  <sodipodi:namedview
     id="base"
     pagecolor="#ffffff"
     bordercolor="#666666"
     borderopacity="1.0"
     inkscape:pageopacity="0.0"
     inkscape:pageshadow="2"
     inkscape:zoom="24.48"
     inkscape:cx="6.963793"
     inkscape:cy="7.42874"
     inkscape:document-units="px"
     inkscape:current-layer="layer24"
     showgrid="true"
     units="px"
     inkscape:window-width="854"
     inkscape:window-height="653"
     inkscape:window-x="168"
     inkscape:window-y="218"
     inkscape:window-maximized="0" />
  <metadata
     id="metadata381">
    <rdf:RDF>
      <cc:Work
         rdf:about="">
        <dc:format>image/svg+xml</dc:format>
        <dc:type
           rdf:resource="http://purl.org/dc/dcmitype/StillImage" />
        <dc:title></dc:title>
      </cc:Work>
    </rdf:RDF>
  </metadata>
  <g
     inkscape:groupmode="layer"
     id="layer3"
     inkscape:label="Layer 3"
     style="display:inline"
     sodipodi:insensitive="true">
    <path
       style="fill:url(#linearGradient1095);fill-opacity:1;stroke:#000000;stroke-width:0;stroke-linecap:round;stroke-linejoin:round;stroke-miterlimit:4;stroke-dasharray:none;stroke-opacity:1"
       d="M 2.6458338,0.26458377 V 1.0583328 h 0.793749 z"
       id="path1720"
       inkscape:connector-curvature="0" />
    <path
       style="fill:url(#linearGradient1722);fill-opacity:1;stroke:#000000;stroke-width:0;stroke-linecap:round;stroke-linejoin:round;stroke-miterlimit:4;stroke-dasharray:none;stroke-opacity:1"
       d="M 2.645842,1.0583333 H 3.4395835 V 3.96875 H 0.79375003 V 0.26460554 l -3e-8,1.428e-5 1.8520747,-1.46e-5 c 1.73e-5,0.79372808 1.73e-5,0.79372808 1.73e-5,0.79372808 z"
       id="path1087"
       inkscape:connector-curvature="0" />
  </g>
  <g
     inkscape:groupmode="layer"
     id="layer4"
     inkscape:label="Layer 4"
     style="display:inline"
     sodipodi:insensitive="true">
    <path
       style="display:inline;fill:none;stroke:url(#linearGradient1059);stroke-width:0.24123368;stroke-linecap:round;stroke-linejoin:round;stroke-miterlimit:4;stroke-dasharray:none;stroke-opacity:1"
       d="m 3.3189527,1.2886279 -0.00263,2.5595056 H 0.91436685 V 0.38521222 H 2.5244649"
       id="path1048"
       inkscape:connector-curvature="0"
       sodipodi:nodetypes="ccccc" />
  </g>
  <g
     inkscape:groupmode="layer"
     id="layer2"
     inkscape:label="Layer 2"
     style="display:inline"
     sodipodi:insensitive="true">
    <path
       id="path1001"
       style="display:inline;fill:none;stroke:#bebebe;stroke-width:0.25404942;stroke-linecap:round;stroke-linejoin:round;stroke-miterlimit:4;stroke-dasharray:none;stroke-opacity:1;paint-order:normal"
       d="M 2.50825,0.12831369 3.5758548,1.1959167 M 2.50825,0.12831369 0.65619138,0.12808591 v -9.49e-6 3.97823218 H 3.5758548 V 1.1959167 m 0,-3e-7 H 2.50825 V 0.12831369"
       inkscape:connector-curvature="0" />
  </g>
  <g
     inkscape:label="Layer 1"
     inkscape:groupmode="layer"
     id="layer1"
     transform="translate(0,-292.76665)"
     style="display:inline"
     sodipodi:insensitive="true">
    <g
       id="g978"
       style="display:inline;opacity:0.2;fill:#808080;fill-opacity:1;stroke:none;stroke-width:1.03923047"
       transform="matrix(0.03429784,0,0,0.05291667,-0.07839478,290.59699)">
      <rect
         style="fill:#808080;fill-opacity:1;stroke:none;stroke-width:1.48070288"
         id="rect2801"
         y="116.00149"
         x="103.78947"
         height="4.9999995"
         width="14.210526" />
      <rect
         style="fill:#808080;fill-opacity:1;stroke:none;stroke-width:1.48070288"
         id="rect3696"
         transform="scale(-1)"
         y="-121.00149"
         x="-24.210518"
         height="4.9999995"
         width="14.210526" />
      <rect
         style="fill:#808080;fill-opacity:1;stroke:none;stroke-width:1.48070288"
         id="rect3700"
         y="116.00149"
         x="24.210518"
         height="5"
         width="79.578949" />
    </g>
  </g>
  <g
     inkscape:groupmode="layer"
     id="layer24"
     inkscape:label="Layer 5">
    <g
       transform="matrix(0.04762418,0,0,0.04762418,-0.31327899,0.1217723)"
       style="display:inline"
       id="g9360">
      <path
         inkscape:connector-curvature="0"
         id="path3831"
         d="m 33.245247,67.955903 c 33.333334,0 33.333334,0 33.333334,0"
         style="display:inline;fill:none;stroke:#0000ff;stroke-width:0.08333334;stroke-linecap:butt;stroke-linejoin:miter;stroke-miterlimit:4;stroke-dasharray:none;stroke-opacity:1" />
      <path
         inkscape:connector-curvature="0"
         id="path3831-8"
         d="m 33.245247,64.623097 c 33.333334,0 33.333334,0 33.333334,0"
         style="display:inline;fill:none;stroke:#0000ff;stroke-width:0.08333334;stroke-linecap:butt;stroke-linejoin:miter;stroke-miterlimit:4;stroke-dasharray:none;stroke-opacity:1" />
      <path
         inkscape:connector-curvature="0"
         id="path3831-3"
         d="m 33.245247,61.289763 c 33.333334,0 33.333334,0 33.333334,0"
         style="display:inline;fill:none;stroke:#0000ff;stroke-width:0.08333334;stroke-linecap:butt;stroke-linejoin:miter;stroke-miterlimit:4;stroke-dasharray:none;stroke-opacity:1" />
      <path
         inkscape:connector-curvature="0"
         id="path3831-8-5"
         d="m 33.245247,57.956957 c 33.333334,0 33.333334,0 33.333334,0"
         style="display:inline;fill:none;stroke:#0000ff;stroke-width:0.08333334;stroke-linecap:butt;stroke-linejoin:miter;stroke-miterlimit:4;stroke-dasharray:none;stroke-opacity:1" />
      <path
         inkscape:connector-curvature="0"
         id="path3831-9"
         d="m 33.245247,54.623096 c 33.333334,0 33.333334,0 33.333334,0"
         style="display:inline;fill:none;stroke:#0000ff;stroke-width:0.08333334;stroke-linecap:butt;stroke-linejoin:miter;stroke-miterlimit:4;stroke-dasharray:none;stroke-opacity:1" />
      <path
         inkscape:connector-curvature="0"
         id="path3831-8-6"
         d="m 33.245247,51.29029 c 33.333334,0 33.333334,0 33.333334,0"
         style="display:inline;fill:none;stroke:#0000ff;stroke-width:0.08333334;stroke-linecap:butt;stroke-linejoin:miter;stroke-miterlimit:4;stroke-dasharray:none;stroke-opacity:1" />
      <path
         inkscape:connector-curvature="0"
         id="path3831-3-5"
         d="m 33.245247,47.956956 c 33.333334,0 33.333334,0 33.333334,0"
         style="display:inline;fill:none;stroke:#0000ff;stroke-width:0.08333334;stroke-linecap:butt;stroke-linejoin:miter;stroke-miterlimit:4;stroke-dasharray:none;stroke-opacity:1" />
      <path
         inkscape:connector-curvature="0"
         id="path3831-8-5-6"
         d="m 33.245247,44.62415 c 33.333334,0 33.333334,0 33.333334,0"
         style="display:inline;fill:none;stroke:#0000ff;stroke-width:0.08333334;stroke-linecap:butt;stroke-linejoin:miter;stroke-miterlimit:4;stroke-dasharray:none;stroke-opacity:1" />
      <path
         inkscape:connector-curvature="0"
         id="path3831-8-5-6-3"
         d="m 33.245247,41.289763 c 33.333334,0 33.333334,0 33.333334,0"
         style="display:inline;fill:none;stroke:#0000ff;stroke-width:0.08333334;stroke-linecap:butt;stroke-linejoin:miter;stroke-miterlimit:4;stroke-dasharray:none;stroke-opacity:1" />
      <path
         inkscape:connector-curvature="0"
         id="path3831-0"
         d="m 63.245038,71.222667 c 0,-33.250001 0,-33.250001 0,-33.250001"
         style="display:inline;fill:none;stroke:#0000ff;stroke-width:0.08322927;stroke-linecap:butt;stroke-linejoin:miter;stroke-miterlimit:4;stroke-dasharray:none;stroke-opacity:1" />
      <path
         inkscape:connector-curvature="0"
         id="path3831-8-2"
         d="m 59.912218,71.222667 c 0,-33.250001 0,-33.250001 0,-33.250001"
         style="display:inline;fill:none;stroke:#0000ff;stroke-width:0.08322927;stroke-linecap:butt;stroke-linejoin:miter;stroke-miterlimit:4;stroke-dasharray:none;stroke-opacity:1" />
      <path
         inkscape:connector-curvature="0"
         id="path3831-3-0"
         d="m 56.578871,71.222667 c 0,-33.250001 0,-33.250001 0,-33.250001"
         style="display:inline;fill:none;stroke:#0000ff;stroke-width:0.08322927;stroke-linecap:butt;stroke-linejoin:miter;stroke-miterlimit:4;stroke-dasharray:none;stroke-opacity:1" />
      <path
         inkscape:connector-curvature="0"
         id="path3831-8-5-7"
         d="m 53.246051,71.222667 c 0,-33.250001 0,-33.250001 0,-33.250001"
         style="display:inline;fill:none;stroke:#0000ff;stroke-width:0.08322927;stroke-linecap:butt;stroke-linejoin:miter;stroke-miterlimit:4;stroke-dasharray:none;stroke-opacity:1" />
      <path
         inkscape:connector-curvature="0"
         id="path3831-9-4"
         d="m 49.912178,71.222667 c 0,-33.250001 0,-33.250001 0,-33.250001"
         style="display:inline;fill:none;stroke:#0000ff;stroke-width:0.08322927;stroke-linecap:butt;stroke-linejoin:miter;stroke-miterlimit:4;stroke-dasharray:none;stroke-opacity:1" />
      <path
         inkscape:connector-curvature="0"
         id="path3831-8-6-7"
         d="m 46.579358,71.222667 c 0,-33.250001 0,-33.250001 0,-33.250001"
         style="display:inline;fill:none;stroke:#0000ff;stroke-width:0.08322927;stroke-linecap:butt;stroke-linejoin:miter;stroke-miterlimit:4;stroke-dasharray:none;stroke-opacity:1" />
      <path
         inkscape:connector-curvature="0"
         id="path3831-3-5-3"
         d="m 43.246012,71.222667 c 0,-33.250001 0,-33.250001 0,-33.250001"
         style="display:inline;fill:none;stroke:#0000ff;stroke-width:0.08322927;stroke-linecap:butt;stroke-linejoin:miter;stroke-miterlimit:4;stroke-dasharray:none;stroke-opacity:1" />
      <path
         inkscape:connector-curvature="0"
         id="path3831-8-5-6-0"
         d="m 39.913192,71.222667 c 0,-33.250001 0,-33.250001 0,-33.250001"
         style="display:inline;fill:none;stroke:#0000ff;stroke-width:0.08322927;stroke-linecap:butt;stroke-linejoin:miter;stroke-miterlimit:4;stroke-dasharray:none;stroke-opacity:1" />
      <path
         inkscape:connector-curvature="0"
         id="path3831-8-5-6-3-1"
         d="m 36.578792,71.222667 c 0,-33.250001 0,-33.250001 0,-33.250001"
         style="display:inline;fill:none;stroke:#0000ff;stroke-width:0.08322927;stroke-linecap:butt;stroke-linejoin:miter;stroke-miterlimit:4;stroke-dasharray:none;stroke-opacity:1" />
      <rect
         y="37.975193"
         x="33.287109"
         height="33.249611"
         width="33.249611"
         id="rect3945"
         style="display:inline;opacity:1;fill:none;fill-opacity:1;stroke:#000000;stroke-width:0.08372329;stroke-linecap:round;stroke-linejoin:round;stroke-miterlimit:4;stroke-dasharray:none;stroke-opacity:0.9254902;paint-order:normal" />
      <rect
         y="36.379379"
         x="31.624628"
         height="36.574574"
         width="36.574574"
         id="rect3945-6"
         style="display:inline;opacity:1;fill:none;fill-opacity:1;stroke:#000000;stroke-width:0.09209561;stroke-linecap:round;stroke-linejoin:round;stroke-miterlimit:4;stroke-dasharray:none;stroke-opacity:0.9254902;paint-order:normal" />
      <path
         inkscape:connector-curvature="0"
         id="path1026"
         d="m 60.400391,28 c -0.278524,-0.0094 -0.57228,0.05784 -0.875,0.236328 -0.196027,0.115736 -0.424808,0.284271 -0.681641,0.501953 -0.7705,0.653047 -1.795842,1.748111 -2.958984,3.173828 l 1.068359,2.015625 a 1.7073375,21.21747 25.957148 0 0 -0.0039,0.0039 l -1.066407,-2.017579 c -0.107056,0.130202 -0.214269,0.263461 -0.324218,0.402344 -0.413755,0.515023 -0.839502,1.064986 -1.279297,1.652344 -0.494769,0.659693 -0.999661,1.364762 -1.517578,2.105469 -0.474516,0.68284 -0.961176,1.398977 -1.447266,2.142578 -0.413754,0.630759 -0.825466,1.277879 -1.236328,1.943359 -0.01447,0.02315 -0.0285,0.05013 -0.04297,0.07617 l -0.002,-0.0059 c -0.02893,0.04919 -0.06192,0.10019 -0.09375,0.146484 -0.434009,0.70888 -0.864675,1.432107 -1.287109,2.169922 -0.428222,0.746494 -0.846951,1.508715 -1.257813,2.28125 -0.344313,0.651013 -0.682885,1.30327 -1.015625,1.96875 -0.06655,0.133096 -0.130717,0.269248 -0.197265,0.402344 -0.405074,0.836189 -0.770776,1.637693 -1.103516,2.416015 -0.37614,0.876697 -0.705743,1.716038 -0.992187,2.511719 -0.190965,0.523704 -0.360396,1.027583 -0.519532,1.513672 -0.130203,0.413755 -0.253478,0.830387 -0.375,1.244141 -0.138883,0.486089 -0.267366,0.971665 -0.386718,1.457031 -0.119353,0.485366 -0.227797,0.969929 -0.326172,1.453125 l 0.002,0.002 c -0.0058,0.03721 -0.01489,0.0803 -0.02344,0.123047 -0.117182,0.590251 -0.21709,1.178267 -0.298828,1.765625 -0.08174,0.587358 -0.145545,1.173348 -0.1875,1.757812 l -0.0078,0.123047 c -0.292232,-0.467282 -0.828435,-0.929847 -1.291016,-1.273437 -0.462581,-0.34359 -0.851056,-0.568793 -0.849609,-0.564453 0.979774,1.41776 1.750793,2.826435 2.011718,4.214843 0.03728,0.198344 0.06453,0.396277 0.08008,0.59375 -0.149732,0.03038 -0.31446,0.04199 -0.490234,0.03711 -0.52732,-0.01465 -1.165396,-0.179045 -1.875,-0.439453 0.493323,0.454262 0.926448,0.74328 1.271484,0.927734 0.172519,0.09223 0.323266,0.157789 0.449219,0.205078 0.125953,0.04729 0.22577,0.07639 0.298828,0.09375 -0.908524,0.05787 -1.850809,0.680877 -2.802734,1.398438 0.34793,-0.141777 0.67839,-0.26327 0.992187,-0.361328 0.313798,-0.09806 0.610726,-0.172348 0.888672,-0.22461 0.5085,-0.09561 0.947755,-0.102675 1.328125,-0.03516 a 1.7073375,21.21747 25.957148 0 0 -0.113281,0.68164 C 40.657941,70.264941 39.454164,74.008651 38.248047,78 c 0.09837,-0.02893 0.186283,-0.06649 0.265625,-0.113281 0.158684,-0.09358 0.280187,-0.221379 0.373047,-0.375 0.04643,-0.07681 0.08659,-0.161029 0.11914,-0.25 0.114289,-0.383374 0.55009,-1.834516 1.253907,-4.017578 0.351908,-1.091531 0.770511,-2.366202 1.25,-3.78125 0.226986,-0.669873 0.510274,-1.460993 0.763672,-2.189453 a 1.7073375,21.21747 25.957148 0 0 0.947265,-1.011719 c -0.04174,0.121796 -0.04639,0.13369 -0.0957,0.277343 0.136713,0.06221 0.267936,0.151264 0.392578,0.259766 0.249284,0.217004 0.476627,0.516002 0.69336,0.857422 0.108366,0.17071 0.214197,0.350486 0.318359,0.537109 -0.01085,-0.193133 -0.0385,-0.382866 -0.08398,-0.568359 -0.04548,-0.185493 -0.108799,-0.364917 -0.189453,-0.539062 -0.161306,-0.348292 -0.393966,-0.670514 -0.699218,-0.951172 1.687207,0.07595 3.228754,-0.162854 4.441406,-0.833985 0.24253,-0.134226 0.472734,-0.285272 0.6875,-0.455078 0.214766,-0.169806 0.413581,-0.359122 0.597656,-0.566406 0.184075,-0.207284 0.35345,-0.433026 0.503906,-0.679688 0.107055,-0.176497 0.205227,-0.358949 0.294922,-0.558593 -0.273425,0.347206 -0.580674,0.594914 -0.978515,0.746093 -0.397841,0.15118 -0.887398,0.206596 -1.525391,0.171875 0.470176,-0.210494 0.88235,-0.419795 1.248047,-0.634765 1.097092,-0.64491 1.783014,-1.349004 2.410156,-2.351563 0.19675,-0.318273 0.39114,-0.662054 0.587891,-1.046875 -0.616292,0.632568 -1.270542,1.093951 -1.951172,1.40625 -0.226877,0.1041 -0.456626,0.192332 -0.689453,0.263672 -0.93131,0.28536 -1.907598,0.315096 -2.910156,0.132813 h -0.0078 c -0.0268,-0.0049 -0.05565,-0.0065 -0.08203,-0.01172 0.224599,-0.02785 0.458819,-0.07342 0.699218,-0.134766 0.9616,-0.245395 2.027262,-0.747533 3.015626,-1.402343 0.741272,-0.491108 1.439262,-1.067737 2.017578,-1.689454 0.177943,-0.190963 0.351588,-0.391059 0.521484,-0.599609 0.509689,-0.62565 0.984612,-1.330982 1.431641,-2.123047 0.221344,-0.392054 0.436351,-0.807239 0.646484,-1.24414 0.210133,-0.436902 0.41559,-0.895204 0.615234,-1.376954 0.347206,-0.841976 0.678834,-1.757495 1,-2.74414 -0.413754,0.217004 -0.88544,0.380286 -1.40625,0.490234 -0.05184,0.01134 -0.103903,0.02122 -0.15625,0.03125 0.05267,-0.01083 0.104961,-0.02158 0.158203,-0.0332 -0.125945,0.0219 -0.25796,0.04548 -0.388671,0.06836 -0.05839,0.01022 -0.113944,0.01943 -0.173829,0.0293 0,0 -0.002,0.002 -0.002,0.002 -0.0019,2.32e-4 -0.0039,-2.29e-4 -0.0059,0 0,0 0.002,-0.001 0.002,-0.0039 0,0 0.002,0 0.002,0 0.20915,-0.08049 0.409147,-0.169097 0.59961,-0.267578 0.572941,-0.296245 1.063007,-0.672654 1.490234,-1.109375 0.142409,-0.145574 0.277432,-0.296383 0.40625,-0.455078 0.386454,-0.476087 0.716375,-1.010225 1.003906,-1.582031 -0.219898,0.150456 -0.509781,0.324877 -0.851562,0.484375 -0.170891,0.07975 -0.355794,0.156569 -0.550782,0.224609 -0.193678,0.06758 -0.398053,0.125002 -0.611328,0.171875 -0.0014,3.17e-4 -0.0025,0.0016 -0.0039,0.002 -0.115735,0.02604 -0.233947,0.04615 -0.355469,0.06641 a 0.86047728,0.86047728 0 0 0 0.002,-0.002 c 0,0 0.002,0 0.002,0 0.12156,-0.01721 0.239645,-0.03745 0.355468,-0.06641 -0.138375,0.0248 -0.278059,0.04917 -0.423828,0.07422 0.283997,-0.118947 0.546634,-0.245001 0.789063,-0.38086 0.24847,-0.139244 0.476789,-0.288635 0.689453,-0.449218 0.09259,-0.06944 0.182657,-0.137663 0.263672,-0.212891 0.130203,-0.112842 0.251525,-0.231994 0.373047,-0.353516 0.07523,-0.08101 0.148368,-0.162185 0.220703,-0.246093 0.167816,-0.199644 0.32408,-0.413061 0.46875,-0.644532 0.0434,-0.07234 0.08839,-0.143522 0.128906,-0.21875 0.05787,-0.107056 0.110028,-0.213184 0.162109,-0.314453 0.234365,-0.468729 0.42275,-0.890352 0.570313,-1.257812 0.07523,-0.185177 0.139398,-0.353595 0.197266,-0.515625 0.02315,-0.06366 0.0442,-0.124786 0.06445,-0.185547 0.06076,-0.176497 0.106917,-0.331821 0.144531,-0.470703 0.05787,-0.208324 0.09202,-0.373559 0.109375,-0.492188 -0.05787,0.0434 -0.122038,0.08941 -0.197266,0.132813 -0.506343,0.303806 -1.374018,0.574876 -2.074219,0.705078 -0.0087,0.0029 -0.01967,0.003 -0.03125,0.0059 -0.07233,0.01157 -0.138602,0.02452 -0.210937,0.0332 l 0.0078,-0.0039 0.02344,-0.01367 h 0.002 0.0059 l -0.03125,0.01367 c 0.06665,-0.01448 0.139599,-0.02446 0.208984,-0.0332 0.0087,-0.0027 0.01977,-0.0029 0.03125,-0.0059 l -0.205078,0.02344 c 0.342427,-0.157699 0.63906,-0.311945 0.898437,-0.466797 0.520991,-0.311039 0.89697,-0.626101 1.222657,-0.986328 0.162843,-0.180113 0.313881,-0.372477 0.46289,-0.580078 0.156243,-0.228577 0.318367,-0.466012 0.47461,-0.714844 0.243044,-0.379034 0.482287,-0.776711 0.714843,-1.183593 0.232556,-0.406883 0.457258,-0.823081 0.669922,-1.238282 0.205431,-0.400734 0.399675,-0.799424 0.576172,-1.1875 0.176497,-0.388076 0.335726,-0.764267 0.474609,-1.123047 0.176496,-0.454262 0.31764,-0.876753 0.416016,-1.25 0.08663,-0.326303 0.153043,-0.638063 0.205078,-0.935547 0.0012,-2.04e-4 0.0027,2.05e-4 0.0039,0 0.06872,-0.383012 0.111822,-0.738776 0.134766,-1.070312 0.06883,-0.994608 -0.04536,-1.760713 -0.197266,-2.310547 -0.05063,-0.183278 -0.104291,-0.3426 -0.158203,-0.478515 -0.05391,-0.135916 -0.107731,-0.248309 -0.154297,-0.337891 -0.09313,-0.179164 -0.160156,-0.267578 -0.160156,-0.267578 0,0 -0.775275,-1.251557 -1.84375,-1.476563 C 60.584789,28.016406 60.493232,28.00315 60.400391,28 Z M 51,42.140625 l 0.714844,1.408203 a 1.7073375,21.21747 25.957148 0 0 -0.002,0.0039 z m 4.285156,6.380859 c -0.02526,0.0026 -0.05247,0.0087 -0.07813,0.01367 0.02748,-0.003 0.05293,-0.01044 0.07813,-0.01367 z"
         style="fill:#e5e5e5;fill-opacity:1;stroke:none;stroke-width:0.02893389" />
      <g
         id="g4869"
         transform="matrix(0.27316739,0,0,0.27316739,38.247541,28.000053)"
         style="display:inline">
        <path
           style="fill:url(#linearGradient9913)"
           inkscape:connector-curvature="0"
           d="m 736.1,8.1 c -27.1,16 -72.2,61.3 -125.8,127 l 49.3,93.2 C 694.3,178.8 729.5,134.1 765,96 c 2.8,-3 4.1,-4.4 4.1,-4.4 -1.3,1.4 -2.8,3 -4.1,4.4 -11.5,12.6 -46.4,53.4 -99,134.2 50.7,-2.5 128.5,-12.9 192,-23.7 19,-105.9 -18.5,-154.3 -18.5,-154.3 0,0 -47.6,-77 -103.4,-44.1 z"
           transform="matrix(0.10592,0,0,0.10592,-0.074,0.008)"
           id="path3472" />
        <path
           style="fill:none"
           inkscape:connector-curvature="0"
           d="m 69.042,57.197 c 0.032,-0.01 0.074,-0.01 0.116,-0.021 l -0.752,0.085 -0.127,0.063 c 0.244,-0.053 0.509,-0.095 0.763,-0.127 z m -5.349,17.689 c -0.424,0.096 -0.858,0.17 -1.303,0.244 0.445,-0.074 0.879,-0.159 1.303,-0.244 z m -36.29,39.669 c 0.053,-0.137 0.106,-0.296 0.159,-0.434 1.154,-3.04 2.298,-5.995 3.421,-8.877 1.26,-3.23 2.51,-6.355 3.76,-9.384 a 879.56,879.56 0 0 1 3.857,-9.27 544.935,544.935 0 0 1 3.93,-9.046 591.173,591.173 0 0 1 3.093,-6.864 c 0.339,-0.741 0.678,-1.472 1.017,-2.192 a 414.66,414.66 0 0 1 1.98,-4.216 c 0.604,-1.26 1.197,-2.5 1.801,-3.729 0.201,-0.402 0.392,-0.805 0.593,-1.207 0.032,-0.064 0.064,-0.127 0.096,-0.202 l -0.646,0.064 -0.509,-1.006 c -0.053,0.095 -0.095,0.2 -0.148,0.296 -0.911,1.833 -1.833,3.665 -2.733,5.519 -0.52,1.08 -1.038,2.16 -1.557,3.23 a 643.202,643.202 0 0 0 -4.216,9.068 726.095,726.095 0 0 0 -4.12,9.279 736.497,736.497 0 0 0 -3.877,9.141 c -1.26,3.04 -2.5,6.07 -3.708,9.067 a 730.917,730.917 0 0 0 -3.665,9.322 c -0.275,0.699 -0.53,1.387 -0.805,2.076 a 762.835,762.835 0 0 0 -2.785,7.351 l 0.805,1.589 0.72,-0.074 c 0.021,-0.074 0.053,-0.138 0.074,-0.223 1.176,-3.156 2.33,-6.26 3.464,-9.279 z"
           id="path3474" />
        <path
           style="fill:#bd202e"
           inkscape:connector-curvature="0"
           d="m 60.324,83.795 c -0.667,0.116 -1.345,0.243 -2.055,0.36 0,0 -0.01,0 -0.01,0.01 l 1.059,-0.158 c 0.328,-0.075 0.667,-0.138 1.006,-0.212 z"
           id="path3476" />
        <path
           style="opacity:0.35;fill:#bd202e"
           inkscape:connector-curvature="0"
           d="m 60.324,83.795 c -0.667,0.116 -1.345,0.243 -2.055,0.36 0,0 -0.01,0 -0.01,0.01 l 1.059,-0.158 c 0.328,-0.075 0.667,-0.138 1.006,-0.212 z"
           id="path3478" />
        <path
           style="fill:#bd202e"
           inkscape:connector-curvature="0"
           d="m 62.072,75.162 c 0,0 0,0.01 0,0 -0.01,0 -0.01,0 -0.01,0.01 a 3.15,3.15 0 0 0 0.328,-0.053 c 0.445,-0.063 0.879,-0.137 1.303,-0.243 -0.53,0.095 -1.06,0.19 -1.621,0.286 z"
           id="path3480" />
        <path
           style="opacity:0.35;fill:#bd202e"
           inkscape:connector-curvature="0"
           d="m 62.072,75.162 c 0,0 0,0.01 0,0 -0.01,0 -0.01,0 -0.01,0.01 a 3.15,3.15 0 0 0 0.328,-0.053 c 0.445,-0.063 0.879,-0.137 1.303,-0.243 -0.53,0.095 -1.06,0.19 -1.621,0.286 z"
           id="path3482" />
        <path
           style="fill:url(#linearGradient9915)"
           inkscape:connector-curvature="0"
           d="m 514,469.2 c 15,-28.1 30.2,-55.5 45.5,-82.1 15.9,-27.8 32.1,-54.6 48.4,-80.6 0.9,-1.5 2,-3.1 2.9,-4.6 16.1,-25.5 32.4,-50.1 48.7,-73.5 l -49.3,-93.2 c -3.7,4.5 -7.4,9.1 -11.2,13.9 -14.3,17.8 -29,36.8 -44.2,57.1 -17.1,22.8 -34.6,47.2 -52.5,72.8 -16.4,23.6 -33.2,48.3 -50,74 -14.3,21.8 -28.5,44.2 -42.7,67.2 -0.5,0.8 -1,1.7 -1.5,2.6 l 64.3,127 C 486,522.3 500,495.4 514,469.2 Z"
           transform="matrix(0.10592,0,0,0.10592,-0.074,0.008)"
           id="path3484" />
        <path
           style="fill:url(#linearGradient9917)"
           inkscape:connector-curvature="0"
           d="m 221.2,1184.4 c -8.5,23.3 -17.1,47.2 -25.6,71.5 -0.1,0.3 -0.2,0.7 -0.4,1 -1.2,3.4 -2.5,6.9 -3.6,10.3 -5.8,16.4 -10.8,31.2 -22.3,64.7 18.9,8.6 34.1,31.4 48.5,57.2 -1.5,-26.7 -12.5,-51.8 -33.6,-71.2 93.3,4.2 173.7,-19.4 215.3,-87.6 3.7,-6.1 7.1,-12.4 10.2,-19.3 -18.9,24 -42.4,34.1 -86.5,31.7 -0.1,0 -0.2,0.1 -0.3,0.1 0.1,0 0.2,-0.1 0.3,-0.1 65,-29.1 97.5,-57 126.4,-103.2 6.8,-11 13.5,-22.9 20.3,-36.2 -56.8,58.3 -122.5,74.9 -191.8,62.3 l -52,5.7 c -1.7,4.4 -3.2,8.7 -4.9,13.1 z"
           transform="matrix(0.10592,0,0,0.10592,-0.074,0.008)"
           id="path3486" />
        <path
           style="fill:url(#linearGradient9919)"
           inkscape:connector-curvature="0"
           d="m 245.5,1068.1 c 11.2,-29 22.8,-58.4 34.6,-88 11.4,-28.4 23,-57 35,-85.6 12,-28.6 24.2,-57.5 36.6,-86.3 12.6,-29.3 25.6,-58.5 38.9,-87.6 13.1,-28.8 26.3,-57.4 39.8,-85.6 4.8,-10.2 9.8,-20.4 14.7,-30.5 8.5,-17.5 17.1,-34.9 25.8,-52.1 0.5,-0.9 0.9,-1.9 1.4,-2.8 L 408,422.6 c -1,1.7 -2.1,3.5 -3.2,5.1 -15,24.5 -29.9,49.5 -44.5,75 -14.8,25.8 -29.3,52.1 -43.5,78.8 -11.9,22.5 -23.6,45.1 -35.1,68.1 -2.3,4.6 -4.5,9.3 -6.8,13.9 -14,28.9 -26.6,56.6 -38.1,83.5 -13,30.3 -24.4,59.3 -34.3,86.8 -6.6,18.1 -12.5,35.5 -18,52.3 -4.5,14.3 -8.7,28.7 -12.9,43 -9.6,33.6 -17.9,67.2 -24.7,100.6 l 64.6,127.5 c 8.5,-22.8 17.3,-46 26.3,-69.4 2.7,-6.7 5.1,-13.3 7.7,-19.7 z"
           transform="matrix(0.10592,0,0,0.10592,-0.074,0.008)"
           id="path3488" />
        <path
           style="fill:url(#linearGradient9921)"
           inkscape:connector-curvature="0"
           d="m 146.2,1034 c -8.1,40.8 -13.9,81.4 -16.8,121.8 l -0.3,4.2 c -20.2,-32.3 -74.1,-63.8 -74,-63.5 38.7,56 68,111.6 72.3,166.2 -20.7,4.2 -49,-1.9 -81.7,-13.9 34.1,31.4 59.7,40 69.8,42.4 -31.4,2 -64,23.5 -96.9,48.3 48.1,-19.6 87,-27.4 114.8,-21.1 -44.2,125 -88.4,263 -132.7,409.6 13.6,-4 21.7,-13.2 26.2,-25.5 7.9,-26.5 60.2,-200.7 142.3,-429.4 2.4,-6.5 4.7,-13.1 7.1,-19.6 0.6,-1.9 1.3,-3.7 2,-5.4 8.6,-24 17.7,-48.5 26.9,-73.5 2.1,-5.7 4.2,-11.4 6.4,-17.1 0,-0.1 0.1,-0.2 0.1,-0.3 L 147,1029.7 c -0.2,1.3 -0.5,2.8 -0.8,4.3 z"
           transform="matrix(0.10592,0,0,0.10592,-0.074,0.008)"
           id="path3490" />
        <path
           style="fill:url(#linearGradient9923)"
           inkscape:connector-curvature="0"
           d="m 482.3,560.2 c -1.9,3.8 -3.7,7.6 -5.6,11.4 -5.6,11.5 -11.2,23.2 -17,35.2 -6.2,13 -12.4,26.2 -18.7,39.8 -3.2,6.8 -6.4,13.7 -9.6,20.7 -9.6,20.9 -19.3,42.5 -29.2,64.8 -12.1,27.3 -24.6,55.8 -37.1,85.4 -11.9,28.2 -24.2,57.3 -36.4,87.5 -11.7,28.6 -23.5,58.2 -35.5,88.6 -10.7,27.1 -21.5,55.1 -32.3,83.8 -0.5,1.3 -1,2.8 -1.5,4.1 -10.8,28.5 -21.7,57.8 -32.6,87.8 -0.2,0.7 -0.5,1.3 -0.7,2.1 l 52,-5.7 c -1,-0.2 -2.1,-0.3 -3.1,-0.5 62.1,-7.7 144.8,-54.2 198.1,-111.5 24.6,-26.4 46.9,-57.6 67.5,-94.1 15.3,-27.1 29.8,-57.3 43.6,-90.6 12,-29.1 23.5,-60.7 34.6,-94.8 -14.3,7.5 -30.6,13.1 -48.6,16.9 -3.2,0.7 -6.4,1.3 -9.7,1.9 -3.3,0.6 -6.6,1.1 -10,1.5 0,0 0.1,0 0.1,-0.1 58,-22.3 94.5,-65.3 121,-118 -15.2,10.4 -40,24 -69.7,30.5 -4,0.9 -8.1,1.6 -12.3,2.3 -1,0.1 -2.1,0.3 -3.1,0.5 h 0.2 c 20.2,-8.4 37.1,-17.9 51.8,-29 3.2,-2.4 6.3,-4.8 9.1,-7.4 4.5,-3.9 8.7,-8 12.9,-12.2 2.6,-2.8 5.1,-5.6 7.6,-8.5 5.8,-6.9 11.2,-14.3 16.2,-22.3 1.5,-2.5 3.1,-4.9 4.5,-7.5 2,-3.7 3.8,-7.4 5.6,-10.9 8.1,-16.2 14.6,-30.8 19.7,-43.5 2.6,-6.4 4.8,-12.2 6.8,-17.8 0.8,-2.2 1.5,-4.3 2.2,-6.4 2.1,-6.1 3.7,-11.5 5,-16.3 2,-7.2 3.2,-12.9 3.8,-17 -2,1.5 -4.2,3.1 -6.8,4.6 -17.5,10.5 -47.5,19.9 -71.7,24.4 l 47.7,-5.2 -47.7,5.2 c -0.3,0.1 -0.7,0.1 -1.1,0.2 -2.5,0.4 -4.8,0.8 -7.3,1.1 l 1.2,-0.6 -163.3,17.9 c 0,0.4 -0.3,1.1 -0.6,1.7 z"
           transform="matrix(0.10592,0,0,0.10592,-0.074,0.008)"
           id="path3492" />
        <path
           style="fill:url(#linearGradient9925)"
           inkscape:connector-curvature="0"
           d="m 666.1,230.2 c -14.5,22.3 -30.3,47.6 -47.5,76.3 -0.9,1.4 -1.9,3.1 -2.7,4.5 -14.7,24.8 -30.3,52 -46.9,81.9 -14.2,25.8 -29,53.4 -44.4,83.1 -13.4,25.9 -27.2,53.4 -41.5,82.5 l 163.3,-17.9 c 47.6,-21.9 68.8,-41.6 89.4,-70.3 5.4,-7.9 11,-16.1 16.4,-24.7 16.8,-26.2 33.2,-55 47.9,-83.7 14.2,-27.7 26.7,-55.1 36.3,-79.9 6.1,-15.7 11,-30.3 14.4,-43.2 3,-11.3 5.3,-22.1 7.1,-32.4 -63.3,10.9 -141.2,21.3 -191.8,23.8 z"
           transform="matrix(0.10592,0,0,0.10592,-0.074,0.008)"
           id="path3494" />
        <path
           style="fill:#bd202e"
           inkscape:connector-curvature="0"
           d="m 59.297,83.985 c -0.35,0.064 -0.7,0.117 -1.06,0.16 0.36,-0.033 0.72,-0.096 1.06,-0.16 z"
           id="path3496" />
        <path
           style="opacity:0.35;fill:#bd202e"
           inkscape:connector-curvature="0"
           d="m 59.297,83.985 c -0.35,0.064 -0.7,0.117 -1.06,0.16 0.36,-0.033 0.72,-0.096 1.06,-0.16 z"
           id="path3498" />
        <path
           style="fill:url(#linearGradient9927)"
           inkscape:connector-curvature="0"
           d="m 560.5,792.8 c -3.3,0.6 -6.6,1.1 -10,1.5 3.4,-0.3 6.8,-0.9 10,-1.5 z"
           transform="matrix(0.10592,0,0,0.10592,-0.074,0.008)"
           id="path3500" />
        <path
           style="fill:#bd202e"
           inkscape:connector-curvature="0"
           d="m 62.061,75.172 c 0.106,-0.01 0.223,-0.031 0.329,-0.053 -0.106,0.011 -0.212,0.043 -0.329,0.053 z"
           id="path3502" />
        <path
           style="opacity:0.35;fill:#bd202e"
           inkscape:connector-curvature="0"
           d="m 62.061,75.172 c 0.106,-0.01 0.223,-0.031 0.329,-0.053 -0.106,0.011 -0.212,0.043 -0.329,0.053 z"
           id="path3504" />
        <path
           style="fill:url(#linearGradient9929)"
           inkscape:connector-curvature="0"
           d="m 586.6,709.6 c 1,-0.1 2.1,-0.3 3.1,-0.5 -1,0.1 -2,0.4 -3.1,0.5 z"
           transform="matrix(0.10592,0,0,0.10592,-0.074,0.008)"
           id="path3506" />
        <path
           style="fill:#bd202e"
           inkscape:connector-curvature="0"
           d="m 62.061,75.172 c 0.01,0 0.01,-0.01 0,0 0.01,-0.01 0.01,0 0,0 z"
           id="path3508" />
        <path
           style="opacity:0.35;fill:#bd202e"
           inkscape:connector-curvature="0"
           d="m 62.061,75.172 c 0.01,0 0.01,-0.01 0,0 0.01,-0.01 0.01,0 0,0 z"
           id="path3510" />
        <path
           style="fill:url(#linearGradient9931)"
           inkscape:connector-curvature="0"
           d="m 586.6,709.6 c 0.1,0 0.1,-0.1 0,0 0.1,-0.1 0.1,0 0,0 z"
           transform="matrix(0.10592,0,0,0.10592,-0.074,0.008)"
           id="path3512" />
        <path
           style="fill:url(#linearGradient920)"
           inkscape:connector-curvature="0"
           d="m 736.1,8.1 c -27.1,16 -72.2,61.3 -125.8,127 l 49.3,93.2 C 694.3,178.8 729.5,134.1 765,96 c 2.8,-3 4.1,-4.4 4.1,-4.4 -1.3,1.4 -2.8,3 -4.1,4.4 -11.5,12.6 -46.4,53.4 -99,134.2 50.7,-2.5 128.5,-12.9 192,-23.7 19,-105.9 -18.5,-154.3 -18.5,-154.3 0,0 -47.6,-77 -103.4,-44.1 z"
           transform="matrix(0.10592,0,0,0.10592,-0.074,0.008)"
           id="path3518" />
        <path
           style="fill:none"
           inkscape:connector-curvature="0"
           d="m 69.042,57.197 c 0.032,-0.01 0.074,-0.01 0.116,-0.021 l -0.752,0.085 -0.127,0.063 c 0.244,-0.053 0.509,-0.095 0.763,-0.127 z m -5.349,17.689 c -0.424,0.096 -0.858,0.17 -1.303,0.244 0.445,-0.074 0.879,-0.159 1.303,-0.244 z m -36.29,39.669 c 0.053,-0.137 0.106,-0.296 0.159,-0.434 1.154,-3.04 2.298,-5.995 3.421,-8.877 1.26,-3.23 2.51,-6.355 3.76,-9.384 a 879.56,879.56 0 0 1 3.857,-9.27 544.935,544.935 0 0 1 3.93,-9.046 591.173,591.173 0 0 1 3.093,-6.864 c 0.339,-0.741 0.678,-1.472 1.017,-2.192 a 414.66,414.66 0 0 1 1.98,-4.216 c 0.604,-1.26 1.197,-2.5 1.801,-3.729 0.201,-0.402 0.392,-0.805 0.593,-1.207 0.032,-0.064 0.064,-0.127 0.096,-0.202 l -0.646,0.064 -0.509,-1.006 c -0.053,0.095 -0.095,0.2 -0.148,0.296 -0.911,1.833 -1.833,3.665 -2.733,5.519 -0.52,1.08 -1.038,2.16 -1.557,3.23 a 643.202,643.202 0 0 0 -4.216,9.068 726.095,726.095 0 0 0 -4.12,9.279 736.497,736.497 0 0 0 -3.877,9.141 c -1.26,3.04 -2.5,6.07 -3.708,9.067 a 730.917,730.917 0 0 0 -3.665,9.322 c -0.275,0.699 -0.53,1.387 -0.805,2.076 a 762.835,762.835 0 0 0 -2.785,7.351 l 0.805,1.589 0.72,-0.074 c 0.021,-0.074 0.053,-0.138 0.074,-0.223 1.176,-3.156 2.33,-6.26 3.464,-9.279 z"
           id="path3520" />
        <path
           style="fill:#bd202e"
           inkscape:connector-curvature="0"
           d="m 60.324,83.795 c -0.667,0.116 -1.345,0.243 -2.055,0.36 0,0 -0.01,0 -0.01,0.01 l 1.059,-0.158 c 0.328,-0.075 0.667,-0.138 1.006,-0.212 z"
           id="path3522" />
        <path
           style="opacity:0.35;fill:#bd202e"
           inkscape:connector-curvature="0"
           d="m 60.324,83.795 c -0.667,0.116 -1.345,0.243 -2.055,0.36 0,0 -0.01,0 -0.01,0.01 l 1.059,-0.158 c 0.328,-0.075 0.667,-0.138 1.006,-0.212 z"
           id="path3524" />
        <path
           style="fill:#bd202e"
           inkscape:connector-curvature="0"
           d="m 62.072,75.162 c 0,0 0,0.01 0,0 -0.01,0 -0.01,0 -0.01,0.01 a 3.15,3.15 0 0 0 0.328,-0.053 c 0.445,-0.063 0.879,-0.137 1.303,-0.243 -0.53,0.095 -1.06,0.19 -1.621,0.286 z"
           id="path3526" />
        <path
           style="opacity:0.35;fill:#bd202e"
           inkscape:connector-curvature="0"
           d="m 62.072,75.162 c 0,0 0,0.01 0,0 -0.01,0 -0.01,0 -0.01,0.01 a 3.15,3.15 0 0 0 0.328,-0.053 c 0.445,-0.063 0.879,-0.137 1.303,-0.243 -0.53,0.095 -1.06,0.19 -1.621,0.286 z"
           id="path3528" />
        <path
           style="fill:url(#linearGradient922)"
           inkscape:connector-curvature="0"
           d="m 514,469.2 c 15,-28.1 30.2,-55.5 45.5,-82.1 15.9,-27.8 32.1,-54.6 48.4,-80.6 0.9,-1.5 2,-3.1 2.9,-4.6 16.1,-25.5 32.4,-50.1 48.7,-73.5 l -49.3,-93.2 c -3.7,4.5 -7.4,9.1 -11.2,13.9 -14.3,17.8 -29,36.8 -44.2,57.1 -17.1,22.8 -34.6,47.2 -52.5,72.8 -16.4,23.6 -33.2,48.3 -50,74 -14.3,21.8 -28.5,44.2 -42.7,67.2 -0.5,0.8 -1,1.7 -1.5,2.6 l 64.3,127 C 486,522.3 500,495.4 514,469.2 Z"
           transform="matrix(0.10592,0,0,0.10592,-0.074,0.008)"
           id="path3530" />
        <path
           style="fill:url(#linearGradient924)"
           inkscape:connector-curvature="0"
           d="m 221.2,1184.4 c -8.5,23.3 -17.1,47.2 -25.6,71.5 -0.1,0.3 -0.2,0.7 -0.4,1 -1.2,3.4 -2.5,6.9 -3.6,10.3 -5.8,16.4 -10.8,31.2 -22.3,64.7 18.9,8.6 34.1,31.4 48.5,57.2 -1.5,-26.7 -12.5,-51.8 -33.6,-71.2 93.3,4.2 173.7,-19.4 215.3,-87.6 3.7,-6.1 7.1,-12.4 10.2,-19.3 -18.9,24 -42.4,34.1 -86.5,31.7 -0.1,0 -0.2,0.1 -0.3,0.1 0.1,0 0.2,-0.1 0.3,-0.1 65,-29.1 97.5,-57 126.4,-103.2 6.8,-11 13.5,-22.9 20.3,-36.2 -56.8,58.3 -122.5,74.9 -191.8,62.3 l -52,5.7 c -1.7,4.4 -3.2,8.7 -4.9,13.1 z"
           transform="matrix(0.10592,0,0,0.10592,-0.074,0.008)"
           id="path3532" />
        <path
           style="fill:url(#linearGradient926)"
           inkscape:connector-curvature="0"
           d="m 245.5,1068.1 c 11.2,-29 22.8,-58.4 34.6,-88 11.4,-28.4 23,-57 35,-85.6 12,-28.6 24.2,-57.5 36.6,-86.3 12.6,-29.3 25.6,-58.5 38.9,-87.6 13.1,-28.8 26.3,-57.4 39.8,-85.6 4.8,-10.2 9.8,-20.4 14.7,-30.5 8.5,-17.5 17.1,-34.9 25.8,-52.1 0.5,-0.9 0.9,-1.9 1.4,-2.8 L 408,422.6 c -1,1.7 -2.1,3.5 -3.2,5.1 -15,24.5 -29.9,49.5 -44.5,75 -14.8,25.8 -29.3,52.1 -43.5,78.8 -11.9,22.5 -23.6,45.1 -35.1,68.1 -2.3,4.6 -4.5,9.3 -6.8,13.9 -14,28.9 -26.6,56.6 -38.1,83.5 -13,30.3 -24.4,59.3 -34.3,86.8 -6.6,18.1 -12.5,35.5 -18,52.3 -4.5,14.3 -8.7,28.7 -12.9,43 -9.6,33.6 -17.9,67.2 -24.7,100.6 l 64.6,127.5 c 8.5,-22.8 17.3,-46 26.3,-69.4 2.7,-6.7 5.1,-13.3 7.7,-19.7 z"
           transform="matrix(0.10592,0,0,0.10592,-0.074,0.008)"
           id="path3534" />
        <path
           style="fill:url(#linearGradient928)"
           inkscape:connector-curvature="0"
           d="m 146.2,1034 c -8.1,40.8 -13.9,81.4 -16.8,121.8 l -0.3,4.2 c -20.2,-32.3 -74.1,-63.8 -74,-63.5 38.7,56 68,111.6 72.3,166.2 -20.7,4.2 -49,-1.9 -81.7,-13.9 34.1,31.4 59.7,40 69.8,42.4 -31.4,2 -64,23.5 -96.9,48.3 48.1,-19.6 87,-27.4 114.8,-21.1 -44.2,125 -88.4,263 -132.7,409.6 13.6,-4 21.7,-13.2 26.2,-25.5 7.9,-26.5 60.2,-200.7 142.3,-429.4 2.4,-6.5 4.7,-13.1 7.1,-19.6 0.6,-1.9 1.3,-3.7 2,-5.4 8.6,-24 17.7,-48.5 26.9,-73.5 2.1,-5.7 4.2,-11.4 6.4,-17.1 0,-0.1 0.1,-0.2 0.1,-0.3 L 147,1029.7 c -0.2,1.3 -0.5,2.8 -0.8,4.3 z"
           transform="matrix(0.10592,0,0,0.10592,-0.074,0.008)"
           id="path3536" />
        <path
           style="fill:url(#linearGradient930)"
           inkscape:connector-curvature="0"
           d="m 482.3,560.2 c -1.9,3.8 -3.7,7.6 -5.6,11.4 -5.6,11.5 -11.2,23.2 -17,35.2 -6.2,13 -12.4,26.2 -18.7,39.8 -3.2,6.8 -6.4,13.7 -9.6,20.7 -9.6,20.9 -19.3,42.5 -29.2,64.8 -12.1,27.3 -24.6,55.8 -37.1,85.4 -11.9,28.2 -24.2,57.3 -36.4,87.5 -11.7,28.6 -23.5,58.2 -35.5,88.6 -10.7,27.1 -21.5,55.1 -32.3,83.8 -0.5,1.3 -1,2.8 -1.5,4.1 -10.8,28.5 -21.7,57.8 -32.6,87.8 -0.2,0.7 -0.5,1.3 -0.7,2.1 l 52,-5.7 c -1,-0.2 -2.1,-0.3 -3.1,-0.5 62.1,-7.7 144.8,-54.2 198.1,-111.5 24.6,-26.4 46.9,-57.6 67.5,-94.1 15.3,-27.1 29.8,-57.3 43.6,-90.6 12,-29.1 23.5,-60.7 34.6,-94.8 -14.3,7.5 -30.6,13.1 -48.6,16.9 -3.2,0.7 -6.4,1.3 -9.7,1.9 -3.3,0.6 -6.6,1.1 -10,1.5 0,0 0.1,0 0.1,-0.1 58,-22.3 94.5,-65.3 121,-118 -15.2,10.4 -40,24 -69.7,30.5 -4,0.9 -8.1,1.6 -12.3,2.3 -1,0.1 -2.1,0.3 -3.1,0.5 h 0.2 c 20.2,-8.4 37.1,-17.9 51.8,-29 3.2,-2.4 6.3,-4.8 9.1,-7.4 4.5,-3.9 8.7,-8 12.9,-12.2 2.6,-2.8 5.1,-5.6 7.6,-8.5 5.8,-6.9 11.2,-14.3 16.2,-22.3 1.5,-2.5 3.1,-4.9 4.5,-7.5 2,-3.7 3.8,-7.4 5.6,-10.9 8.1,-16.2 14.6,-30.8 19.7,-43.5 2.6,-6.4 4.8,-12.2 6.8,-17.8 0.8,-2.2 1.5,-4.3 2.2,-6.4 2.1,-6.1 3.7,-11.5 5,-16.3 2,-7.2 3.2,-12.9 3.8,-17 -2,1.5 -4.2,3.1 -6.8,4.6 -17.5,10.5 -47.5,19.9 -71.7,24.4 l 47.7,-5.2 -47.7,5.2 c -0.3,0.1 -0.7,0.1 -1.1,0.2 -2.5,0.4 -4.8,0.8 -7.3,1.1 l 1.2,-0.6 -163.3,17.9 c 0,0.4 -0.3,1.1 -0.6,1.7 z"
           transform="matrix(0.10592,0,0,0.10592,-0.074,0.008)"
           id="path3538" />
        <path
           style="fill:url(#linearGradient932)"
           inkscape:connector-curvature="0"
           d="m 666.1,230.2 c -14.5,22.3 -30.3,47.6 -47.5,76.3 -0.9,1.4 -1.9,3.1 -2.7,4.5 -14.7,24.8 -30.3,52 -46.9,81.9 -14.2,25.8 -29,53.4 -44.4,83.1 -13.4,25.9 -27.2,53.4 -41.5,82.5 l 163.3,-17.9 c 47.6,-21.9 68.8,-41.6 89.4,-70.3 5.4,-7.9 11,-16.1 16.4,-24.7 16.8,-26.2 33.2,-55 47.9,-83.7 14.2,-27.7 26.7,-55.1 36.3,-79.9 6.1,-15.7 11,-30.3 14.4,-43.2 3,-11.3 5.3,-22.1 7.1,-32.4 -63.3,10.9 -141.2,21.3 -191.8,23.8 z"
           transform="matrix(0.10592,0,0,0.10592,-0.074,0.008)"
           id="path3540" />
        <path
           style="fill:#bd202e"
           inkscape:connector-curvature="0"
           d="m 59.297,83.985 c -0.35,0.064 -0.7,0.117 -1.06,0.16 0.36,-0.033 0.72,-0.096 1.06,-0.16 z"
           id="path3542" />
        <path
           style="opacity:0.35;fill:#bd202e"
           inkscape:connector-curvature="0"
           d="m 59.297,83.985 c -0.35,0.064 -0.7,0.117 -1.06,0.16 0.36,-0.033 0.72,-0.096 1.06,-0.16 z"
           id="path3544" />
        <path
           style="fill:url(#linearGradient934)"
           inkscape:connector-curvature="0"
           d="m 560.5,792.8 c -3.3,0.6 -6.6,1.1 -10,1.5 3.4,-0.3 6.8,-0.9 10,-1.5 z"
           transform="matrix(0.10592,0,0,0.10592,-0.074,0.008)"
           id="path3546" />
        <path
           style="fill:#bd202e"
           inkscape:connector-curvature="0"
           d="m 62.061,75.172 c 0.106,-0.01 0.223,-0.031 0.329,-0.053 -0.106,0.011 -0.212,0.043 -0.329,0.053 z"
           id="path3548" />
        <path
           style="opacity:0.35;fill:#bd202e"
           inkscape:connector-curvature="0"
           d="m 62.061,75.172 c 0.106,-0.01 0.223,-0.031 0.329,-0.053 -0.106,0.011 -0.212,0.043 -0.329,0.053 z"
           id="path3550" />
        <path
           style="fill:url(#linearGradient936)"
           inkscape:connector-curvature="0"
           d="m 586.6,709.6 c 1,-0.1 2.1,-0.3 3.1,-0.5 -1,0.1 -2,0.4 -3.1,0.5 z"
           transform="matrix(0.10592,0,0,0.10592,-0.074,0.008)"
           id="path3552" />
        <path
           style="fill:#bd202e"
           inkscape:connector-curvature="0"
           d="m 62.061,75.172 c 0.01,0 0.01,-0.01 0,0 0.01,-0.01 0.01,0 0,0 z"
           id="path3554" />
        <path
           style="opacity:0.35;fill:#bd202e"
           inkscape:connector-curvature="0"
           d="m 62.061,75.172 c 0.01,0 0.01,-0.01 0,0 0.01,-0.01 0.01,0 0,0 z"
           id="path3556" />
        <path
           style="fill:url(#linearGradient938)"
           inkscape:connector-curvature="0"
           d="m 586.6,709.6 c 0.1,0 0.1,-0.1 0,0 0.1,-0.1 0.1,0 0,0 z"
           transform="matrix(0.10592,0,0,0.10592,-0.074,0.008)"
           id="path3558" />
      </g>
    </g>
  </g>
</svg>
