<?xml version="1.0" encoding="UTF-8" standalone="no"?>
<!-- Created with Inkscape (http://www.inkscape.org/) -->

<svg
   xmlns:dc="http://purl.org/dc/elements/1.1/"
   xmlns:cc="http://creativecommons.org/ns#"
   xmlns:rdf="http://www.w3.org/1999/02/22-rdf-syntax-ns#"
   xmlns:svg="http://www.w3.org/2000/svg"
   xmlns="http://www.w3.org/2000/svg"
   xmlns:xlink="http://www.w3.org/1999/xlink"
   xmlns:sodipodi="http://sodipodi.sourceforge.net/DTD/sodipodi-0.dtd"
   xmlns:inkscape="http://www.inkscape.org/namespaces/inkscape"
   width="16"
   height="16"
   viewBox="0 0 4.2333332 4.2333335"
   version="1.1"
   id="svg384"
   enable-background="new"
   inkscape:version="0.92.3 (2405546, 2018-03-11)"
   sodipodi:docname="text16-base.svg">
  <defs
     id="defs378">
    <radialGradient
       gradientTransform="matrix(5.6949649,0,0,0.99999992,75.334676,75.001496)"
       gradientUnits="userSpaceOnUse"
       xlink:href="#linearGradient3688-464-309-255"
       id="radialGradient4093"
       fy="43.5"
       fx="4.9929786"
       r="2.5"
       cy="43.5"
       cx="4.9929786" />
    <linearGradient
       id="linearGradient3688-464-309-255">
      <stop
         id="stop3094"
         style="stop-color:#181818;stop-opacity:1"
         offset="0" />
      <stop
         id="stop3096"
         style="stop-color:#181818;stop-opacity:0"
         offset="1" />
    </linearGradient>
    <radialGradient
       gradientTransform="matrix(5.6949649,0,0,0.99999992,-52.665305,-162.00149)"
       gradientUnits="userSpaceOnUse"
       xlink:href="#linearGradient3688-464-309-255"
       id="radialGradient4095"
       fy="43.5"
       fx="4.9929786"
       r="2.5"
       cy="43.5"
       cx="4.9929786" />
    <linearGradient
       gradientUnits="userSpaceOnUse"
       xlink:href="#linearGradient3702-501-757-486"
       id="linearGradient4097"
       y2="39.999443"
       x2="25.058096"
       y1="47.027729"
       x1="25.058096"
       gradientTransform="matrix(2.8421052,0,0,0.71428566,-4.2105336,87.430066)" />
    <linearGradient
       id="linearGradient3702-501-757-486">
      <stop
         id="stop3100"
         style="stop-color:#181818;stop-opacity:0"
         offset="0" />
      <stop
         id="stop3102"
         style="stop-color:#181818;stop-opacity:1"
         offset="0.5" />
      <stop
         id="stop3104"
         style="stop-color:#181818;stop-opacity:0"
         offset="1" />
    </linearGradient>
    <linearGradient
       x1="25.132275"
       y1="0.98520643"
       x2="25.132275"
       y2="47.013336"
       id="linearGradient3019-2-2"
       xlink:href="#linearGradient3600"
       gradientUnits="userSpaceOnUse"
       gradientTransform="matrix(0.07559507,0,0,0.08048497,0.30238504,0.06158085)" />
    <linearGradient
       id="linearGradient3600">
      <stop
         id="stop3602"
         style="stop-color:#f4f4f4;stop-opacity:1"
         offset="0" />
      <stop
         id="stop3604"
         style="stop-color:#dbdbdb;stop-opacity:1"
         offset="1" />
    </linearGradient>
    <linearGradient
       inkscape:collect="always"
       xlink:href="#linearGradient3600"
       id="linearGradient1095"
       x1="81"
       y1="16.8125"
       x2="109.375"
       y2="16.8125"
       gradientUnits="userSpaceOnUse"
       gradientTransform="matrix(0.02797354,0,0,0.02797354,0.37997731,0.19115322)" />
    <linearGradient
       gradientTransform="matrix(0.02639506,0,0,0.03011393,0.42605513,0.30987934)"
       inkscape:collect="always"
       xlink:href="#linearGradient3977-3"
       id="linearGradient1059"
       x1="18"
       y1="59.999973"
       x2="110.10006"
       y2="59.999973"
       gradientUnits="userSpaceOnUse" />
    <linearGradient
       id="linearGradient3977-3">
      <stop
         id="stop3979-6"
         style="stop-color:#ffffff;stop-opacity:1"
         offset="0" />
      <stop
         id="stop3981-0"
         style="stop-color:#ffffff;stop-opacity:0.23529412"
         offset="0.00648027" />
      <stop
         id="stop3983-6"
         style="stop-color:#ffffff;stop-opacity:0.15686275"
         offset="0.99423188" />
      <stop
         id="stop3985-2"
         style="stop-color:#ffffff;stop-opacity:0.39215687"
         offset="1" />
    </linearGradient>
    <linearGradient
       inkscape:collect="always"
       xlink:href="#linearGradient3600"
       id="linearGradient1722"
       gradientUnits="userSpaceOnUse"
       gradientTransform="matrix(0.02797354,0,0,0.02797354,0.37997731,0.19115322)"
       x1="81"
       y1="77.06472"
       x2="81"
       y2="190.75049" />
    <linearGradient
       id="SVGID_1_"
       gradientUnits="userSpaceOnUse"
       x1="-675.07538"
       y1="96.4384"
       x2="-675.07538"
       y2="96.620499"
       gradientTransform="translate(758,1.28)">
      <stop
         offset="0"
         style="stop-color:#F29100"
         id="stop232" />
      <stop
         offset="1"
         style="stop-color:#EC670F"
         id="stop234" />
    </linearGradient>
    <linearGradient
       id="SVGID_2_"
       gradientUnits="userSpaceOnUse"
       x1="-696.72449"
       y1="97.700996"
       x2="-696.72449"
       y2="142.99719"
       gradientTransform="translate(758,1.28)">
      <stop
         offset="0"
         style="stop-color:#F29100"
         id="stop239" />
      <stop
         offset="1"
         style="stop-color:#EC670F"
         id="stop241" />
    </linearGradient>
    <linearGradient
       id="SVGID_3_"
       gradientUnits="userSpaceOnUse"
       x1="-675.21912"
       y1="-1.2802"
       x2="-675.21912"
       y2="142.9646"
       gradientTransform="translate(758,1.28)">
      <stop
         offset="0"
         style="stop-color:#F29100"
         id="stop248" />
      <stop
         offset="1"
         style="stop-color:#EC670F"
         id="stop250" />
    </linearGradient>
    <linearGradient
       id="SVGID_4_"
       gradientUnits="userSpaceOnUse"
       x1="-735.12903"
       y1="90.834396"
       x2="-735.12903"
       y2="141.9687"
       gradientTransform="translate(758,1.28)">
      <stop
         offset="0"
         style="stop-color:#F29100"
         id="stop259" />
      <stop
         offset="1"
         style="stop-color:#EC670F"
         id="stop261" />
    </linearGradient>
  </defs>
  <sodipodi:namedview
     id="base"
     pagecolor="#ffffff"
     bordercolor="#666666"
     borderopacity="1.0"
     inkscape:pageopacity="0.0"
     inkscape:pageshadow="2"
     inkscape:zoom="24.48"
     inkscape:cx="9.2862032"
     inkscape:cy="7.42874"
     inkscape:document-units="px"
     inkscape:current-layer="layer64"
     showgrid="true"
     units="px"
     inkscape:window-width="902"
     inkscape:window-height="650"
     inkscape:window-x="168"
     inkscape:window-y="218"
     inkscape:window-maximized="0" />
  <metadata
     id="metadata381">
    <rdf:RDF>
      <cc:Work
         rdf:about="">
        <dc:format>image/svg+xml</dc:format>
        <dc:type
           rdf:resource="http://purl.org/dc/dcmitype/StillImage" />
        <dc:title></dc:title>
      </cc:Work>
    </rdf:RDF>
  </metadata>
  <g
     inkscape:groupmode="layer"
     id="layer3"
     inkscape:label="Layer 3"
     style="display:inline"
     sodipodi:insensitive="true">
    <path
       style="fill:url(#linearGradient1095);fill-opacity:1;stroke:#000000;stroke-width:0;stroke-linecap:round;stroke-linejoin:round;stroke-miterlimit:4;stroke-dasharray:none;stroke-opacity:1"
       d="M 2.6458338,0.26458377 V 1.0583328 h 0.793749 z"
       id="path1720"
       inkscape:connector-curvature="0" />
    <path
       style="fill:url(#linearGradient1722);fill-opacity:1;stroke:#000000;stroke-width:0;stroke-linecap:round;stroke-linejoin:round;stroke-miterlimit:4;stroke-dasharray:none;stroke-opacity:1"
       d="M 2.645842,1.0583333 H 3.4395835 V 3.96875 H 0.79375003 V 0.26460554 l -3e-8,1.428e-5 1.8520747,-1.46e-5 c 1.73e-5,0.79372808 1.73e-5,0.79372808 1.73e-5,0.79372808 z"
       id="path1087"
       inkscape:connector-curvature="0" />
  </g>
  <g
     inkscape:groupmode="layer"
     id="layer4"
     inkscape:label="Layer 4"
     style="display:inline"
     sodipodi:insensitive="true">
    <path
       style="display:inline;fill:none;stroke:url(#linearGradient1059);stroke-width:0.24123368;stroke-linecap:round;stroke-linejoin:round;stroke-miterlimit:4;stroke-dasharray:none;stroke-opacity:1"
       d="m 3.3189527,1.2886279 -0.00263,2.5595056 H 0.91436685 V 0.38521222 H 2.5244649"
       id="path1048"
       inkscape:connector-curvature="0"
       sodipodi:nodetypes="ccccc" />
  </g>
  <g
     inkscape:groupmode="layer"
     id="layer2"
     inkscape:label="Layer 2"
     style="display:inline"
     sodipodi:insensitive="true">
    <path
       id="path1001"
       style="display:inline;fill:none;stroke:#bebebe;stroke-width:0.25404942;stroke-linecap:round;stroke-linejoin:round;stroke-miterlimit:4;stroke-dasharray:none;stroke-opacity:1;paint-order:normal"
       d="M 2.50825,0.12831369 3.5758548,1.1959167 M 2.50825,0.12831369 0.65619138,0.12808591 v -9.49e-6 3.97823218 H 3.5758548 V 1.1959167 m 0,-3e-7 H 2.50825 V 0.12831369"
       inkscape:connector-curvature="0" />
  </g>
  <g
     inkscape:label="Layer 1"
     inkscape:groupmode="layer"
     id="layer1"
     transform="translate(0,-292.76665)"
     style="display:inline"
     sodipodi:insensitive="true">
    <g
       id="g978"
       style="display:inline;opacity:0.2;fill:#808080;fill-opacity:1;stroke:none;stroke-width:1.03923047"
       transform="matrix(0.03429784,0,0,0.05291667,-0.07839478,290.59699)">
      <rect
         style="fill:#808080;fill-opacity:1;stroke:none;stroke-width:1.48070288"
         id="rect2801"
         y="116.00149"
         x="103.78947"
         height="4.9999995"
         width="14.210526" />
      <rect
         style="fill:#808080;fill-opacity:1;stroke:none;stroke-width:1.48070288"
         id="rect3696"
         transform="scale(-1)"
         y="-121.00149"
         x="-24.210518"
         height="4.9999995"
         width="14.210526" />
      <rect
         style="fill:#808080;fill-opacity:1;stroke:none;stroke-width:1.48070288"
         id="rect3700"
         y="116.00149"
         x="24.210518"
         height="5"
         width="79.578949" />
    </g>
  </g>
  <g
     inkscape:groupmode="layer"
     id="layer64"
     inkscape:label="Layer 5">
    <g
       id="g272"
       transform="matrix(0.0135846,0,0,0.0135846,0.97895834,1.7442163)">
      <path
         d="m 86.085,127 c -0.209,-1.424 0.197,-2.841 -0.232,-4.177 -0.367,-1.166 -1.209,-1.273 -1.762,-2.221 -1.457,-2.487 -2.963,-5.709 -3.102,-8.754 -0.127,-2.735 -1.133,-5.206 -1.27,-7.917 -0.066,-1.308 0.088,-2.657 0.041,-3.952 -0.025,-0.63 -0.061,-1.176 -0.186,-1.86 -0.031,-0.169 -0.143,-0.865 -0.195,-1.144 l 0.34,-0.848 c -0.15,-0.291 2.902,-0.194 3.812,-0.188 1.545,0.019 2.998,0.099 4.539,0.173 3.148,0.156 6.016,0.117 9.082,-0.356 6.832,-1.055 9.973,-3.845 11.58,-5.005 6.273,-4.523 9.146,-11.918 9.146,-11.918 1.035,-2.31 1.031,-6.431 3.25,-8.276 2.615,-2.179 7.006,-2.022 10.008,-3.359 1.756,-0.777 3.023,-1.205 4.818,-0.833 1.332,0.278 3.73,1.821 4.281,-0.345 -0.445,-0.287 -0.619,-0.812 -0.857,-1.103 2.475,-0.245 0.047,-5.986 -0.932,-7.133 -1.512,-1.77 -4.035,-2.581 -6.719,-3.293 -3.188,-0.845 -6.08,-1.82 -9.082,-1.231 -5.242,1.026 -4.85,-1.974 -7.939,-1.974 -3.707,0 -10.303,0.182 -11.443,3.786 -0.531,1.683 -1.078,1.753 -1.998,3.044 -0.787,1.106 0.137,2.082 -0.258,3.344 -0.408,1.297 -1.007,5.865 -1.632,7.459 -1.057,2.697 -2.317,6.065 -4.643,6.065 -3.261,0.39 -5.824,0.515 -8.469,-0.445 -1.592,-0.578 -4.26,-1.483 -5.58,-2.039 -6.088,-2.563 -7.088,-5.367 -7.088,-5.367 -0.653,-1.08 -2.374,-2.821 -3.018,-5.093 -0.708,-2.502 -1.903,-4.589 -2.387,-5.891 -0.501,-1.349 -1.699,-3.51 -2.64,-5.846 -1.205,-2.991 -2.9,-5.223 -4.141,-6.331 -1.896,-1.69 -3.646,-4.306 -7.495,-3.546 -0.688,0.136 -3.188,0.249 -5.104,1.856 -1.299,1.09 -1.709,3.339 -2.912,5.236 -0.695,1.096 -1.917,4.24 -3.038,6.863 -0.777,1.818 -1.139,3.181 -1.979,3.85 -0.657,0.524 -1.471,1.201 -2.456,0.832 -0.611,-0.229 -1.264,-0.617 -1.923,-1.132 -0.89,-0.695 -2.913,-4.138 -4.156,-6.681 -1.077,-2.205 -3.376,-5.502 -4.706,-7.287 -1.914,-2.568 -3.036,-3.219 -5.864,-3.219 -6.067,0 -6.526,3.397 -9.195,8.337 -1.172,2.17 -1.599,5.614 -3.952,8.313 -1.345,1.544 -5.637,7.893 -8.621,8.972 V 66.335 L 0,66.366 v 45.257 l 0.008,0.063 v -0.284 c 0.193,-0.59 0.398,-1.156 0.631,-1.662 1.154,-2.459 3.832,-4.741 5.32,-7.266 0.809,-1.376 1.732,-2.724 2.268,-4.168 0.461,-1.244 0.688,-3.099 1.354,-4.178 0.816,-1.323 2.094,-1.773 3.406,-1.987 2.055,-0.339 3.801,2.954 6.43,4.166 1.121,0.515 6.281,2.342 7.83,2.717 2.551,0.61 5.381,1.119 7.971,1.642 1.387,0.28 2.713,0.443 4.141,0.588 1.281,0.128 6.08,0.287 6.377,0.634 -2.439,1.244 -3.869,4.736 -4.785,7.207 -0.955,2.575 -1.621,5.441 -2.775,7.96 -1.279,2.783 -3.961,3.941 -3.641,7.184 0.123,1.294 0.359,2.651 0.143,4.075 -0.23,1.499 -0.836,2.669 -1.277,4.137 -0.566,1.915 -1.24,8.1 -2.113,9.918 l 5.337,-0.669 0.009,-0.003 c 0.583,-1.386 1.12,-7.237 1.309,-7.794 0.998,-2.934 2.322,-5.348 4.359,-7.617 1.986,-2.211 1.883,-5.061 3.043,-7.637 1.256,-2.8 2.945,-5.039 4.539,-7.671 2.881,-4.759 4.781,-10.767 10.906,-11.989 0.654,-0.135 4.404,2.569 6.068,4.177 1.906,1.832 3.988,3.954 5.24,6.48 2.424,4.896 4.48,11.988 5.258,15.899 0.447,2.246 0.803,2.38 2.322,4.159 0.699,0.815 2.094,3.362 2.553,4.34 0.482,1.044 1.215,3.42 1.799,4.633 0.344,0.722 1.236,2.94 1.885,4.856 l 4.987,-0.156 c 0.018,0.042 0.109,-0.012 0.13,0.027 0.002,0 0.005,-0.001 0.007,-0.002 -0.021,-0.038 -0.04,-0.082 -0.058,-0.123 C 88.496,138.292 86.906,132.522 86.085,127 Z"
         id="path228"
         inkscape:connector-curvature="0"
         style="fill:#ffffff" />
      <path
         d="m 82.919,97.901 0.023,-0.061 c -0.034,-0.154 -0.046,-0.189 -0.023,0.061 z"
         id="path230"
         inkscape:connector-curvature="0"
         style="fill:#484444" />
      <g
         id="g270">
        <g
           id="g268">
          <linearGradient
             id="linearGradient319"
             gradientUnits="userSpaceOnUse"
             x1="-675.07538"
             y1="96.4384"
             x2="-675.07538"
             y2="96.620499"
             gradientTransform="translate(758,1.28)">
            <stop
               offset="0"
               style="stop-color:#F29100"
               id="stop315" />
            <stop
               offset="1"
               style="stop-color:#EC670F"
               id="stop317" />
          </linearGradient>
          <path
             d="m 82.919,97.901 0.023,-0.061 c -0.034,-0.154 -0.046,-0.189 -0.023,0.061 z"
             id="path237"
             inkscape:connector-curvature="0"
             style="fill:url(#SVGID_1_)" />
          <g
             id="g246">
            <linearGradient
               id="linearGradient326"
               gradientUnits="userSpaceOnUse"
               x1="-696.72449"
               y1="97.700996"
               x2="-696.72449"
               y2="142.99719"
               gradientTransform="translate(758,1.28)">
              <stop
                 offset="0"
                 style="stop-color:#F29100"
                 id="stop322" />
              <stop
                 offset="1"
                 style="stop-color:#EC670F"
                 id="stop324" />
            </linearGradient>
            <path
               d="m 84.031,138.674 c -0.584,-1.213 -1.316,-3.589 -1.799,-4.633 -0.459,-0.978 -1.854,-3.524 -2.553,-4.34 -1.52,-1.779 -1.875,-1.913 -2.322,-4.159 -0.777,-3.911 -2.834,-11.004 -5.258,-15.899 -1.252,-2.526 -3.334,-4.648 -5.24,-6.48 -1.664,-1.607 -5.414,-4.312 -6.068,-4.177 -6.125,1.223 -8.025,7.23 -10.906,11.989 -1.594,2.632 -3.283,4.871 -4.539,7.671 -1.16,2.575 -1.057,5.426 -3.043,7.637 -2.037,2.27 -3.361,4.684 -4.359,7.617 -0.189,0.557 -0.726,6.408 -1.309,7.794 0,0.001 -10e-4,0.002 -10e-4,0.003 l 9.104,-0.641 c 8.482,0.578 6.033,3.829 19.273,3.121 l 20.906,-0.647 v 0 c -0.65,-1.916 -1.542,-4.134 -1.886,-4.856 z"
               id="path244"
               inkscape:connector-curvature="0"
               style="fill:url(#SVGID_2_)" />
          </g>
          <g
             id="g257">
            <g
               id="g255">
              <linearGradient
                 id="linearGradient334"
                 gradientUnits="userSpaceOnUse"
                 x1="-675.21912"
                 y1="-1.2802"
                 x2="-675.21912"
                 y2="142.9646"
                 gradientTransform="translate(758,1.28)">
                <stop
                   offset="0"
                   style="stop-color:#F29100"
                   id="stop330" />
                <stop
                   offset="1"
                   style="stop-color:#EC670F"
                   id="stop332" />
              </linearGradient>
              <path
                 d="M 144.695,0 H 20.865 C 9.347,0 0.01,9.339 0.01,20.857 v 45.476 0.031 c 2.984,-1.079 7.276,-7.428 8.621,-8.972 2.353,-2.7 2.78,-6.144 3.952,-8.313 2.669,-4.94 3.128,-8.337 9.195,-8.337 2.828,0 3.951,0.652 5.864,3.219 1.331,1.785 3.63,5.083 4.706,7.287 1.242,2.544 3.266,5.986 4.156,6.681 0.659,0.516 1.312,0.903 1.923,1.132 0.984,0.369 1.798,-0.308 2.456,-0.832 0.84,-0.669 1.202,-2.032 1.979,-3.85 1.122,-2.623 2.343,-5.766 3.038,-6.863 1.203,-1.896 1.613,-4.146 2.912,-5.236 1.916,-1.607 4.416,-1.72 5.104,-1.856 3.849,-0.76 5.599,1.856 7.495,3.546 1.241,1.108 2.937,3.34 4.141,6.331 0.941,2.336 2.139,4.497 2.64,5.846 0.484,1.302 1.679,3.389 2.387,5.891 0.643,2.272 2.364,4.013 3.018,5.093 0,0 1.001,2.804 7.088,5.367 1.32,0.556 3.988,1.46 5.58,2.039 2.645,0.961 5.207,0.836 8.469,0.445 2.326,0 3.586,-3.368 4.643,-6.065 0.625,-1.594 1.224,-6.162 1.632,-7.459 0.395,-1.262 -0.529,-2.238 0.258,-3.344 0.92,-1.291 1.467,-1.361 1.998,-3.044 1.141,-3.604 7.736,-3.786 11.443,-3.786 3.09,0 2.697,3 7.939,1.974 3.002,-0.589 5.895,0.387 9.082,1.231 2.684,0.712 5.207,1.523 6.719,3.293 0.979,1.146 3.406,6.888 0.932,7.133 0.238,0.291 0.412,0.816 0.857,1.103 -0.551,2.166 -2.949,0.623 -4.281,0.345 -1.795,-0.372 -3.062,0.056 -4.818,0.833 -3.002,1.337 -7.393,1.181 -10.008,3.359 -2.219,1.846 -2.215,5.967 -3.25,8.276 0,0 -2.873,7.394 -9.146,11.918 -1.607,1.16 -4.748,3.95 -11.58,5.005 -3.066,0.474 -5.934,0.513 -9.082,0.356 -1.541,-0.074 -2.994,-0.153 -4.539,-0.173 -0.91,-0.007 -3.963,-0.104 -3.812,0.188 l -0.34,0.848 c 0.053,0.279 0.164,0.976 0.195,1.144 0.125,0.685 0.16,1.231 0.186,1.86 0.047,1.295 -0.107,2.645 -0.041,3.952 0.137,2.711 1.143,5.182 1.27,7.917 0.139,3.045 1.645,6.267 3.102,8.754 0.553,0.947 1.395,1.055 1.762,2.221 0.43,1.336 0.023,2.753 0.232,4.177 0.82,5.521 2.41,11.292 4.896,16.275 0.017,0.041 0.037,0.086 0.058,0.123 0,0 0,0.001 0.001,0.002 3.07,-0.516 6.146,-1.62 10.135,-2.21 7.314,-1.085 17.486,-0.526 24.02,-1.138 16.533,-1.554 25.506,6.781 40.355,3.365 V 20.858 C 165.55,9.339 156.216,0 144.695,0 Z M 82.919,97.901 c -0.023,-0.25 -0.012,-0.215 0.023,-0.061 z"
                 id="path253"
                 inkscape:connector-curvature="0"
                 style="fill:url(#SVGID_3_)" />
            </g>
          </g>
          <g
             id="g266">
            <linearGradient
               id="linearGradient343"
               gradientUnits="userSpaceOnUse"
               x1="-735.12903"
               y1="90.834396"
               x2="-735.12903"
               y2="141.9687"
               gradientTransform="translate(758,1.28)">
              <stop
                 offset="0"
                 style="stop-color:#F29100"
                 id="stop339" />
              <stop
                 offset="1"
                 style="stop-color:#EC670F"
                 id="stop341" />
            </linearGradient>
            <path
               d="m 38.175,117.053 c 1.154,-2.518 1.82,-5.385 2.775,-7.96 0.916,-2.471 2.346,-5.963 4.785,-7.207 -0.297,-0.347 -5.096,-0.506 -6.377,-0.634 -1.428,-0.145 -2.754,-0.308 -4.141,-0.588 -2.59,-0.523 -5.42,-1.031 -7.971,-1.642 -1.549,-0.375 -6.709,-2.202 -7.83,-2.717 -2.629,-1.212 -4.375,-4.505 -6.43,-4.166 -1.312,0.214 -2.59,0.664 -3.406,1.987 -0.666,1.079 -0.893,2.933 -1.354,4.178 -0.535,1.444 -1.459,2.792 -2.268,4.168 -1.488,2.524 -4.166,4.807 -5.32,7.266 -0.232,0.506 -0.438,1.072 -0.631,1.662 v 0.284 9.15 16.321 2.358 c 1.346,0.23 2.754,0.513 4.33,0.934 11.631,3.104 14.469,3.366 25.877,2.062 l 1.07,-0.142 v -10e-4 c 0.873,-1.818 1.547,-8.003 2.113,-9.918 0.441,-1.468 1.047,-2.638 1.277,-4.137 0.217,-1.424 -0.02,-2.781 -0.143,-4.075 -0.317,-3.242 2.365,-4.4 3.644,-7.183 z"
               id="path264"
               inkscape:connector-curvature="0"
               style="fill:url(#SVGID_4_)" />
          </g>
        </g>
      </g>
    </g>
  </g>
</svg>
