<?xml version="1.0" encoding="UTF-8" standalone="no"?>
<!-- Created with Inkscape (http://www.inkscape.org/) -->

<svg
   xmlns:dc="http://purl.org/dc/elements/1.1/"
   xmlns:cc="http://creativecommons.org/ns#"
   xmlns:rdf="http://www.w3.org/1999/02/22-rdf-syntax-ns#"
   xmlns:svg="http://www.w3.org/2000/svg"
   xmlns="http://www.w3.org/2000/svg"
   xmlns:xlink="http://www.w3.org/1999/xlink"
   xmlns:sodipodi="http://sodipodi.sourceforge.net/DTD/sodipodi-0.dtd"
   xmlns:inkscape="http://www.inkscape.org/namespaces/inkscape"
   width="16"
   height="16"
   viewBox="0 0 4.2333332 4.2333335"
   version="1.1"
   id="svg384"
   enable-background="new"
   inkscape:version="0.92.3 (2405546, 2018-03-11)"
   sodipodi:docname="text16-base.svg">
  <defs
     id="defs378">
    <radialGradient
       gradientTransform="matrix(5.6949649,0,0,0.99999992,75.334676,75.001496)"
       gradientUnits="userSpaceOnUse"
       xlink:href="#linearGradient3688-464-309-255"
       id="radialGradient4093"
       fy="43.5"
       fx="4.9929786"
       r="2.5"
       cy="43.5"
       cx="4.9929786" />
    <linearGradient
       id="linearGradient3688-464-309-255">
      <stop
         id="stop3094"
         style="stop-color:#181818;stop-opacity:1"
         offset="0" />
      <stop
         id="stop3096"
         style="stop-color:#181818;stop-opacity:0"
         offset="1" />
    </linearGradient>
    <radialGradient
       gradientTransform="matrix(5.6949649,0,0,0.99999992,-52.665305,-162.00149)"
       gradientUnits="userSpaceOnUse"
       xlink:href="#linearGradient3688-464-309-255"
       id="radialGradient4095"
       fy="43.5"
       fx="4.9929786"
       r="2.5"
       cy="43.5"
       cx="4.9929786" />
    <linearGradient
       gradientUnits="userSpaceOnUse"
       xlink:href="#linearGradient3702-501-757-486"
       id="linearGradient4097"
       y2="39.999443"
       x2="25.058096"
       y1="47.027729"
       x1="25.058096"
       gradientTransform="matrix(2.8421052,0,0,0.71428566,-4.2105336,87.430066)" />
    <linearGradient
       id="linearGradient3702-501-757-486">
      <stop
         id="stop3100"
         style="stop-color:#181818;stop-opacity:0"
         offset="0" />
      <stop
         id="stop3102"
         style="stop-color:#181818;stop-opacity:1"
         offset="0.5" />
      <stop
         id="stop3104"
         style="stop-color:#181818;stop-opacity:0"
         offset="1" />
    </linearGradient>
    <linearGradient
       x1="25.132275"
       y1="0.98520643"
       x2="25.132275"
       y2="47.013336"
       id="linearGradient3019-2-2"
       xlink:href="#linearGradient3600"
       gradientUnits="userSpaceOnUse"
       gradientTransform="matrix(0.07559507,0,0,0.08048497,0.30238504,0.06158085)" />
    <linearGradient
       id="linearGradient3600">
      <stop
         id="stop3602"
         style="stop-color:#f4f4f4;stop-opacity:1"
         offset="0" />
      <stop
         id="stop3604"
         style="stop-color:#dbdbdb;stop-opacity:1"
         offset="1" />
    </linearGradient>
    <linearGradient
       inkscape:collect="always"
       xlink:href="#linearGradient3600"
       id="linearGradient1095"
       x1="81"
       y1="16.8125"
       x2="109.375"
       y2="16.8125"
       gradientUnits="userSpaceOnUse"
       gradientTransform="matrix(0.02797354,0,0,0.02797354,0.37997731,0.19115322)" />
    <linearGradient
       gradientTransform="matrix(0.02639506,0,0,0.03011393,0.42605513,0.30987934)"
       inkscape:collect="always"
       xlink:href="#linearGradient3977-3"
       id="linearGradient1059"
       x1="18"
       y1="59.999973"
       x2="110.10006"
       y2="59.999973"
       gradientUnits="userSpaceOnUse" />
    <linearGradient
       id="linearGradient3977-3">
      <stop
         id="stop3979-6"
         style="stop-color:#ffffff;stop-opacity:1"
         offset="0" />
      <stop
         id="stop3981-0"
         style="stop-color:#ffffff;stop-opacity:0.23529412"
         offset="0.00648027" />
      <stop
         id="stop3983-6"
         style="stop-color:#ffffff;stop-opacity:0.15686275"
         offset="0.99423188" />
      <stop
         id="stop3985-2"
         style="stop-color:#ffffff;stop-opacity:0.39215687"
         offset="1" />
    </linearGradient>
    <linearGradient
       inkscape:collect="always"
       xlink:href="#linearGradient3600"
       id="linearGradient1722"
       gradientUnits="userSpaceOnUse"
       gradientTransform="matrix(0.02797354,0,0,0.02797354,0.37997731,0.19115322)"
       x1="81"
       y1="77.06472"
       x2="81"
       y2="190.75049" />
    <linearGradient
       id="SVGID_1_-7"
       gradientUnits="userSpaceOnUse"
       x1="204.17371"
       y1="140.1172"
       x2="585.63702"
       y2="140.1172">
      <stop
         offset="0"
         style="stop-color:#E9EDC6"
         id="stop1748-4" />
      <stop
         offset="1"
         style="stop-color:#1A348E"
         id="stop1750-1" />
    </linearGradient>
    <linearGradient
       id="SVGID_2_-6"
       gradientUnits="userSpaceOnUse"
       x1="204.0387"
       y1="140.1172"
       x2="585.84473"
       y2="140.1172">
      <stop
         offset="0"
         style="stop-color:#E9EDC6"
         id="stop1753-3" />
      <stop
         offset="1"
         style="stop-color:#1A348E"
         id="stop1755-8" />
    </linearGradient>
    <linearGradient
       id="SVGID_3_-5"
       gradientUnits="userSpaceOnUse"
       x1="97.521698"
       y1="238.8828"
       x2="478.98499"
       y2="238.8828">
      <stop
         offset="0"
         style="stop-color:#E9EDC6"
         id="stop1760-5" />
      <stop
         offset="1"
         style="stop-color:#1A348E"
         id="stop1762-0" />
    </linearGradient>
    <linearGradient
       id="SVGID_4_-1"
       gradientUnits="userSpaceOnUse"
       x1="97.396698"
       y1="238.8828"
       x2="479.10999"
       y2="238.8828">
      <stop
         offset="0"
         style="stop-color:#E9EDC6"
         id="stop1765-2" />
      <stop
         offset="1"
         style="stop-color:#1A348E"
         id="stop1767-6" />
    </linearGradient>
  </defs>
  <sodipodi:namedview
     id="base"
     pagecolor="#ffffff"
     bordercolor="#666666"
     borderopacity="1.0"
     inkscape:pageopacity="0.0"
     inkscape:pageshadow="2"
     inkscape:zoom="24.48"
     inkscape:cx="6.963793"
     inkscape:cy="7.42874"
     inkscape:document-units="px"
     inkscape:current-layer="layer22"
     showgrid="true"
     units="px"
     inkscape:window-width="854"
     inkscape:window-height="653"
     inkscape:window-x="168"
     inkscape:window-y="218"
     inkscape:window-maximized="0" />
  <metadata
     id="metadata381">
    <rdf:RDF>
      <cc:Work
         rdf:about="">
        <dc:format>image/svg+xml</dc:format>
        <dc:type
           rdf:resource="http://purl.org/dc/dcmitype/StillImage" />
        <dc:title></dc:title>
      </cc:Work>
    </rdf:RDF>
  </metadata>
  <g
     inkscape:groupmode="layer"
     id="layer3"
     inkscape:label="Layer 3"
     style="display:inline"
     sodipodi:insensitive="true">
    <path
       style="fill:url(#linearGradient1095);fill-opacity:1;stroke:#000000;stroke-width:0;stroke-linecap:round;stroke-linejoin:round;stroke-miterlimit:4;stroke-dasharray:none;stroke-opacity:1"
       d="M 2.6458338,0.26458377 V 1.0583328 h 0.793749 z"
       id="path1720"
       inkscape:connector-curvature="0" />
    <path
       style="fill:url(#linearGradient1722);fill-opacity:1;stroke:#000000;stroke-width:0;stroke-linecap:round;stroke-linejoin:round;stroke-miterlimit:4;stroke-dasharray:none;stroke-opacity:1"
       d="M 2.645842,1.0583333 H 3.4395835 V 3.96875 H 0.79375003 V 0.26460554 l -3e-8,1.428e-5 1.8520747,-1.46e-5 c 1.73e-5,0.79372808 1.73e-5,0.79372808 1.73e-5,0.79372808 z"
       id="path1087"
       inkscape:connector-curvature="0" />
  </g>
  <g
     inkscape:groupmode="layer"
     id="layer4"
     inkscape:label="Layer 4"
     style="display:inline"
     sodipodi:insensitive="true">
    <path
       style="display:inline;fill:none;stroke:url(#linearGradient1059);stroke-width:0.24123368;stroke-linecap:round;stroke-linejoin:round;stroke-miterlimit:4;stroke-dasharray:none;stroke-opacity:1"
       d="m 3.3189527,1.2886279 -0.00263,2.5595056 H 0.91436685 V 0.38521222 H 2.5244649"
       id="path1048"
       inkscape:connector-curvature="0"
       sodipodi:nodetypes="ccccc" />
  </g>
  <g
     inkscape:groupmode="layer"
     id="layer2"
     inkscape:label="Layer 2"
     style="display:inline"
     sodipodi:insensitive="true">
    <path
       id="path1001"
       style="display:inline;fill:none;stroke:#bebebe;stroke-width:0.25404942;stroke-linecap:round;stroke-linejoin:round;stroke-miterlimit:4;stroke-dasharray:none;stroke-opacity:1;paint-order:normal"
       d="M 2.50825,0.12831369 3.5758548,1.1959167 M 2.50825,0.12831369 0.65619138,0.12808591 v -9.49e-6 3.97823218 H 3.5758548 V 1.1959167 m 0,-3e-7 H 2.50825 V 0.12831369"
       inkscape:connector-curvature="0" />
  </g>
  <g
     inkscape:label="Layer 1"
     inkscape:groupmode="layer"
     id="layer1"
     transform="translate(0,-292.76665)"
     style="display:inline"
     sodipodi:insensitive="true">
    <g
       id="g978"
       style="display:inline;opacity:0.2;fill:#808080;fill-opacity:1;stroke:none;stroke-width:1.03923047"
       transform="matrix(0.03429784,0,0,0.05291667,-0.07839478,290.59699)">
      <rect
         style="fill:#808080;fill-opacity:1;stroke:none;stroke-width:1.48070288"
         id="rect2801"
         y="116.00149"
         x="103.78947"
         height="4.9999995"
         width="14.210526" />
      <rect
         style="fill:#808080;fill-opacity:1;stroke:none;stroke-width:1.48070288"
         id="rect3696"
         transform="scale(-1)"
         y="-121.00149"
         x="-24.210518"
         height="4.9999995"
         width="14.210526" />
      <rect
         style="fill:#808080;fill-opacity:1;stroke:none;stroke-width:1.48070288"
         id="rect3700"
         y="116.00149"
         x="24.210518"
         height="5"
         width="79.578949" />
    </g>
  </g>
  <g
     inkscape:groupmode="layer"
     id="layer22"
     inkscape:label="Layer 5">
    <g
       style="display:inline"
       id="g1772"
       transform="matrix(0.00487629,0,0,0.00487629,0.45072526,1.5844139)">
      <path
         class="st8"
         d="m 158.3,192.1 c 1.2,3.2 2.7,5.8 4.3,7.7 2.8,3.4 6.4,5 10.7,5 2.3,0 4.3,-0.7 6,-2.2 1.7,-1.5 2.6,-3.4 2.6,-6.1 0,-2.3 -0.9,-4.4 -2.6,-6.1 -1.1,-1.1 -3.4,-2.7 -7,-4.9 l -6.2,-3.8 c -1.9,-1.2 -3.4,-2.3 -4.5,-3.5 -2,-2.3 -3.1,-4.7 -3.1,-7.5 0,-3.6 1.2,-6.6 3.7,-9 2.4,-2.4 5.7,-3.6 9.7,-3.6 1.7,0 3.7,0.4 6,1.2 2.3,0.8 3.7,1.2 4,1.2 0.9,0 1.5,-0.2 1.9,-0.7 0.4,-0.4 0.6,-1 0.8,-1.8 h 1.5 l 1.6,15.2 H 186 c -1.2,-4.6 -3.1,-7.8 -5.7,-9.6 -2.6,-1.8 -5.2,-2.7 -7.7,-2.7 -2,0 -3.7,0.6 -5.2,1.8 -1.5,1.2 -2.2,2.8 -2.2,4.8 0,1.8 0.6,3.4 1.7,4.7 1.2,1.3 2.9,2.7 5.3,4.2 l 6.4,3.9 c 4,2.4 6.8,4.7 8.5,6.6 1.6,2 2.4,4.5 2.4,7.2 0,3.7 -1.5,6.9 -4.3,9.4 -2.8,2.5 -6.6,3.8 -11,3.8 -2.3,0 -4.6,-0.4 -7,-1.2 -2.5,-0.8 -3.9,-1.2 -4.2,-1.2 -0.9,0 -1.5,0.3 -1.8,0.8 -0.3,0.5 -0.5,1.1 -0.6,1.6 H 159 l -2.2,-15.2 z"
         id="path1722"
         inkscape:connector-curvature="0"
         style="fill:#2c097e" />
      <path
         class="st8"
         d="m 187.2,175.5 h 15 v 0.9 c -1.2,0 -2,0.1 -2.6,0.3 -1.1,0.3 -1.6,0.9 -1.6,1.8 0,0.4 0.1,0.7 0.1,1 0.1,0.4 0.4,0.9 0.7,1.5 l 8.2,17.5 6.8,-17.6 c 0.1,-0.2 0.2,-0.6 0.4,-1.3 0.1,-0.7 0.2,-1.1 0.2,-1.4 0,-0.6 -0.2,-1.1 -0.7,-1.4 -0.5,-0.3 -0.9,-0.4 -1.6,-0.5 l -1.1,-0.1 v -0.9 h 9.7 v 0.9 c -0.9,0.1 -1.7,0.4 -2.2,1 -0.5,0.6 -0.9,1.3 -1.2,2.3 l -11.2,29.2 c -2,5 -3.8,8.7 -5.6,11 -1.8,2.3 -4,3.4 -6.7,3.4 -1.3,0 -2.6,-0.3 -3.7,-0.9 -1.2,-0.7 -1.8,-1.7 -1.8,-3.1 0,-0.9 0.4,-1.7 1,-2.3 0.6,-0.6 1.5,-0.9 2.6,-0.9 0.6,0 1.5,0.2 2.7,0.7 1.2,0.4 2,0.7 2.6,0.7 1.3,0 2.7,-1.6 4.2,-4.7 1.5,-3.1 2.2,-5.3 2.2,-6.3 0,-0.2 0,-0.4 -0.1,-0.7 -0.1,-0.3 -0.1,-0.6 -0.2,-0.8 L 192.1,181 c -0.8,-1.8 -1.5,-2.8 -2.1,-3.4 -0.6,-0.5 -1.5,-0.9 -2.7,-1.1 z"
         id="path1724"
         inkscape:connector-curvature="0"
         style="fill:#2c097e" />
      <path
         class="st8"
         d="m 221.6,196.5 h 1.2 c 0.5,2.5 1.2,4.4 2.2,5.7 1.7,2.4 4.1,3.7 7.2,3.7 1.8,0 3.1,-0.4 4.2,-1.4 1,-0.9 1.5,-2 1.5,-3.5 0,-0.9 -0.3,-1.8 -0.9,-2.6 -0.6,-0.9 -1.6,-1.7 -3.1,-2.5 l -3.9,-2.1 c -2.9,-1.5 -5,-2.8 -6.4,-4.3 -1.4,-1.5 -2,-3.1 -2,-5.2 0,-2.4 0.9,-4.5 2.8,-6 1.9,-1.5 4.2,-2.3 7.2,-2.3 1.2,0 2.6,0.2 4.2,0.7 1.5,0.4 2.3,0.7 2.6,0.7 0.4,0 0.7,-0.1 0.9,-0.1 0.2,-0.1 0.4,-0.3 0.5,-0.5 h 0.9 l 0.2,9.1 h -1.1 c -0.4,-2.1 -1.1,-3.7 -1.9,-4.9 -1.5,-2.2 -3.6,-3.3 -6.4,-3.3 -1.7,0 -2.9,0.4 -3.9,1.4 -0.9,0.9 -1.4,2 -1.4,3.3 0,2 1.6,3.8 4.9,5.3 l 4.7,2.3 c 5,2.6 7.5,5.5 7.5,8.8 0,2.6 -1,4.7 -3.1,6.3 -2.1,1.6 -4.8,2.5 -8.2,2.5 -1.4,0 -3,-0.2 -4.8,-0.7 -1.8,-0.4 -2.8,-0.7 -3.2,-0.7 -0.3,0 -0.5,0.1 -0.7,0.3 -0.2,0.2 -0.4,0.4 -0.5,0.7 h -0.9 z"
         id="path1726"
         inkscape:connector-curvature="0"
         style="fill:#2c097e" />
      <path
         class="st8"
         d="m 262.2,178.1 v 2.3 h -7.5 l -0.1,18 c 0,1.6 0.1,2.8 0.4,3.6 0.6,1.5 1.8,2.1 3.4,2.1 0.9,0 1.6,-0.1 2.3,-0.5 0.7,-0.4 1.4,-0.9 2.2,-1.7 l 0.9,0.7 -0.8,0.9 c -1.2,1.5 -2.6,2.5 -4,3.1 -1.4,0.6 -2.8,0.9 -4.1,0.9 -2.8,0 -4.8,-1.1 -5.8,-3.3 -0.6,-1.2 -0.8,-2.8 -0.8,-4.9 v -18.9 h -3.9 c -0.1,-0.1 -0.2,-0.1 -0.3,-0.2 -0.1,-0.1 -0.1,-0.1 -0.1,-0.2 0,-0.2 0.1,-0.4 0.1,-0.5 0.1,-0.1 0.4,-0.4 1,-0.8 1.7,-1.2 2.8,-2.1 3.7,-2.8 0.7,-0.7 2.5,-2.7 5.2,-5.8 0.3,0 0.5,0 0.6,0.1 0.1,0.1 0.1,0.2 0.1,0.4 v 7.7 z"
         id="path1728"
         inkscape:connector-curvature="0"
         style="fill:#2c097e" />
      <path
         class="st8"
         d="m 288.4,180.5 c 2.3,2 3.4,4.9 3.4,8.6 h -20.1 c 0.2,4.8 1.3,8.3 3.3,10.5 2,2.2 4.4,3.3 7.1,3.3 2.2,0 4.1,-0.6 5.6,-1.7 1.5,-1.2 2.9,-2.8 4.2,-4.8 l 1.1,0.4 c -0.9,2.6 -2.5,5.1 -4.8,7.3 -2.3,2.3 -5.3,3.4 -8.7,3.4 -3.9,0 -7,-1.5 -9.2,-4.4 -2.2,-2.9 -3.2,-6.4 -3.2,-10.2 0,-4.2 1.2,-7.7 3.8,-10.8 2.5,-3 5.8,-4.5 9.8,-4.5 2.9,-0.2 5.4,0.9 7.7,2.9 z m -15.2,2.4 c -0.7,1.1 -1.2,2.6 -1.5,4.2 h 13.4 c -0.2,-2 -0.7,-3.7 -1.2,-4.6 -1,-1.8 -2.8,-2.7 -5.2,-2.7 -2.4,0 -4.2,1 -5.5,3.1 z"
         id="path1730"
         inkscape:connector-curvature="0"
         style="fill:#2c097e" />
      <path
         class="st8"
         d="m 295.5,206.5 c 1.8,-0.1 3.1,-0.4 3.7,-0.9 0.9,-0.7 1.4,-2 1.4,-3.9 v -17.3 c 0,-1.7 -0.2,-2.7 -0.7,-3.2 -0.4,-0.5 -1.2,-0.8 -2.3,-0.8 -0.5,0 -0.9,0 -1.1,0.1 -0.2,0.1 -0.5,0.1 -0.9,0.2 v -1.2 l 2.6,-0.8 c 0.9,-0.3 2.4,-0.8 4.5,-1.6 2.1,-0.7 3.2,-1.2 3.3,-1.2 0.1,0 0.2,0.1 0.2,0.1 0,0.1 0,0.3 0,0.7 v 4.5 c 2.3,-2 4.3,-3.4 6,-4.2 1.7,-0.8 3.4,-1.2 5.2,-1.2 2.4,0 4.3,0.8 5.8,2.3 0.7,0.9 1.4,2 1.9,3.4 1.8,-1.7 3.3,-2.9 4.5,-3.7 2.3,-1.4 4.5,-2 6.9,-2 3.8,0 6.3,1.5 7.6,4.4 0.7,1.7 1.1,4.2 1.1,7.8 v 13.9 c 0,1.6 0.4,2.6 1.1,3.2 0.7,0.6 2,0.9 4,1.1 v 0.9 h -15.9 v -0.9 c 2,-0.1 3.4,-0.6 4,-1.2 0.6,-0.6 0.9,-1.8 0.9,-3.7 V 187 c 0,-2.2 -0.2,-3.7 -0.7,-4.8 -0.9,-1.8 -2.6,-2.8 -5.1,-2.8 -1.5,0 -3.1,0.5 -4.5,1.5 -0.9,0.6 -2,1.5 -3.2,2.7 v 17.2 c 0,1.8 0.4,3.2 1,4.1 0.7,0.9 2.1,1.5 4.2,1.5 v 0.9 h -16.1 v -0.9 c 2.3,-0.3 3.7,-0.8 4.2,-1.5 0.6,-0.7 0.9,-2.6 0.9,-5.6 v -9.4 c 0,-3.4 -0.2,-5.8 -0.7,-7.1 -0.8,-2.2 -2.4,-3.3 -5,-3.3 -1.5,0 -2.8,0.4 -4.2,1.1 -1.4,0.7 -2.6,1.8 -3.7,2.9 v 18.3 c 0,1.7 0.3,2.8 0.9,3.5 0.7,0.7 2,0.9 4.1,1 v 0.9 h -16 z"
         id="path1732"
         inkscape:connector-curvature="0"
         style="fill:#2c097e" />
      <path
         class="st8"
         d="m 356.5,159.3 v 1.2 c -1.8,0 -3.1,0.1 -3.7,0.4 -1.2,0.4 -1.8,1.2 -1.8,2.3 0,0.6 0.2,1.4 0.6,2.5 0.4,1.1 1.2,2.8 2.3,5.3 l 11.4,24.9 10.3,-27 c 0.4,-1.2 0.8,-2.2 1,-3 0.2,-0.8 0.4,-1.5 0.4,-2 0,-1.4 -0.6,-2.3 -1.8,-2.8 -0.7,-0.3 -1.9,-0.4 -3.5,-0.5 v -1.2 h 14.8 v 1.2 c -1.5,0.2 -2.7,0.6 -3.4,1.2 -1.1,0.9 -2.2,2.7 -3.3,5.5 l -16.1,40.2 h -1.1 l -18,-39.3 c -1.5,-3.4 -2.7,-5.4 -3.7,-6.2 -0.9,-0.8 -2.3,-1.3 -4,-1.4 v -1.2 h 19.6 z"
         id="path1734"
         inkscape:connector-curvature="0"
         style="fill:#2c097e" />
      <path
         class="st8"
         d="m 399.7,177.2 c 2.5,2.3 3.7,5.5 3.7,9.6 H 381 c 0.2,5.4 1.5,9.3 3.7,11.8 2.2,2.5 4.9,3.7 8,3.7 2.5,0 4.6,-0.7 6.3,-1.9 1.7,-1.2 3.3,-3.1 4.7,-5.4 l 1.2,0.4 c -0.9,3 -2.8,5.7 -5.5,8.2 -2.6,2.5 -5.9,3.8 -9.8,3.8 -4.5,0 -7.9,-1.7 -10.3,-5 -2.4,-3.3 -3.7,-7.1 -3.7,-11.4 0,-4.7 1.4,-8.7 4.2,-12.1 2.8,-3.4 6.5,-5.1 11,-5.1 3.5,0.1 6.4,1.2 8.9,3.4 z m -17,2.7 c -0.7,1.2 -1.3,2.8 -1.6,4.7 h 15 c -0.3,-2.3 -0.7,-4.1 -1.3,-5.2 -1.2,-2 -3.1,-3.1 -5.8,-3.1 -2.8,0.1 -4.8,1.3 -6.3,3.6 z"
         id="path1736"
         inkscape:connector-curvature="0"
         style="fill:#2c097e" />
      <path
         class="st8"
         d="m 405.7,206.2 c 2.2,-0.2 3.7,-0.6 4.3,-1.2 0.6,-0.6 1.1,-1.8 1.1,-3.7 v -15.7 c 0,-2.3 -0.2,-3.9 -0.7,-5 -0.4,-1 -1.2,-1.5 -2.4,-1.5 -0.2,0 -0.6,0 -0.9,0.1 -0.4,0.1 -0.8,0.1 -1.2,0.2 v -1.2 c 1.3,-0.4 2.7,-0.9 4.2,-1.5 1.4,-0.5 2.4,-0.8 2.9,-1 1.2,-0.4 2.4,-0.9 3.7,-1.5 0.1,0 0.3,0.1 0.3,0.1 0,0.1 0.1,0.4 0.1,0.7 v 5.7 c 1.5,-2 3,-3.7 4.4,-4.8 1.4,-1.2 2.8,-1.8 4.4,-1.8 1.2,0 2.2,0.4 2.9,1.1 0.7,0.7 1.2,1.6 1.2,2.7 0,0.9 -0.3,1.8 -0.9,2.4 -0.6,0.6 -1.3,0.9 -2.2,0.9 -0.9,0 -1.8,-0.4 -2.7,-1.2 -0.9,-0.8 -1.6,-1.2 -2.1,-1.2 -0.8,0 -1.8,0.7 -3.1,2 -1.2,1.3 -1.8,2.7 -1.8,4.1 v 15.7 c 0,2 0.4,3.4 1.4,4.2 0.9,0.8 2.5,1.2 4.7,1.1 v 1.2 h -17.5 v -0.9 z"
         id="path1738"
         inkscape:connector-curvature="0"
         style="fill:#2c097e" />
      <path
         class="st8"
         d="m 430.8,206.4 c 2.6,-0.2 4.2,-0.7 4.8,-1.2 0.6,-0.5 1,-2.3 1,-5 v -16.7 c 0,-1.5 -0.1,-2.6 -0.3,-3.1 -0.4,-0.9 -1.1,-1.5 -2.3,-1.5 -0.3,0 -0.5,0 -0.7,0.1 -0.2,0.1 -0.9,0.2 -2.1,0.6 v -1.1 l 1.5,-0.5 c 4.2,-1.3 7,-2.3 8.7,-3 0.7,-0.3 1.1,-0.4 1.2,-0.4 0.1,0.1 0.1,0.4 0.1,0.5 v 25.1 c 0,2.6 0.3,4.3 0.9,5 0.7,0.7 2.1,1.1 4.4,1.3 v 0.9 h -17.2 z m 5.7,-46.6 c 0.7,-0.7 1.6,-1.1 2.6,-1.1 1,0 1.9,0.4 2.6,1.1 0.7,0.7 1.1,1.5 1.1,2.6 0,1.1 -0.4,1.8 -1.1,2.6 -0.7,0.7 -1.6,1 -2.6,1 -1,0 -1.9,-0.4 -2.6,-1 -0.7,-0.7 -1.1,-1.5 -1.1,-2.6 0,-1.1 0.4,-1.9 1.1,-2.6 z"
         id="path1740"
         inkscape:connector-curvature="0"
         style="fill:#2c097e" />
      <path
         class="st8"
         d="m 450.9,206.4 c 2.2,-0.2 3.7,-0.7 4.5,-1.3 0.8,-0.7 1.2,-2 1.2,-3.9 v -34.1 c 0,-1.5 -0.1,-2.6 -0.4,-3.1 -0.4,-0.9 -1.5,-1.5 -2.8,-1.5 -0.4,0 -0.7,0 -1.1,0.1 -0.4,0.1 -0.9,0.1 -1.5,0.3 v -1.2 c 3.2,-0.8 7,-2 11.5,-3.4 0.1,0 0.3,0.1 0.3,0.2 0,0.1 0.1,0.4 0.1,0.9 v 41.9 c 0,2 0.4,3.4 1.1,3.9 0.7,0.6 2.2,0.9 4.4,1.2 v 0.9 H 451 Z"
         id="path1742"
         inkscape:connector-curvature="0"
         style="fill:#2c097e" />
      <path
         class="st8"
         d="m 470.6,178.4 c 3,-3.2 6.9,-4.8 11.5,-4.8 4.7,0 8.5,1.5 11.6,4.5 3.1,3 4.6,7 4.6,12.1 0,4.6 -1.5,8.6 -4.5,12.1 -3,3.4 -6.9,5.1 -11.5,5.1 -4.5,0 -8.4,-1.6 -11.5,-4.9 -3.1,-3.3 -4.7,-7.4 -4.7,-12.3 0,-4.7 1.5,-8.6 4.5,-11.8 z m 5.7,-0.9 c -2.3,2.1 -3.6,5.8 -3.6,11 0,4.2 0.9,8 2.8,11.6 1.9,3.6 4.5,5.4 8,5.4 2.6,0 4.7,-1.2 6.1,-3.6 1.5,-2.4 2.1,-5.6 2.1,-9.4 0,-4 -0.9,-7.8 -2.7,-11.4 -1.8,-3.6 -4.5,-5.3 -8,-5.3 -1.7,-0.1 -3.3,0.5 -4.7,1.7 z"
         id="path1744"
         inkscape:connector-curvature="0"
         style="fill:#2c097e" />
      <path
         class="st8"
         d="m 505.5,192.6 c -1.2,-1.8 -1.9,-3.9 -1.9,-6.2 0,-2.8 1.2,-5.5 3.5,-8 2.3,-2.5 5.6,-3.8 9.9,-3.8 1.8,0 3.9,0.4 6.1,1.2 2.2,0.8 4.3,1.2 6.4,1.2 0.5,0 1.3,0 2.4,-0.1 1.1,-0.1 1.8,-0.1 2.3,-0.1 h 0.4 v 2.9 h -6.5 c 0.4,1 0.8,1.9 1,2.6 0.4,1.4 0.7,2.7 0.7,3.9 0,2.7 -1.2,5.3 -3.6,7.5 -2.4,2.2 -5.6,3.4 -9.6,3.4 -0.7,0 -1.8,-0.1 -3.4,-0.3 -0.7,0 -1.7,0.6 -2.9,1.8 -1.2,1.2 -1.8,2.1 -1.8,2.8 0,0.8 0.9,1.3 2.6,1.7 1.2,0.2 2.4,0.4 3.9,0.4 6.5,0 10.9,0.4 13.2,1 3.8,1.1 5.7,3.5 5.7,7.2 0,3.8 -2.2,6.8 -6.6,9.1 -4.5,2.3 -8.9,3.4 -13.4,3.4 -4.2,0 -7.4,-0.8 -9.8,-2.4 -2.4,-1.6 -3.7,-3.3 -3.7,-5 0,-0.9 0.3,-1.7 0.9,-2.6 0.7,-0.8 1.9,-2 3.8,-3.7 l 2.5,-2.1 0.4,-0.4 c -1.2,-0.4 -2,-0.9 -2.6,-1.2 -1,-0.7 -1.5,-1.6 -1.5,-2.6 0,-0.9 0.4,-1.8 1.3,-2.9 0.9,-1.1 2.7,-2.8 5.6,-5.2 -2.3,-0.4 -4.1,-1.7 -5.3,-3.5 z m 3.9,26.7 c 2.4,0.7 5.1,1.2 8.2,1.2 4.2,0 7.6,-0.7 10.2,-2 2.6,-1.4 3.9,-3.1 3.9,-5.1 0,-1.6 -1.1,-2.7 -3.2,-3.2 -1.3,-0.3 -3.8,-0.5 -7.5,-0.5 -0.9,0 -1.9,-0.1 -2.9,-0.1 -1,0 -2,-0.1 -2.8,-0.1 -0.6,0 -1.5,-0.1 -2.7,-0.3 -1.2,-0.1 -2.2,-0.3 -2.8,-0.4 -0.3,0 -1,0.7 -2.2,2.3 -1.2,1.6 -1.8,2.9 -1.8,4.2 0.1,1.8 1.3,3.2 3.6,4 z m 12.1,-24.7 c 1.5,-1.2 2.3,-3.1 2.3,-6 0,-2.3 -0.6,-4.8 -1.8,-7.7 -1.2,-2.8 -3.3,-4.2 -6.1,-4.2 -2.5,0 -4.2,1.1 -5.1,3.4 -0.5,1.2 -0.7,2.6 -0.7,4.3 0,2.9 0.7,5.6 2.3,7.9 1.5,2.3 3.4,3.5 5.8,3.5 1.2,-0.1 2.4,-0.5 3.3,-1.2 z"
         id="path1746"
         inkscape:connector-curvature="0"
         style="fill:#2c097e" />
      <linearGradient
         id="linearGradient2026"
         gradientUnits="userSpaceOnUse"
         x1="204.17371"
         y1="140.1172"
         x2="585.63702"
         y2="140.1172">
        <stop
           offset="0"
           style="stop-color:#E9EDC6"
           id="stop2022" />
        <stop
           offset="1"
           style="stop-color:#1A348E"
           id="stop2024" />
      </linearGradient>
      <linearGradient
         id="linearGradient2032"
         gradientUnits="userSpaceOnUse"
         x1="204.0387"
         y1="140.1172"
         x2="585.84473"
         y2="140.1172">
        <stop
           offset="0"
           style="stop-color:#E9EDC6"
           id="stop2028" />
        <stop
           offset="1"
           style="stop-color:#1A348E"
           id="stop2030" />
      </linearGradient>
      <path
         class="st9"
         d="m 204.2,157 c 8.7,-17.3 85.5,-50.2 182,-49.8 78,0.3 170,10.4 199.4,65.9 H 538.8 C 519.7,126.3 301.4,93 204.2,157.2 Z"
         id="path1758"
         inkscape:connector-curvature="0"
         style="fill:url(#SVGID_1_-7);stroke:url(#SVGID_2_-6);stroke-width:0.25;stroke-miterlimit:10" />
      <linearGradient
         id="linearGradient2039"
         gradientUnits="userSpaceOnUse"
         x1="97.521698"
         y1="238.8828"
         x2="478.98499"
         y2="238.8828">
        <stop
           offset="0"
           style="stop-color:#E9EDC6"
           id="stop2035" />
        <stop
           offset="1"
           style="stop-color:#1A348E"
           id="stop2037" />
      </linearGradient>
      <linearGradient
         id="linearGradient2045"
         gradientUnits="userSpaceOnUse"
         x1="97.396698"
         y1="238.8828"
         x2="479.10999"
         y2="238.8828">
        <stop
           offset="0"
           style="stop-color:#E9EDC6"
           id="stop2041" />
        <stop
           offset="1"
           style="stop-color:#1A348E"
           id="stop2043" />
      </linearGradient>
      <path
         class="st10"
         d="m 479,222 c -8.7,17.3 -85.5,50.2 -182,49.8 -78,-0.3 -170,-10.4 -199.4,-65.9 h 46.8 c 19.1,46.8 237.4,80.1 334.6,15.9 z"
         id="path1770"
         inkscape:connector-curvature="0"
         style="fill:url(#SVGID_3_-5);stroke:url(#SVGID_4_-1);stroke-width:0.25;stroke-linejoin:round;stroke-miterlimit:10" />
    </g>
  </g>
</svg>
