<?xml version="1.0" encoding="UTF-8" standalone="no"?>
<!-- Created with Inkscape (http://www.inkscape.org/) -->

<svg
   xmlns:dc="http://purl.org/dc/elements/1.1/"
   xmlns:cc="http://creativecommons.org/ns#"
   xmlns:rdf="http://www.w3.org/1999/02/22-rdf-syntax-ns#"
   xmlns:svg="http://www.w3.org/2000/svg"
   xmlns="http://www.w3.org/2000/svg"
   xmlns:xlink="http://www.w3.org/1999/xlink"
   xmlns:sodipodi="http://sodipodi.sourceforge.net/DTD/sodipodi-0.dtd"
   xmlns:inkscape="http://www.inkscape.org/namespaces/inkscape"
   width="16"
   height="16"
   viewBox="0 0 4.2333332 4.2333335"
   version="1.1"
   id="svg384"
   enable-background="new"
   inkscape:version="0.92.3 (2405546, 2018-03-11)"
   sodipodi:docname="text16-base.svg">
  <defs
     id="defs378">
    <radialGradient
       gradientTransform="matrix(5.6949649,0,0,0.99999992,75.334676,75.001496)"
       gradientUnits="userSpaceOnUse"
       xlink:href="#linearGradient3688-464-309-255"
       id="radialGradient4093"
       fy="43.5"
       fx="4.9929786"
       r="2.5"
       cy="43.5"
       cx="4.9929786" />
    <linearGradient
       id="linearGradient3688-464-309-255">
      <stop
         id="stop3094"
         style="stop-color:#181818;stop-opacity:1"
         offset="0" />
      <stop
         id="stop3096"
         style="stop-color:#181818;stop-opacity:0"
         offset="1" />
    </linearGradient>
    <radialGradient
       gradientTransform="matrix(5.6949649,0,0,0.99999992,-52.665305,-162.00149)"
       gradientUnits="userSpaceOnUse"
       xlink:href="#linearGradient3688-464-309-255"
       id="radialGradient4095"
       fy="43.5"
       fx="4.9929786"
       r="2.5"
       cy="43.5"
       cx="4.9929786" />
    <linearGradient
       gradientUnits="userSpaceOnUse"
       xlink:href="#linearGradient3702-501-757-486"
       id="linearGradient4097"
       y2="39.999443"
       x2="25.058096"
       y1="47.027729"
       x1="25.058096"
       gradientTransform="matrix(2.8421052,0,0,0.71428566,-4.2105336,87.430066)" />
    <linearGradient
       id="linearGradient3702-501-757-486">
      <stop
         id="stop3100"
         style="stop-color:#181818;stop-opacity:0"
         offset="0" />
      <stop
         id="stop3102"
         style="stop-color:#181818;stop-opacity:1"
         offset="0.5" />
      <stop
         id="stop3104"
         style="stop-color:#181818;stop-opacity:0"
         offset="1" />
    </linearGradient>
    <linearGradient
       x1="25.132275"
       y1="0.98520643"
       x2="25.132275"
       y2="47.013336"
       id="linearGradient3019-2-2"
       xlink:href="#linearGradient3600"
       gradientUnits="userSpaceOnUse"
       gradientTransform="matrix(0.07559507,0,0,0.08048497,0.30238504,0.06158085)" />
    <linearGradient
       id="linearGradient3600">
      <stop
         id="stop3602"
         style="stop-color:#f4f4f4;stop-opacity:1"
         offset="0" />
      <stop
         id="stop3604"
         style="stop-color:#dbdbdb;stop-opacity:1"
         offset="1" />
    </linearGradient>
    <linearGradient
       inkscape:collect="always"
       xlink:href="#linearGradient3600"
       id="linearGradient1095"
       x1="81"
       y1="16.8125"
       x2="109.375"
       y2="16.8125"
       gradientUnits="userSpaceOnUse"
       gradientTransform="matrix(0.02797354,0,0,0.02797354,0.37997731,0.19115322)" />
    <linearGradient
       gradientTransform="matrix(0.02639506,0,0,0.03011393,0.42605513,0.30987934)"
       inkscape:collect="always"
       xlink:href="#linearGradient3977-3"
       id="linearGradient1059"
       x1="18"
       y1="59.999973"
       x2="110.10006"
       y2="59.999973"
       gradientUnits="userSpaceOnUse" />
    <linearGradient
       id="linearGradient3977-3">
      <stop
         id="stop3979-6"
         style="stop-color:#ffffff;stop-opacity:1"
         offset="0" />
      <stop
         id="stop3981-0"
         style="stop-color:#ffffff;stop-opacity:0.23529412"
         offset="0.00648027" />
      <stop
         id="stop3983-6"
         style="stop-color:#ffffff;stop-opacity:0.15686275"
         offset="0.99423188" />
      <stop
         id="stop3985-2"
         style="stop-color:#ffffff;stop-opacity:0.39215687"
         offset="1" />
    </linearGradient>
    <linearGradient
       inkscape:collect="always"
       xlink:href="#linearGradient3600"
       id="linearGradient1722"
       gradientUnits="userSpaceOnUse"
       gradientTransform="matrix(0.02797354,0,0,0.02797354,0.37997731,0.19115322)"
       x1="81"
       y1="77.06472"
       x2="81"
       y2="190.75049" />
  </defs>
  <sodipodi:namedview
     id="base"
     pagecolor="#ffffff"
     bordercolor="#666666"
     borderopacity="1.0"
     inkscape:pageopacity="0.0"
     inkscape:pageshadow="2"
     inkscape:zoom="24.48"
     inkscape:cx="9.2862032"
     inkscape:cy="7.42874"
     inkscape:document-units="px"
     inkscape:current-layer="layer40"
     showgrid="true"
     units="px"
     inkscape:window-width="902"
     inkscape:window-height="650"
     inkscape:window-x="168"
     inkscape:window-y="218"
     inkscape:window-maximized="0" />
  <metadata
     id="metadata381">
    <rdf:RDF>
      <cc:Work
         rdf:about="">
        <dc:format>image/svg+xml</dc:format>
        <dc:type
           rdf:resource="http://purl.org/dc/dcmitype/StillImage" />
        <dc:title></dc:title>
      </cc:Work>
    </rdf:RDF>
  </metadata>
  <g
     inkscape:groupmode="layer"
     id="layer3"
     inkscape:label="Layer 3"
     style="display:inline"
     sodipodi:insensitive="true">
    <path
       style="fill:url(#linearGradient1095);fill-opacity:1;stroke:#000000;stroke-width:0;stroke-linecap:round;stroke-linejoin:round;stroke-miterlimit:4;stroke-dasharray:none;stroke-opacity:1"
       d="M 2.6458338,0.26458377 V 1.0583328 h 0.793749 z"
       id="path1720"
       inkscape:connector-curvature="0" />
    <path
       style="fill:url(#linearGradient1722);fill-opacity:1;stroke:#000000;stroke-width:0;stroke-linecap:round;stroke-linejoin:round;stroke-miterlimit:4;stroke-dasharray:none;stroke-opacity:1"
       d="M 2.645842,1.0583333 H 3.4395835 V 3.96875 H 0.79375003 V 0.26460554 l -3e-8,1.428e-5 1.8520747,-1.46e-5 c 1.73e-5,0.79372808 1.73e-5,0.79372808 1.73e-5,0.79372808 z"
       id="path1087"
       inkscape:connector-curvature="0" />
  </g>
  <g
     inkscape:groupmode="layer"
     id="layer4"
     inkscape:label="Layer 4"
     style="display:inline"
     sodipodi:insensitive="true">
    <path
       style="display:inline;fill:none;stroke:url(#linearGradient1059);stroke-width:0.24123368;stroke-linecap:round;stroke-linejoin:round;stroke-miterlimit:4;stroke-dasharray:none;stroke-opacity:1"
       d="m 3.3189527,1.2886279 -0.00263,2.5595056 H 0.91436685 V 0.38521222 H 2.5244649"
       id="path1048"
       inkscape:connector-curvature="0"
       sodipodi:nodetypes="ccccc" />
  </g>
  <g
     inkscape:groupmode="layer"
     id="layer2"
     inkscape:label="Layer 2"
     style="display:inline"
     sodipodi:insensitive="true">
    <path
       id="path1001"
       style="display:inline;fill:none;stroke:#bebebe;stroke-width:0.25404942;stroke-linecap:round;stroke-linejoin:round;stroke-miterlimit:4;stroke-dasharray:none;stroke-opacity:1;paint-order:normal"
       d="M 2.50825,0.12831369 3.5758548,1.1959167 M 2.50825,0.12831369 0.65619138,0.12808591 v -9.49e-6 3.97823218 H 3.5758548 V 1.1959167 m 0,-3e-7 H 2.50825 V 0.12831369"
       inkscape:connector-curvature="0" />
  </g>
  <g
     inkscape:label="Layer 1"
     inkscape:groupmode="layer"
     id="layer1"
     transform="translate(0,-292.76665)"
     style="display:inline"
     sodipodi:insensitive="true">
    <g
       id="g978"
       style="display:inline;opacity:0.2;fill:#808080;fill-opacity:1;stroke:none;stroke-width:1.03923047"
       transform="matrix(0.03429784,0,0,0.05291667,-0.07839478,290.59699)">
      <rect
         style="fill:#808080;fill-opacity:1;stroke:none;stroke-width:1.48070288"
         id="rect2801"
         y="116.00149"
         x="103.78947"
         height="4.9999995"
         width="14.210526" />
      <rect
         style="fill:#808080;fill-opacity:1;stroke:none;stroke-width:1.48070288"
         id="rect3696"
         transform="scale(-1)"
         y="-121.00149"
         x="-24.210518"
         height="4.9999995"
         width="14.210526" />
      <rect
         style="fill:#808080;fill-opacity:1;stroke:none;stroke-width:1.48070288"
         id="rect3700"
         y="116.00149"
         x="24.210518"
         height="5"
         width="79.578949" />
    </g>
  </g>
  <g
     inkscape:groupmode="layer"
     id="layer40"
     inkscape:label="Layer 5">
    <g
       transform="matrix(0.02902954,0,0,0.02902954,0.23886378,0.56897636)"
       id="g17760">
      <g
         id="text85"
         style="font-style:normal;font-variant:normal;font-weight:normal;font-stretch:normal;font-size:64px;line-height:1.25;font-family:monospace;-inkscape-font-specification:monospace;font-variant-ligatures:normal;font-variant-caps:normal;font-variant-numeric:normal;font-feature-settings:normal;text-align:start;letter-spacing:0px;word-spacing:0px;writing-mode:lr-tb;text-anchor:start;fill:#ff2a2a;fill-opacity:1;stroke:none"
         aria-label="h">
        <path
           inkscape:connector-curvature="0"
           id="path274"
           style="font-style:normal;font-variant:normal;font-weight:bold;font-stretch:normal;font-size:106.66666412px;font-family:monospace;-inkscape-font-specification:'monospace Bold';fill:#ff2a2a"
           d="m 55.094444,62.895834 q 2.96875,-6.458333 7.447916,-9.374999 4.479167,-2.916667 10.677083,-2.916667 8.75,0 13.125,5.3125 4.375,5.3125 4.375,16.354166 V 108 H 76.13611 V 75.656251 q 0,-7.864583 -2.135417,-10.9375 -2.083333,-3.125 -6.875,-3.125 -5.312499,0 -8.593749,4.583333 -3.229167,4.53125 -3.229167,11.666667 V 108 H 40.667361 V 30.708335 h 14.635416 v 21.09375 q 0,5.677083 -0.416667,11.093749 z" />
      </g>
      <g
         id="text65"
         style="font-style:normal;font-variant:normal;font-weight:normal;font-stretch:normal;font-size:18.66666603px;line-height:1.25;font-family:monospace;-inkscape-font-specification:monospace;font-variant-ligatures:normal;font-variant-caps:normal;font-variant-numeric:normal;font-feature-settings:normal;text-align:start;letter-spacing:0px;word-spacing:0px;writing-mode:lr-tb;text-anchor:start;fill:#800000;fill-opacity:1;stroke:none"
         aria-label="++"
         transform="translate(-0.97280272,6.7954145)">
        <path
           id="path870"
           style="font-size:64px;fill:#800000;fill-opacity:1"
           d="m 46.84375,75.491692 v 13.375 H 42.25 v -13.375 H 29 v -4.5625 h 13.25 v -13.375 h 4.59375 v 13.375 h 13.25 v 4.5625 z"
           inkscape:connector-curvature="0" />
        <path
           id="path872"
           style="font-size:64px;fill:#800000;fill-opacity:1"
           d="m 85.21875,75.491692 v 13.375 H 80.625 v -13.375 h -13.25 v -4.5625 h 13.25 v -13.375 h 4.59375 v 13.375 h 13.25 v 4.5625 z"
           inkscape:connector-curvature="0" />
      </g>
      <g
         id="g253">
        <g
           id="text80"
           style="font-style:normal;font-variant:normal;font-weight:normal;font-stretch:normal;font-size:32px;line-height:1.25;font-family:monospace;-inkscape-font-specification:monospace;font-variant-ligatures:normal;font-variant-caps:normal;font-variant-numeric:normal;font-feature-settings:normal;text-align:start;letter-spacing:0px;word-spacing:0px;writing-mode:lr-tb;text-anchor:start;fill:#000000;fill-opacity:1;stroke:none"
           aria-label="include">
          <path
             inkscape:connector-curvature="0"
             id="path277"
             style="font-size:16.66666603px"
             d="m 42.899087,48.632811 h 3.092448 v 1.155599 h -7.991536 v -1.155599 h 3.434244 v -6.49414 h -2.596028 v -1.155599 h 4.060872 z m -1.627604,-9.358723 v -1.5625 h 1.627604 v 1.5625 z" />
          <path
             inkscape:connector-curvature="0"
             id="path279"
             style="font-size:16.66666603px"
             d="m 53.893553,49.78841 v -5.655924 q 0,-1.106771 -0.431315,-1.64388 -0.423177,-0.53711 -1.35905,-0.53711 -1.009114,0 -1.660156,0.74056 -0.642903,0.732422 -0.642903,1.993815 v 5.102539 h -1.464844 v -6.925455 q 0,-1.538086 -0.04883,-1.879883 h 1.383463 q 0.0081,0.04069 0.01628,0.219727 0.0081,0.179036 0.01628,0.415039 0.01628,0.227864 0.03255,0.870768 h 0.02441 q 0.854493,-1.668294 2.815756,-1.668294 1.407877,0 2.099609,0.764973 0.691732,0.756836 0.691732,2.335612 v 5.867513 z" />
          <path
             inkscape:connector-curvature="0"
             id="path281"
             style="font-size:16.66666603px"
             d="m 57.881183,45.377603 q 0,-2.197265 1.049805,-3.377278 1.049804,-1.180013 3.035481,-1.180013 1.48112,0 2.441406,0.716145 0.960287,0.708008 1.188151,1.912435 l -1.5625,0.113932 q -0.130208,-0.740559 -0.651041,-1.163736 -0.520833,-0.431316 -1.48112,-0.431316 -1.285807,0 -1.888021,0.797526 -0.594075,0.797526 -0.594075,2.579753 0,1.806641 0.594075,2.644857 0.602214,0.830078 1.879883,0.830078 0.878906,0 1.456706,-0.431315 0.577799,-0.431315 0.716146,-1.31836 l 1.546223,0.09766 q -0.105794,0.78125 -0.594075,1.424153 -0.480143,0.634766 -1.277669,1.000977 -0.797526,0.358073 -1.782227,0.358073 -1.993815,0 -3.035481,-1.171875 -1.041667,-1.171875 -1.041667,-3.401693 z" />
          <path
             inkscape:connector-curvature="0"
             id="path283"
             style="font-size:16.66666603px"
             d="m 72.806314,48.632811 h 3.092447 v 1.155599 h -7.991536 v -1.155599 h 3.434245 v -9.765624 h -2.351888 v -1.155599 h 3.816732 z" />
          <path
             inkscape:connector-curvature="0"
             id="path285"
             style="font-size:16.66666603px"
             d="m 79.780596,40.983072 v 5.582682 q 0,1.269531 0.398763,1.765951 0.398763,0.488281 1.424154,0.488281 1.049805,0 1.660156,-0.716146 0.610352,-0.716146 0.610352,-2.018229 v -5.102539 h 1.472981 v 6.925455 q 0,1.538086 0.04883,1.879883 h -1.383463 q -0.0081,-0.04069 -0.01628,-0.219726 -0.0081,-0.179037 -0.02441,-0.406901 -0.0081,-0.236003 -0.02441,-0.878907 h -0.02441 q -0.504558,0.911459 -1.171875,1.293946 -0.65918,0.374349 -1.64388,0.374349 -1.448568,0 -2.124024,-0.716146 -0.667317,-0.724284 -0.667317,-2.38444 v -5.867513 z" />
          <path
             inkscape:connector-curvature="0"
             id="path287"
             style="font-size:16.66666603px"
             d="m 93.818681,48.372395 q -0.398763,0.854492 -1.057943,1.245117 -0.65918,0.382487 -1.64388,0.382487 -1.64388,0 -2.416992,-1.131185 -0.773112,-1.131185 -0.773112,-3.409831 0,-4.606119 3.190104,-4.606119 0.9847,0 1.64388,0.349935 0.667318,0.349934 1.066081,1.14746 h 0.01628 l -0.01628,-1.228841 v -3.40983 h 1.464844 v 10.262044 q 0,1.375325 0.04883,1.814778 h -1.39974 q -0.03255,-0.12207 -0.05697,-0.594075 -0.02441,-0.472006 -0.02441,-0.82194 z m -4.378255,-2.96224 q 0,1.806641 0.480143,2.636719 0.488281,0.82194 1.578776,0.82194 1.188151,0 1.757812,-0.854492 0.569662,-0.86263 0.569662,-2.734375 0,-1.749675 -0.553386,-2.547201 -0.545247,-0.797526 -1.757812,-0.797526 -1.098633,0 -1.586914,0.838216 -0.488281,0.838217 -0.488281,2.636719 z" />
          <path
             inkscape:connector-curvature="0"
             id="path289"
             style="font-size:16.66666603px"
             d="m 99.417642,45.694986 q 0,1.48112 0.651038,2.319336 0.65918,0.838216 1.79851,0.838216 0.83821,0 1.46484,-0.358073 0.63477,-0.366211 0.84635,-0.992839 l 1.28581,0.366211 q -0.35807,1.009115 -1.31836,1.546224 -0.95215,0.53711 -2.27864,0.53711 -1.920577,0 -2.954105,-1.196289 -1.033529,-1.196289 -1.033529,-3.426107 0,-2.172852 1.009115,-3.336588 1.017252,-1.171875 2.929689,-1.171875 1.91243,0 2.89713,1.163737 0.9847,1.163736 0.9847,3.515624 v 0.195313 z m 2.416988,-3.792318 q -1.09049,0 -1.72526,0.716146 -0.634762,0.708008 -0.675452,1.953125 h 4.752602 q -0.22786,-2.669271 -2.35189,-2.669271 z" />
        </g>
        <g
           id="text89"
           style="font-style:normal;font-variant:normal;font-weight:normal;font-stretch:normal;font-size:18.66666603px;line-height:1.25;font-family:monospace;-inkscape-font-specification:monospace;font-variant-ligatures:normal;font-variant-caps:normal;font-variant-numeric:normal;font-feature-settings:normal;text-align:start;letter-spacing:0px;word-spacing:0px;writing-mode:lr-tb;text-anchor:start;fill:#000000;fill-opacity:1;stroke:none"
           aria-label="#">
          <path
             inkscape:connector-curvature="0"
             id="path292"
             style="font-style:normal;font-variant:normal;font-weight:normal;font-stretch:normal;font-size:21.33333397px;font-family:monospace;-inkscape-font-specification:monospace"
             d="M 32.796677,41.322916 32.09876,44.625 h 2.708334 V 45.75 H 31.859177 L 30.94251,50 h -1.145833 l 0.895833,-4.25 h -3.78125 l -0.875,4.25 h -1.145833 l 0.875,-4.25 h -2.09375 v -1.125 h 2.34375 l 0.697916,-3.302084 h -2.510416 v -1.125 h 2.739583 l 0.927083,-4.25 h 1.145834 l -0.916667,4.25 h 3.78125 l 0.916667,-4.25 h 1.145833 l -0.916666,4.25 h 2.197916 v 1.125 z m -4.90625,0 -0.71875,3.302084 h 3.770833 l 0.697917,-3.302084 z" />
        </g>
      </g>
    </g>
  </g>
</svg>
