<?xml version="1.0" encoding="UTF-8" standalone="no"?>
<!-- Created with Inkscape (http://www.inkscape.org/) -->

<svg
   xmlns:dc="http://purl.org/dc/elements/1.1/"
   xmlns:cc="http://creativecommons.org/ns#"
   xmlns:rdf="http://www.w3.org/1999/02/22-rdf-syntax-ns#"
   xmlns:svg="http://www.w3.org/2000/svg"
   xmlns="http://www.w3.org/2000/svg"
   xmlns:xlink="http://www.w3.org/1999/xlink"
   xmlns:sodipodi="http://sodipodi.sourceforge.net/DTD/sodipodi-0.dtd"
   xmlns:inkscape="http://www.inkscape.org/namespaces/inkscape"
   width="16"
   height="16"
   viewBox="0 0 4.2333332 4.2333335"
   version="1.1"
   id="svg384"
   enable-background="new"
   inkscape:version="0.92.3 (2405546, 2018-03-11)"
   sodipodi:docname="text16-sass.svg">
  <defs
     id="defs378">
    <radialGradient
       gradientTransform="matrix(5.6949649,0,0,0.99999992,75.334676,75.001496)"
       gradientUnits="userSpaceOnUse"
       xlink:href="#linearGradient3688-464-309-255"
       id="radialGradient4093"
       fy="43.5"
       fx="4.9929786"
       r="2.5"
       cy="43.5"
       cx="4.9929786" />
    <linearGradient
       id="linearGradient3688-464-309-255">
      <stop
         id="stop3094"
         style="stop-color:#181818;stop-opacity:1"
         offset="0" />
      <stop
         id="stop3096"
         style="stop-color:#181818;stop-opacity:0"
         offset="1" />
    </linearGradient>
    <radialGradient
       gradientTransform="matrix(5.6949649,0,0,0.99999992,-52.665305,-162.00149)"
       gradientUnits="userSpaceOnUse"
       xlink:href="#linearGradient3688-464-309-255"
       id="radialGradient4095"
       fy="43.5"
       fx="4.9929786"
       r="2.5"
       cy="43.5"
       cx="4.9929786" />
    <linearGradient
       gradientUnits="userSpaceOnUse"
       xlink:href="#linearGradient3702-501-757-486"
       id="linearGradient4097"
       y2="39.999443"
       x2="25.058096"
       y1="47.027729"
       x1="25.058096"
       gradientTransform="matrix(2.8421052,0,0,0.71428566,-4.2105336,87.430066)" />
    <linearGradient
       id="linearGradient3702-501-757-486">
      <stop
         id="stop3100"
         style="stop-color:#181818;stop-opacity:0"
         offset="0" />
      <stop
         id="stop3102"
         style="stop-color:#181818;stop-opacity:1"
         offset="0.5" />
      <stop
         id="stop3104"
         style="stop-color:#181818;stop-opacity:0"
         offset="1" />
    </linearGradient>
    <linearGradient
       x1="25.132275"
       y1="0.98520643"
       x2="25.132275"
       y2="47.013336"
       id="linearGradient3019-2-2"
       xlink:href="#linearGradient3600"
       gradientUnits="userSpaceOnUse"
       gradientTransform="matrix(0.07559507,0,0,0.08048497,0.30238504,0.06158085)" />
    <linearGradient
       id="linearGradient3600">
      <stop
         id="stop3602"
         style="stop-color:#f4f4f4;stop-opacity:1"
         offset="0" />
      <stop
         id="stop3604"
         style="stop-color:#dbdbdb;stop-opacity:1"
         offset="1" />
    </linearGradient>
    <linearGradient
       inkscape:collect="always"
       xlink:href="#linearGradient3600"
       id="linearGradient1095"
       x1="81"
       y1="16.8125"
       x2="109.375"
       y2="16.8125"
       gradientUnits="userSpaceOnUse"
       gradientTransform="matrix(0.02797354,0,0,0.02797354,0.37997731,0.19115322)" />
    <linearGradient
       gradientTransform="matrix(0.02639506,0,0,0.03011393,0.42605513,0.30987934)"
       inkscape:collect="always"
       xlink:href="#linearGradient3977-3"
       id="linearGradient1059"
       x1="18"
       y1="59.999973"
       x2="110.10006"
       y2="59.999973"
       gradientUnits="userSpaceOnUse" />
    <linearGradient
       id="linearGradient3977-3">
      <stop
         id="stop3979-6"
         style="stop-color:#ffffff;stop-opacity:1"
         offset="0" />
      <stop
         id="stop3981-0"
         style="stop-color:#ffffff;stop-opacity:0.23529412"
         offset="0.00648027" />
      <stop
         id="stop3983-6"
         style="stop-color:#ffffff;stop-opacity:0.15686275"
         offset="0.99423188" />
      <stop
         id="stop3985-2"
         style="stop-color:#ffffff;stop-opacity:0.39215687"
         offset="1" />
    </linearGradient>
    <linearGradient
       inkscape:collect="always"
       xlink:href="#linearGradient3600"
       id="linearGradient1722"
       gradientUnits="userSpaceOnUse"
       gradientTransform="matrix(0.02797354,0,0,0.02797354,0.37997731,0.19115322)"
       x1="81"
       y1="77.06472"
       x2="81"
       y2="190.75049" />
  </defs>
  <sodipodi:namedview
     id="base"
     pagecolor="#ffffff"
     bordercolor="#666666"
     borderopacity="1.0"
     inkscape:pageopacity="0.0"
     inkscape:pageshadow="2"
     inkscape:zoom="24.48"
     inkscape:cx="6.5725746"
     inkscape:cy="7.42874"
     inkscape:document-units="px"
     inkscape:current-layer="layer14"
     showgrid="true"
     units="px"
     inkscape:window-width="854"
     inkscape:window-height="653"
     inkscape:window-x="168"
     inkscape:window-y="218"
     inkscape:window-maximized="0" />
  <metadata
     id="metadata381">
    <rdf:RDF>
      <cc:Work
         rdf:about="">
        <dc:format>image/svg+xml</dc:format>
        <dc:type
           rdf:resource="http://purl.org/dc/dcmitype/StillImage" />
        <dc:title />
      </cc:Work>
    </rdf:RDF>
  </metadata>
  <g
     inkscape:groupmode="layer"
     id="layer3"
     inkscape:label="Layer 3"
     style="display:inline"
     sodipodi:insensitive="true">
    <path
       style="fill:url(#linearGradient1095);fill-opacity:1;stroke:#000000;stroke-width:0;stroke-linecap:round;stroke-linejoin:round;stroke-miterlimit:4;stroke-dasharray:none;stroke-opacity:1"
       d="M 2.6458338,0.26458377 V 1.0583328 h 0.793749 z"
       id="path1720"
       inkscape:connector-curvature="0" />
    <path
       style="fill:url(#linearGradient1722);fill-opacity:1;stroke:#000000;stroke-width:0;stroke-linecap:round;stroke-linejoin:round;stroke-miterlimit:4;stroke-dasharray:none;stroke-opacity:1"
       d="M 2.645842,1.0583333 H 3.4395835 V 3.96875 H 0.79375003 V 0.26460554 l -3e-8,1.428e-5 1.8520747,-1.46e-5 c 1.73e-5,0.79372808 1.73e-5,0.79372808 1.73e-5,0.79372808 z"
       id="path1087"
       inkscape:connector-curvature="0" />
  </g>
  <g
     inkscape:groupmode="layer"
     id="layer4"
     inkscape:label="Layer 4"
     style="display:inline"
     sodipodi:insensitive="true">
    <path
       style="display:inline;fill:none;stroke:url(#linearGradient1059);stroke-width:0.24123368;stroke-linecap:round;stroke-linejoin:round;stroke-miterlimit:4;stroke-dasharray:none;stroke-opacity:1"
       d="m 3.3189527,1.2886279 -0.00263,2.5595056 H 0.91436685 V 0.38521222 H 2.5244649"
       id="path1048"
       inkscape:connector-curvature="0"
       sodipodi:nodetypes="ccccc" />
  </g>
  <g
     inkscape:groupmode="layer"
     id="layer2"
     inkscape:label="Layer 2"
     style="display:inline"
     sodipodi:insensitive="true">
    <path
       id="path1001"
       style="display:inline;fill:none;stroke:#bebebe;stroke-width:0.25404942;stroke-linecap:round;stroke-linejoin:round;stroke-miterlimit:4;stroke-dasharray:none;stroke-opacity:1;paint-order:normal"
       d="M 2.50825,0.12831369 3.5758548,1.1959167 M 2.50825,0.12831369 0.65619138,0.12808591 v -9.49e-6 3.97823218 H 3.5758548 V 1.1959167 m 0,-3e-7 H 2.50825 V 0.12831369"
       inkscape:connector-curvature="0" />
  </g>
  <g
     inkscape:label="Layer 1"
     inkscape:groupmode="layer"
     id="layer1"
     transform="translate(0,-292.76665)"
     style="display:inline"
     sodipodi:insensitive="true">
    <g
       id="g978"
       style="display:inline;opacity:0.2;fill:#808080;fill-opacity:1;stroke:none;stroke-width:1.03923047"
       transform="matrix(0.03429784,0,0,0.05291667,-0.07839478,290.59699)">
      <rect
         style="fill:#808080;fill-opacity:1;stroke:none;stroke-width:1.48070288"
         id="rect2801"
         y="116.00149"
         x="103.78947"
         height="4.9999995"
         width="14.210526" />
      <rect
         style="fill:#808080;fill-opacity:1;stroke:none;stroke-width:1.48070288"
         id="rect3696"
         transform="scale(-1)"
         y="-121.00149"
         x="-24.210518"
         height="4.9999995"
         width="14.210526" />
      <rect
         style="fill:#808080;fill-opacity:1;stroke:none;stroke-width:1.48070288"
         id="rect3700"
         y="116.00149"
         x="24.210518"
         height="5"
         width="79.578949" />
    </g>
  </g>
  <g
     inkscape:groupmode="layer"
     id="layer14"
     inkscape:label="Layer 5">
    <path
       d="m 3.1087772,2.8126781 c -0.083075,4.284e-4 -0.1552753,0.020442 -0.2157327,0.050019 -0.022182,-0.04393 -0.044364,-0.083075 -0.048279,-0.1117812 -0.00435,-0.03349 -0.00957,-0.053933 -0.00435,-0.093948 0.00522,-0.040015 0.028706,-0.096993 0.028272,-0.1013422 -4.335e-4,-0.00435 -0.00522,-0.024792 -0.053063,-0.025227 -0.047844,-4.286e-4 -0.089164,0.00913 -0.093948,0.021747 -0.00478,0.012613 -0.013918,0.04132 -0.020007,0.070896 -0.00826,0.043495 -0.095688,0.1987698 -0.1457066,0.2801047 -0.016093,-0.031751 -0.030011,-0.059587 -0.033056,-0.08177 -0.00435,-0.033491 -0.00957,-0.053933 -0.00435,-0.093948 0.00522,-0.040015 0.028706,-0.096993 0.028271,-0.1013423 -4.334e-4,-0.00435 -0.00522,-0.024792 -0.053063,-0.025227 -0.047844,-4.286e-4 -0.089164,0.00913 -0.093948,0.021748 -0.00478,0.012614 -0.010004,0.04219 -0.020007,0.070896 -0.010004,0.028706 -0.1261341,0.2879333 -0.1565802,0.354915 -0.015658,0.034361 -0.029141,0.061762 -0.03871,0.080464 0,0 0,0 0,0 0,0 -4.338e-4,0.00131 -0.00174,0.00348 -0.00826,0.016093 -0.013048,0.024792 -0.013048,0.024792 0,0 0,0 0,4.284e-4 -0.00652,0.011744 -0.013483,0.022617 -0.016963,0.022617 -0.00261,0 -0.00739,-0.031316 8.694e-4,-0.073941 0.017398,-0.090033 0.058718,-0.2300856 0.058283,-0.23487 0,-0.00261 0.00783,-0.026967 -0.026967,-0.03958 -0.033926,-0.012613 -0.046104,0.00826 -0.049149,0.00826 -0.00304,0 -0.00522,0.00739 -0.00522,0.00739 0,0 0.03784,-0.1574497 -0.072201,-0.1574497 -0.068721,0 -0.1635392,0.075245 -0.2105133,0.1430965 -0.029575,0.016093 -0.092642,0.050454 -0.1600581,0.087424 -0.025662,0.014353 -0.052193,0.028707 -0.076985,0.04219 -0.00174,-0.00174 -0.00348,-0.00391 -0.00522,-0.00565 C 1.4725145,2.8148424 1.2263357,2.7143703 1.2367744,2.5234292 1.2406844,2.4538382 1.2646114,2.2711613 1.7095595,2.0493397 2.0757829,1.8688375 2.367196,1.9188562 2.4176496,2.0297667 2.4898506,2.1880866 2.2615044,2.4821092 1.8831024,2.5247336 1.7387007,2.5408266 1.6630203,2.4851536 1.6438828,2.4642766 c -0.020007,-0.021748 -0.023052,-0.023052 -0.030446,-0.018703 -0.012178,0.00652 -0.00435,0.026097 0,0.037405 0.011308,0.029577 0.057848,0.08177 0.1365727,0.1074316 0.069591,0.022617 0.2387847,0.035231 0.4436437,-0.043929 C 2.4228691,2.4577522 2.6020664,2.2111386 2.5494381,2.0045398 2.4968101,1.7948964 2.1488539,1.7257401 1.8196006,1.8427405 1.6238755,1.9123315 1.4116224,2.0219377 1.2589568,2.1645995 1.0775849,2.3342279 1.0488786,2.4816745 1.0606221,2.5434365 c 0.04219,0.2192123 0.3444762,0.361874 0.4653908,0.4675654 -0.00609,0.00348 -0.011743,0.00652 -0.016528,0.00913 -0.060457,0.030011 -0.2909781,0.1504908 -0.3483908,0.2779297 -0.065242,0.1444019 0.010439,0.2479187 0.060457,0.2618367 0.1552753,0.04306 0.3149,-0.034361 0.4005842,-0.1622342 0.085684,-0.1278737 0.075245,-0.2940226 0.035665,-0.3701379 -4.338e-4,-8.712e-4 -8.694e-4,-0.00174 -0.00174,-0.00261 0.015659,-0.00913 0.031752,-0.018703 0.04741,-0.027836 0.030881,-0.018268 0.061327,-0.035231 0.087424,-0.049149 -0.014788,0.04045 -0.025662,0.088729 -0.030881,0.1583198 -0.00652,0.08177 0.026967,0.1878965 0.070896,0.2296512 0.019572,0.018268 0.042625,0.018702 0.057413,0.018702 0.051323,0 0.074375,-0.042624 0.1000373,-0.093078 0.031316,-0.061763 0.059587,-0.1335282 0.059587,-0.1335282 0,0 -0.03523,0.1939853 0.060457,0.1939853 0.034795,0 0.070026,-0.045234 0.085684,-0.068286 0,4.284e-4 0,4.284e-4 0,4.284e-4 0,0 8.694e-4,-0.0013 0.00261,-0.00435 0.00348,-0.00565 0.00565,-0.00913 0.00565,-0.00913 0,0 0,-4.284e-4 0,-8.712e-4 0.013918,-0.024357 0.045234,-0.079595 0.091773,-0.1713681 0.060022,-0.1183048 0.1178701,-0.2661862 0.1178701,-0.2661862 0,0 0.00522,0.0361 0.023052,0.096123 0.010439,0.03523 0.032186,0.07394 0.049584,0.1113459 -0.013918,0.019572 -0.022617,0.030446 -0.022617,0.030446 0,0 0,0 4.338e-4,4.284e-4 -0.011309,0.014788 -0.023487,0.030881 -0.036971,0.046539 -0.047409,0.056543 -0.1039518,0.1213495 -0.1117808,0.1400518 -0.00913,0.022182 -0.00696,0.038275 0.010439,0.051324 0.012613,0.00957 0.03523,0.010874 0.058283,0.00957 0.042625,-0.00304 0.072636,-0.013483 0.087424,-0.020007 0.023052,-0.00826 0.050019,-0.020877 0.075245,-0.03958 0.046539,-0.034361 0.074811,-0.08351 0.072201,-0.1483163 -0.00131,-0.035665 -0.013048,-0.071331 -0.027402,-0.1048217 0.00435,-0.00609 0.00826,-0.012178 0.012613,-0.018267 0.073506,-0.1074316 0.1304835,-0.2253016 0.1304835,-0.2253016 0,0 0.00522,0.036101 0.023052,0.096123 0.0087,0.030446 0.026532,0.063502 0.04219,0.095688 -0.069156,0.056108 -0.1117808,0.1213495 -0.1270039,0.1639744 -0.027401,0.07916 -0.00609,0.1148254 0.034361,0.1230893 0.018268,0.00391 0.044364,-0.00478 0.063502,-0.013048 0.024357,-0.00783 0.053063,-0.021312 0.080465,-0.04132 0.046539,-0.034361 0.091338,-0.082204 0.088729,-0.1470113 -0.0013,-0.029576 -0.00913,-0.058717 -0.020007,-0.086989 0.058718,-0.024357 0.134398,-0.03784 0.2309556,-0.026531 0.2070338,0.024357 0.2479187,0.1535354 0.2400896,0.2079037 -0.00783,0.054368 -0.051323,0.083944 -0.065677,0.093078 -0.014353,0.00913 -0.019138,0.012179 -0.017833,0.018703 0.00175,0.00957 0.0087,0.00913 0.020878,0.00739 0.016963,-0.00304 0.1087361,-0.04393 0.1126506,-0.1439671 C 3.4458501,2.950964 3.3240695,2.811347 3.1087719,2.8126519 Z M 1.5116598,3.3511395 c -0.068721,0.07481 -0.1644092,0.103082 -0.2057289,0.07916 C 1.2615669,3.4046375 1.2789639,3.2941619 1.3633439,3.215002 1.4146669,3.166723 1.480779,3.121924 1.5247084,3.0945221 c 0.010004,-0.00609 0.024792,-0.014788 0.042625,-0.025662 0.00304,-0.00174 0.00478,-0.00261 0.00478,-0.00261 v 0 c 0.00348,-0.00218 0.00696,-0.00435 0.010439,-0.00652 0.030881,0.1130856 0.0013,0.2126876 -0.070896,0.2914127 z M 2.0118463,3.0110126 c -0.023922,0.058283 -0.073941,0.2074689 -0.1043867,0.199205 -0.026097,-0.00696 -0.04219,-0.1200451 -0.00522,-0.2318258 0.018703,-0.056108 0.058283,-0.1230893 0.081335,-0.1491859 0.037405,-0.041755 0.078725,-0.055673 0.088729,-0.03871 0.012613,0.022182 -0.045669,0.1839817 -0.060457,0.2205167 z m 0.4127626,0.1974652 c -0.010004,0.00522 -0.019573,0.0087 -0.023922,0.00609 -0.00304,-0.00174 0.00435,-0.0087 0.00435,-0.0087 0,0 0.051758,-0.055673 0.072201,-0.0809 0.011744,-0.014788 0.025662,-0.032186 0.04045,-0.051758 0,0.00174 0,0.00391 0,0.00565 0,0.066547 -0.064372,0.1113459 -0.093078,0.1296139 z m 0.3183797,-0.072636 c -0.00739,-0.00522 -0.00609,-0.022617 0.018703,-0.076985 0.00957,-0.021312 0.032186,-0.056978 0.070896,-0.091338 0.00435,0.013918 0.00739,0.027401 0.00696,0.040015 -4.338e-4,0.083944 -0.060457,0.1152606 -0.096558,0.1283089 z"
       id="path9067"
       inkscape:connector-curvature="0"
       style="fill:#cd6799;stroke-width:0.00434945" />
  </g>
</svg>
