<?xml version="1.0" encoding="UTF-8" standalone="no"?>
<!-- Created with Inkscape (http://www.inkscape.org/) -->

<svg
   xmlns:dc="http://purl.org/dc/elements/1.1/"
   xmlns:cc="http://creativecommons.org/ns#"
   xmlns:rdf="http://www.w3.org/1999/02/22-rdf-syntax-ns#"
   xmlns:svg="http://www.w3.org/2000/svg"
   xmlns="http://www.w3.org/2000/svg"
   xmlns:xlink="http://www.w3.org/1999/xlink"
   xmlns:sodipodi="http://sodipodi.sourceforge.net/DTD/sodipodi-0.dtd"
   xmlns:inkscape="http://www.inkscape.org/namespaces/inkscape"
   width="16"
   height="16"
   viewBox="0 0 4.2333332 4.2333335"
   version="1.1"
   id="svg384"
   enable-background="new"
   inkscape:version="0.92.3 (2405546, 2018-03-11)"
   sodipodi:docname="text16-base.svg">
  <defs
     id="defs378">
    <radialGradient
       gradientTransform="matrix(5.6949649,0,0,0.99999992,75.334676,75.001496)"
       gradientUnits="userSpaceOnUse"
       xlink:href="#linearGradient3688-464-309-255"
       id="radialGradient4093"
       fy="43.5"
       fx="4.9929786"
       r="2.5"
       cy="43.5"
       cx="4.9929786" />
    <linearGradient
       id="linearGradient3688-464-309-255">
      <stop
         id="stop3094"
         style="stop-color:#181818;stop-opacity:1"
         offset="0" />
      <stop
         id="stop3096"
         style="stop-color:#181818;stop-opacity:0"
         offset="1" />
    </linearGradient>
    <radialGradient
       gradientTransform="matrix(5.6949649,0,0,0.99999992,-52.665305,-162.00149)"
       gradientUnits="userSpaceOnUse"
       xlink:href="#linearGradient3688-464-309-255"
       id="radialGradient4095"
       fy="43.5"
       fx="4.9929786"
       r="2.5"
       cy="43.5"
       cx="4.9929786" />
    <linearGradient
       gradientUnits="userSpaceOnUse"
       xlink:href="#linearGradient3702-501-757-486"
       id="linearGradient4097"
       y2="39.999443"
       x2="25.058096"
       y1="47.027729"
       x1="25.058096"
       gradientTransform="matrix(2.8421052,0,0,0.71428566,-4.2105336,87.430066)" />
    <linearGradient
       id="linearGradient3702-501-757-486">
      <stop
         id="stop3100"
         style="stop-color:#181818;stop-opacity:0"
         offset="0" />
      <stop
         id="stop3102"
         style="stop-color:#181818;stop-opacity:1"
         offset="0.5" />
      <stop
         id="stop3104"
         style="stop-color:#181818;stop-opacity:0"
         offset="1" />
    </linearGradient>
    <linearGradient
       x1="25.132275"
       y1="0.98520643"
       x2="25.132275"
       y2="47.013336"
       id="linearGradient3019-2-2"
       xlink:href="#linearGradient3600"
       gradientUnits="userSpaceOnUse"
       gradientTransform="matrix(0.07559507,0,0,0.08048497,0.30238504,0.06158085)" />
    <linearGradient
       id="linearGradient3600">
      <stop
         id="stop3602"
         style="stop-color:#f4f4f4;stop-opacity:1"
         offset="0" />
      <stop
         id="stop3604"
         style="stop-color:#dbdbdb;stop-opacity:1"
         offset="1" />
    </linearGradient>
    <linearGradient
       inkscape:collect="always"
       xlink:href="#linearGradient3600"
       id="linearGradient1095"
       x1="81"
       y1="16.8125"
       x2="109.375"
       y2="16.8125"
       gradientUnits="userSpaceOnUse"
       gradientTransform="matrix(0.02797354,0,0,0.02797354,0.37997731,0.19115322)" />
    <linearGradient
       gradientTransform="matrix(0.02639506,0,0,0.03011393,0.42605513,0.30987934)"
       inkscape:collect="always"
       xlink:href="#linearGradient3977-3"
       id="linearGradient1059"
       x1="18"
       y1="59.999973"
       x2="110.10006"
       y2="59.999973"
       gradientUnits="userSpaceOnUse" />
    <linearGradient
       id="linearGradient3977-3">
      <stop
         id="stop3979-6"
         style="stop-color:#ffffff;stop-opacity:1"
         offset="0" />
      <stop
         id="stop3981-0"
         style="stop-color:#ffffff;stop-opacity:0.23529412"
         offset="0.00648027" />
      <stop
         id="stop3983-6"
         style="stop-color:#ffffff;stop-opacity:0.15686275"
         offset="0.99423188" />
      <stop
         id="stop3985-2"
         style="stop-color:#ffffff;stop-opacity:0.39215687"
         offset="1" />
    </linearGradient>
    <linearGradient
       inkscape:collect="always"
       xlink:href="#linearGradient3600"
       id="linearGradient1722"
       gradientUnits="userSpaceOnUse"
       gradientTransform="matrix(0.02797354,0,0,0.02797354,0.37997731,0.19115322)"
       x1="81"
       y1="77.06472"
       x2="81"
       y2="190.75049" />
  </defs>
  <sodipodi:namedview
     id="base"
     pagecolor="#ffffff"
     bordercolor="#666666"
     borderopacity="1.0"
     inkscape:pageopacity="0.0"
     inkscape:pageshadow="2"
     inkscape:zoom="24.48"
     inkscape:cx="9.2862032"
     inkscape:cy="7.42874"
     inkscape:document-units="px"
     inkscape:current-layer="layer58"
     showgrid="true"
     units="px"
     inkscape:window-width="902"
     inkscape:window-height="650"
     inkscape:window-x="168"
     inkscape:window-y="218"
     inkscape:window-maximized="0" />
  <metadata
     id="metadata381">
    <rdf:RDF>
      <cc:Work
         rdf:about="">
        <dc:format>image/svg+xml</dc:format>
        <dc:type
           rdf:resource="http://purl.org/dc/dcmitype/StillImage" />
        <dc:title></dc:title>
      </cc:Work>
    </rdf:RDF>
  </metadata>
  <g
     inkscape:groupmode="layer"
     id="layer3"
     inkscape:label="Layer 3"
     style="display:inline"
     sodipodi:insensitive="true">
    <path
       style="fill:url(#linearGradient1095);fill-opacity:1;stroke:#000000;stroke-width:0;stroke-linecap:round;stroke-linejoin:round;stroke-miterlimit:4;stroke-dasharray:none;stroke-opacity:1"
       d="M 2.6458338,0.26458377 V 1.0583328 h 0.793749 z"
       id="path1720"
       inkscape:connector-curvature="0" />
    <path
       style="fill:url(#linearGradient1722);fill-opacity:1;stroke:#000000;stroke-width:0;stroke-linecap:round;stroke-linejoin:round;stroke-miterlimit:4;stroke-dasharray:none;stroke-opacity:1"
       d="M 2.645842,1.0583333 H 3.4395835 V 3.96875 H 0.79375003 V 0.26460554 l -3e-8,1.428e-5 1.8520747,-1.46e-5 c 1.73e-5,0.79372808 1.73e-5,0.79372808 1.73e-5,0.79372808 z"
       id="path1087"
       inkscape:connector-curvature="0" />
  </g>
  <g
     inkscape:groupmode="layer"
     id="layer4"
     inkscape:label="Layer 4"
     style="display:inline"
     sodipodi:insensitive="true">
    <path
       style="display:inline;fill:none;stroke:url(#linearGradient1059);stroke-width:0.24123368;stroke-linecap:round;stroke-linejoin:round;stroke-miterlimit:4;stroke-dasharray:none;stroke-opacity:1"
       d="m 3.3189527,1.2886279 -0.00263,2.5595056 H 0.91436685 V 0.38521222 H 2.5244649"
       id="path1048"
       inkscape:connector-curvature="0"
       sodipodi:nodetypes="ccccc" />
  </g>
  <g
     inkscape:groupmode="layer"
     id="layer2"
     inkscape:label="Layer 2"
     style="display:inline"
     sodipodi:insensitive="true">
    <path
       id="path1001"
       style="display:inline;fill:none;stroke:#bebebe;stroke-width:0.25404942;stroke-linecap:round;stroke-linejoin:round;stroke-miterlimit:4;stroke-dasharray:none;stroke-opacity:1;paint-order:normal"
       d="M 2.50825,0.12831369 3.5758548,1.1959167 M 2.50825,0.12831369 0.65619138,0.12808591 v -9.49e-6 3.97823218 H 3.5758548 V 1.1959167 m 0,-3e-7 H 2.50825 V 0.12831369"
       inkscape:connector-curvature="0" />
  </g>
  <g
     inkscape:label="Layer 1"
     inkscape:groupmode="layer"
     id="layer1"
     transform="translate(0,-292.76665)"
     style="display:inline"
     sodipodi:insensitive="true">
    <g
       id="g978"
       style="display:inline;opacity:0.2;fill:#808080;fill-opacity:1;stroke:none;stroke-width:1.03923047"
       transform="matrix(0.03429784,0,0,0.05291667,-0.07839478,290.59699)">
      <rect
         style="fill:#808080;fill-opacity:1;stroke:none;stroke-width:1.48070288"
         id="rect2801"
         y="116.00149"
         x="103.78947"
         height="4.9999995"
         width="14.210526" />
      <rect
         style="fill:#808080;fill-opacity:1;stroke:none;stroke-width:1.48070288"
         id="rect3696"
         transform="scale(-1)"
         y="-121.00149"
         x="-24.210518"
         height="4.9999995"
         width="14.210526" />
      <rect
         style="fill:#808080;fill-opacity:1;stroke:none;stroke-width:1.48070288"
         id="rect3700"
         y="116.00149"
         x="24.210518"
         height="5"
         width="79.578949" />
    </g>
  </g>
  <g
     inkscape:groupmode="layer"
     id="layer58"
     inkscape:label="Layer 5">
    <g
       transform="matrix(6.342041e-4,0,0,-6.342041e-4,0.92603919,3.3104875)"
       id="g194">
      <path
         id="path32"
         style="fill:#de1d31;fill-opacity:1;fill-rule:nonzero;stroke:none"
         d="m 2600.46,1097.8 c 0,56.46 45.77,102.22 102.22,102.22 56.47,0 102.23,-45.76 102.23,-102.22 0,-56.46 -45.76,-102.234 -102.23,-102.234 -56.45,0 -102.22,45.774 -102.22,102.234"
         inkscape:connector-curvature="0" />
      <path
         id="path34"
         style="fill:#707a84;fill-opacity:1;fill-rule:nonzero;stroke:none"
         d="M 638.063,357.41 325.793,5.03906 H 599.094 L 788.063,236.191 c -59.532,27.45 -110.872,69.34 -150,121.219 z m 2250.277,1421.5 c -127.6,-4.67 -270.77,-143.17 -270.77,-141.61 1.56,79.36 -57.57,155.6 -166.51,138.49 -108.91,-17.12 -245.86,-154.06 -247.41,-154.06 4.67,57.58 -33.52,125.25 -93.37,147.83 -85.43,32.24 -212.15,8.25 -376.06,-173.24 -128.93,-142.76 -456.43,-516.18 -579.78,-656.117 43.66,-25.879 81.86,-59.836 112.65,-100.012 l 391.92,484.329 c 0,0 227.09,297.77 351.68,326.78 103.13,24.01 119.2,-74.6 80.91,-166.51 -77.89,-186.93 -269.21,-497.95 -269.21,-497.95 0,0 267.66,347.01 312.78,404.59 45.13,57.57 270.77,340.79 370.36,241.2 C 2602.59,1535.57 2311.02,1116 2311.02,1116 l 149.39,192.96 c 0,0 303.44,398.36 435.71,348.56 132.28,-49.79 -85.6,-413.92 -85.6,-412.37 0,0 130.49,99.46 200.75,312.78 32.13,97.55 4.67,225.64 -122.93,220.98"
         inkscape:connector-curvature="0" />
      <path
         id="path36"
         style="fill:#1f262f;fill-opacity:1;fill-rule:nonzero;stroke:none"
         d="m 0.0507813,789.297 c 0,85.75 69.0976187,158.187 172.3442187,158.187 54.121,0 99.914,-19.984 129.882,-50.777 30.813,30.793 75.762,50.777 129.887,50.777 104.082,0 169.856,-72.437 169.856,-158.187 L 601.969,412.52 h -94.926 l 0.051,362.609 c 0,59.117 -29.957,91.59 -76.582,91.59 -45.809,0 -81.61,-32.473 -81.61,-91.59 L 348.855,412.52 h -95.742 l 0.047,362.609 c 0,59.117 -35.793,91.59 -82.422,91.59 -45.808,0 -75.781,-32.473 -75.781,-91.59 L 94.9102,412.52 H 0.00390625 L 0.0507813,789.297"
         inkscape:connector-curvature="0" />
      <path
         id="path38"
         style="fill:#1f262f;fill-opacity:1;fill-rule:nonzero;stroke:none"
         d="m 1485.39,497.059 c 54.13,0 97.42,43.269 97.42,97.402 0,54.121 -43.29,97.418 -97.42,97.418 -54.1,0 -97.39,-43.297 -97.39,-97.418 0,-54.133 43.29,-97.402 97.39,-97.402 z m 96.6,441.269 h 95.75 V 597.789 c 0,-105.719 -85.77,-192.301 -192.35,-192.301 -105.73,0 -191.49,86.582 -191.49,192.301 0,106.57 80.77,192.348 184.83,192.348 44.97,0 81.61,-20.828 103.26,-39.157 v 187.348"
         inkscape:connector-curvature="0" />
      <path
         id="path40"
         style="fill:#1f262f;fill-opacity:1;fill-rule:nonzero;stroke:none"
         d="m 1051.74,596.551 c 0,55.371 -37.44,102.539 -98.06,102.539 -60.617,0 -98.02,-47.168 -98.02,-102.539 0,-55.371 37.403,-102.539 98.02,-102.539 60.62,0 98.06,47.168 98.06,102.539 z m 91.3,0 c 0,-104.031 -83.83,-186.352 -189.36,-186.352 -105.528,0 -189.332,82.321 -189.332,186.352 0,104.758 83.804,186.34 189.332,186.34 105.53,0 189.36,-81.582 189.36,-186.34"
         inkscape:connector-curvature="0" />
      <path
         id="path42"
         style="fill:#1f262f;fill-opacity:1;fill-rule:nonzero;stroke:none"
         d="m 2094.85,629.461 c -1.53,30.687 -29.96,71.848 -89.09,71.848 -57.63,0 -83.8,-40.387 -86.79,-71.848 z m 89.79,-31.41 c 0,-6.75 0,-20.199 -0.74,-33.692 h -264.93 c 6.71,-31.418 43.38,-71.839 99.51,-71.839 62.12,0 97.3,35.941 97.3,35.941 l 44.9,-67.371 c 0,0 -56.13,-50.891 -142.2,-50.891 -107.75,0 -190.82,82.321 -190.82,186.352 0,104.027 75.6,186.34 178.1,186.34 97.29,0 178.88,-75.571 178.88,-184.84"
         inkscape:connector-curvature="0" />
      <path
         id="path44"
         style="fill:#1f262f;fill-opacity:1;fill-rule:nonzero;stroke:none"
         d="m 2360.79,938.328 h 93.4 V 412.52 h -93.4 v 525.808"
         inkscape:connector-curvature="0" />
      <path
         id="path46"
         style="fill:#1f262f;fill-opacity:1;fill-rule:nonzero;stroke:none"
         d="m 3181.31,537.422 59.13,-59.883 c 0,0 -50.89,-67.34 -146.68,-67.34 -106.26,0 -190.83,82.321 -190.83,186.352 0,104.758 84.57,186.34 190.83,186.34 95.06,0 145.18,-65.871 145.18,-65.871 l -62.12,-55.372 c 0,0 -29.16,37.442 -83.06,37.442 -60.63,0 -99.52,-47.168 -99.52,-102.539 0,-55.371 38.89,-102.539 99.52,-102.539 60.61,0 87.55,43.41 87.55,43.41"
         inkscape:connector-curvature="0" />
      <path
         id="path48"
         style="fill:#1f262f;fill-opacity:1;fill-rule:nonzero;stroke:none"
         d="m 2653.74,782.598 h 94.17 V 412.52 h -94.17 v 370.078"
         inkscape:connector-curvature="0" />
      <path
         id="path50"
         style="fill:#1f262f;fill-opacity:1;fill-rule:nonzero;stroke:none"
         d="m 3562.5,494.012 c -60.62,0 -98.02,47.168 -98.02,102.539 0,55.371 37.4,102.539 98.02,102.539 60.62,0 98.05,-47.168 98.05,-102.539 0,-55.371 -37.43,-102.539 -98.05,-102.539 z m 98.05,288.586 V 756.41 c -28.53,16.75 -61.96,26.481 -98.05,26.481 -105.53,0 -189.33,-81.582 -189.33,-186.34 0,-104.031 83.8,-186.352 189.33,-186.352 36.09,0 69.52,9.821 98.05,26.641 v -24.559 h 94.16 v 370.317 h -94.16"
         inkscape:connector-curvature="0" />
    </g>
  </g>
</svg>
