<?xml version="1.0" encoding="UTF-8" standalone="no"?>
<!-- Created with Inkscape (http://www.inkscape.org/) -->

<svg
   xmlns:dc="http://purl.org/dc/elements/1.1/"
   xmlns:cc="http://creativecommons.org/ns#"
   xmlns:rdf="http://www.w3.org/1999/02/22-rdf-syntax-ns#"
   xmlns:svg="http://www.w3.org/2000/svg"
   xmlns="http://www.w3.org/2000/svg"
   xmlns:xlink="http://www.w3.org/1999/xlink"
   xmlns:sodipodi="http://sodipodi.sourceforge.net/DTD/sodipodi-0.dtd"
   xmlns:inkscape="http://www.inkscape.org/namespaces/inkscape"
   width="16"
   height="16"
   viewBox="0 0 4.2333332 4.2333335"
   version="1.1"
   id="svg384"
   enable-background="new"
   inkscape:version="0.92.3 (2405546, 2018-03-11)"
   sodipodi:docname="text16-base.svg">
  <defs
     id="defs378">
    <radialGradient
       gradientTransform="matrix(5.6949649,0,0,0.99999992,75.334676,75.001496)"
       gradientUnits="userSpaceOnUse"
       xlink:href="#linearGradient3688-464-309-255"
       id="radialGradient4093"
       fy="43.5"
       fx="4.9929786"
       r="2.5"
       cy="43.5"
       cx="4.9929786" />
    <linearGradient
       id="linearGradient3688-464-309-255">
      <stop
         id="stop3094"
         style="stop-color:#181818;stop-opacity:1"
         offset="0" />
      <stop
         id="stop3096"
         style="stop-color:#181818;stop-opacity:0"
         offset="1" />
    </linearGradient>
    <radialGradient
       gradientTransform="matrix(5.6949649,0,0,0.99999992,-52.665305,-162.00149)"
       gradientUnits="userSpaceOnUse"
       xlink:href="#linearGradient3688-464-309-255"
       id="radialGradient4095"
       fy="43.5"
       fx="4.9929786"
       r="2.5"
       cy="43.5"
       cx="4.9929786" />
    <linearGradient
       gradientUnits="userSpaceOnUse"
       xlink:href="#linearGradient3702-501-757-486"
       id="linearGradient4097"
       y2="39.999443"
       x2="25.058096"
       y1="47.027729"
       x1="25.058096"
       gradientTransform="matrix(2.8421052,0,0,0.71428566,-4.2105336,87.430066)" />
    <linearGradient
       id="linearGradient3702-501-757-486">
      <stop
         id="stop3100"
         style="stop-color:#181818;stop-opacity:0"
         offset="0" />
      <stop
         id="stop3102"
         style="stop-color:#181818;stop-opacity:1"
         offset="0.5" />
      <stop
         id="stop3104"
         style="stop-color:#181818;stop-opacity:0"
         offset="1" />
    </linearGradient>
    <linearGradient
       x1="25.132275"
       y1="0.98520643"
       x2="25.132275"
       y2="47.013336"
       id="linearGradient3019-2-2"
       xlink:href="#linearGradient3600"
       gradientUnits="userSpaceOnUse"
       gradientTransform="matrix(0.07559507,0,0,0.08048497,0.30238504,0.06158085)" />
    <linearGradient
       id="linearGradient3600">
      <stop
         id="stop3602"
         style="stop-color:#f4f4f4;stop-opacity:1"
         offset="0" />
      <stop
         id="stop3604"
         style="stop-color:#dbdbdb;stop-opacity:1"
         offset="1" />
    </linearGradient>
    <linearGradient
       inkscape:collect="always"
       xlink:href="#linearGradient3600"
       id="linearGradient1095"
       x1="81"
       y1="16.8125"
       x2="109.375"
       y2="16.8125"
       gradientUnits="userSpaceOnUse"
       gradientTransform="matrix(0.02797354,0,0,0.02797354,0.37997731,0.19115322)" />
    <linearGradient
       gradientTransform="matrix(0.02639506,0,0,0.03011393,0.42605513,0.30987934)"
       inkscape:collect="always"
       xlink:href="#linearGradient3977-3"
       id="linearGradient1059"
       x1="18"
       y1="59.999973"
       x2="110.10006"
       y2="59.999973"
       gradientUnits="userSpaceOnUse" />
    <linearGradient
       id="linearGradient3977-3">
      <stop
         id="stop3979-6"
         style="stop-color:#ffffff;stop-opacity:1"
         offset="0" />
      <stop
         id="stop3981-0"
         style="stop-color:#ffffff;stop-opacity:0.23529412"
         offset="0.00648027" />
      <stop
         id="stop3983-6"
         style="stop-color:#ffffff;stop-opacity:0.15686275"
         offset="0.99423188" />
      <stop
         id="stop3985-2"
         style="stop-color:#ffffff;stop-opacity:0.39215687"
         offset="1" />
    </linearGradient>
    <linearGradient
       inkscape:collect="always"
       xlink:href="#linearGradient3600"
       id="linearGradient1722"
       gradientUnits="userSpaceOnUse"
       gradientTransform="matrix(0.02797354,0,0,0.02797354,0.37997731,0.19115322)"
       x1="81"
       y1="77.06472"
       x2="81"
       y2="190.75049" />
    <linearGradient
       gradientUnits="userSpaceOnUse"
       y2="114.33624"
       x2="145.5751"
       y1="7.5862427"
       x1="-42.501816"
       id="linearGradient4733"
       xlink:href="#linearGradient4731" />
    <linearGradient
       id="linearGradient4731">
      <stop
         id="stop4727"
         offset="0"
         style="stop-color:#000000;stop-opacity:1;" />
      <stop
         id="stop4729"
         offset="1"
         style="stop-color:#000000;stop-opacity:0;" />
    </linearGradient>
    <linearGradient
       gradientUnits="userSpaceOnUse"
       y2="88.92408"
       x2="1097.6292"
       y1="128.63727"
       x1="-552.60895"
       id="linearGradient5315"
       xlink:href="#linearGradient4731" />
    <linearGradient
       y2="12.272937"
       x2="193.13139"
       y1="499.06714"
       x1="-675.74512"
       gradientUnits="userSpaceOnUse"
       id="linearGradient5122"
       xlink:href="#linearGradient4731" />
    <linearGradient
       gradientUnits="userSpaceOnUse"
       y2="85.377861"
       x2="1165.0408"
       y1="125.09104"
       x1="-592.84393"
       id="linearGradient5313"
       xlink:href="#linearGradient4731" />
  </defs>
  <sodipodi:namedview
     id="base"
     pagecolor="#ffffff"
     bordercolor="#666666"
     borderopacity="1.0"
     inkscape:pageopacity="0.0"
     inkscape:pageshadow="2"
     inkscape:zoom="24.48"
     inkscape:cx="9.2862032"
     inkscape:cy="7.42874"
     inkscape:document-units="px"
     inkscape:current-layer="layer42"
     showgrid="true"
     units="px"
     inkscape:window-width="902"
     inkscape:window-height="650"
     inkscape:window-x="168"
     inkscape:window-y="218"
     inkscape:window-maximized="0" />
  <metadata
     id="metadata381">
    <rdf:RDF>
      <cc:Work
         rdf:about="">
        <dc:format>image/svg+xml</dc:format>
        <dc:type
           rdf:resource="http://purl.org/dc/dcmitype/StillImage" />
        <dc:title></dc:title>
      </cc:Work>
    </rdf:RDF>
  </metadata>
  <g
     inkscape:groupmode="layer"
     id="layer3"
     inkscape:label="Layer 3"
     style="display:inline"
     sodipodi:insensitive="true">
    <path
       style="fill:url(#linearGradient1095);fill-opacity:1;stroke:#000000;stroke-width:0;stroke-linecap:round;stroke-linejoin:round;stroke-miterlimit:4;stroke-dasharray:none;stroke-opacity:1"
       d="M 2.6458338,0.26458377 V 1.0583328 h 0.793749 z"
       id="path1720"
       inkscape:connector-curvature="0" />
    <path
       style="fill:url(#linearGradient1722);fill-opacity:1;stroke:#000000;stroke-width:0;stroke-linecap:round;stroke-linejoin:round;stroke-miterlimit:4;stroke-dasharray:none;stroke-opacity:1"
       d="M 2.645842,1.0583333 H 3.4395835 V 3.96875 H 0.79375003 V 0.26460554 l -3e-8,1.428e-5 1.8520747,-1.46e-5 c 1.73e-5,0.79372808 1.73e-5,0.79372808 1.73e-5,0.79372808 z"
       id="path1087"
       inkscape:connector-curvature="0" />
  </g>
  <g
     inkscape:groupmode="layer"
     id="layer4"
     inkscape:label="Layer 4"
     style="display:inline"
     sodipodi:insensitive="true">
    <path
       style="display:inline;fill:none;stroke:url(#linearGradient1059);stroke-width:0.24123368;stroke-linecap:round;stroke-linejoin:round;stroke-miterlimit:4;stroke-dasharray:none;stroke-opacity:1"
       d="m 3.3189527,1.2886279 -0.00263,2.5595056 H 0.91436685 V 0.38521222 H 2.5244649"
       id="path1048"
       inkscape:connector-curvature="0"
       sodipodi:nodetypes="ccccc" />
  </g>
  <g
     inkscape:groupmode="layer"
     id="layer2"
     inkscape:label="Layer 2"
     style="display:inline"
     sodipodi:insensitive="true">
    <path
       id="path1001"
       style="display:inline;fill:none;stroke:#bebebe;stroke-width:0.25404942;stroke-linecap:round;stroke-linejoin:round;stroke-miterlimit:4;stroke-dasharray:none;stroke-opacity:1;paint-order:normal"
       d="M 2.50825,0.12831369 3.5758548,1.1959167 M 2.50825,0.12831369 0.65619138,0.12808591 v -9.49e-6 3.97823218 H 3.5758548 V 1.1959167 m 0,-3e-7 H 2.50825 V 0.12831369"
       inkscape:connector-curvature="0" />
  </g>
  <g
     inkscape:label="Layer 1"
     inkscape:groupmode="layer"
     id="layer1"
     transform="translate(0,-292.76665)"
     style="display:inline"
     sodipodi:insensitive="true">
    <g
       id="g978"
       style="display:inline;opacity:0.2;fill:#808080;fill-opacity:1;stroke:none;stroke-width:1.03923047"
       transform="matrix(0.03429784,0,0,0.05291667,-0.07839478,290.59699)">
      <rect
         style="fill:#808080;fill-opacity:1;stroke:none;stroke-width:1.48070288"
         id="rect2801"
         y="116.00149"
         x="103.78947"
         height="4.9999995"
         width="14.210526" />
      <rect
         style="fill:#808080;fill-opacity:1;stroke:none;stroke-width:1.48070288"
         id="rect3696"
         transform="scale(-1)"
         y="-121.00149"
         x="-24.210518"
         height="4.9999995"
         width="14.210526" />
      <rect
         style="fill:#808080;fill-opacity:1;stroke:none;stroke-width:1.48070288"
         id="rect3700"
         y="116.00149"
         x="24.210518"
         height="5"
         width="79.578949" />
    </g>
  </g>
  <g
     inkscape:groupmode="layer"
     id="layer42"
     inkscape:label="Layer 5">
    <g
       transform="matrix(0.03698202,0,0,0.03698202,-0.10600363,-0.23521615)"
       id="g18365">
      <g
         id="layer1-4"
         style="display:inline"
         transform="matrix(0.4,0,0,0.4,24.324204,35.764777)">
        <path
           inkscape:connector-curvature="0"
           style="fill:url(#linearGradient4733);fill-opacity:1;stroke:url(#linearGradient5315);stroke-width:0.19514345;stroke-miterlimit:4;stroke-dasharray:none;stroke-opacity:1"
           d="M 61.613281,65.126953 A 37.252303,26.592079 68.131183 0 0 58.910156,65.373047 37.252303,26.592079 68.131183 0 0 42.087891,105.33984 37.252303,26.592079 68.131183 0 0 78.423828,136.79297 37.252303,26.592079 68.131183 0 0 93.439453,125.20117 37.252303,26.592079 68.131183 0 1 69.222656,95.322266 37.252303,26.592079 68.131183 0 1 71.027344,66.949219 37.252303,26.592079 68.131183 0 0 61.613281,65.126953 Z"
           id="path3864" />
      </g>
      <g
         style="display:inline"
         id="g5179"
         transform="matrix(0.4,0,0,0.4,24.324204,35.764777)">
        <path
           inkscape:connector-curvature="0"
           id="path5177"
           style="fill:url(#linearGradient5122);fill-opacity:1;stroke:url(#linearGradient5313);stroke-width:0.40000001;stroke-linecap:butt;stroke-linejoin:miter;stroke-miterlimit:4;stroke-dasharray:none;stroke-opacity:1"
           d="m 159.52734,91.541016 -22.39843,6.83789 -14.51758,9.404294 21.5957,-6.86718 z m 1.06641,49.923824 -23.71289,8.27539 -6.68359,17.32813 22.39453,-9.21484 z m -41.82813,19.21875 -18.886714,5.68164 1.111324,25.70313 22.63868,-7.53906 -0.78907,-21.57032 z m -59.371089,4.36914 -11.99414,15.75196 27.417968,-9.6836 -0.314453,-0.63476 c -1.802458,-0.32621 -3.630448,-0.77181 -5.480468,-1.34375 -3.289339,-1.01691 -6.502938,-2.40693 -9.628907,-4.08985 z M 85.583984,22.3125 60.886719,30.214844 c 1.24821,0.136352 2.506202,0.321984 3.77539,0.576172 1.357228,0.220503 2.665652,0.503643 4.189453,0.882812 2.576865,0.641205 5.066595,1.782909 7.509766,2.96875 z m 38.533206,26.796875 -22.99414,5.982422 c 0.002,0.0022 0.004,0.0037 0.006,0.0059 0.4567,0.568369 0.90211,1.149821 1.34765,1.732422 0.16903,0.22109 0.33849,0.440974 0.50586,0.664063 0.41002,0.546295 0.81483,1.098249 1.21485,1.65625 0.17093,0.238587 0.3407,0.478076 0.50976,0.71875 0.44714,0.636125 0.88839,1.277429 1.32227,1.927734 0.001,0.0015 0.003,0.0024 0.004,0.0039 0.003,0.0046 0.007,0.009 0.01,0.01367 2.0689,3.102488 3.97994,6.363344 5.72265,9.75 0.43498,0.845295 0.85839,1.698062 1.27149,2.558594 0.002,0.0034 0.004,0.0063 0.006,0.0098 l 21.33789,-9.003906 C 131.58028,59.481247 128.1713,54.125113 124.1178,49.109443 Z m 19.8164,51.892575 -21.31836,6.7793 -0.002,0.002 c 0.13956,1.37115 0.24729,2.74376 0.32617,4.11914 0.0178,0.29625 0.0359,0.59231 0.0508,0.88868 0.0247,0.51765 0.0466,1.03483 0.0625,1.55273 0.0316,0.96198 0.0543,1.92462 0.0527,2.88672 -0.002,1.11101 -0.0264,2.20848 -0.0703,3.29297 -1.3e-4,0.003 1.2e-4,0.007 0,0.01 -0.0293,0.7342 -0.0831,1.45361 -0.13086,2.17578 -0.0248,0.36885 -0.0388,0.74376 -0.0684,1.10938 -0.0728,0.91335 -0.16742,1.81205 -0.26953,2.70508 -0.0145,0.12602 -0.0259,0.25524 -0.041,0.38086 -0.10606,0.88895 -0.23262,1.76285 -0.36719,2.63086 -0.0196,0.1269 -0.0325,0.2583 -0.0527,0.38476 l 0.0176,-0.041 20.68554,-8.54688 0.13086,0.14844 c 1.1621,-6.74912 1.47203,-13.63211 0.99414,-20.47852 z m -32.7539,55.44532 c -0.0567,0.0721 -0.11679,0.13929 -0.17383,0.21093 -0.002,0.003 -0.004,0.005 -0.006,0.008 -0.006,0.008 -0.0132,0.0154 -0.0195,0.0234 -0.48746,0.61106 -0.98984,1.19964 -1.50195,1.77539 -0.0983,0.11039 -0.19774,0.21905 -0.29688,0.32813 -0.50812,0.55941 -1.02558,1.10445 -1.55664,1.62891 -0.0134,0.0132 -0.0257,0.0279 -0.0391,0.041 -0.005,0.005 -0.0107,0.009 -0.0156,0.0137 -1.16971,1.15076 -2.39509,2.21331 -3.66992,3.18946 -0.0558,0.0427 -0.11198,0.0846 -0.16797,0.12695 -0.62303,0.4716 -1.2578,0.9247 -1.9043,1.35351 -0.64042,0.42479 -1.28666,0.83679 -1.949214,1.21875 l 18.884764,-5.68164 z m 20.62625,-78.366164 -18.76236,-3.948226 21.37039,-9.01733 20.07481,4.613466 z M 87.747377,19.419007 110.97257,10.377395 126.80078,24.726562 103.34113,32.413148 Z M 72.386719,0.54296875 49.505859,8.28125 60.544922,30.324219 85.583984,22.3125 Z m 54.414061,24.18359325 -23.45898,7.6875 -2.21875,22.677735 22.99348,-5.982093 z M 29.576172,28.158203 6.5585938,36.498047 25.884766,45.964844 C 29.171369,38.532283 36.537109,35.888672 36.537109,35.888672 L 36.302734,31.373047 Z M 95.243864,96.826054 A 37.252303,26.592079 68.131183 0 1 78.422229,136.79223 37.252303,26.592079 68.131183 0 1 42.088139,105.33882 37.252303,26.592079 68.131183 0 1 58.909774,65.372645 37.252303,26.592079 68.131183 0 1 95.243864,96.826054 Z M 49.505189,8.2803357 35.395814,13.848695 36.536937,35.88938 c 0,0 -7.366238,2.641988 -10.652841,10.074549 v 0 L 6.5579243,36.497132 0.24737721,54.319397 15.696596,74.42096 c -0.350531,3.031145 -0.547931,6.1724 -0.552735,9.431642 -0.0047,3.202992 -0.0035,5.767461 0.326172,8.957031 v 0 L 0.24737787,102.95807 6.6829239,124.36823 25.247377,127.21589 v 0 c 2.90584,6.08525 6.235265,11.35325 10.140625,16.5332 l -2.468749,23.56445 14.480468,13.49024 11.99414,-15.75196 v 0 c 3.125969,1.68292 6.339569,3.07294 9.628908,4.08985 1.850021,0.57194 3.678008,1.01754 5.480466,1.34375 l 11.882814,24.07031 14.603511,-2.48828 -1.111324,-25.70313 c 4.252794,-2.45172 8.058734,-5.79415 11.300784,-9.91796 l 19.01758,10.62109 6.68359,-17.32813 -14.75781,-19.86132 -0.0176,0.041 c 0.64134,-4.01232 0.99345,-8.24541 1,-12.68946 0.005,-3.1527 -0.1746,-6.3073 -0.49414,-9.44727 v 0 l 14.51757,-9.404293 -5.32227,-20.296871 -18.76367,-3.949218 C 109.72772,67.225161 105.70553,60.793596 101.12238,55.090882 L 103.34113,32.413148 87.747377,19.419007 76.360658,34.641664 v 0 c -2.443171,-1.185841 -4.932272,-2.327376 -7.509137,-2.968581 -2.933932,-0.730054 -5.051774,-1.116734 -8.307156,-1.349776 z m 87.375671,141.4598943 23.71289,-8.27539 -17.786,-20.13188 -20.68473,8.54625 14.75717,19.86011 z m -5.07422,-71.658199 5.32157,20.295946 22.39913,-6.836961 -5.03856,-21.812 z" />
      </g>
      <g
         id="flowRoot80"
         style="font-style:normal;font-variant:normal;font-weight:normal;font-stretch:normal;font-size:24px;line-height:1.25;font-family:monospace;-inkscape-font-specification:'monospace, Normal';font-variant-ligatures:normal;font-variant-caps:normal;font-variant-numeric:normal;font-feature-settings:normal;text-align:start;letter-spacing:0px;word-spacing:0px;writing-mode:lr-tb;text-anchor:start;fill:#000000;fill-opacity:1;stroke:none"
         transform="translate(8.2002188,1.0613538)"
         aria-label="ini">
        <path
           inkscape:connector-curvature="0"
           id="path90"
           d="m 43.105469,70.274584 h 4.453125 v 1.664062 H 36.050781 v -1.664062 h 4.945313 v -9.351563 h -3.738282 v -1.664062 h 5.847657 z m -2.34375,-13.476563 v -2.25 h 2.34375 v 2.25 z" />
        <path
           inkscape:connector-curvature="0"
           id="path92"
           d="m 58.9375,71.938646 v -8.144531 q 0,-1.59375 -0.621094,-2.367188 -0.609375,-0.773437 -1.957031,-0.773437 -1.453125,0 -2.390625,1.066406 -0.925781,1.054688 -0.925781,2.871094 v 7.347656 H 50.933594 V 61.96599 q 0,-2.214844 -0.07031,-2.707031 h 1.992188 q 0.01172,0.05859 0.02344,0.316406 0.01172,0.257812 0.02344,0.597656 0.02344,0.328125 0.04687,1.253906 h 0.03516 q 1.230469,-2.402343 4.054687,-2.402343 2.027344,0 3.023438,1.101562 0.996094,1.089844 0.996094,3.363281 v 8.449219 z" />
        <path
           inkscape:connector-curvature="0"
           id="path94"
           d="m 71.886719,70.274584 h 4.453125 v 1.664062 H 64.832031 v -1.664062 h 4.945313 v -9.351563 h -3.738282 v -1.664062 h 5.847657 z m -2.34375,-13.476563 v -2.25 h 2.34375 v 2.25 z" />
      </g>
    </g>
  </g>
</svg>
