<?xml version="1.0" encoding="UTF-8" standalone="no"?>
<!-- Created with Inkscape (http://www.inkscape.org/) -->

<svg
   xmlns:dc="http://purl.org/dc/elements/1.1/"
   xmlns:cc="http://creativecommons.org/ns#"
   xmlns:rdf="http://www.w3.org/1999/02/22-rdf-syntax-ns#"
   xmlns:svg="http://www.w3.org/2000/svg"
   xmlns="http://www.w3.org/2000/svg"
   xmlns:xlink="http://www.w3.org/1999/xlink"
   xmlns:sodipodi="http://sodipodi.sourceforge.net/DTD/sodipodi-0.dtd"
   xmlns:inkscape="http://www.inkscape.org/namespaces/inkscape"
   width="16"
   height="16"
   viewBox="0 0 4.2333332 4.2333335"
   version="1.1"
   id="svg384"
   enable-background="new"
   inkscape:version="0.92.3 (2405546, 2018-03-11)"
   sodipodi:docname="text16-base.svg">
  <defs
     id="defs378">
    <radialGradient
       gradientTransform="matrix(5.6949649,0,0,0.99999992,75.334676,75.001496)"
       gradientUnits="userSpaceOnUse"
       xlink:href="#linearGradient3688-464-309-255"
       id="radialGradient4093"
       fy="43.5"
       fx="4.9929786"
       r="2.5"
       cy="43.5"
       cx="4.9929786" />
    <linearGradient
       id="linearGradient3688-464-309-255">
      <stop
         id="stop3094"
         style="stop-color:#181818;stop-opacity:1"
         offset="0" />
      <stop
         id="stop3096"
         style="stop-color:#181818;stop-opacity:0"
         offset="1" />
    </linearGradient>
    <radialGradient
       gradientTransform="matrix(5.6949649,0,0,0.99999992,-52.665305,-162.00149)"
       gradientUnits="userSpaceOnUse"
       xlink:href="#linearGradient3688-464-309-255"
       id="radialGradient4095"
       fy="43.5"
       fx="4.9929786"
       r="2.5"
       cy="43.5"
       cx="4.9929786" />
    <linearGradient
       gradientUnits="userSpaceOnUse"
       xlink:href="#linearGradient3702-501-757-486"
       id="linearGradient4097"
       y2="39.999443"
       x2="25.058096"
       y1="47.027729"
       x1="25.058096"
       gradientTransform="matrix(2.8421052,0,0,0.71428566,-4.2105336,87.430066)" />
    <linearGradient
       id="linearGradient3702-501-757-486">
      <stop
         id="stop3100"
         style="stop-color:#181818;stop-opacity:0"
         offset="0" />
      <stop
         id="stop3102"
         style="stop-color:#181818;stop-opacity:1"
         offset="0.5" />
      <stop
         id="stop3104"
         style="stop-color:#181818;stop-opacity:0"
         offset="1" />
    </linearGradient>
    <linearGradient
       x1="25.132275"
       y1="0.98520643"
       x2="25.132275"
       y2="47.013336"
       id="linearGradient3019-2-2"
       xlink:href="#linearGradient3600"
       gradientUnits="userSpaceOnUse"
       gradientTransform="matrix(0.07559507,0,0,0.08048497,0.30238504,0.06158085)" />
    <linearGradient
       id="linearGradient3600">
      <stop
         id="stop3602"
         style="stop-color:#f4f4f4;stop-opacity:1"
         offset="0" />
      <stop
         id="stop3604"
         style="stop-color:#dbdbdb;stop-opacity:1"
         offset="1" />
    </linearGradient>
    <linearGradient
       inkscape:collect="always"
       xlink:href="#linearGradient3600"
       id="linearGradient1095"
       x1="81"
       y1="16.8125"
       x2="109.375"
       y2="16.8125"
       gradientUnits="userSpaceOnUse"
       gradientTransform="matrix(0.02797354,0,0,0.02797354,0.37997731,0.19115322)" />
    <linearGradient
       gradientTransform="matrix(0.02639506,0,0,0.03011393,0.42605513,0.30987934)"
       inkscape:collect="always"
       xlink:href="#linearGradient3977-3"
       id="linearGradient1059"
       x1="18"
       y1="59.999973"
       x2="110.10006"
       y2="59.999973"
       gradientUnits="userSpaceOnUse" />
    <linearGradient
       id="linearGradient3977-3">
      <stop
         id="stop3979-6"
         style="stop-color:#ffffff;stop-opacity:1"
         offset="0" />
      <stop
         id="stop3981-0"
         style="stop-color:#ffffff;stop-opacity:0.23529412"
         offset="0.00648027" />
      <stop
         id="stop3983-6"
         style="stop-color:#ffffff;stop-opacity:0.15686275"
         offset="0.99423188" />
      <stop
         id="stop3985-2"
         style="stop-color:#ffffff;stop-opacity:0.39215687"
         offset="1" />
    </linearGradient>
    <linearGradient
       inkscape:collect="always"
       xlink:href="#linearGradient3600"
       id="linearGradient1722"
       gradientUnits="userSpaceOnUse"
       gradientTransform="matrix(0.02797354,0,0,0.02797354,0.37997731,0.19115322)"
       x1="81"
       y1="77.06472"
       x2="81"
       y2="190.75049" />
  </defs>
  <sodipodi:namedview
     id="base"
     pagecolor="#ffffff"
     bordercolor="#666666"
     borderopacity="1.0"
     inkscape:pageopacity="0.0"
     inkscape:pageshadow="2"
     inkscape:zoom="24.48"
     inkscape:cx="8.8406804"
     inkscape:cy="7.42874"
     inkscape:document-units="px"
     inkscape:current-layer="layer18"
     showgrid="true"
     units="px"
     inkscape:window-width="902"
     inkscape:window-height="650"
     inkscape:window-x="168"
     inkscape:window-y="218"
     inkscape:window-maximized="0" />
  <metadata
     id="metadata381">
    <rdf:RDF>
      <cc:Work
         rdf:about="">
        <dc:format>image/svg+xml</dc:format>
        <dc:type
           rdf:resource="http://purl.org/dc/dcmitype/StillImage" />
        <dc:title></dc:title>
      </cc:Work>
    </rdf:RDF>
  </metadata>
  <g
     inkscape:groupmode="layer"
     id="layer3"
     inkscape:label="Layer 3"
     style="display:inline"
     sodipodi:insensitive="true">
    <path
       style="fill:url(#linearGradient1095);fill-opacity:1;stroke:#000000;stroke-width:0;stroke-linecap:round;stroke-linejoin:round;stroke-miterlimit:4;stroke-dasharray:none;stroke-opacity:1"
       d="M 2.6458338,0.26458377 V 1.0583328 h 0.793749 z"
       id="path1720"
       inkscape:connector-curvature="0" />
    <path
       style="fill:url(#linearGradient1722);fill-opacity:1;stroke:#000000;stroke-width:0;stroke-linecap:round;stroke-linejoin:round;stroke-miterlimit:4;stroke-dasharray:none;stroke-opacity:1"
       d="M 2.645842,1.0583333 H 3.4395835 V 3.96875 H 0.79375003 V 0.26460554 l -3e-8,1.428e-5 1.8520747,-1.46e-5 c 1.73e-5,0.79372808 1.73e-5,0.79372808 1.73e-5,0.79372808 z"
       id="path1087"
       inkscape:connector-curvature="0" />
  </g>
  <g
     inkscape:groupmode="layer"
     id="layer4"
     inkscape:label="Layer 4"
     style="display:inline"
     sodipodi:insensitive="true">
    <path
       style="display:inline;fill:none;stroke:url(#linearGradient1059);stroke-width:0.24123368;stroke-linecap:round;stroke-linejoin:round;stroke-miterlimit:4;stroke-dasharray:none;stroke-opacity:1"
       d="m 3.3189527,1.2886279 -0.00263,2.5595056 H 0.91436685 V 0.38521222 H 2.5244649"
       id="path1048"
       inkscape:connector-curvature="0"
       sodipodi:nodetypes="ccccc" />
  </g>
  <g
     inkscape:groupmode="layer"
     id="layer2"
     inkscape:label="Layer 2"
     style="display:inline"
     sodipodi:insensitive="true">
    <path
       id="path1001"
       style="display:inline;fill:none;stroke:#bebebe;stroke-width:0.25404942;stroke-linecap:round;stroke-linejoin:round;stroke-miterlimit:4;stroke-dasharray:none;stroke-opacity:1;paint-order:normal"
       d="M 2.50825,0.12831369 3.5758548,1.1959167 M 2.50825,0.12831369 0.65619138,0.12808591 v -9.49e-6 3.97823218 H 3.5758548 V 1.1959167 m 0,-3e-7 H 2.50825 V 0.12831369"
       inkscape:connector-curvature="0" />
  </g>
  <g
     inkscape:label="Layer 1"
     inkscape:groupmode="layer"
     id="layer1"
     transform="translate(0,-292.76665)"
     style="display:inline"
     sodipodi:insensitive="true">
    <g
       id="g978"
       style="display:inline;opacity:0.2;fill:#808080;fill-opacity:1;stroke:none;stroke-width:1.03923047"
       transform="matrix(0.03429784,0,0,0.05291667,-0.07839478,290.59699)">
      <rect
         style="fill:#808080;fill-opacity:1;stroke:none;stroke-width:1.48070288"
         id="rect2801"
         y="116.00149"
         x="103.78947"
         height="4.9999995"
         width="14.210526" />
      <rect
         style="fill:#808080;fill-opacity:1;stroke:none;stroke-width:1.48070288"
         id="rect3696"
         transform="scale(-1)"
         y="-121.00149"
         x="-24.210518"
         height="4.9999995"
         width="14.210526" />
      <rect
         style="fill:#808080;fill-opacity:1;stroke:none;stroke-width:1.48070288"
         id="rect3700"
         y="116.00149"
         x="24.210518"
         height="5"
         width="79.578949" />
    </g>
  </g>
  <g
     inkscape:groupmode="layer"
     id="layer18"
     inkscape:label="Layer 5">
    <g
       id="dlogo"
       transform="matrix(0.01223463,0,0,0.01223463,-0.63981825,-2.2187925)"
       style="display:inline;fill:#b80000;fill-opacity:1;stroke:#ffffff;stroke-width:4.33181953;stroke-miterlimit:4;stroke-dasharray:none;stroke-opacity:1">
      <path
         style="font-style:normal;font-variant:normal;font-weight:normal;font-stretch:normal;font-size:64px;line-height:125%;font-family:'Gill Sans MT';text-align:start;writing-mode:lr-tb;text-anchor:start;fill:#b80000;fill-opacity:1;stroke:#ffffff;stroke-width:6.63139343;stroke-miterlimit:4;stroke-dasharray:none;stroke-opacity:1"
         d="m 237.8125,407.78125 -73.15625,0.0937 c -0.31451,0.002 -0.6023,-0.0376 -0.90625,0 -3.58649,0.4434 -6.39436,3.31645 -6.40625,6.78125 l 0.21875,176.90625 c -0.0153,0.25233 -0.0148,0.52896 0,0.78125 -0.0412,0.41998 -0.0422,0.76762 0,1.1875 -3.7e-4,0.0421 -4.7e-4,0.14539 0,0.1875 0.0384,0.1698 0.13545,0.33341 0.1875,0.5 -3.5e-4,0.0421 -4.6e-4,0.0515 0,0.0937 0.0384,0.16985 0.0417,0.33341 0.0937,0.5 -3.7e-4,0.0421 -4.7e-4,0.14537 0,0.1875 0.0828,0.17161 0.18349,0.33533 0.28125,0.5 -3.5e-4,0.0421 -4.7e-4,0.0515 0,0.0937 0.12706,0.17387 0.29378,0.36906 0.4375,0.53125 -3.7e-4,0.0421 -4.7e-4,0.0203 0,0.0625 0.0828,0.17162 0.1835,0.36662 0.28125,0.53125 -3.5e-4,0.0421 -4.7e-4,0.11412 0,0.15625 0.17413,0.13364 0.37587,0.2256 0.5625,0.34375 -3.7e-4,0.0421 -4.6e-4,0.14537 0,0.1875 0.13012,0.13089 0.23436,0.22271 0.375,0.34375 0.0445,0.0426 0.14171,0.11486 0.1875,0.15625 0.13012,0.13089 0.20311,0.22272 0.34375,0.34375 0.045,3.1e-4 0.0486,4.6e-4 0.0937,0 0.33523,0.28257 0.70862,0.56094 1.09375,0.78125 0.0452,3.1e-4 0.14239,4.6e-4 0.1875,0 0.17661,0.0908 0.37841,0.17309 0.5625,0.25 0.045,3.1e-4 0.0486,4.4e-4 0.0937,0 0.17666,0.0908 0.37846,0.17309 0.5625,0.25 0.26779,0.0559 0.53967,0.0664 0.8125,0.0937 0.44574,0.0804 0.92099,0.15398 1.375,0.15625 h 0.71875 l 67.78125,-0.28125 c 19.3668,-0.0344 32.33742,-0.36708 40.0625,-1.34375 0.0452,3.2e-4 0.11114,4.6e-4 0.15625,0 7.3928,-1.02687 15.23524,-2.92279 23.75,-5.6875 14.80205,-4.62805 27.93291,-11.46078 39.21875,-20.59375 11.04997,-8.84763 19.60651,-19.30991 25.625,-31.09375 3.93217,-7.69944 6.60489,-15.69079 7.96875,-23.90625 A 51.510153,47.217641 0 0 0 424.9375,469.78125 51.510153,47.217641 0 0 0 338.0625,435.5 c -7.93997,-6.57521 -17.02558,-12.03615 -27.15625,-16.28125 -18.63743,-7.90141 -42.94629,-11.49136 -73.09375,-11.4375 z M 234.65625,444.25 c 14.73948,-0.026 25.23945,0.43317 31.1875,1.25 6.02963,0.82833 12.63157,2.54854 19.625,5.25 6.93137,2.64103 12.96417,5.87998 18.15625,9.90625 -3.7e-4,0.0421 -4.7e-4,0.14539 0,0.1875 14.2839,10.93449 21.03159,24.06654 21.0625,41.46875 0.0314,17.81872 -6.49228,31.70365 -20.40625,43.34375 -4.2802,3.53291 -9.03011,6.52064 -14.28125,9 -4.96316,2.31141 -11.44989,4.31485 -19.625,6.03125 -7.71001,1.54228 -19.41846,2.41024 -34.65625,2.4375 l -32.4375,0.0625 -0.15625,-118.90625 31.53125,-0.0312 z"
         transform="matrix(0.65322912,0,0,0.65322912,27.370278,68.528158)"
         id="path2242"
         inkscape:connector-curvature="0" />
      <path
         style="display:inline;fill:#b80000;fill-opacity:1;fill-rule:nonzero;stroke:#ffffff;stroke-width:4.33181953;stroke-miterlimit:4;stroke-dasharray:none;stroke-opacity:1"
         id="path2222"
         d="m 320.45187,341.50058 a 10.811495,9.9105372 0 1 1 -21.62299,0 10.811495,9.9105372 0 1 1 21.62299,0 z"
         inkscape:connector-curvature="0" />
    </g>
  </g>
</svg>
