<?xml version="1.0" encoding="UTF-8" standalone="no"?>
<!-- Created with Inkscape (http://www.inkscape.org/) -->

<svg
   xmlns:dc="http://purl.org/dc/elements/1.1/"
   xmlns:cc="http://creativecommons.org/ns#"
   xmlns:rdf="http://www.w3.org/1999/02/22-rdf-syntax-ns#"
   xmlns:svg="http://www.w3.org/2000/svg"
   xmlns="http://www.w3.org/2000/svg"
   xmlns:xlink="http://www.w3.org/1999/xlink"
   xmlns:sodipodi="http://sodipodi.sourceforge.net/DTD/sodipodi-0.dtd"
   xmlns:inkscape="http://www.inkscape.org/namespaces/inkscape"
   width="16"
   height="16"
   viewBox="0 0 4.2333332 4.2333335"
   version="1.1"
   id="svg384"
   enable-background="new"
   inkscape:version="0.92.3 (2405546, 2018-03-11)"
   sodipodi:docname="text16-bluespec.svg">
  <defs
     id="defs378">
    <radialGradient
       gradientTransform="matrix(5.6949649,0,0,0.99999992,75.334676,75.001496)"
       gradientUnits="userSpaceOnUse"
       xlink:href="#linearGradient3688-464-309-255"
       id="radialGradient4093"
       fy="43.5"
       fx="4.9929786"
       r="2.5"
       cy="43.5"
       cx="4.9929786" />
    <linearGradient
       id="linearGradient3688-464-309-255">
      <stop
         id="stop3094"
         style="stop-color:#181818;stop-opacity:1"
         offset="0" />
      <stop
         id="stop3096"
         style="stop-color:#181818;stop-opacity:0"
         offset="1" />
    </linearGradient>
    <radialGradient
       gradientTransform="matrix(5.6949649,0,0,0.99999992,-52.665305,-162.00149)"
       gradientUnits="userSpaceOnUse"
       xlink:href="#linearGradient3688-464-309-255"
       id="radialGradient4095"
       fy="43.5"
       fx="4.9929786"
       r="2.5"
       cy="43.5"
       cx="4.9929786" />
    <linearGradient
       gradientUnits="userSpaceOnUse"
       xlink:href="#linearGradient3702-501-757-486"
       id="linearGradient4097"
       y2="39.999443"
       x2="25.058096"
       y1="47.027729"
       x1="25.058096"
       gradientTransform="matrix(2.8421052,0,0,0.71428566,-4.2105336,87.430066)" />
    <linearGradient
       id="linearGradient3702-501-757-486">
      <stop
         id="stop3100"
         style="stop-color:#181818;stop-opacity:0"
         offset="0" />
      <stop
         id="stop3102"
         style="stop-color:#181818;stop-opacity:1"
         offset="0.5" />
      <stop
         id="stop3104"
         style="stop-color:#181818;stop-opacity:0"
         offset="1" />
    </linearGradient>
    <linearGradient
       x1="25.132275"
       y1="0.98520643"
       x2="25.132275"
       y2="47.013336"
       id="linearGradient3019-2-2"
       xlink:href="#linearGradient3600"
       gradientUnits="userSpaceOnUse"
       gradientTransform="matrix(0.07559507,0,0,0.08048497,0.30238504,0.06158085)" />
    <linearGradient
       id="linearGradient3600">
      <stop
         id="stop3602"
         style="stop-color:#f4f4f4;stop-opacity:1"
         offset="0" />
      <stop
         id="stop3604"
         style="stop-color:#dbdbdb;stop-opacity:1"
         offset="1" />
    </linearGradient>
    <linearGradient
       inkscape:collect="always"
       xlink:href="#linearGradient3600"
       id="linearGradient1095"
       x1="81"
       y1="16.8125"
       x2="109.375"
       y2="16.8125"
       gradientUnits="userSpaceOnUse"
       gradientTransform="matrix(0.02797354,0,0,0.02797354,0.37997731,0.19115322)" />
    <linearGradient
       gradientTransform="matrix(0.02639506,0,0,0.03011393,0.42605513,0.30987934)"
       inkscape:collect="always"
       xlink:href="#linearGradient3977-3"
       id="linearGradient1059"
       x1="18"
       y1="59.999973"
       x2="110.10006"
       y2="59.999973"
       gradientUnits="userSpaceOnUse" />
    <linearGradient
       id="linearGradient3977-3">
      <stop
         id="stop3979-6"
         style="stop-color:#ffffff;stop-opacity:1"
         offset="0" />
      <stop
         id="stop3981-0"
         style="stop-color:#ffffff;stop-opacity:0.23529412"
         offset="0.00648027" />
      <stop
         id="stop3983-6"
         style="stop-color:#ffffff;stop-opacity:0.15686275"
         offset="0.99423188" />
      <stop
         id="stop3985-2"
         style="stop-color:#ffffff;stop-opacity:0.39215687"
         offset="1" />
    </linearGradient>
    <linearGradient
       inkscape:collect="always"
       xlink:href="#linearGradient3600"
       id="linearGradient1722"
       gradientUnits="userSpaceOnUse"
       gradientTransform="matrix(0.02797354,0,0,0.02797354,0.37997731,0.19115322)"
       x1="81"
       y1="77.06472"
       x2="81"
       y2="190.75049" />
  </defs>
  <sodipodi:namedview
     id="base"
     pagecolor="#ffffff"
     bordercolor="#666666"
     borderopacity="1.0"
     inkscape:pageopacity="0.0"
     inkscape:pageshadow="2"
     inkscape:zoom="22.84"
     inkscape:cx="9.4518389"
     inkscape:cy="9.8209613"
     inkscape:document-units="px"
     inkscape:current-layer="layer15"
     showgrid="true"
     units="px"
     inkscape:window-width="984"
     inkscape:window-height="711"
     inkscape:window-x="377"
     inkscape:window-y="189"
     inkscape:window-maximized="0" />
  <metadata
     id="metadata381">
    <rdf:RDF>
      <cc:Work
         rdf:about="">
        <dc:format>image/svg+xml</dc:format>
        <dc:type
           rdf:resource="http://purl.org/dc/dcmitype/StillImage" />
        <dc:title />
      </cc:Work>
    </rdf:RDF>
  </metadata>
  <g
     inkscape:groupmode="layer"
     id="layer3"
     inkscape:label="Layer 3"
     style="display:inline"
     sodipodi:insensitive="true">
    <path
       style="fill:url(#linearGradient1095);fill-opacity:1;stroke:#000000;stroke-width:0;stroke-linecap:round;stroke-linejoin:round;stroke-miterlimit:4;stroke-dasharray:none;stroke-opacity:1"
       d="M 2.6458338,0.26458377 V 1.0583328 h 0.793749 z"
       id="path1720"
       inkscape:connector-curvature="0" />
    <path
       style="fill:url(#linearGradient1722);fill-opacity:1;stroke:#000000;stroke-width:0;stroke-linecap:round;stroke-linejoin:round;stroke-miterlimit:4;stroke-dasharray:none;stroke-opacity:1"
       d="M 2.645842,1.0583333 H 3.4395835 V 3.96875 H 0.79375003 V 0.26460554 l -3e-8,1.428e-5 1.8520747,-1.46e-5 c 1.73e-5,0.79372808 1.73e-5,0.79372808 1.73e-5,0.79372808 z"
       id="path1087"
       inkscape:connector-curvature="0" />
  </g>
  <g
     inkscape:groupmode="layer"
     id="layer4"
     inkscape:label="Layer 4"
     style="display:inline"
     sodipodi:insensitive="true">
    <path
       style="display:inline;fill:none;stroke:url(#linearGradient1059);stroke-width:0.24123368;stroke-linecap:round;stroke-linejoin:round;stroke-miterlimit:4;stroke-dasharray:none;stroke-opacity:1"
       d="m 3.3189527,1.2886279 -0.00263,2.5595056 H 0.91436685 V 0.38521222 H 2.5244649"
       id="path1048"
       inkscape:connector-curvature="0"
       sodipodi:nodetypes="ccccc" />
  </g>
  <g
     inkscape:groupmode="layer"
     id="layer2"
     inkscape:label="Layer 2"
     style="display:inline"
     sodipodi:insensitive="true">
    <path
       id="path1001"
       style="display:inline;fill:none;stroke:#bebebe;stroke-width:0.25404942;stroke-linecap:round;stroke-linejoin:round;stroke-miterlimit:4;stroke-dasharray:none;stroke-opacity:1;paint-order:normal"
       d="M 2.50825,0.12831369 3.5758548,1.1959167 M 2.50825,0.12831369 0.65619138,0.12808591 v -9.49e-6 3.97823218 H 3.5758548 V 1.1959167 m 0,-3e-7 H 2.50825 V 0.12831369"
       inkscape:connector-curvature="0" />
  </g>
  <g
     inkscape:label="Layer 1"
     inkscape:groupmode="layer"
     id="layer1"
     transform="translate(0,-292.76665)"
     style="display:inline"
     sodipodi:insensitive="true">
    <g
       id="g978"
       style="display:inline;opacity:0.2;fill:#808080;fill-opacity:1;stroke:none;stroke-width:1.03923047"
       transform="matrix(0.03429784,0,0,0.05291667,-0.07839478,290.59699)">
      <rect
         style="fill:#808080;fill-opacity:1;stroke:none;stroke-width:1.48070288"
         id="rect2801"
         y="116.00149"
         x="103.78947"
         height="4.9999995"
         width="14.210526" />
      <rect
         style="fill:#808080;fill-opacity:1;stroke:none;stroke-width:1.48070288"
         id="rect3696"
         transform="scale(-1)"
         y="-121.00149"
         x="-24.210518"
         height="4.9999995"
         width="14.210526" />
      <rect
         style="fill:#808080;fill-opacity:1;stroke:none;stroke-width:1.48070288"
         id="rect3700"
         y="116.00149"
         x="24.210518"
         height="5"
         width="79.578949" />
    </g>
  </g>
  <g
     inkscape:groupmode="layer"
     id="layer15"
     inkscape:label="Layer 5">
    <g
       transform="matrix(0.05456285,0,0,0.05456285,-0.57851235,-0.44917028)"
       id="g2037">
      <g
         transform="matrix(0.28582678,0,0,0.28582677,24.171941,6.8259516)"
         id="g1847"
         style="display:inline">
        <path
           style="opacity:1;fill:#999999;fill-opacity:1;stroke:none;stroke-width:3.72211695;stroke-linecap:round;stroke-linejoin:round;stroke-miterlimit:4;stroke-dasharray:none;stroke-opacity:1;paint-order:normal"
           d="m 280.23506,790.02224 c 8.98692,-37.11006 -0.10171,-76.09213 -24.89534,-106.77873 -7.96609,-9.85948 -20.63373,-20.85064 -30.67664,-26.61681 -3.65506,-2.09857 -6.64557,-4.05858 -6.64557,-4.35559 0,-0.29701 31.61393,-0.54001 70.25317,-0.54001 h 70.25316 v 74.05063 74.05063 h -40.33225 -40.33225 z"
           id="path1796"
           inkscape:connector-curvature="0"
           transform="scale(0.26458333)" />
        <path
           style="opacity:1;fill:#999999;fill-opacity:1;stroke:none;stroke-width:3.72211695;stroke-linecap:round;stroke-linejoin:round;stroke-miterlimit:4;stroke-dasharray:none;stroke-opacity:1;paint-order:normal"
           d="m 289.5365,914.30064 c -24.74788,-3.78465 -58.61775,-12.76901 -75.63291,-20.06248 l -4.74684,-2.03471 v -8.60932 -8.60933 l 4.74684,-2.24679 c 16.95949,-8.02733 40.56999,-28.95439 49.73102,-44.07886 l 4.3829,-7.236 45.25317,-0.0359 45.25316,-0.0359 v 24.48063 c 0,13.46434 -0.37469,34.8251 -0.83267,47.46835 l -0.83266,22.98773 -27.9648,-0.1226 c -16.73032,-0.0734 -32.54155,-0.82252 -39.35721,-1.86482 z"
           id="path1798"
           inkscape:connector-curvature="0"
           transform="scale(0.26458333)" />
        <path
           style="opacity:1;fill:#999999;fill-opacity:1;stroke:none;stroke-width:3.72211695;stroke-linecap:round;stroke-linejoin:round;stroke-miterlimit:4;stroke-dasharray:none;stroke-opacity:1;paint-order:normal"
           d="m 278.77701,799.13288 c 0,-0.38472 0.99552,-4.79928 2.21227,-9.81012 3.47114,-14.29487 3.10158,-43.8051 -0.72438,-57.84483 -8.05885,-29.57272 -27.63219,-57.12075 -51.80679,-72.91427 l -7.91383,-5.17018 19.93915,-0.82698 c 10.96653,-0.45483 42.01193,-0.82887 68.98978,-0.83119 l 49.05063,-0.004 v 74.05063 74.05063 h -39.87342 c -21.93038,0 -39.87341,-0.31477 -39.87341,-0.69948 z"
           id="path1802"
           inkscape:connector-curvature="0"
           transform="scale(0.26458333)" />
        <path
           style="opacity:1;fill:#999999;fill-opacity:1;stroke:none;stroke-width:3.72211695;stroke-linecap:round;stroke-linejoin:round;stroke-miterlimit:4;stroke-dasharray:none;stroke-opacity:1;paint-order:normal"
           d="m 308.52384,914.94048 c -29.25359,-1.35816 -58.14244,-7.8621 -95.25316,-21.44498 -4.0482,-1.48167 -4.11393,-1.63347 -4.11393,-9.50081 v -7.99507 l 8.21108,-4.5919 c 16.60009,-9.2833 37.56791,-28.49525 46.72826,-42.81519 l 4.63213,-7.24118 h 45.03799 45.038 l -0.80105,39.55696 c -0.44058,21.75633 -1.11862,43.11709 -1.50676,47.46836 l -0.70571,7.91139 -13.50684,-0.20364 c -7.42877,-0.11201 -22.62077,-0.62678 -33.76001,-1.14394 z"
           id="path1804"
           inkscape:connector-curvature="0"
           transform="scale(0.26458333)" />
        <path
           style="opacity:1;fill:#999999;fill-opacity:1;stroke:none;stroke-width:3.72211695;stroke-linecap:round;stroke-linejoin:round;stroke-miterlimit:4;stroke-dasharray:none;stroke-opacity:1;paint-order:normal"
           d="M 378.77701,725.78173 V 651.7311 h 74.68354 74.68354 v 74.05063 74.05063 h -74.68354 -74.68354 z"
           id="path1806"
           inkscape:connector-curvature="0"
           transform="scale(0.26458333)" />
        <path
           style="opacity:1;fill:#999999;fill-opacity:1;stroke:none;stroke-width:3.72211695;stroke-linecap:round;stroke-linejoin:round;stroke-miterlimit:4;stroke-dasharray:none;stroke-opacity:1;paint-order:normal"
           d="m 378.77701,866.92097 v -45.56962 h 74.68354 74.68354 v 11.96843 11.96843 l -9.86612,7.51044 c -30.4336,23.16713 -67.13923,41.89548 -102.03229,52.06004 -14.6379,4.26411 -29.81209,7.6319 -34.38687,7.6319 h -3.0818 z"
           id="path1808"
           inkscape:connector-curvature="0"
           transform="scale(0.26458333)" />
        <path
           style="opacity:1;fill:#999999;fill-opacity:1;stroke:none;stroke-width:3.72211695;stroke-linecap:round;stroke-linejoin:round;stroke-miterlimit:4;stroke-dasharray:none;stroke-opacity:1;paint-order:normal"
           d="M 548.39726,725.83101 V 651.7311 h 36.84324 36.84325 l -0.88951,11.70886 c -1.64543,21.65935 -5.99128,42.58448 -13.47329,64.87342 -5.2423,15.61683 -20.83738,47.10077 -29.78278,60.12658 l -7.38901,10.75949 -11.07595,0.36574 -11.07595,0.36574 z"
           id="path1810"
           inkscape:connector-curvature="0"
           transform="scale(0.26458333)" />
        <path
           style="opacity:1;fill:#999999;fill-opacity:1;stroke:none;stroke-width:3.72211695;stroke-linecap:round;stroke-linejoin:round;stroke-miterlimit:4;stroke-dasharray:none;stroke-opacity:1;paint-order:normal"
           d="m 548.39726,555.47073 v -74.74138 l 8.5443,0.37429 8.54431,0.37429 11.07579,16.4557 c 24.0163,35.68186 38.6727,74.74179 43.92252,117.0554 0.73194,5.89946 1.3308,11.73807 1.3308,12.97469 0,2.10229 -2.38538,2.24839 -36.70886,2.24839 h -36.70886 z"
           id="path1812"
           inkscape:connector-curvature="0"
           transform="scale(0.26458333)" />
        <path
           style="opacity:1;fill:#999999;fill-opacity:1;stroke:none;stroke-width:3.72211695;stroke-linecap:round;stroke-linejoin:round;stroke-miterlimit:4;stroke-dasharray:none;stroke-opacity:1;paint-order:normal"
           d="m 378.77701,555.52857 v -74.68355 h 74.68354 74.68354 v 74.68355 74.68354 h -74.68354 -74.68354 z"
           id="path1814"
           inkscape:connector-curvature="0"
           transform="scale(0.26458333)" />
        <path
           style="opacity:1;fill:#999999;fill-opacity:1;stroke:none;stroke-width:3.72211695;stroke-linecap:round;stroke-linejoin:round;stroke-miterlimit:4;stroke-dasharray:none;stroke-opacity:1;paint-order:normal"
           d="m 378.77701,417.49652 v -43.09533 l 4.74683,0.80661 c 11.14943,1.89456 37.11238,8.69482 48.93257,12.8165 27.77482,9.68504 64.53731,30.09858 88.4092,49.09201 l 7.27848,5.79105 v 8.84225 8.84225 h -74.68354 -74.68354 z"
           id="path1816"
           inkscape:connector-curvature="0"
           transform="scale(0.26458333)" />
        <path
           style="opacity:1;fill:#999999;fill-opacity:1;stroke:none;stroke-width:3.72211695;stroke-linecap:round;stroke-linejoin:round;stroke-miterlimit:4;stroke-dasharray:none;stroke-opacity:1;paint-order:normal"
           d="m 209.15675,427.93561 v -32.65625 l 14.53371,-5.29526 c 34.02894,-12.39822 62.53755,-17.88701 98.21729,-18.9099 13.62698,-0.39066 27.44027,-0.31082 30.69621,0.17744 l 5.91988,0.88774 v 44.22624 44.22624 H 283.8403 209.15675 Z"
           id="path1818"
           inkscape:connector-curvature="0"
           transform="scale(0.26458333)" />
        <path
           style="opacity:1;fill:#999999;fill-opacity:1;stroke:none;stroke-width:3.72211695;stroke-linecap:round;stroke-linejoin:round;stroke-miterlimit:4;stroke-dasharray:none;stroke-opacity:1;paint-order:normal"
           d="m 150.60932,459.64332 -35.12971,-0.35734 8.54743,-7.78038 c 17.21061,-15.66611 38.99826,-31.71031 56.33224,-41.48249 l 7.27849,-4.1033 v 27.33602 c 0,15.03482 -0.42722,27.20301 -0.94937,27.04043 -0.52215,-0.16258 -16.75774,-0.4564 -36.07908,-0.65294 z"
           id="path1820"
           inkscape:connector-curvature="0"
           transform="scale(0.26458333)" />
        <path
           style="opacity:1;fill:#999999;fill-opacity:1;stroke:none;stroke-width:3.72211695;stroke-linecap:round;stroke-linejoin:round;stroke-miterlimit:4;stroke-dasharray:none;stroke-opacity:1;paint-order:normal"
           d="m 63.333984,536.25781 v 93.95508 h 50.128906 74.17578 V 555.5293 480.8457 H 142.1875 96.738281 l -6.298828,8.54297 C 79.990077,503.56149 70.881685,519.3927 63.333984,536.25781 Z"
           transform="scale(0.26458333)"
           id="path1822"
           inkscape:connector-curvature="0" />
      </g>
      <path
         inkscape:connector-curvature="0"
         id="path1124"
         d="m 35.712199,55.724102 c -5.528508,0.195814 -9.637837,6.412102 -7.612462,11.567485 1.64908,5.404259 8.990196,7.667704 13.396617,4.129888 4.671021,-3.174146 4.662265,-10.849527 -0.01516,-14.014194 -1.638218,-1.230194 -3.729215,-1.817608 -5.769002,-1.683179 z"
         style="display:inline;opacity:1;fill:#0000ff;fill-opacity:1;stroke:none;stroke-width:0.22263348;stroke-linecap:round;stroke-linejoin:round;stroke-miterlimit:4;stroke-dasharray:none;stroke-opacity:1;paint-order:normal" />
    </g>
  </g>
</svg>
