<?xml version="1.0" encoding="UTF-8" standalone="no"?>
<!-- Created with Inkscape (http://www.inkscape.org/) -->

<svg
   xmlns:dc="http://purl.org/dc/elements/1.1/"
   xmlns:cc="http://creativecommons.org/ns#"
   xmlns:rdf="http://www.w3.org/1999/02/22-rdf-syntax-ns#"
   xmlns:svg="http://www.w3.org/2000/svg"
   xmlns="http://www.w3.org/2000/svg"
   xmlns:xlink="http://www.w3.org/1999/xlink"
   xmlns:sodipodi="http://sodipodi.sourceforge.net/DTD/sodipodi-0.dtd"
   xmlns:inkscape="http://www.inkscape.org/namespaces/inkscape"
   width="16"
   height="16"
   viewBox="0 0 4.2333332 4.2333335"
   version="1.1"
   id="svg384"
   enable-background="new"
   inkscape:version="0.92.3 (2405546, 2018-03-11)"
   sodipodi:docname="text16-tex.svg">
  <defs
     id="defs378">
    <radialGradient
       gradientTransform="matrix(5.6949649,0,0,0.99999992,75.334676,75.001496)"
       gradientUnits="userSpaceOnUse"
       xlink:href="#linearGradient3688-464-309-255"
       id="radialGradient4093"
       fy="43.5"
       fx="4.9929786"
       r="2.5"
       cy="43.5"
       cx="4.9929786" />
    <linearGradient
       id="linearGradient3688-464-309-255">
      <stop
         id="stop3094"
         style="stop-color:#181818;stop-opacity:1"
         offset="0" />
      <stop
         id="stop3096"
         style="stop-color:#181818;stop-opacity:0"
         offset="1" />
    </linearGradient>
    <radialGradient
       gradientTransform="matrix(5.6949649,0,0,0.99999992,-52.665305,-162.00149)"
       gradientUnits="userSpaceOnUse"
       xlink:href="#linearGradient3688-464-309-255"
       id="radialGradient4095"
       fy="43.5"
       fx="4.9929786"
       r="2.5"
       cy="43.5"
       cx="4.9929786" />
    <linearGradient
       gradientUnits="userSpaceOnUse"
       xlink:href="#linearGradient3702-501-757-486"
       id="linearGradient4097"
       y2="39.999443"
       x2="25.058096"
       y1="47.027729"
       x1="25.058096"
       gradientTransform="matrix(2.8421052,0,0,0.71428566,-4.2105336,87.430066)" />
    <linearGradient
       id="linearGradient3702-501-757-486">
      <stop
         id="stop3100"
         style="stop-color:#181818;stop-opacity:0"
         offset="0" />
      <stop
         id="stop3102"
         style="stop-color:#181818;stop-opacity:1"
         offset="0.5" />
      <stop
         id="stop3104"
         style="stop-color:#181818;stop-opacity:0"
         offset="1" />
    </linearGradient>
    <linearGradient
       x1="25.132275"
       y1="0.98520643"
       x2="25.132275"
       y2="47.013336"
       id="linearGradient3019-2-2"
       xlink:href="#linearGradient3600"
       gradientUnits="userSpaceOnUse"
       gradientTransform="matrix(0.07559507,0,0,0.08048497,0.30238504,0.06158085)" />
    <linearGradient
       id="linearGradient3600">
      <stop
         id="stop3602"
         style="stop-color:#f4f4f4;stop-opacity:1"
         offset="0" />
      <stop
         id="stop3604"
         style="stop-color:#dbdbdb;stop-opacity:1"
         offset="1" />
    </linearGradient>
    <linearGradient
       inkscape:collect="always"
       xlink:href="#linearGradient3600"
       id="linearGradient1095"
       x1="81"
       y1="16.8125"
       x2="109.375"
       y2="16.8125"
       gradientUnits="userSpaceOnUse"
       gradientTransform="matrix(0.02797354,0,0,0.02797354,0.37997731,0.19115322)" />
    <linearGradient
       gradientTransform="matrix(0.02639506,0,0,0.03011393,0.42605513,0.30987934)"
       inkscape:collect="always"
       xlink:href="#linearGradient3977-3"
       id="linearGradient1059"
       x1="18"
       y1="59.999973"
       x2="110.10006"
       y2="59.999973"
       gradientUnits="userSpaceOnUse" />
    <linearGradient
       id="linearGradient3977-3">
      <stop
         id="stop3979-6"
         style="stop-color:#ffffff;stop-opacity:1"
         offset="0" />
      <stop
         id="stop3981-0"
         style="stop-color:#ffffff;stop-opacity:0.23529412"
         offset="0.00648027" />
      <stop
         id="stop3983-6"
         style="stop-color:#ffffff;stop-opacity:0.15686275"
         offset="0.99423188" />
      <stop
         id="stop3985-2"
         style="stop-color:#ffffff;stop-opacity:0.39215687"
         offset="1" />
    </linearGradient>
    <linearGradient
       inkscape:collect="always"
       xlink:href="#linearGradient3600"
       id="linearGradient1722"
       gradientUnits="userSpaceOnUse"
       gradientTransform="matrix(0.02797354,0,0,0.02797354,0.37997731,0.19115322)"
       x1="81"
       y1="77.06472"
       x2="81"
       y2="190.75049" />
  </defs>
  <sodipodi:namedview
     id="base"
     pagecolor="#ffffff"
     bordercolor="#666666"
     borderopacity="1.0"
     inkscape:pageopacity="0.0"
     inkscape:pageshadow="2"
     inkscape:zoom="26.24"
     inkscape:cx="8.2385486"
     inkscape:cy="7.42874"
     inkscape:document-units="px"
     inkscape:current-layer="layer25"
     showgrid="true"
     units="px"
     inkscape:window-width="902"
     inkscape:window-height="650"
     inkscape:window-x="539"
     inkscape:window-y="221"
     inkscape:window-maximized="0" />
  <metadata
     id="metadata381">
    <rdf:RDF>
      <cc:Work
         rdf:about="">
        <dc:format>image/svg+xml</dc:format>
        <dc:type
           rdf:resource="http://purl.org/dc/dcmitype/StillImage" />
        <dc:title />
      </cc:Work>
    </rdf:RDF>
  </metadata>
  <g
     inkscape:groupmode="layer"
     id="layer3"
     inkscape:label="Layer 3"
     style="display:inline"
     sodipodi:insensitive="true">
    <path
       style="fill:url(#linearGradient1095);fill-opacity:1;stroke:#000000;stroke-width:0;stroke-linecap:round;stroke-linejoin:round;stroke-miterlimit:4;stroke-dasharray:none;stroke-opacity:1"
       d="M 2.6458338,0.26458377 V 1.0583328 h 0.793749 z"
       id="path1720"
       inkscape:connector-curvature="0" />
    <path
       style="fill:url(#linearGradient1722);fill-opacity:1;stroke:#000000;stroke-width:0;stroke-linecap:round;stroke-linejoin:round;stroke-miterlimit:4;stroke-dasharray:none;stroke-opacity:1"
       d="M 2.645842,1.0583333 H 3.4395835 V 3.96875 H 0.79375003 V 0.26460554 l -3e-8,1.428e-5 1.8520747,-1.46e-5 c 1.73e-5,0.79372808 1.73e-5,0.79372808 1.73e-5,0.79372808 z"
       id="path1087"
       inkscape:connector-curvature="0" />
  </g>
  <g
     inkscape:groupmode="layer"
     id="layer4"
     inkscape:label="Layer 4"
     style="display:inline"
     sodipodi:insensitive="true">
    <path
       style="display:inline;fill:none;stroke:url(#linearGradient1059);stroke-width:0.24123368;stroke-linecap:round;stroke-linejoin:round;stroke-miterlimit:4;stroke-dasharray:none;stroke-opacity:1"
       d="m 3.3189527,1.2886279 -0.00263,2.5595056 H 0.91436685 V 0.38521222 H 2.5244649"
       id="path1048"
       inkscape:connector-curvature="0"
       sodipodi:nodetypes="ccccc" />
  </g>
  <g
     inkscape:groupmode="layer"
     id="layer2"
     inkscape:label="Layer 2"
     style="display:inline"
     sodipodi:insensitive="true">
    <path
       id="path1001"
       style="display:inline;fill:none;stroke:#bebebe;stroke-width:0.25404942;stroke-linecap:round;stroke-linejoin:round;stroke-miterlimit:4;stroke-dasharray:none;stroke-opacity:1;paint-order:normal"
       d="M 2.50825,0.12831369 3.5758548,1.1959167 M 2.50825,0.12831369 0.65619138,0.12808591 v -9.49e-6 3.97823218 H 3.5758548 V 1.1959167 m 0,-3e-7 H 2.50825 V 0.12831369"
       inkscape:connector-curvature="0" />
  </g>
  <g
     inkscape:label="Layer 1"
     inkscape:groupmode="layer"
     id="layer1"
     transform="translate(0,-292.76665)"
     style="display:inline"
     sodipodi:insensitive="true">
    <g
       id="g978"
       style="display:inline;opacity:0.2;fill:#808080;fill-opacity:1;stroke:none;stroke-width:1.03923047"
       transform="matrix(0.03429784,0,0,0.05291667,-0.07839478,290.59699)">
      <rect
         style="fill:#808080;fill-opacity:1;stroke:none;stroke-width:1.48070288"
         id="rect2801"
         y="116.00149"
         x="103.78947"
         height="4.9999995"
         width="14.210526" />
      <rect
         style="fill:#808080;fill-opacity:1;stroke:none;stroke-width:1.48070288"
         id="rect3696"
         transform="scale(-1)"
         y="-121.00149"
         x="-24.210518"
         height="4.9999995"
         width="14.210526" />
      <rect
         style="fill:#808080;fill-opacity:1;stroke:none;stroke-width:1.48070288"
         id="rect3700"
         y="116.00149"
         x="24.210518"
         height="5"
         width="79.578949" />
    </g>
  </g>
  <g
     inkscape:groupmode="layer"
     id="layer25"
     inkscape:label="Layer 5">
    <g
       id="g2197"
       transform="matrix(0.03464949,0,0,0.04170344,-0.11448055,-0.24758042)">
      <g
         aria-label="T"
         transform="translate(4.7389323,-1.68395)"
         style="font-style:normal;font-variant:normal;font-weight:normal;font-stretch:normal;font-size:37.33333206px;line-height:1.25;font-family:Nakula;-inkscape-font-specification:Nakula;font-variant-ligatures:normal;font-variant-caps:normal;font-variant-numeric:normal;font-feature-settings:normal;text-align:start;letter-spacing:0px;word-spacing:0px;writing-mode:lr-tb;text-anchor:start;fill:#000000;fill-opacity:1;stroke:none"
         id="flowRoot2088">
        <path
           d="m 48.396484,53.617544 0.273438,6.660156 h -0.722656 q -0.253907,-1.269531 -0.683594,-2.246094 -0.410156,-0.976562 -1.09375,-1.640625 -0.664063,-0.683594 -1.660156,-1.035156 -0.976563,-0.351563 -2.34375,-0.351563 h -3.066407 v 22.207032 q 0,1.132812 0.214844,1.855468 0.214844,0.722657 0.683594,1.152344 0.488281,0.410156 1.25,0.585938 0.78125,0.15625 1.875,0.15625 V 81.68395 H 30.837891 v -0.722656 q 1.09375,0 1.855468,-0.15625 0.78125,-0.175782 1.25,-0.585938 0.488282,-0.429687 0.703125,-1.152344 0.214844,-0.722656 0.214844,-1.855468 V 55.004262 h -3.066406 q -1.386719,0 -2.363281,0.351563 -0.976563,0.351562 -1.660157,1.035156 -0.664062,0.664063 -1.09375,1.640625 -0.410156,0.976563 -0.664062,2.246094 h -0.722656 l 0.273437,-6.660156 z"
           style="font-style:normal;font-variant:normal;font-weight:normal;font-stretch:normal;font-size:40px;font-family:'Khmer Busra';-inkscape-font-specification:'Khmer Busra'"
           id="path2199"
           inkscape:connector-curvature="0" />
      </g>
      <g
         aria-label="X"
         transform="translate(-4.0058594,-1.7438273)"
         style="font-style:normal;font-variant:normal;font-weight:normal;font-stretch:normal;font-size:37.33333206px;line-height:1.25;font-family:'Khmer Busra';-inkscape-font-specification:'Khmer Busra';font-variant-ligatures:normal;font-variant-caps:normal;font-variant-numeric:normal;font-feature-settings:normal;text-align:start;letter-spacing:0px;word-spacing:0px;writing-mode:lr-tb;text-anchor:start;fill:#000000;fill-opacity:1;stroke:none"
         id="flowRoot2096">
        <path
           d="m 81.490234,77.075859 q -0.566406,0.546875 -0.878906,1.132812 -0.292969,0.566406 -0.292969,1.074219 0,0.742187 0.625,1.25 0.625,0.488281 1.953125,0.488281 v 0.722656 H 72.505859 v -0.722656 q 0.839844,0 1.757813,-0.3125 0.9375,-0.3125 1.796875,-0.820312 0.878906,-0.507813 1.640625,-1.171875 0.78125,-0.664063 1.308594,-1.367188 l 7.304687,-9.570312 -6.855469,-9.941407 q -0.527343,-0.78125 -1.152343,-1.40625 -0.625,-0.644531 -1.367188,-1.09375 -0.722656,-0.449218 -1.582031,-0.683593 -0.839844,-0.253907 -1.835938,-0.253907 v -0.722656 h 13.164063 v 0.722656 q -2.988281,0 -2.988281,1.601563 0,0.839844 0.800781,1.992187 l 4.453125,6.484375 5.117187,-6.484375 q 0.507813,-0.644531 0.78125,-1.191406 0.273438,-0.566406 0.273438,-1.015625 0,-0.644531 -0.683594,-1.015625 -0.664062,-0.371094 -2.1875,-0.371094 v -0.722656 h 9.863277 v 0.800781 h -0.27343 q -0.74219,0 -1.40625,0.175782 -0.644534,0.15625 -1.250003,0.527343 -0.605469,0.371094 -1.210938,0.957032 -0.605468,0.566406 -1.269531,1.40625 l -6.816406,8.632812 8.105469,11.386719 q 0.488281,0.703125 0.957031,1.328125 0.488281,0.625 1.035156,1.113281 0.546872,0.46875 1.210942,0.742188 0.68359,0.273437 1.5625,0.273437 v 0.722656 H 90.630859 v -0.722656 q 1.445313,0 2.109375,-0.410156 0.664063,-0.410156 0.664063,-1.152344 0,-0.898437 -0.878906,-2.1875 l -5.195313,-7.792969 z"
           style="font-size:40px"
           id="path2202"
           inkscape:connector-curvature="0" />
      </g>
      <g
         aria-label="E"
         style="font-style:normal;font-variant:normal;font-weight:normal;font-stretch:normal;font-size:24px;line-height:1.25;font-family:Nakula;-inkscape-font-specification:Nakula;font-variant-ligatures:normal;font-variant-caps:normal;font-variant-numeric:normal;font-feature-settings:normal;text-align:start;letter-spacing:0px;word-spacing:0px;writing-mode:lr-tb;text-anchor:start;fill:#000000;fill-opacity:1;stroke:none"
         id="text2114">
        <path
           d="m 68.125003,63.804686 0.346354,6.216146 h -0.747396 q -0.236979,-1.184896 -0.619792,-2.096354 -0.382812,-0.911459 -1.020833,-1.53125 -0.619792,-0.638021 -1.53125,-0.966146 -0.911459,-0.328125 -2.223959,-0.328125 h -6.617188 v 9.971354 h 5.669272 q 0.820312,0 1.53125,-0.182291 0.729166,-0.182292 1.257812,-0.583334 0.546875,-0.41927 0.856771,-1.057291 0.309896,-0.65625 0.309896,-1.604167 h 0.674479 v 8.877605 H 65.33594 q 0,-1.166667 -0.309896,-1.96875 -0.309896,-0.802084 -0.856771,-1.294271 -0.528646,-0.492188 -1.239583,-0.692709 -0.710938,-0.21875 -1.494792,-0.21875 h -5.723959 v 10.718751 q 0.05469,0.674479 0.473959,1.166667 0.419271,0.473958 1.111979,0.473958 h 5.450521 q 1.385417,0 2.497396,-0.473958 1.111979,-0.492188 1.96875,-1.3125 0.856771,-0.820313 1.476563,-1.914063 0.619792,-1.111979 1.002604,-2.369792 h 0.947917 L 68.252607,90 H 48.000001 v -0.674479 q 1.020834,0 1.731771,-0.145834 0.729167,-0.164062 1.166667,-0.546875 0.455729,-0.401041 0.65625,-1.07552 0.200521,-0.67448 0.200521,-1.731771 V 67.960936 q 0,-1.039063 -0.200521,-1.713542 -0.200521,-0.674479 -0.65625,-1.057292 -0.4375,-0.401041 -1.166667,-0.546875 -0.710937,-0.164062 -1.731771,-0.164062 v -0.674479 z"
           style="font-style:normal;font-variant:normal;font-weight:normal;font-stretch:normal;font-size:37.33333588px;font-family:'Khmer Busra';-inkscape-font-specification:'Khmer Busra'"
           id="path2205"
           inkscape:connector-curvature="0" />
      </g>
    </g>
  </g>
</svg>
