<?xml version="1.0" encoding="UTF-8" standalone="no"?>
<!-- Created with Inkscape (http://www.inkscape.org/) -->

<svg
   xmlns:dc="http://purl.org/dc/elements/1.1/"
   xmlns:cc="http://creativecommons.org/ns#"
   xmlns:rdf="http://www.w3.org/1999/02/22-rdf-syntax-ns#"
   xmlns:svg="http://www.w3.org/2000/svg"
   xmlns="http://www.w3.org/2000/svg"
   xmlns:xlink="http://www.w3.org/1999/xlink"
   xmlns:sodipodi="http://sodipodi.sourceforge.net/DTD/sodipodi-0.dtd"
   xmlns:inkscape="http://www.inkscape.org/namespaces/inkscape"
   width="16"
   height="16"
   viewBox="0 0 4.2333332 4.2333335"
   version="1.1"
   id="svg384"
   enable-background="new"
   inkscape:version="0.92.3 (2405546, 2018-03-11)"
   sodipodi:docname="text-x-gsp.svg">
  <defs
     id="defs378">
    <radialGradient
       gradientTransform="matrix(5.6949649,0,0,0.99999992,75.334676,75.001496)"
       gradientUnits="userSpaceOnUse"
       xlink:href="#linearGradient3688-464-309-255"
       id="radialGradient4093"
       fy="43.5"
       fx="4.9929786"
       r="2.5"
       cy="43.5"
       cx="4.9929786" />
    <linearGradient
       id="linearGradient3688-464-309-255">
      <stop
         id="stop3094"
         style="stop-color:#181818;stop-opacity:1"
         offset="0" />
      <stop
         id="stop3096"
         style="stop-color:#181818;stop-opacity:0"
         offset="1" />
    </linearGradient>
    <radialGradient
       gradientTransform="matrix(5.6949649,0,0,0.99999992,-52.665305,-162.00149)"
       gradientUnits="userSpaceOnUse"
       xlink:href="#linearGradient3688-464-309-255"
       id="radialGradient4095"
       fy="43.5"
       fx="4.9929786"
       r="2.5"
       cy="43.5"
       cx="4.9929786" />
    <linearGradient
       gradientUnits="userSpaceOnUse"
       xlink:href="#linearGradient3702-501-757-486"
       id="linearGradient4097"
       y2="39.999443"
       x2="25.058096"
       y1="47.027729"
       x1="25.058096"
       gradientTransform="matrix(2.8421052,0,0,0.71428566,-4.2105336,87.430066)" />
    <linearGradient
       id="linearGradient3702-501-757-486">
      <stop
         id="stop3100"
         style="stop-color:#181818;stop-opacity:0"
         offset="0" />
      <stop
         id="stop3102"
         style="stop-color:#181818;stop-opacity:1"
         offset="0.5" />
      <stop
         id="stop3104"
         style="stop-color:#181818;stop-opacity:0"
         offset="1" />
    </linearGradient>
    <linearGradient
       x1="25.132275"
       y1="0.98520643"
       x2="25.132275"
       y2="47.013336"
       id="linearGradient3019-2-2"
       xlink:href="#linearGradient3600"
       gradientUnits="userSpaceOnUse"
       gradientTransform="matrix(0.07559507,0,0,0.08048497,0.30238504,0.06158085)" />
    <linearGradient
       id="linearGradient3600">
      <stop
         id="stop3602"
         style="stop-color:#f4f4f4;stop-opacity:1"
         offset="0" />
      <stop
         id="stop3604"
         style="stop-color:#dbdbdb;stop-opacity:1"
         offset="1" />
    </linearGradient>
    <linearGradient
       inkscape:collect="always"
       xlink:href="#linearGradient3600"
       id="linearGradient1095"
       x1="81"
       y1="16.8125"
       x2="109.375"
       y2="16.8125"
       gradientUnits="userSpaceOnUse"
       gradientTransform="matrix(0.02797354,0,0,0.02797354,0.37997731,0.19115322)" />
    <linearGradient
       gradientTransform="matrix(0.02639506,0,0,0.03011393,0.42605513,0.30987934)"
       inkscape:collect="always"
       xlink:href="#linearGradient3977-3"
       id="linearGradient1059"
       x1="18"
       y1="59.999973"
       x2="110.10006"
       y2="59.999973"
       gradientUnits="userSpaceOnUse" />
    <linearGradient
       id="linearGradient3977-3">
      <stop
         id="stop3979-6"
         style="stop-color:#ffffff;stop-opacity:1"
         offset="0" />
      <stop
         id="stop3981-0"
         style="stop-color:#ffffff;stop-opacity:0.23529412"
         offset="0.00648027" />
      <stop
         id="stop3983-6"
         style="stop-color:#ffffff;stop-opacity:0.15686275"
         offset="0.99423188" />
      <stop
         id="stop3985-2"
         style="stop-color:#ffffff;stop-opacity:0.39215687"
         offset="1" />
    </linearGradient>
    <linearGradient
       inkscape:collect="always"
       xlink:href="#linearGradient3600"
       id="linearGradient1722"
       gradientUnits="userSpaceOnUse"
       gradientTransform="matrix(0.02797354,0,0,0.02797354,0.37997731,0.19115322)"
       x1="81"
       y1="77.06472"
       x2="81"
       y2="190.75049" />
  </defs>
  <sodipodi:namedview
     id="base"
     pagecolor="#ffffff"
     bordercolor="#666666"
     borderopacity="1.0"
     inkscape:pageopacity="0.0"
     inkscape:pageshadow="2"
     inkscape:zoom="39.76"
     inkscape:cx="6.8670992"
     inkscape:cy="7.42874"
     inkscape:document-units="px"
     inkscape:current-layer="layer6"
     showgrid="true"
     units="px"
     inkscape:window-width="902"
     inkscape:window-height="650"
     inkscape:window-x="168"
     inkscape:window-y="218"
     inkscape:window-maximized="0" />
  <metadata
     id="metadata381">
    <rdf:RDF>
      <cc:Work
         rdf:about="">
        <dc:format>image/svg+xml</dc:format>
        <dc:type
           rdf:resource="http://purl.org/dc/dcmitype/StillImage" />
        <dc:title />
      </cc:Work>
    </rdf:RDF>
  </metadata>
  <g
     inkscape:groupmode="layer"
     id="layer3"
     inkscape:label="Layer 3"
     style="display:inline"
     sodipodi:insensitive="true">
    <path
       style="fill:url(#linearGradient1095);fill-opacity:1;stroke:#000000;stroke-width:0;stroke-linecap:round;stroke-linejoin:round;stroke-miterlimit:4;stroke-dasharray:none;stroke-opacity:1"
       d="M 2.6458338,0.26458377 V 1.0583328 h 0.793749 z"
       id="path1720"
       inkscape:connector-curvature="0" />
    <path
       style="fill:url(#linearGradient1722);fill-opacity:1;stroke:#000000;stroke-width:0;stroke-linecap:round;stroke-linejoin:round;stroke-miterlimit:4;stroke-dasharray:none;stroke-opacity:1"
       d="M 2.645842,1.0583333 H 3.4395835 V 3.96875 H 0.79375003 V 0.26460554 l -3e-8,1.428e-5 1.8520747,-1.46e-5 c 1.73e-5,0.79372808 1.73e-5,0.79372808 1.73e-5,0.79372808 z"
       id="path1087"
       inkscape:connector-curvature="0" />
  </g>
  <g
     inkscape:groupmode="layer"
     id="layer4"
     inkscape:label="Layer 4"
     style="display:inline"
     sodipodi:insensitive="true">
    <path
       style="display:inline;fill:none;stroke:url(#linearGradient1059);stroke-width:0.24123368;stroke-linecap:round;stroke-linejoin:round;stroke-miterlimit:4;stroke-dasharray:none;stroke-opacity:1"
       d="m 3.3189527,1.2886279 -0.00263,2.5595056 H 0.91436685 V 0.38521222 H 2.5244649"
       id="path1048"
       inkscape:connector-curvature="0"
       sodipodi:nodetypes="ccccc" />
  </g>
  <g
     inkscape:groupmode="layer"
     id="layer2"
     inkscape:label="Layer 2"
     style="display:inline"
     sodipodi:insensitive="true">
    <path
       id="path1001"
       style="display:inline;fill:none;stroke:#bebebe;stroke-width:0.25404942;stroke-linecap:round;stroke-linejoin:round;stroke-miterlimit:4;stroke-dasharray:none;stroke-opacity:1;paint-order:normal"
       d="M 2.50825,0.12831369 3.5758548,1.1959167 M 2.50825,0.12831369 0.65619138,0.12808591 v -9.49e-6 3.97823218 H 3.5758548 V 1.1959167 m 0,-3e-7 H 2.50825 V 0.12831369"
       inkscape:connector-curvature="0" />
  </g>
  <g
     inkscape:label="Layer 1"
     inkscape:groupmode="layer"
     id="layer1"
     transform="translate(0,-292.76665)"
     style="display:inline"
     sodipodi:insensitive="true">
    <g
       id="g978"
       style="display:inline;opacity:0.2;fill:#808080;fill-opacity:1;stroke:none;stroke-width:1.03923047"
       transform="matrix(0.03429784,0,0,0.05291667,-0.07839478,290.59699)">
      <rect
         style="fill:#808080;fill-opacity:1;stroke:none;stroke-width:1.48070288"
         id="rect2801"
         y="116.00149"
         x="103.78947"
         height="4.9999995"
         width="14.210526" />
      <rect
         style="fill:#808080;fill-opacity:1;stroke:none;stroke-width:1.48070288"
         id="rect3696"
         transform="scale(-1)"
         y="-121.00149"
         x="-24.210518"
         height="4.9999995"
         width="14.210526" />
      <rect
         style="fill:#808080;fill-opacity:1;stroke:none;stroke-width:1.48070288"
         id="rect3700"
         y="116.00149"
         x="24.210518"
         height="5"
         width="79.578949" />
    </g>
  </g>
  <g
     inkscape:groupmode="layer"
     id="layer6"
     inkscape:label="Layer 5">
    <g
       id="g934"
       transform="matrix(1.2369168,0,0,1.2369168,-0.50028737,-0.82433522)">
      <path
         transform="scale(0.26458333)"
         inkscape:connector-curvature="0"
         id="path913"
         d="M 7.6451608,13.006769 C 7.562657,12.993801 7.4399566,12.964858 7.3724933,12.94245 7.2434246,12.89958 7.0783668,12.773896 7.0783668,12.718486 c 0,-0.01797 0.0845,-0.229009 0.1877783,-0.468974 0.216128,-0.50217 0.2751286,-0.760013 0.2608985,-1.140171 -0.00738,-0.197143 -0.019735,-0.250769 -0.091201,-0.39582 C 7.3241267,10.486774 7.1804063,10.365064 6.8272208,10.198108 6.4605042,10.024756 6.2851483,9.9064777 6.0387495,9.66628 5.674376,9.3110769 5.4918917,9.0279209 5.3820101,8.6472355 5.3465573,8.5244093 5.310446,8.3474735 5.3017628,8.2540447 L 5.285975,8.0841743 5.9253394,8.0657325 c 0.7556966,-0.021797 4.6996376,-0.0065 4.7391666,0.018381 0.01884,0.01186 0.02046,0.070045 0.0052,0.1880258 -0.06912,0.5351863 -0.280027,0.9512766 -0.6866034,1.3546052 -0.2477228,0.2457441 -0.5453328,0.4463325 -0.8739268,0.5890255 -0.294789,0.128012 -0.4532963,0.266624 -0.5756298,0.503377 -0.083893,0.162359 -0.08445,0.165725 -0.081105,0.490443 0.00419,0.406777 0.045389,0.570933 0.2706642,1.078444 0.09136,0.205821 0.1661089,0.393279 0.1661089,0.416573 0,0.05057 -0.1087739,0.157071 -0.2137827,0.209315 -0.1827356,0.09091 -0.7292439,0.140163 -1.0302885,0.09285 z"
         style="opacity:1;fill:#feb672;fill-opacity:1;stroke:#4d4d4d;stroke-width:0.00754527;stroke-linecap:square;stroke-linejoin:miter;stroke-miterlimit:4;stroke-dasharray:none;stroke-opacity:1;paint-order:normal" />
      <path
         transform="scale(0.26458333)"
         inkscape:connector-curvature="0"
         id="path915"
         d="m 5.7019847,12.103178 c -0.09765,-0.0232 -0.2056307,-0.09072 -0.2247454,-0.140533 -0.00765,-0.01995 0.037305,-0.153228 0.099911,-0.29618 0.062605,-0.142952 0.1260658,-0.326114 0.1410233,-0.407027 C 5.8043104,10.793479 5.697707,10.578425 5.2819528,10.379437 4.9652061,10.227836 4.6880221,9.9800423 4.526082,9.7037125 4.4622593,9.5948074 4.362069,9.2524035 4.362069,9.1431925 v -0.058854 h 0.5018412 0.5018412 l 0.051359,0.1161043 c 0.1792588,0.4052443 0.6332396,0.8087092 1.1617994,1.0325232 0.1225387,0.05189 0.2227976,0.102966 0.2227976,0.113506 0,0.01054 -0.057016,0.04369 -0.1267021,0.07367 -0.145017,0.06238 -0.3085704,0.232819 -0.353206,0.368066 -0.040492,0.122691 -0.015925,0.462407 0.045932,0.635165 0.027241,0.07608 0.087157,0.225708 0.1331455,0.332505 0.081698,0.189723 0.082551,0.195352 0.037193,0.245472 -0.072152,0.07973 -0.2716553,0.126555 -0.5268929,0.123674 -0.1254446,-0.0014 -0.2645807,-0.01125 -0.3091915,-0.02185 z"
         style="opacity:1;fill:#feb672;fill-opacity:1;stroke:#4d4d4d;stroke-width:0.00754527;stroke-linecap:square;stroke-linejoin:miter;stroke-miterlimit:4;stroke-dasharray:none;stroke-opacity:1;paint-order:normal" />
      <path
         transform="scale(0.26458333)"
         inkscape:connector-curvature="0"
         id="path917"
         d="M 9.6166803,12.08863 C 9.5533713,12.06912 9.480973,12.0304 9.4557949,12.00258 c -0.044572,-0.04925 -0.042927,-0.05706 0.062376,-0.296033 0.1412587,-0.320576 0.1752297,-0.454989 0.1755916,-0.694762 4.633e-4,-0.307053 -0.1079649,-0.468962 -0.4084037,-0.609842 -0.051874,-0.02432 -0.094316,-0.05191 -0.094316,-0.0613 0,-0.0094 0.05376,-0.03725 0.1194668,-0.0619 0.535368,-0.200888 1.0203174,-0.5973631 1.2298194,-1.0054514 l 0.09689,-0.1887334 0.49673,-1.079e-4 0.496731,-1.078e-4 v 0.07811 c 0,0.1262672 -0.07367,0.3757265 -0.158915,0.5380872 -0.04683,0.089188 -0.158157,0.2294996 -0.272218,0.3430763 -0.158953,0.158277 -0.241004,0.216132 -0.465226,0.328034 -0.42078,0.209998 -0.517256,0.371088 -0.467123,0.779978 0.02079,0.169565 0.05485,0.282567 0.151624,0.503018 l 0.124812,0.284324 -0.06351,0.06781 c -0.03993,0.04264 -0.109383,0.07765 -0.187092,0.09432 -0.171686,0.03682 -0.5383221,0.03006 -0.6763548,-0.01246 z"
         style="opacity:1;fill:#feb672;fill-opacity:1;stroke:#4d4d4d;stroke-width:0.00754527;stroke-linecap:square;stroke-linejoin:miter;stroke-miterlimit:4;stroke-dasharray:none;stroke-opacity:1;paint-order:normal" />
    </g>
  </g>
</svg>
